M48
;DRILL file {KiCad 4.0.7-e2-6376~58~ubuntu14.04.1} date Wed Aug  8 16:14:40 2018
;FORMAT={-:-/ absolute / metric / decimal}
FMAT,2
METRIC,TZ
T1C0.400
T2C3.000
%
G90
G05
M71
T1
X156.Y-63.1
X156.6Y-67.2
X159.2Y-64.8
X160.4Y-75.
X174.45Y-63.95
X176.3Y-62.4
X177.2Y-62.45
X177.429Y-64.851
X177.6Y-71.6
X181.25Y-62.4
X181.7Y-63.9
X182.05Y-63.
X184.25Y-78.
X185.15Y-68.6
X185.4Y-64.15
X186.Y-68.55
X186.25Y-72.8
X186.85Y-68.55
X186.95Y-70.6
X187.35Y-72.75
X189.05Y-70.7
X189.65Y-74.4
X189.85Y-65.
X190.25Y-70.7
X190.45Y-72.1
X190.6Y-78.4
X190.95Y-74.45
X191.95Y-70.5
X192.7Y-62.65
X193.1Y-65.7
X194.45Y-65.
X194.8Y-69.4
X195.3Y-70.
X196.1Y-70.1
X196.6Y-65.9
X199.3Y-70.6
X200.05Y-76.
T2
X167.5Y-65.25
T0
M30
