G04 #@! TF.FileFunction,Soldermask,Top*
%FSLAX46Y46*%
G04 Gerber Fmt 4.6, Leading zero omitted, Abs format (unit mm)*
G04 Created by KiCad (PCBNEW 4.0.7-e2-6376~58~ubuntu14.04.1) date Wed Aug  8 16:14:33 2018*
%MOMM*%
%LPD*%
G01*
G04 APERTURE LIST*
%ADD10C,0.100000*%
%ADD11C,0.210000*%
%ADD12C,0.140000*%
%ADD13C,0.010000*%
G04 APERTURE END LIST*
D10*
D11*
X198357143Y-76392857D02*
X198571429Y-76464286D01*
X198642857Y-76535714D01*
X198714286Y-76678571D01*
X198714286Y-76892857D01*
X198642857Y-77035714D01*
X198571429Y-77107143D01*
X198428571Y-77178571D01*
X197857143Y-77178571D01*
X197857143Y-75678571D01*
X198357143Y-75678571D01*
X198500000Y-75750000D01*
X198571429Y-75821429D01*
X198642857Y-75964286D01*
X198642857Y-76107143D01*
X198571429Y-76250000D01*
X198500000Y-76321429D01*
X198357143Y-76392857D01*
X197857143Y-76392857D01*
X197892857Y-63500000D02*
X198607143Y-63500000D01*
X197750000Y-63928571D02*
X198250000Y-62428571D01*
X198750000Y-63928571D01*
X154928572Y-63928571D02*
X154071429Y-63928571D01*
X154500001Y-63928571D02*
X154500001Y-62428571D01*
X154357144Y-62642857D01*
X154214286Y-62785714D01*
X154071429Y-62857143D01*
X184857143Y-74178571D02*
X184857143Y-72678571D01*
X185714286Y-74178571D01*
X185714286Y-72678571D01*
X187000000Y-74107143D02*
X186857143Y-74178571D01*
X186571429Y-74178571D01*
X186428572Y-74107143D01*
X186357143Y-73964286D01*
X186357143Y-73392857D01*
X186428572Y-73250000D01*
X186571429Y-73178571D01*
X186857143Y-73178571D01*
X187000000Y-73250000D01*
X187071429Y-73392857D01*
X187071429Y-73535714D01*
X186357143Y-73678571D01*
X188357143Y-73178571D02*
X188357143Y-74178571D01*
X187714286Y-73178571D02*
X187714286Y-73964286D01*
X187785714Y-74107143D01*
X187928572Y-74178571D01*
X188142857Y-74178571D01*
X188285714Y-74107143D01*
X188357143Y-74035714D01*
X189071429Y-74178571D02*
X189071429Y-73178571D01*
X189071429Y-73464286D02*
X189142857Y-73321429D01*
X189214286Y-73250000D01*
X189357143Y-73178571D01*
X189500000Y-73178571D01*
X190214286Y-74178571D02*
X190071428Y-74107143D01*
X190000000Y-74035714D01*
X189928571Y-73892857D01*
X189928571Y-73464286D01*
X190000000Y-73321429D01*
X190071428Y-73250000D01*
X190214286Y-73178571D01*
X190428571Y-73178571D01*
X190571428Y-73250000D01*
X190642857Y-73321429D01*
X190714286Y-73464286D01*
X190714286Y-73892857D01*
X190642857Y-74035714D01*
X190571428Y-74107143D01*
X190428571Y-74178571D01*
X190214286Y-74178571D01*
X191857143Y-73392857D02*
X192071429Y-73464286D01*
X192142857Y-73535714D01*
X192214286Y-73678571D01*
X192214286Y-73892857D01*
X192142857Y-74035714D01*
X192071429Y-74107143D01*
X191928571Y-74178571D01*
X191357143Y-74178571D01*
X191357143Y-72678571D01*
X191857143Y-72678571D01*
X192000000Y-72750000D01*
X192071429Y-72821429D01*
X192142857Y-72964286D01*
X192142857Y-73107143D01*
X192071429Y-73250000D01*
X192000000Y-73321429D01*
X191857143Y-73392857D01*
X191357143Y-73392857D01*
X192714286Y-73178571D02*
X193071429Y-74178571D01*
X193428571Y-73178571D02*
X193071429Y-74178571D01*
X192928571Y-74535714D01*
X192857143Y-74607143D01*
X192714286Y-74678571D01*
X193785714Y-73178571D02*
X194357143Y-73178571D01*
X194000000Y-72678571D02*
X194000000Y-73964286D01*
X194071428Y-74107143D01*
X194214286Y-74178571D01*
X194357143Y-74178571D01*
X195428571Y-74107143D02*
X195285714Y-74178571D01*
X195000000Y-74178571D01*
X194857143Y-74107143D01*
X194785714Y-73964286D01*
X194785714Y-73392857D01*
X194857143Y-73250000D01*
X195000000Y-73178571D01*
X195285714Y-73178571D01*
X195428571Y-73250000D01*
X195500000Y-73392857D01*
X195500000Y-73535714D01*
X194785714Y-73678571D01*
X196071428Y-74107143D02*
X196214285Y-74178571D01*
X196500000Y-74178571D01*
X196642857Y-74107143D01*
X196714285Y-73964286D01*
X196714285Y-73892857D01*
X196642857Y-73750000D01*
X196500000Y-73678571D01*
X196285714Y-73678571D01*
X196142857Y-73607143D01*
X196071428Y-73464286D01*
X196071428Y-73392857D01*
X196142857Y-73250000D01*
X196285714Y-73178571D01*
X196500000Y-73178571D01*
X196642857Y-73250000D01*
D12*
X197988095Y-72559524D02*
X197750000Y-72273810D01*
X197559524Y-72559524D02*
X197559524Y-71892857D01*
X197845238Y-71892857D01*
X197940476Y-71940476D01*
X197988095Y-72035714D01*
X197988095Y-72130952D01*
X197940476Y-72226190D01*
X197845238Y-72273810D01*
X197559524Y-72273810D01*
X197750000Y-71559524D02*
X197511905Y-71607143D01*
X197273809Y-71750000D01*
X197130952Y-71988095D01*
X197083333Y-72226190D01*
X197130952Y-72464286D01*
X197273809Y-72702381D01*
X197511905Y-72845238D01*
X197750000Y-72892857D01*
X197988095Y-72845238D01*
X198226190Y-72702381D01*
X198369047Y-72464286D01*
X198416667Y-72226190D01*
X198369047Y-71988095D01*
X198226190Y-71750000D01*
X197988095Y-71607143D01*
X197750000Y-71559524D01*
D13*
G36*
X168034345Y-62069558D02*
X168332966Y-62121417D01*
X168560046Y-62181626D01*
X168762983Y-62253636D01*
X168955205Y-62346793D01*
X169150141Y-62470443D01*
X169361221Y-62633934D01*
X169601874Y-62846611D01*
X169885530Y-63117822D01*
X170167122Y-63397979D01*
X170448883Y-63679787D01*
X170673252Y-63899212D01*
X170853187Y-64067176D01*
X171001645Y-64194601D01*
X171131583Y-64292408D01*
X171255959Y-64371520D01*
X171387729Y-64442858D01*
X171434546Y-64466308D01*
X171625665Y-64558707D01*
X171767948Y-64616020D01*
X171896629Y-64645362D01*
X172046942Y-64653846D01*
X172254120Y-64648585D01*
X172323423Y-64645770D01*
X172959996Y-64625946D01*
X173528971Y-64621477D01*
X174022577Y-64632161D01*
X174433041Y-64657799D01*
X174752593Y-64698189D01*
X174815200Y-64710119D01*
X175146370Y-64782178D01*
X175490419Y-64864601D01*
X175858308Y-64960597D01*
X176260997Y-65073375D01*
X176709448Y-65206142D01*
X177214623Y-65362107D01*
X177787482Y-65544477D01*
X178438988Y-65756462D01*
X178828400Y-65884720D01*
X179535235Y-66117539D01*
X180156669Y-66320126D01*
X180703345Y-66495385D01*
X181185907Y-66646220D01*
X181614996Y-66775536D01*
X182001257Y-66886238D01*
X182355332Y-66981231D01*
X182687865Y-67063419D01*
X183009499Y-67135706D01*
X183330876Y-67200999D01*
X183662639Y-67262200D01*
X184015433Y-67322215D01*
X184213200Y-67354314D01*
X184804860Y-67445087D01*
X185335595Y-67516563D01*
X185831805Y-67570795D01*
X186319884Y-67609835D01*
X186826232Y-67635737D01*
X187377244Y-67650555D01*
X187999318Y-67656340D01*
X188099400Y-67656554D01*
X188696249Y-67654429D01*
X189225011Y-67645399D01*
X189719044Y-67628136D01*
X190211707Y-67601313D01*
X190736359Y-67563602D01*
X191020400Y-67540308D01*
X191597685Y-67494973D01*
X192087828Y-67465049D01*
X192504144Y-67450740D01*
X192859945Y-67452252D01*
X193168547Y-67469790D01*
X193443262Y-67503558D01*
X193697404Y-67553762D01*
X193814400Y-67583327D01*
X194140703Y-67654695D01*
X194433699Y-67676994D01*
X194717986Y-67646428D01*
X195018163Y-67559202D01*
X195358828Y-67411522D01*
X195548144Y-67315858D01*
X195713897Y-67239539D01*
X195951478Y-67143821D01*
X196235355Y-67038338D01*
X196539991Y-66932725D01*
X196716013Y-66875242D01*
X197153797Y-66731186D01*
X197509164Y-66601730D01*
X197798595Y-66478183D01*
X198038566Y-66351853D01*
X198245557Y-66214045D01*
X198436044Y-66056067D01*
X198626507Y-65869228D01*
X198630063Y-65865519D01*
X198969830Y-65444654D01*
X199228099Y-64974185D01*
X199407048Y-64448415D01*
X199508856Y-63861645D01*
X199532993Y-63504052D01*
X199557803Y-63188258D01*
X199608975Y-62968240D01*
X199688732Y-62841082D01*
X199799297Y-62803871D01*
X199942892Y-62853691D01*
X200000696Y-62890680D01*
X200095530Y-63009656D01*
X200098731Y-63164900D01*
X200010751Y-63349748D01*
X199965461Y-63411478D01*
X199847967Y-63607302D01*
X199735237Y-63883473D01*
X199634779Y-64218776D01*
X199560791Y-64555045D01*
X199533207Y-64819602D01*
X199566615Y-65014405D01*
X199668010Y-65145849D01*
X199844389Y-65220329D01*
X200102747Y-65244239D01*
X200306370Y-65236529D01*
X200688142Y-65195436D01*
X200982005Y-65130651D01*
X201199598Y-65038792D01*
X201331729Y-64938454D01*
X201481614Y-64831898D01*
X201636038Y-64791160D01*
X201768038Y-64818759D01*
X201839012Y-64891060D01*
X201885511Y-65049122D01*
X201880859Y-65219368D01*
X201827706Y-65354856D01*
X201811771Y-65373371D01*
X201723162Y-65440187D01*
X201633837Y-65439162D01*
X201506799Y-65369838D01*
X201506417Y-65369587D01*
X201443225Y-65335483D01*
X201366670Y-65315455D01*
X201256925Y-65308863D01*
X201094160Y-65315063D01*
X200858550Y-65333414D01*
X200733504Y-65344554D01*
X200451143Y-65367733D01*
X200170882Y-65386512D01*
X199926693Y-65398853D01*
X199764015Y-65402766D01*
X199645442Y-65403427D01*
X199549194Y-65412036D01*
X199462748Y-65438072D01*
X199373582Y-65491016D01*
X199269173Y-65580349D01*
X199136998Y-65715553D01*
X198964536Y-65906108D01*
X198739262Y-66161496D01*
X198694230Y-66212703D01*
X198367061Y-66584685D01*
X198482396Y-66678077D01*
X198621508Y-66764877D01*
X198804450Y-66828849D01*
X199048316Y-66873898D01*
X199370202Y-66903927D01*
X199505263Y-66911652D01*
X199742380Y-66920828D01*
X199933355Y-66918567D01*
X200110983Y-66901037D01*
X200308055Y-66864406D01*
X200557366Y-66804841D01*
X200673663Y-66775128D01*
X200974792Y-66701500D01*
X201202759Y-66656457D01*
X201380831Y-66636580D01*
X201532273Y-66638449D01*
X201575041Y-66642629D01*
X201770199Y-66652551D01*
X201905977Y-66624422D01*
X201968371Y-66591154D01*
X202127208Y-66531464D01*
X202262847Y-66558454D01*
X202358196Y-66657386D01*
X202396162Y-66813524D01*
X202380145Y-66946196D01*
X202319749Y-67064260D01*
X202217656Y-67092824D01*
X202069746Y-67032591D01*
X202028537Y-67006063D01*
X201811809Y-66878998D01*
X201613354Y-66817026D01*
X201395539Y-66813621D01*
X201155000Y-66854538D01*
X200754637Y-66943062D01*
X200435909Y-67012194D01*
X200180967Y-67063157D01*
X199971957Y-67097171D01*
X199791031Y-67115458D01*
X199620335Y-67119242D01*
X199442020Y-67109743D01*
X199238233Y-67088183D01*
X198991125Y-67055785D01*
X198731904Y-67020396D01*
X198424804Y-66979659D01*
X198195427Y-66952913D01*
X198020934Y-66939660D01*
X197878484Y-66939404D01*
X197745241Y-66951648D01*
X197598363Y-66975895D01*
X197505812Y-66993711D01*
X197006897Y-67105099D01*
X196539959Y-67235208D01*
X196114404Y-67379611D01*
X195739638Y-67533884D01*
X195425070Y-67693603D01*
X195180105Y-67854341D01*
X195014151Y-68011675D01*
X194936614Y-68161179D01*
X194932000Y-68204430D01*
X194948719Y-68291066D01*
X195005575Y-68383311D01*
X195112618Y-68489945D01*
X195279894Y-68619749D01*
X195517452Y-68781505D01*
X195795600Y-68959121D01*
X196642420Y-69514641D01*
X197391488Y-70058569D01*
X198045656Y-70593504D01*
X198607775Y-71122047D01*
X199080696Y-71646799D01*
X199467272Y-72170360D01*
X199655852Y-72479483D01*
X199761870Y-72646618D01*
X199871226Y-72785742D01*
X199948604Y-72857661D01*
X200140187Y-72942710D01*
X200418623Y-73008067D01*
X200770696Y-73051614D01*
X201183192Y-73071233D01*
X201286826Y-73072141D01*
X201544479Y-73070867D01*
X201720592Y-73063977D01*
X201835190Y-73048515D01*
X201908300Y-73021523D01*
X201959947Y-72980046D01*
X201967800Y-72971600D01*
X202076776Y-72900533D01*
X202211485Y-72871715D01*
X202330020Y-72889413D01*
X202379668Y-72929648D01*
X202415085Y-73056636D01*
X202415379Y-73229789D01*
X202384950Y-73401678D01*
X202328198Y-73524871D01*
X202323993Y-73529744D01*
X202210693Y-73616593D01*
X202093030Y-73614373D01*
X201960025Y-73533360D01*
X201782438Y-73439836D01*
X201517389Y-73371310D01*
X201161343Y-73327198D01*
X200710761Y-73306911D01*
X200585526Y-73305508D01*
X200274559Y-73304555D01*
X200052361Y-73313264D01*
X199906114Y-73343023D01*
X199823000Y-73405223D01*
X199790203Y-73511254D01*
X199794906Y-73672504D01*
X199824290Y-73900363D01*
X199834522Y-73972858D01*
X199884603Y-74293941D01*
X199935404Y-74527893D01*
X199993340Y-74689023D01*
X200064825Y-74791641D01*
X200156273Y-74850054D01*
X200237894Y-74872740D01*
X200392775Y-74926360D01*
X200460029Y-75021619D01*
X200450182Y-75173922D01*
X200448472Y-75180870D01*
X200379076Y-75304290D01*
X200255885Y-75407102D01*
X200109313Y-75474947D01*
X199969771Y-75493466D01*
X199872123Y-75453003D01*
X199829731Y-75362469D01*
X199809166Y-75224003D01*
X199808800Y-75203622D01*
X199798482Y-75056930D01*
X199769872Y-74833678D01*
X199726485Y-74552280D01*
X199671834Y-74231149D01*
X199609435Y-73888699D01*
X199542801Y-73543342D01*
X199475448Y-73213492D01*
X199410890Y-72917562D01*
X199352642Y-72673965D01*
X199304217Y-72501115D01*
X199280966Y-72438200D01*
X199117997Y-72151140D01*
X198878896Y-71826542D01*
X198576221Y-71476437D01*
X198222528Y-71112855D01*
X197830374Y-70747825D01*
X197412316Y-70393378D01*
X196980911Y-70061545D01*
X196548716Y-69764354D01*
X196379800Y-69658704D01*
X196188353Y-69539989D01*
X195935697Y-69379521D01*
X195644961Y-69192196D01*
X195339279Y-68992912D01*
X195062903Y-68810598D01*
X194779504Y-68624794D01*
X194503883Y-68448371D01*
X194254900Y-68293086D01*
X194051416Y-68170692D01*
X193912293Y-68092945D01*
X193907553Y-68090536D01*
X193703006Y-67995287D01*
X193497955Y-67919243D01*
X193280785Y-67861706D01*
X193039880Y-67821980D01*
X192763626Y-67799371D01*
X192440406Y-67793180D01*
X192058606Y-67802713D01*
X191606610Y-67827274D01*
X191072802Y-67866165D01*
X190689545Y-67897689D01*
X189161678Y-67990271D01*
X187660503Y-68007403D01*
X186195611Y-67949608D01*
X184776594Y-67817411D01*
X183413041Y-67611335D01*
X182652096Y-67458327D01*
X182409628Y-67397668D01*
X182083034Y-67304879D01*
X181683299Y-67183556D01*
X181221408Y-67037295D01*
X180708347Y-66869694D01*
X180155100Y-66684350D01*
X179572653Y-66484859D01*
X178971991Y-66274818D01*
X178364098Y-66057824D01*
X178260581Y-66020414D01*
X177537710Y-65764562D01*
X176893998Y-65550070D01*
X176317203Y-65373927D01*
X175795084Y-65233123D01*
X175315400Y-65124647D01*
X174865909Y-65045490D01*
X174434372Y-64992640D01*
X174008546Y-64963088D01*
X173951600Y-64960748D01*
X173440916Y-64953389D01*
X173015826Y-64974625D01*
X172663995Y-65025993D01*
X172373087Y-65109030D01*
X172219052Y-65176509D01*
X172004331Y-65313144D01*
X171744088Y-65525563D01*
X171448179Y-65804367D01*
X171126456Y-66140159D01*
X170788773Y-66523538D01*
X170715912Y-66610225D01*
X170229634Y-67140263D01*
X169735992Y-67570812D01*
X169230896Y-67903932D01*
X168710257Y-68141682D01*
X168169986Y-68286122D01*
X167605994Y-68339310D01*
X167297840Y-68331322D01*
X166936186Y-68294529D01*
X166611955Y-68228638D01*
X166305325Y-68124990D01*
X165996470Y-67974929D01*
X165665568Y-67769799D01*
X165292794Y-67500944D01*
X165156639Y-67396317D01*
X164869823Y-67174088D01*
X164648228Y-67005393D01*
X164477392Y-66880736D01*
X164342851Y-66790622D01*
X164230141Y-66725556D01*
X164124797Y-66676041D01*
X164012358Y-66632583D01*
X163970796Y-66617799D01*
X163661728Y-66531350D01*
X163266508Y-66456254D01*
X162800070Y-66393671D01*
X162277348Y-66344764D01*
X161713278Y-66310693D01*
X161122794Y-66292620D01*
X160520831Y-66291705D01*
X159972065Y-66306915D01*
X159597099Y-66323405D01*
X159308032Y-66340189D01*
X159089280Y-66362408D01*
X158925259Y-66395203D01*
X158800384Y-66443717D01*
X158699071Y-66513090D01*
X158605735Y-66608465D01*
X158504791Y-66734983D01*
X158447950Y-66809745D01*
X158283926Y-66997351D01*
X158106448Y-67155680D01*
X157998069Y-67228268D01*
X157879778Y-67288961D01*
X157825459Y-67302497D01*
X157836797Y-67262348D01*
X157915473Y-67161982D01*
X158056200Y-67002600D01*
X158191027Y-66840342D01*
X158307668Y-66677475D01*
X158392216Y-66536046D01*
X158430766Y-66438102D01*
X158428478Y-66412377D01*
X158368507Y-66394024D01*
X158229034Y-66380669D01*
X158032030Y-66372272D01*
X157799468Y-66368796D01*
X157553319Y-66370203D01*
X157315557Y-66376453D01*
X157108154Y-66387510D01*
X156953081Y-66403335D01*
X156894486Y-66415048D01*
X156786598Y-66461533D01*
X156618692Y-66551893D01*
X156414616Y-66672657D01*
X156218937Y-66796722D01*
X155759757Y-67082032D01*
X155362337Y-67294544D01*
X155020141Y-67436685D01*
X154726636Y-67510882D01*
X154475289Y-67519563D01*
X154341412Y-67494165D01*
X154165000Y-67443563D01*
X154393600Y-67438698D01*
X154679678Y-67411330D01*
X154909966Y-67346533D01*
X155071157Y-67250502D01*
X155149946Y-67129432D01*
X155155600Y-67083880D01*
X155117870Y-66959016D01*
X155009514Y-66778763D01*
X154837774Y-66552990D01*
X154609897Y-66291564D01*
X154448848Y-66121298D01*
X154291866Y-65957867D01*
X154167718Y-65824851D01*
X154089529Y-65736579D01*
X154069560Y-65707200D01*
X154184956Y-65745324D01*
X154349967Y-65852632D01*
X154551299Y-66018528D01*
X154775656Y-66232414D01*
X154923886Y-66388173D01*
X155098972Y-66573348D01*
X155257417Y-66730760D01*
X155382924Y-66844902D01*
X155459197Y-66900268D01*
X155464018Y-66902148D01*
X155563065Y-66894077D01*
X155718263Y-66839254D01*
X155903975Y-66751206D01*
X156094567Y-66643458D01*
X156264401Y-66529537D01*
X156387841Y-66422967D01*
X156401596Y-66407476D01*
X156485660Y-66271749D01*
X156526466Y-66135516D01*
X156527200Y-66119676D01*
X156483739Y-65909228D01*
X156355933Y-65654448D01*
X156147648Y-65361414D01*
X155862750Y-65036209D01*
X155791454Y-64962257D01*
X155621092Y-64786659D01*
X155482226Y-64640453D01*
X155387303Y-64536980D01*
X155348768Y-64489580D01*
X155349010Y-64488000D01*
X155400218Y-64512456D01*
X155512948Y-64576455D01*
X155656954Y-64662608D01*
X155999933Y-64918327D01*
X156342626Y-65263727D01*
X156615113Y-65605600D01*
X156770304Y-65809769D01*
X156896036Y-65945470D01*
X157016163Y-66030724D01*
X157154539Y-66083553D01*
X157286965Y-66113176D01*
X157479232Y-66136547D01*
X157747691Y-66150999D01*
X158073436Y-66157170D01*
X158437563Y-66155697D01*
X158821168Y-66147217D01*
X159205345Y-66132368D01*
X159571189Y-66111787D01*
X159899797Y-66086111D01*
X160172262Y-66055977D01*
X160369682Y-66022024D01*
X160423672Y-66007428D01*
X160568501Y-65924346D01*
X160622152Y-65799262D01*
X160585178Y-65633859D01*
X160458130Y-65429821D01*
X160241560Y-65188833D01*
X160116534Y-65070139D01*
X159968758Y-64930786D01*
X159861490Y-64820821D01*
X159808276Y-64754676D01*
X159808554Y-64742000D01*
X159903370Y-64774427D01*
X160046357Y-64859812D01*
X160212818Y-64980305D01*
X160378059Y-65118058D01*
X160515000Y-65252586D01*
X160752526Y-65511716D01*
X160936586Y-65704355D01*
X161079982Y-65841026D01*
X161195516Y-65932250D01*
X161295992Y-65988548D01*
X161394212Y-66020443D01*
X161465092Y-66033393D01*
X161684769Y-66043989D01*
X161963807Y-66027077D01*
X162265252Y-65987501D01*
X162552152Y-65930103D01*
X162786299Y-65860208D01*
X163060330Y-65740528D01*
X163310292Y-65594585D01*
X163545056Y-65412559D01*
X163773493Y-65184632D01*
X164004474Y-64900985D01*
X164246870Y-64551799D01*
X164302151Y-64462454D01*
X164909200Y-64462454D01*
X164948725Y-64495763D01*
X165051208Y-64564928D01*
X165163200Y-64635573D01*
X165417200Y-64791860D01*
X165417018Y-65681800D01*
X165175809Y-65830712D01*
X165040214Y-65914823D01*
X164944362Y-65975030D01*
X164915258Y-65993987D01*
X164922303Y-66044576D01*
X164960392Y-66160926D01*
X165006973Y-66281971D01*
X165118028Y-66555594D01*
X165446533Y-66476994D01*
X165775037Y-66398394D01*
X166072748Y-66692999D01*
X166370459Y-66987603D01*
X166300832Y-67249101D01*
X166251473Y-67451775D01*
X166238765Y-67581726D01*
X166268423Y-67663006D01*
X166346163Y-67719666D01*
X166420500Y-67752769D01*
X166599469Y-67816215D01*
X166721260Y-67820641D01*
X166817843Y-67755761D01*
X166921188Y-67611290D01*
X166936373Y-67586800D01*
X167092660Y-67332800D01*
X167948485Y-67332800D01*
X168104773Y-67586800D01*
X168194601Y-67722996D01*
X168267000Y-67815283D01*
X168299630Y-67841051D01*
X168392841Y-67822806D01*
X168524481Y-67776869D01*
X168661429Y-67717664D01*
X168770563Y-67659616D01*
X168818759Y-67617152D01*
X168818990Y-67614864D01*
X168806867Y-67539168D01*
X168777449Y-67399464D01*
X168748615Y-67274645D01*
X168680049Y-66987891D01*
X168971241Y-66699738D01*
X169262433Y-66411584D01*
X169580636Y-66494039D01*
X169744856Y-66534000D01*
X169863521Y-66557969D01*
X169909529Y-66560947D01*
X169933823Y-66509512D01*
X169984982Y-66393670D01*
X170029191Y-66291400D01*
X170089254Y-66142133D01*
X170107742Y-66057033D01*
X170087245Y-66008768D01*
X170058071Y-65986600D01*
X169818742Y-65825358D01*
X169668721Y-65701164D01*
X169604161Y-65610510D01*
X169604042Y-65572715D01*
X169619101Y-65484726D01*
X169629747Y-65329445D01*
X169633600Y-65148602D01*
X169633600Y-64801514D01*
X170137426Y-64491506D01*
X170031140Y-64235753D01*
X169971528Y-64099035D01*
X169916058Y-64020713D01*
X169838832Y-63990946D01*
X169713956Y-63999895D01*
X169515533Y-64037720D01*
X169511887Y-64038452D01*
X169220829Y-64096905D01*
X168966046Y-63847952D01*
X168849607Y-63732873D01*
X168776178Y-63643617D01*
X168740307Y-63554470D01*
X168736541Y-63439716D01*
X168759428Y-63273641D01*
X168798523Y-63057861D01*
X168813647Y-62947270D01*
X168793736Y-62879067D01*
X168718478Y-62824581D01*
X168591584Y-62765761D01*
X168449182Y-62705441D01*
X168347480Y-62667289D01*
X168319042Y-62660208D01*
X168278182Y-62700864D01*
X168205053Y-62805057D01*
X168137200Y-62914208D01*
X167987001Y-63167200D01*
X167108786Y-63167200D01*
X166950891Y-62913200D01*
X166858573Y-62776987D01*
X166781461Y-62684800D01*
X166744309Y-62659200D01*
X166672553Y-62677910D01*
X166543661Y-62725620D01*
X166459293Y-62760502D01*
X166314204Y-62832887D01*
X166251380Y-62895638D01*
X166249994Y-62951002D01*
X166277367Y-63054224D01*
X166313975Y-63207412D01*
X166327867Y-63268800D01*
X166378711Y-63497400D01*
X166084333Y-63793113D01*
X165789956Y-64088827D01*
X165470958Y-64006166D01*
X165305410Y-63966228D01*
X165184257Y-63942573D01*
X165135372Y-63940093D01*
X165108063Y-63991814D01*
X165057295Y-64102848D01*
X164997923Y-64238888D01*
X164944800Y-64365627D01*
X164912781Y-64448760D01*
X164909200Y-64462454D01*
X164302151Y-64462454D01*
X164509553Y-64127256D01*
X164783403Y-63649800D01*
X164933709Y-63430574D01*
X165146727Y-63185015D01*
X165397168Y-62937565D01*
X165659744Y-62712671D01*
X165909165Y-62534777D01*
X165980494Y-62492644D01*
X166471499Y-62269368D01*
X166992131Y-62122115D01*
X167520407Y-62054356D01*
X168034345Y-62069558D01*
X168034345Y-62069558D01*
G37*
X168034345Y-62069558D02*
X168332966Y-62121417D01*
X168560046Y-62181626D01*
X168762983Y-62253636D01*
X168955205Y-62346793D01*
X169150141Y-62470443D01*
X169361221Y-62633934D01*
X169601874Y-62846611D01*
X169885530Y-63117822D01*
X170167122Y-63397979D01*
X170448883Y-63679787D01*
X170673252Y-63899212D01*
X170853187Y-64067176D01*
X171001645Y-64194601D01*
X171131583Y-64292408D01*
X171255959Y-64371520D01*
X171387729Y-64442858D01*
X171434546Y-64466308D01*
X171625665Y-64558707D01*
X171767948Y-64616020D01*
X171896629Y-64645362D01*
X172046942Y-64653846D01*
X172254120Y-64648585D01*
X172323423Y-64645770D01*
X172959996Y-64625946D01*
X173528971Y-64621477D01*
X174022577Y-64632161D01*
X174433041Y-64657799D01*
X174752593Y-64698189D01*
X174815200Y-64710119D01*
X175146370Y-64782178D01*
X175490419Y-64864601D01*
X175858308Y-64960597D01*
X176260997Y-65073375D01*
X176709448Y-65206142D01*
X177214623Y-65362107D01*
X177787482Y-65544477D01*
X178438988Y-65756462D01*
X178828400Y-65884720D01*
X179535235Y-66117539D01*
X180156669Y-66320126D01*
X180703345Y-66495385D01*
X181185907Y-66646220D01*
X181614996Y-66775536D01*
X182001257Y-66886238D01*
X182355332Y-66981231D01*
X182687865Y-67063419D01*
X183009499Y-67135706D01*
X183330876Y-67200999D01*
X183662639Y-67262200D01*
X184015433Y-67322215D01*
X184213200Y-67354314D01*
X184804860Y-67445087D01*
X185335595Y-67516563D01*
X185831805Y-67570795D01*
X186319884Y-67609835D01*
X186826232Y-67635737D01*
X187377244Y-67650555D01*
X187999318Y-67656340D01*
X188099400Y-67656554D01*
X188696249Y-67654429D01*
X189225011Y-67645399D01*
X189719044Y-67628136D01*
X190211707Y-67601313D01*
X190736359Y-67563602D01*
X191020400Y-67540308D01*
X191597685Y-67494973D01*
X192087828Y-67465049D01*
X192504144Y-67450740D01*
X192859945Y-67452252D01*
X193168547Y-67469790D01*
X193443262Y-67503558D01*
X193697404Y-67553762D01*
X193814400Y-67583327D01*
X194140703Y-67654695D01*
X194433699Y-67676994D01*
X194717986Y-67646428D01*
X195018163Y-67559202D01*
X195358828Y-67411522D01*
X195548144Y-67315858D01*
X195713897Y-67239539D01*
X195951478Y-67143821D01*
X196235355Y-67038338D01*
X196539991Y-66932725D01*
X196716013Y-66875242D01*
X197153797Y-66731186D01*
X197509164Y-66601730D01*
X197798595Y-66478183D01*
X198038566Y-66351853D01*
X198245557Y-66214045D01*
X198436044Y-66056067D01*
X198626507Y-65869228D01*
X198630063Y-65865519D01*
X198969830Y-65444654D01*
X199228099Y-64974185D01*
X199407048Y-64448415D01*
X199508856Y-63861645D01*
X199532993Y-63504052D01*
X199557803Y-63188258D01*
X199608975Y-62968240D01*
X199688732Y-62841082D01*
X199799297Y-62803871D01*
X199942892Y-62853691D01*
X200000696Y-62890680D01*
X200095530Y-63009656D01*
X200098731Y-63164900D01*
X200010751Y-63349748D01*
X199965461Y-63411478D01*
X199847967Y-63607302D01*
X199735237Y-63883473D01*
X199634779Y-64218776D01*
X199560791Y-64555045D01*
X199533207Y-64819602D01*
X199566615Y-65014405D01*
X199668010Y-65145849D01*
X199844389Y-65220329D01*
X200102747Y-65244239D01*
X200306370Y-65236529D01*
X200688142Y-65195436D01*
X200982005Y-65130651D01*
X201199598Y-65038792D01*
X201331729Y-64938454D01*
X201481614Y-64831898D01*
X201636038Y-64791160D01*
X201768038Y-64818759D01*
X201839012Y-64891060D01*
X201885511Y-65049122D01*
X201880859Y-65219368D01*
X201827706Y-65354856D01*
X201811771Y-65373371D01*
X201723162Y-65440187D01*
X201633837Y-65439162D01*
X201506799Y-65369838D01*
X201506417Y-65369587D01*
X201443225Y-65335483D01*
X201366670Y-65315455D01*
X201256925Y-65308863D01*
X201094160Y-65315063D01*
X200858550Y-65333414D01*
X200733504Y-65344554D01*
X200451143Y-65367733D01*
X200170882Y-65386512D01*
X199926693Y-65398853D01*
X199764015Y-65402766D01*
X199645442Y-65403427D01*
X199549194Y-65412036D01*
X199462748Y-65438072D01*
X199373582Y-65491016D01*
X199269173Y-65580349D01*
X199136998Y-65715553D01*
X198964536Y-65906108D01*
X198739262Y-66161496D01*
X198694230Y-66212703D01*
X198367061Y-66584685D01*
X198482396Y-66678077D01*
X198621508Y-66764877D01*
X198804450Y-66828849D01*
X199048316Y-66873898D01*
X199370202Y-66903927D01*
X199505263Y-66911652D01*
X199742380Y-66920828D01*
X199933355Y-66918567D01*
X200110983Y-66901037D01*
X200308055Y-66864406D01*
X200557366Y-66804841D01*
X200673663Y-66775128D01*
X200974792Y-66701500D01*
X201202759Y-66656457D01*
X201380831Y-66636580D01*
X201532273Y-66638449D01*
X201575041Y-66642629D01*
X201770199Y-66652551D01*
X201905977Y-66624422D01*
X201968371Y-66591154D01*
X202127208Y-66531464D01*
X202262847Y-66558454D01*
X202358196Y-66657386D01*
X202396162Y-66813524D01*
X202380145Y-66946196D01*
X202319749Y-67064260D01*
X202217656Y-67092824D01*
X202069746Y-67032591D01*
X202028537Y-67006063D01*
X201811809Y-66878998D01*
X201613354Y-66817026D01*
X201395539Y-66813621D01*
X201155000Y-66854538D01*
X200754637Y-66943062D01*
X200435909Y-67012194D01*
X200180967Y-67063157D01*
X199971957Y-67097171D01*
X199791031Y-67115458D01*
X199620335Y-67119242D01*
X199442020Y-67109743D01*
X199238233Y-67088183D01*
X198991125Y-67055785D01*
X198731904Y-67020396D01*
X198424804Y-66979659D01*
X198195427Y-66952913D01*
X198020934Y-66939660D01*
X197878484Y-66939404D01*
X197745241Y-66951648D01*
X197598363Y-66975895D01*
X197505812Y-66993711D01*
X197006897Y-67105099D01*
X196539959Y-67235208D01*
X196114404Y-67379611D01*
X195739638Y-67533884D01*
X195425070Y-67693603D01*
X195180105Y-67854341D01*
X195014151Y-68011675D01*
X194936614Y-68161179D01*
X194932000Y-68204430D01*
X194948719Y-68291066D01*
X195005575Y-68383311D01*
X195112618Y-68489945D01*
X195279894Y-68619749D01*
X195517452Y-68781505D01*
X195795600Y-68959121D01*
X196642420Y-69514641D01*
X197391488Y-70058569D01*
X198045656Y-70593504D01*
X198607775Y-71122047D01*
X199080696Y-71646799D01*
X199467272Y-72170360D01*
X199655852Y-72479483D01*
X199761870Y-72646618D01*
X199871226Y-72785742D01*
X199948604Y-72857661D01*
X200140187Y-72942710D01*
X200418623Y-73008067D01*
X200770696Y-73051614D01*
X201183192Y-73071233D01*
X201286826Y-73072141D01*
X201544479Y-73070867D01*
X201720592Y-73063977D01*
X201835190Y-73048515D01*
X201908300Y-73021523D01*
X201959947Y-72980046D01*
X201967800Y-72971600D01*
X202076776Y-72900533D01*
X202211485Y-72871715D01*
X202330020Y-72889413D01*
X202379668Y-72929648D01*
X202415085Y-73056636D01*
X202415379Y-73229789D01*
X202384950Y-73401678D01*
X202328198Y-73524871D01*
X202323993Y-73529744D01*
X202210693Y-73616593D01*
X202093030Y-73614373D01*
X201960025Y-73533360D01*
X201782438Y-73439836D01*
X201517389Y-73371310D01*
X201161343Y-73327198D01*
X200710761Y-73306911D01*
X200585526Y-73305508D01*
X200274559Y-73304555D01*
X200052361Y-73313264D01*
X199906114Y-73343023D01*
X199823000Y-73405223D01*
X199790203Y-73511254D01*
X199794906Y-73672504D01*
X199824290Y-73900363D01*
X199834522Y-73972858D01*
X199884603Y-74293941D01*
X199935404Y-74527893D01*
X199993340Y-74689023D01*
X200064825Y-74791641D01*
X200156273Y-74850054D01*
X200237894Y-74872740D01*
X200392775Y-74926360D01*
X200460029Y-75021619D01*
X200450182Y-75173922D01*
X200448472Y-75180870D01*
X200379076Y-75304290D01*
X200255885Y-75407102D01*
X200109313Y-75474947D01*
X199969771Y-75493466D01*
X199872123Y-75453003D01*
X199829731Y-75362469D01*
X199809166Y-75224003D01*
X199808800Y-75203622D01*
X199798482Y-75056930D01*
X199769872Y-74833678D01*
X199726485Y-74552280D01*
X199671834Y-74231149D01*
X199609435Y-73888699D01*
X199542801Y-73543342D01*
X199475448Y-73213492D01*
X199410890Y-72917562D01*
X199352642Y-72673965D01*
X199304217Y-72501115D01*
X199280966Y-72438200D01*
X199117997Y-72151140D01*
X198878896Y-71826542D01*
X198576221Y-71476437D01*
X198222528Y-71112855D01*
X197830374Y-70747825D01*
X197412316Y-70393378D01*
X196980911Y-70061545D01*
X196548716Y-69764354D01*
X196379800Y-69658704D01*
X196188353Y-69539989D01*
X195935697Y-69379521D01*
X195644961Y-69192196D01*
X195339279Y-68992912D01*
X195062903Y-68810598D01*
X194779504Y-68624794D01*
X194503883Y-68448371D01*
X194254900Y-68293086D01*
X194051416Y-68170692D01*
X193912293Y-68092945D01*
X193907553Y-68090536D01*
X193703006Y-67995287D01*
X193497955Y-67919243D01*
X193280785Y-67861706D01*
X193039880Y-67821980D01*
X192763626Y-67799371D01*
X192440406Y-67793180D01*
X192058606Y-67802713D01*
X191606610Y-67827274D01*
X191072802Y-67866165D01*
X190689545Y-67897689D01*
X189161678Y-67990271D01*
X187660503Y-68007403D01*
X186195611Y-67949608D01*
X184776594Y-67817411D01*
X183413041Y-67611335D01*
X182652096Y-67458327D01*
X182409628Y-67397668D01*
X182083034Y-67304879D01*
X181683299Y-67183556D01*
X181221408Y-67037295D01*
X180708347Y-66869694D01*
X180155100Y-66684350D01*
X179572653Y-66484859D01*
X178971991Y-66274818D01*
X178364098Y-66057824D01*
X178260581Y-66020414D01*
X177537710Y-65764562D01*
X176893998Y-65550070D01*
X176317203Y-65373927D01*
X175795084Y-65233123D01*
X175315400Y-65124647D01*
X174865909Y-65045490D01*
X174434372Y-64992640D01*
X174008546Y-64963088D01*
X173951600Y-64960748D01*
X173440916Y-64953389D01*
X173015826Y-64974625D01*
X172663995Y-65025993D01*
X172373087Y-65109030D01*
X172219052Y-65176509D01*
X172004331Y-65313144D01*
X171744088Y-65525563D01*
X171448179Y-65804367D01*
X171126456Y-66140159D01*
X170788773Y-66523538D01*
X170715912Y-66610225D01*
X170229634Y-67140263D01*
X169735992Y-67570812D01*
X169230896Y-67903932D01*
X168710257Y-68141682D01*
X168169986Y-68286122D01*
X167605994Y-68339310D01*
X167297840Y-68331322D01*
X166936186Y-68294529D01*
X166611955Y-68228638D01*
X166305325Y-68124990D01*
X165996470Y-67974929D01*
X165665568Y-67769799D01*
X165292794Y-67500944D01*
X165156639Y-67396317D01*
X164869823Y-67174088D01*
X164648228Y-67005393D01*
X164477392Y-66880736D01*
X164342851Y-66790622D01*
X164230141Y-66725556D01*
X164124797Y-66676041D01*
X164012358Y-66632583D01*
X163970796Y-66617799D01*
X163661728Y-66531350D01*
X163266508Y-66456254D01*
X162800070Y-66393671D01*
X162277348Y-66344764D01*
X161713278Y-66310693D01*
X161122794Y-66292620D01*
X160520831Y-66291705D01*
X159972065Y-66306915D01*
X159597099Y-66323405D01*
X159308032Y-66340189D01*
X159089280Y-66362408D01*
X158925259Y-66395203D01*
X158800384Y-66443717D01*
X158699071Y-66513090D01*
X158605735Y-66608465D01*
X158504791Y-66734983D01*
X158447950Y-66809745D01*
X158283926Y-66997351D01*
X158106448Y-67155680D01*
X157998069Y-67228268D01*
X157879778Y-67288961D01*
X157825459Y-67302497D01*
X157836797Y-67262348D01*
X157915473Y-67161982D01*
X158056200Y-67002600D01*
X158191027Y-66840342D01*
X158307668Y-66677475D01*
X158392216Y-66536046D01*
X158430766Y-66438102D01*
X158428478Y-66412377D01*
X158368507Y-66394024D01*
X158229034Y-66380669D01*
X158032030Y-66372272D01*
X157799468Y-66368796D01*
X157553319Y-66370203D01*
X157315557Y-66376453D01*
X157108154Y-66387510D01*
X156953081Y-66403335D01*
X156894486Y-66415048D01*
X156786598Y-66461533D01*
X156618692Y-66551893D01*
X156414616Y-66672657D01*
X156218937Y-66796722D01*
X155759757Y-67082032D01*
X155362337Y-67294544D01*
X155020141Y-67436685D01*
X154726636Y-67510882D01*
X154475289Y-67519563D01*
X154341412Y-67494165D01*
X154165000Y-67443563D01*
X154393600Y-67438698D01*
X154679678Y-67411330D01*
X154909966Y-67346533D01*
X155071157Y-67250502D01*
X155149946Y-67129432D01*
X155155600Y-67083880D01*
X155117870Y-66959016D01*
X155009514Y-66778763D01*
X154837774Y-66552990D01*
X154609897Y-66291564D01*
X154448848Y-66121298D01*
X154291866Y-65957867D01*
X154167718Y-65824851D01*
X154089529Y-65736579D01*
X154069560Y-65707200D01*
X154184956Y-65745324D01*
X154349967Y-65852632D01*
X154551299Y-66018528D01*
X154775656Y-66232414D01*
X154923886Y-66388173D01*
X155098972Y-66573348D01*
X155257417Y-66730760D01*
X155382924Y-66844902D01*
X155459197Y-66900268D01*
X155464018Y-66902148D01*
X155563065Y-66894077D01*
X155718263Y-66839254D01*
X155903975Y-66751206D01*
X156094567Y-66643458D01*
X156264401Y-66529537D01*
X156387841Y-66422967D01*
X156401596Y-66407476D01*
X156485660Y-66271749D01*
X156526466Y-66135516D01*
X156527200Y-66119676D01*
X156483739Y-65909228D01*
X156355933Y-65654448D01*
X156147648Y-65361414D01*
X155862750Y-65036209D01*
X155791454Y-64962257D01*
X155621092Y-64786659D01*
X155482226Y-64640453D01*
X155387303Y-64536980D01*
X155348768Y-64489580D01*
X155349010Y-64488000D01*
X155400218Y-64512456D01*
X155512948Y-64576455D01*
X155656954Y-64662608D01*
X155999933Y-64918327D01*
X156342626Y-65263727D01*
X156615113Y-65605600D01*
X156770304Y-65809769D01*
X156896036Y-65945470D01*
X157016163Y-66030724D01*
X157154539Y-66083553D01*
X157286965Y-66113176D01*
X157479232Y-66136547D01*
X157747691Y-66150999D01*
X158073436Y-66157170D01*
X158437563Y-66155697D01*
X158821168Y-66147217D01*
X159205345Y-66132368D01*
X159571189Y-66111787D01*
X159899797Y-66086111D01*
X160172262Y-66055977D01*
X160369682Y-66022024D01*
X160423672Y-66007428D01*
X160568501Y-65924346D01*
X160622152Y-65799262D01*
X160585178Y-65633859D01*
X160458130Y-65429821D01*
X160241560Y-65188833D01*
X160116534Y-65070139D01*
X159968758Y-64930786D01*
X159861490Y-64820821D01*
X159808276Y-64754676D01*
X159808554Y-64742000D01*
X159903370Y-64774427D01*
X160046357Y-64859812D01*
X160212818Y-64980305D01*
X160378059Y-65118058D01*
X160515000Y-65252586D01*
X160752526Y-65511716D01*
X160936586Y-65704355D01*
X161079982Y-65841026D01*
X161195516Y-65932250D01*
X161295992Y-65988548D01*
X161394212Y-66020443D01*
X161465092Y-66033393D01*
X161684769Y-66043989D01*
X161963807Y-66027077D01*
X162265252Y-65987501D01*
X162552152Y-65930103D01*
X162786299Y-65860208D01*
X163060330Y-65740528D01*
X163310292Y-65594585D01*
X163545056Y-65412559D01*
X163773493Y-65184632D01*
X164004474Y-64900985D01*
X164246870Y-64551799D01*
X164302151Y-64462454D01*
X164909200Y-64462454D01*
X164948725Y-64495763D01*
X165051208Y-64564928D01*
X165163200Y-64635573D01*
X165417200Y-64791860D01*
X165417018Y-65681800D01*
X165175809Y-65830712D01*
X165040214Y-65914823D01*
X164944362Y-65975030D01*
X164915258Y-65993987D01*
X164922303Y-66044576D01*
X164960392Y-66160926D01*
X165006973Y-66281971D01*
X165118028Y-66555594D01*
X165446533Y-66476994D01*
X165775037Y-66398394D01*
X166072748Y-66692999D01*
X166370459Y-66987603D01*
X166300832Y-67249101D01*
X166251473Y-67451775D01*
X166238765Y-67581726D01*
X166268423Y-67663006D01*
X166346163Y-67719666D01*
X166420500Y-67752769D01*
X166599469Y-67816215D01*
X166721260Y-67820641D01*
X166817843Y-67755761D01*
X166921188Y-67611290D01*
X166936373Y-67586800D01*
X167092660Y-67332800D01*
X167948485Y-67332800D01*
X168104773Y-67586800D01*
X168194601Y-67722996D01*
X168267000Y-67815283D01*
X168299630Y-67841051D01*
X168392841Y-67822806D01*
X168524481Y-67776869D01*
X168661429Y-67717664D01*
X168770563Y-67659616D01*
X168818759Y-67617152D01*
X168818990Y-67614864D01*
X168806867Y-67539168D01*
X168777449Y-67399464D01*
X168748615Y-67274645D01*
X168680049Y-66987891D01*
X168971241Y-66699738D01*
X169262433Y-66411584D01*
X169580636Y-66494039D01*
X169744856Y-66534000D01*
X169863521Y-66557969D01*
X169909529Y-66560947D01*
X169933823Y-66509512D01*
X169984982Y-66393670D01*
X170029191Y-66291400D01*
X170089254Y-66142133D01*
X170107742Y-66057033D01*
X170087245Y-66008768D01*
X170058071Y-65986600D01*
X169818742Y-65825358D01*
X169668721Y-65701164D01*
X169604161Y-65610510D01*
X169604042Y-65572715D01*
X169619101Y-65484726D01*
X169629747Y-65329445D01*
X169633600Y-65148602D01*
X169633600Y-64801514D01*
X170137426Y-64491506D01*
X170031140Y-64235753D01*
X169971528Y-64099035D01*
X169916058Y-64020713D01*
X169838832Y-63990946D01*
X169713956Y-63999895D01*
X169515533Y-64037720D01*
X169511887Y-64038452D01*
X169220829Y-64096905D01*
X168966046Y-63847952D01*
X168849607Y-63732873D01*
X168776178Y-63643617D01*
X168740307Y-63554470D01*
X168736541Y-63439716D01*
X168759428Y-63273641D01*
X168798523Y-63057861D01*
X168813647Y-62947270D01*
X168793736Y-62879067D01*
X168718478Y-62824581D01*
X168591584Y-62765761D01*
X168449182Y-62705441D01*
X168347480Y-62667289D01*
X168319042Y-62660208D01*
X168278182Y-62700864D01*
X168205053Y-62805057D01*
X168137200Y-62914208D01*
X167987001Y-63167200D01*
X167108786Y-63167200D01*
X166950891Y-62913200D01*
X166858573Y-62776987D01*
X166781461Y-62684800D01*
X166744309Y-62659200D01*
X166672553Y-62677910D01*
X166543661Y-62725620D01*
X166459293Y-62760502D01*
X166314204Y-62832887D01*
X166251380Y-62895638D01*
X166249994Y-62951002D01*
X166277367Y-63054224D01*
X166313975Y-63207412D01*
X166327867Y-63268800D01*
X166378711Y-63497400D01*
X166084333Y-63793113D01*
X165789956Y-64088827D01*
X165470958Y-64006166D01*
X165305410Y-63966228D01*
X165184257Y-63942573D01*
X165135372Y-63940093D01*
X165108063Y-63991814D01*
X165057295Y-64102848D01*
X164997923Y-64238888D01*
X164944800Y-64365627D01*
X164912781Y-64448760D01*
X164909200Y-64462454D01*
X164302151Y-64462454D01*
X164509553Y-64127256D01*
X164783403Y-63649800D01*
X164933709Y-63430574D01*
X165146727Y-63185015D01*
X165397168Y-62937565D01*
X165659744Y-62712671D01*
X165909165Y-62534777D01*
X165980494Y-62492644D01*
X166471499Y-62269368D01*
X166992131Y-62122115D01*
X167520407Y-62054356D01*
X168034345Y-62069558D01*
G36*
X167815455Y-63951439D02*
X167969179Y-63989590D01*
X168210064Y-64105893D01*
X168442528Y-64295645D01*
X168639755Y-64532373D01*
X168772182Y-64782248D01*
X168853363Y-65125722D01*
X168844010Y-65460085D01*
X168754492Y-65773439D01*
X168595177Y-66053882D01*
X168376434Y-66289514D01*
X168108632Y-66468434D01*
X167802138Y-66578742D01*
X167467323Y-66608537D01*
X167212064Y-66572867D01*
X166878557Y-66444008D01*
X166597267Y-66236616D01*
X166379699Y-65965242D01*
X166237355Y-65644437D01*
X166181738Y-65288755D01*
X166181429Y-65269086D01*
X166223856Y-64907469D01*
X166349742Y-64589481D01*
X166547212Y-64323623D01*
X166804393Y-64118391D01*
X167109409Y-63982284D01*
X167450388Y-63923801D01*
X167815455Y-63951439D01*
X167815455Y-63951439D01*
G37*
X167815455Y-63951439D02*
X167969179Y-63989590D01*
X168210064Y-64105893D01*
X168442528Y-64295645D01*
X168639755Y-64532373D01*
X168772182Y-64782248D01*
X168853363Y-65125722D01*
X168844010Y-65460085D01*
X168754492Y-65773439D01*
X168595177Y-66053882D01*
X168376434Y-66289514D01*
X168108632Y-66468434D01*
X167802138Y-66578742D01*
X167467323Y-66608537D01*
X167212064Y-66572867D01*
X166878557Y-66444008D01*
X166597267Y-66236616D01*
X166379699Y-65965242D01*
X166237355Y-65644437D01*
X166181738Y-65288755D01*
X166181429Y-65269086D01*
X166223856Y-64907469D01*
X166349742Y-64589481D01*
X166547212Y-64323623D01*
X166804393Y-64118391D01*
X167109409Y-63982284D01*
X167450388Y-63923801D01*
X167815455Y-63951439D01*
M02*
