G04 #@! TF.FileFunction,Other,Fab,Bot*
%FSLAX46Y46*%
G04 Gerber Fmt 4.6, Leading zero omitted, Abs format (unit mm)*
G04 Created by KiCad (PCBNEW 4.0.7-e2-6376~58~ubuntu14.04.1) date Wed Aug  8 16:14:33 2018*
%MOMM*%
%LPD*%
G01*
G04 APERTURE LIST*
%ADD10C,0.100000*%
%ADD11C,0.150000*%
G04 APERTURE END LIST*
D10*
X196150000Y-75500000D02*
X195350000Y-75500000D01*
X196150000Y-77100000D02*
X196150000Y-75500000D01*
X195350000Y-77100000D02*
X196150000Y-77100000D01*
X195350000Y-75500000D02*
X195350000Y-77100000D01*
X188250000Y-78800000D02*
X188250000Y-77200000D01*
X185050000Y-78800000D02*
X188250000Y-78800000D01*
X185050000Y-77200000D02*
X185050000Y-78800000D01*
X188250000Y-77200000D02*
X185050000Y-77200000D01*
D11*
X171250000Y-66400000D02*
X171750000Y-66400000D01*
X171250000Y-65400000D02*
X171250000Y-66400000D01*
X171750000Y-65400000D02*
X171250000Y-65400000D01*
X171750000Y-66400000D02*
X171750000Y-65400000D01*
X171750000Y-63000000D02*
X171250000Y-63000000D01*
X171750000Y-64000000D02*
X171750000Y-63000000D01*
X171250000Y-64000000D02*
X171750000Y-64000000D01*
X171250000Y-63000000D02*
X171250000Y-64000000D01*
X163750000Y-64100000D02*
X163250000Y-64100000D01*
X163750000Y-65100000D02*
X163750000Y-64100000D01*
X163250000Y-65100000D02*
X163750000Y-65100000D01*
X163250000Y-64100000D02*
X163250000Y-65100000D01*
X172700000Y-62350000D02*
X172700000Y-62850000D01*
X173700000Y-62350000D02*
X172700000Y-62350000D01*
X173700000Y-62850000D02*
X173700000Y-62350000D01*
X172700000Y-62850000D02*
X173700000Y-62850000D01*
X194930330Y-67423223D02*
X194576777Y-67069670D01*
X194223223Y-68130330D02*
X194930330Y-67423223D01*
X193869670Y-67776777D02*
X194223223Y-68130330D01*
X194576777Y-67069670D02*
X193869670Y-67776777D01*
X195530330Y-68023223D02*
X195176777Y-67669670D01*
X194823223Y-68730330D02*
X195530330Y-68023223D01*
X194469670Y-68376777D02*
X194823223Y-68730330D01*
X195176777Y-67669670D02*
X194469670Y-68376777D01*
X192100000Y-67050000D02*
X192100000Y-66550000D01*
X191100000Y-67050000D02*
X192100000Y-67050000D01*
X191100000Y-66550000D02*
X191100000Y-67050000D01*
X192100000Y-66550000D02*
X191100000Y-66550000D01*
X185550000Y-71150000D02*
X185550000Y-71650000D01*
X186550000Y-71150000D02*
X185550000Y-71150000D01*
X186550000Y-71650000D02*
X186550000Y-71150000D01*
X185550000Y-71650000D02*
X186550000Y-71650000D01*
X185550000Y-74350000D02*
X185550000Y-74850000D01*
X186550000Y-74350000D02*
X185550000Y-74350000D01*
X186550000Y-74850000D02*
X186550000Y-74350000D01*
X185550000Y-74850000D02*
X186550000Y-74850000D01*
X189100000Y-76500000D02*
X189600000Y-76500000D01*
X189100000Y-75500000D02*
X189100000Y-76500000D01*
X189600000Y-75500000D02*
X189100000Y-75500000D01*
X189600000Y-76500000D02*
X189600000Y-75500000D01*
D10*
X191000000Y-75500000D02*
X190200000Y-75500000D01*
X191000000Y-77100000D02*
X191000000Y-75500000D01*
X190200000Y-77100000D02*
X191000000Y-77100000D01*
X190200000Y-75500000D02*
X190200000Y-77100000D01*
D11*
X192100000Y-65950000D02*
X192100000Y-65450000D01*
X191100000Y-65950000D02*
X192100000Y-65950000D01*
X191100000Y-65450000D02*
X191100000Y-65950000D01*
X192100000Y-65450000D02*
X191100000Y-65450000D01*
X196207143Y-74333334D02*
X196254762Y-74285715D01*
X196302381Y-74142858D01*
X196302381Y-74047620D01*
X196254762Y-73904762D01*
X196159524Y-73809524D01*
X196064286Y-73761905D01*
X195873810Y-73714286D01*
X195730952Y-73714286D01*
X195540476Y-73761905D01*
X195445238Y-73809524D01*
X195350000Y-73904762D01*
X195302381Y-74047620D01*
X195302381Y-74142858D01*
X195350000Y-74285715D01*
X195397619Y-74333334D01*
X196302381Y-75285715D02*
X196302381Y-74714286D01*
X196302381Y-75000000D02*
X195302381Y-75000000D01*
X195445238Y-74904762D01*
X195540476Y-74809524D01*
X195588095Y-74714286D01*
X191425973Y-70751523D02*
X190853553Y-71323943D01*
X190752538Y-71357615D01*
X190685195Y-71357615D01*
X190584180Y-71323943D01*
X190449492Y-71189255D01*
X190415820Y-71088240D01*
X190415820Y-71020897D01*
X190449492Y-70919882D01*
X191021912Y-70347462D01*
X189607698Y-70347462D02*
X190011760Y-70751523D01*
X189809729Y-70549493D02*
X190516836Y-69842386D01*
X190483164Y-70010745D01*
X190483164Y-70145431D01*
X190516836Y-70246447D01*
X183352381Y-62161905D02*
X182352381Y-62161905D01*
X182352381Y-62542858D01*
X182400000Y-62638096D01*
X182447619Y-62685715D01*
X182542857Y-62733334D01*
X182685714Y-62733334D01*
X182780952Y-62685715D01*
X182828571Y-62638096D01*
X182876190Y-62542858D01*
X182876190Y-62161905D01*
X182685714Y-63590477D02*
X183352381Y-63590477D01*
X182304762Y-63352381D02*
X183019048Y-63114286D01*
X183019048Y-63733334D01*
X168188095Y-63652381D02*
X168188095Y-62652381D01*
X167950000Y-62652381D01*
X167807142Y-62700000D01*
X167711904Y-62795238D01*
X167664285Y-62890476D01*
X167616666Y-63080952D01*
X167616666Y-63223810D01*
X167664285Y-63414286D01*
X167711904Y-63509524D01*
X167807142Y-63604762D01*
X167950000Y-63652381D01*
X168188095Y-63652381D01*
X166664285Y-63652381D02*
X167235714Y-63652381D01*
X166950000Y-63652381D02*
X166950000Y-62652381D01*
X167045238Y-62795238D01*
X167140476Y-62890476D01*
X167235714Y-62938095D01*
X156138095Y-65852381D02*
X156138095Y-64852381D01*
X155757142Y-64852381D01*
X155661904Y-64900000D01*
X155614285Y-64947619D01*
X155566666Y-65042857D01*
X155566666Y-65185714D01*
X155614285Y-65280952D01*
X155661904Y-65328571D01*
X155757142Y-65376190D01*
X156138095Y-65376190D01*
X154614285Y-65852381D02*
X155185714Y-65852381D01*
X154900000Y-65852381D02*
X154900000Y-64852381D01*
X154995238Y-64995238D01*
X155090476Y-65090476D01*
X155185714Y-65138095D01*
X201436769Y-65302995D02*
X200729662Y-64595888D01*
X200460287Y-64865262D01*
X200426616Y-64966278D01*
X200426616Y-65033621D01*
X200460287Y-65134636D01*
X200561303Y-65235651D01*
X200662318Y-65269323D01*
X200729661Y-65269323D01*
X200830676Y-65235651D01*
X201100051Y-64966277D01*
X200123570Y-65336666D02*
X200056227Y-65336666D01*
X199955212Y-65370338D01*
X199786852Y-65538697D01*
X199753181Y-65639713D01*
X199753181Y-65707056D01*
X199786852Y-65808071D01*
X199854196Y-65875415D01*
X199988883Y-65942758D01*
X200797005Y-65942758D01*
X200359272Y-66380491D01*
X200797005Y-75336769D02*
X201504112Y-74629662D01*
X201234738Y-74360287D01*
X201133722Y-74326616D01*
X201066379Y-74326616D01*
X200965364Y-74360287D01*
X200864349Y-74461303D01*
X200830677Y-74562318D01*
X200830677Y-74629661D01*
X200864349Y-74730676D01*
X201133723Y-75000051D01*
X200864349Y-73989899D02*
X200426616Y-73552165D01*
X200392945Y-74057242D01*
X200291929Y-73956226D01*
X200190914Y-73922554D01*
X200123570Y-73922554D01*
X200022554Y-73956227D01*
X199854196Y-74124585D01*
X199820524Y-74225601D01*
X199820524Y-74292944D01*
X199854196Y-74393959D01*
X200056227Y-74595990D01*
X200157242Y-74629662D01*
X200224585Y-74629662D01*
X186816666Y-78357143D02*
X186864285Y-78404762D01*
X187007142Y-78452381D01*
X187102380Y-78452381D01*
X187245238Y-78404762D01*
X187340476Y-78309524D01*
X187388095Y-78214286D01*
X187435714Y-78023810D01*
X187435714Y-77880952D01*
X187388095Y-77690476D01*
X187340476Y-77595238D01*
X187245238Y-77500000D01*
X187102380Y-77452381D01*
X187007142Y-77452381D01*
X186864285Y-77500000D01*
X186816666Y-77547619D01*
X186435714Y-77547619D02*
X186388095Y-77500000D01*
X186292857Y-77452381D01*
X186054761Y-77452381D01*
X185959523Y-77500000D01*
X185911904Y-77547619D01*
X185864285Y-77642857D01*
X185864285Y-77738095D01*
X185911904Y-77880952D01*
X186483333Y-78452381D01*
X185864285Y-78452381D01*
X161747619Y-64504762D02*
X161700000Y-64409524D01*
X161604762Y-64314286D01*
X161461905Y-64171429D01*
X161414286Y-64076190D01*
X161414286Y-63980952D01*
X161652381Y-64028571D02*
X161604762Y-63933333D01*
X161509524Y-63838095D01*
X161319048Y-63790476D01*
X160985714Y-63790476D01*
X160795238Y-63838095D01*
X160700000Y-63933333D01*
X160652381Y-64028571D01*
X160652381Y-64219048D01*
X160700000Y-64314286D01*
X160795238Y-64409524D01*
X160985714Y-64457143D01*
X161319048Y-64457143D01*
X161509524Y-64409524D01*
X161604762Y-64314286D01*
X161652381Y-64219048D01*
X161652381Y-64028571D01*
X160652381Y-64790476D02*
X160652381Y-65409524D01*
X161033333Y-65076190D01*
X161033333Y-65219048D01*
X161080952Y-65314286D01*
X161128571Y-65361905D01*
X161223810Y-65409524D01*
X161461905Y-65409524D01*
X161557143Y-65361905D01*
X161604762Y-65314286D01*
X161652381Y-65219048D01*
X161652381Y-64933333D01*
X161604762Y-64838095D01*
X161557143Y-64790476D01*
X173495238Y-65747619D02*
X173590476Y-65700000D01*
X173685714Y-65604762D01*
X173828571Y-65461905D01*
X173923810Y-65414286D01*
X174019048Y-65414286D01*
X173971429Y-65652381D02*
X174066667Y-65604762D01*
X174161905Y-65509524D01*
X174209524Y-65319048D01*
X174209524Y-64985714D01*
X174161905Y-64795238D01*
X174066667Y-64700000D01*
X173971429Y-64652381D01*
X173780952Y-64652381D01*
X173685714Y-64700000D01*
X173590476Y-64795238D01*
X173542857Y-64985714D01*
X173542857Y-65319048D01*
X173590476Y-65509524D01*
X173685714Y-65604762D01*
X173780952Y-65652381D01*
X173971429Y-65652381D01*
X172590476Y-65652381D02*
X173161905Y-65652381D01*
X172876191Y-65652381D02*
X172876191Y-64652381D01*
X172971429Y-64795238D01*
X173066667Y-64890476D01*
X173161905Y-64938095D01*
X176495238Y-65747619D02*
X176590476Y-65700000D01*
X176685714Y-65604762D01*
X176828571Y-65461905D01*
X176923810Y-65414286D01*
X177019048Y-65414286D01*
X176971429Y-65652381D02*
X177066667Y-65604762D01*
X177161905Y-65509524D01*
X177209524Y-65319048D01*
X177209524Y-64985714D01*
X177161905Y-64795238D01*
X177066667Y-64700000D01*
X176971429Y-64652381D01*
X176780952Y-64652381D01*
X176685714Y-64700000D01*
X176590476Y-64795238D01*
X176542857Y-64985714D01*
X176542857Y-65319048D01*
X176590476Y-65509524D01*
X176685714Y-65604762D01*
X176780952Y-65652381D01*
X176971429Y-65652381D01*
X176161905Y-64747619D02*
X176114286Y-64700000D01*
X176019048Y-64652381D01*
X175780952Y-64652381D01*
X175685714Y-64700000D01*
X175638095Y-64747619D01*
X175590476Y-64842857D01*
X175590476Y-64938095D01*
X175638095Y-65080952D01*
X176209524Y-65652381D01*
X175590476Y-65652381D01*
X171002381Y-65733334D02*
X170526190Y-65400000D01*
X171002381Y-65161905D02*
X170002381Y-65161905D01*
X170002381Y-65542858D01*
X170050000Y-65638096D01*
X170097619Y-65685715D01*
X170192857Y-65733334D01*
X170335714Y-65733334D01*
X170430952Y-65685715D01*
X170478571Y-65638096D01*
X170526190Y-65542858D01*
X170526190Y-65161905D01*
X171002381Y-66685715D02*
X171002381Y-66114286D01*
X171002381Y-66400000D02*
X170002381Y-66400000D01*
X170145238Y-66304762D01*
X170240476Y-66209524D01*
X170288095Y-66114286D01*
X171002381Y-63233334D02*
X170526190Y-62900000D01*
X171002381Y-62661905D02*
X170002381Y-62661905D01*
X170002381Y-63042858D01*
X170050000Y-63138096D01*
X170097619Y-63185715D01*
X170192857Y-63233334D01*
X170335714Y-63233334D01*
X170430952Y-63185715D01*
X170478571Y-63138096D01*
X170526190Y-63042858D01*
X170526190Y-62661905D01*
X170002381Y-64138096D02*
X170002381Y-63661905D01*
X170478571Y-63614286D01*
X170430952Y-63661905D01*
X170383333Y-63757143D01*
X170383333Y-63995239D01*
X170430952Y-64090477D01*
X170478571Y-64138096D01*
X170573810Y-64185715D01*
X170811905Y-64185715D01*
X170907143Y-64138096D01*
X170954762Y-64090477D01*
X171002381Y-63995239D01*
X171002381Y-63757143D01*
X170954762Y-63661905D01*
X170907143Y-63614286D01*
X165002381Y-64433334D02*
X164526190Y-64100000D01*
X165002381Y-63861905D02*
X164002381Y-63861905D01*
X164002381Y-64242858D01*
X164050000Y-64338096D01*
X164097619Y-64385715D01*
X164192857Y-64433334D01*
X164335714Y-64433334D01*
X164430952Y-64385715D01*
X164478571Y-64338096D01*
X164526190Y-64242858D01*
X164526190Y-63861905D01*
X164002381Y-65290477D02*
X164002381Y-65100000D01*
X164050000Y-65004762D01*
X164097619Y-64957143D01*
X164240476Y-64861905D01*
X164430952Y-64814286D01*
X164811905Y-64814286D01*
X164907143Y-64861905D01*
X164954762Y-64909524D01*
X165002381Y-65004762D01*
X165002381Y-65195239D01*
X164954762Y-65290477D01*
X164907143Y-65338096D01*
X164811905Y-65385715D01*
X164573810Y-65385715D01*
X164478571Y-65338096D01*
X164430952Y-65290477D01*
X164383333Y-65195239D01*
X164383333Y-65004762D01*
X164430952Y-64909524D01*
X164478571Y-64861905D01*
X164573810Y-64814286D01*
X173416666Y-62152381D02*
X173750000Y-61676190D01*
X173988095Y-62152381D02*
X173988095Y-61152381D01*
X173607142Y-61152381D01*
X173511904Y-61200000D01*
X173464285Y-61247619D01*
X173416666Y-61342857D01*
X173416666Y-61485714D01*
X173464285Y-61580952D01*
X173511904Y-61628571D01*
X173607142Y-61676190D01*
X173988095Y-61676190D01*
X172940476Y-62152381D02*
X172750000Y-62152381D01*
X172654761Y-62104762D01*
X172607142Y-62057143D01*
X172511904Y-61914286D01*
X172464285Y-61723810D01*
X172464285Y-61342857D01*
X172511904Y-61247619D01*
X172559523Y-61200000D01*
X172654761Y-61152381D01*
X172845238Y-61152381D01*
X172940476Y-61200000D01*
X172988095Y-61247619D01*
X173035714Y-61342857D01*
X173035714Y-61580952D01*
X172988095Y-61676190D01*
X172940476Y-61723810D01*
X172845238Y-61771429D01*
X172654761Y-61771429D01*
X172559523Y-61723810D01*
X172511904Y-61676190D01*
X172464285Y-61580952D01*
X195787732Y-66502031D02*
X195686717Y-65929610D01*
X196191794Y-66097970D02*
X195484687Y-65390863D01*
X195215312Y-65660237D01*
X195181641Y-65761253D01*
X195181641Y-65828596D01*
X195215312Y-65929611D01*
X195316328Y-66030626D01*
X195417343Y-66064298D01*
X195484686Y-66064298D01*
X195585701Y-66030626D01*
X195855076Y-65761252D01*
X194979610Y-66502030D02*
X195013282Y-66401015D01*
X195013282Y-66333672D01*
X194979610Y-66232657D01*
X194945939Y-66198985D01*
X194844924Y-66165313D01*
X194777580Y-66165313D01*
X194676565Y-66198985D01*
X194541877Y-66333672D01*
X194508206Y-66434688D01*
X194508206Y-66502031D01*
X194541877Y-66603046D01*
X194575549Y-66636718D01*
X194676564Y-66670390D01*
X194743908Y-66670390D01*
X194844923Y-66636718D01*
X194979610Y-66502030D01*
X195080626Y-66468359D01*
X195147969Y-66468359D01*
X195248985Y-66502031D01*
X195383672Y-66636718D01*
X195417343Y-66737733D01*
X195417343Y-66805076D01*
X195383672Y-66906092D01*
X195248984Y-67040779D01*
X195147969Y-67074451D01*
X195080626Y-67074451D01*
X194979610Y-67040779D01*
X194844924Y-66906092D01*
X194811251Y-66805076D01*
X194811251Y-66737733D01*
X194844923Y-66636718D01*
X196787732Y-67502031D02*
X196686717Y-66929610D01*
X197191794Y-67097970D02*
X196484687Y-66390863D01*
X196215312Y-66660237D01*
X196181641Y-66761253D01*
X196181641Y-66828596D01*
X196215312Y-66929611D01*
X196316328Y-67030626D01*
X196417343Y-67064298D01*
X196484686Y-67064298D01*
X196585701Y-67030626D01*
X196855076Y-66761252D01*
X195844924Y-67030626D02*
X195373519Y-67502031D01*
X196383672Y-67906092D01*
X189816666Y-67352381D02*
X190150000Y-66876190D01*
X190388095Y-67352381D02*
X190388095Y-66352381D01*
X190007142Y-66352381D01*
X189911904Y-66400000D01*
X189864285Y-66447619D01*
X189816666Y-66542857D01*
X189816666Y-66685714D01*
X189864285Y-66780952D01*
X189911904Y-66828571D01*
X190007142Y-66876190D01*
X190388095Y-66876190D01*
X188959523Y-66685714D02*
X188959523Y-67352381D01*
X189197619Y-66304762D02*
X189435714Y-67019048D01*
X188816666Y-67019048D01*
X186216666Y-70952381D02*
X186550000Y-70476190D01*
X186788095Y-70952381D02*
X186788095Y-69952381D01*
X186407142Y-69952381D01*
X186311904Y-70000000D01*
X186264285Y-70047619D01*
X186216666Y-70142857D01*
X186216666Y-70285714D01*
X186264285Y-70380952D01*
X186311904Y-70428571D01*
X186407142Y-70476190D01*
X186788095Y-70476190D01*
X185883333Y-69952381D02*
X185264285Y-69952381D01*
X185597619Y-70333333D01*
X185454761Y-70333333D01*
X185359523Y-70380952D01*
X185311904Y-70428571D01*
X185264285Y-70523810D01*
X185264285Y-70761905D01*
X185311904Y-70857143D01*
X185359523Y-70904762D01*
X185454761Y-70952381D01*
X185740476Y-70952381D01*
X185835714Y-70904762D01*
X185883333Y-70857143D01*
X186216666Y-76052381D02*
X186550000Y-75576190D01*
X186788095Y-76052381D02*
X186788095Y-75052381D01*
X186407142Y-75052381D01*
X186311904Y-75100000D01*
X186264285Y-75147619D01*
X186216666Y-75242857D01*
X186216666Y-75385714D01*
X186264285Y-75480952D01*
X186311904Y-75528571D01*
X186407142Y-75576190D01*
X186788095Y-75576190D01*
X185835714Y-75147619D02*
X185788095Y-75100000D01*
X185692857Y-75052381D01*
X185454761Y-75052381D01*
X185359523Y-75100000D01*
X185311904Y-75147619D01*
X185264285Y-75242857D01*
X185264285Y-75338095D01*
X185311904Y-75480952D01*
X185883333Y-76052381D01*
X185264285Y-76052381D01*
X184202381Y-72238095D02*
X185011905Y-72238095D01*
X185107143Y-72285714D01*
X185154762Y-72333333D01*
X185202381Y-72428571D01*
X185202381Y-72619048D01*
X185154762Y-72714286D01*
X185107143Y-72761905D01*
X185011905Y-72809524D01*
X184202381Y-72809524D01*
X184202381Y-73190476D02*
X184202381Y-73809524D01*
X184583333Y-73476190D01*
X184583333Y-73619048D01*
X184630952Y-73714286D01*
X184678571Y-73761905D01*
X184773810Y-73809524D01*
X185011905Y-73809524D01*
X185107143Y-73761905D01*
X185154762Y-73714286D01*
X185202381Y-73619048D01*
X185202381Y-73333333D01*
X185154762Y-73238095D01*
X185107143Y-73190476D01*
X192652381Y-75538095D02*
X193461905Y-75538095D01*
X193557143Y-75585714D01*
X193604762Y-75633333D01*
X193652381Y-75728571D01*
X193652381Y-75919048D01*
X193604762Y-76014286D01*
X193557143Y-76061905D01*
X193461905Y-76109524D01*
X192652381Y-76109524D01*
X192747619Y-76538095D02*
X192700000Y-76585714D01*
X192652381Y-76680952D01*
X192652381Y-76919048D01*
X192700000Y-77014286D01*
X192747619Y-77061905D01*
X192842857Y-77109524D01*
X192938095Y-77109524D01*
X193080952Y-77061905D01*
X193652381Y-76490476D01*
X193652381Y-77109524D01*
X189707143Y-74233334D02*
X189754762Y-74185715D01*
X189802381Y-74042858D01*
X189802381Y-73947620D01*
X189754762Y-73804762D01*
X189659524Y-73709524D01*
X189564286Y-73661905D01*
X189373810Y-73614286D01*
X189230952Y-73614286D01*
X189040476Y-73661905D01*
X188945238Y-73709524D01*
X188850000Y-73804762D01*
X188802381Y-73947620D01*
X188802381Y-74042858D01*
X188850000Y-74185715D01*
X188897619Y-74233334D01*
X188802381Y-74566667D02*
X188802381Y-75185715D01*
X189183333Y-74852381D01*
X189183333Y-74995239D01*
X189230952Y-75090477D01*
X189278571Y-75138096D01*
X189373810Y-75185715D01*
X189611905Y-75185715D01*
X189707143Y-75138096D01*
X189754762Y-75090477D01*
X189802381Y-74995239D01*
X189802381Y-74709524D01*
X189754762Y-74614286D01*
X189707143Y-74566667D01*
X191107143Y-74233334D02*
X191154762Y-74185715D01*
X191202381Y-74042858D01*
X191202381Y-73947620D01*
X191154762Y-73804762D01*
X191059524Y-73709524D01*
X190964286Y-73661905D01*
X190773810Y-73614286D01*
X190630952Y-73614286D01*
X190440476Y-73661905D01*
X190345238Y-73709524D01*
X190250000Y-73804762D01*
X190202381Y-73947620D01*
X190202381Y-74042858D01*
X190250000Y-74185715D01*
X190297619Y-74233334D01*
X190535714Y-75090477D02*
X191202381Y-75090477D01*
X190154762Y-74852381D02*
X190869048Y-74614286D01*
X190869048Y-75233334D01*
X189816666Y-65957143D02*
X189864285Y-66004762D01*
X190007142Y-66052381D01*
X190102380Y-66052381D01*
X190245238Y-66004762D01*
X190340476Y-65909524D01*
X190388095Y-65814286D01*
X190435714Y-65623810D01*
X190435714Y-65480952D01*
X190388095Y-65290476D01*
X190340476Y-65195238D01*
X190245238Y-65100000D01*
X190102380Y-65052381D01*
X190007142Y-65052381D01*
X189864285Y-65100000D01*
X189816666Y-65147619D01*
X188911904Y-65052381D02*
X189388095Y-65052381D01*
X189435714Y-65528571D01*
X189388095Y-65480952D01*
X189292857Y-65433333D01*
X189054761Y-65433333D01*
X188959523Y-65480952D01*
X188911904Y-65528571D01*
X188864285Y-65623810D01*
X188864285Y-65861905D01*
X188911904Y-65957143D01*
X188959523Y-66004762D01*
X189054761Y-66052381D01*
X189292857Y-66052381D01*
X189388095Y-66004762D01*
X189435714Y-65957143D01*
X194033333Y-62754762D02*
X193890476Y-62802381D01*
X193652380Y-62802381D01*
X193557142Y-62754762D01*
X193509523Y-62707143D01*
X193461904Y-62611905D01*
X193461904Y-62516667D01*
X193509523Y-62421429D01*
X193557142Y-62373810D01*
X193652380Y-62326190D01*
X193842857Y-62278571D01*
X193938095Y-62230952D01*
X193985714Y-62183333D01*
X194033333Y-62088095D01*
X194033333Y-61992857D01*
X193985714Y-61897619D01*
X193938095Y-61850000D01*
X193842857Y-61802381D01*
X193604761Y-61802381D01*
X193461904Y-61850000D01*
X193128571Y-61802381D02*
X192890476Y-62802381D01*
X192699999Y-62088095D01*
X192509523Y-62802381D01*
X192271428Y-61802381D01*
X191366666Y-62802381D02*
X191938095Y-62802381D01*
X191652381Y-62802381D02*
X191652381Y-61802381D01*
X191747619Y-61945238D01*
X191842857Y-62040476D01*
X191938095Y-62088095D01*
M02*
