G04 #@! TF.FileFunction,Copper,L2,Bot,Signal*
%FSLAX46Y46*%
G04 Gerber Fmt 4.6, Leading zero omitted, Abs format (unit mm)*
G04 Created by KiCad (PCBNEW 4.0.7-e2-6376~58~ubuntu14.04.1) date Mon Aug  6 17:59:04 2018*
%MOMM*%
%LPD*%
G01*
G04 APERTURE LIST*
%ADD10C,0.100000*%
%ADD11C,0.010000*%
%ADD12R,0.750000X1.200000*%
%ADD13R,0.600000X1.700000*%
%ADD14R,1.000000X2.700000*%
%ADD15C,3.000000*%
%ADD16R,1.600000X0.800000*%
%ADD17R,1.000000X1.200000*%
%ADD18R,1.700000X0.600000*%
%ADD19R,2.700000X1.000000*%
%ADD20R,1.000000X1.600000*%
%ADD21R,1.200000X0.600000*%
%ADD22R,0.600000X1.200000*%
%ADD23R,0.500000X0.800000*%
%ADD24R,0.800000X0.500000*%
%ADD25R,0.800000X0.300000*%
%ADD26R,1.000000X1.400000*%
%ADD27R,2.000000X1.000000*%
%ADD28C,0.600000*%
%ADD29C,0.500000*%
%ADD30C,0.150000*%
%ADD31C,0.200000*%
%ADD32C,0.400000*%
%ADD33C,0.300000*%
G04 APERTURE END LIST*
D10*
D11*
G36*
X174035824Y-67443092D02*
X174980998Y-67444372D01*
X175827693Y-67446429D01*
X176575528Y-67449260D01*
X177224121Y-67452865D01*
X177773088Y-67457242D01*
X178222047Y-67462390D01*
X178570616Y-67468306D01*
X178818412Y-67474990D01*
X178965052Y-67482441D01*
X178978718Y-67483665D01*
X179386739Y-67544133D01*
X179728308Y-67645161D01*
X180034997Y-67800605D01*
X180338381Y-68024321D01*
X180466409Y-68136507D01*
X180676607Y-68320163D01*
X180866988Y-68464007D01*
X181055099Y-68573727D01*
X181258487Y-68655012D01*
X181494698Y-68713548D01*
X181781279Y-68755025D01*
X182135776Y-68785130D01*
X182536800Y-68807664D01*
X182974367Y-68833397D01*
X183326090Y-68864807D01*
X183607678Y-68904482D01*
X183834840Y-68955009D01*
X184023283Y-69018978D01*
X184137000Y-69071308D01*
X184323546Y-69146643D01*
X184562355Y-69205540D01*
X184866106Y-69249923D01*
X185247480Y-69281717D01*
X185646907Y-69300446D01*
X185985238Y-69314749D01*
X186235224Y-69334478D01*
X186410120Y-69365377D01*
X186523178Y-69413190D01*
X186587655Y-69483659D01*
X186616803Y-69582529D01*
X186623878Y-69715543D01*
X186623890Y-69723797D01*
X186609240Y-69879644D01*
X186554997Y-69988235D01*
X186445721Y-70059657D01*
X186265975Y-70103995D01*
X186000318Y-70131335D01*
X185999989Y-70131358D01*
X185705299Y-70158519D01*
X185460539Y-70200618D01*
X185248540Y-70267608D01*
X185052134Y-70369441D01*
X184854153Y-70516071D01*
X184637430Y-70717450D01*
X184384796Y-70983531D01*
X184224881Y-71160434D01*
X184121522Y-71273409D01*
X184027093Y-71363711D01*
X183929065Y-71433880D01*
X183814911Y-71486454D01*
X183672100Y-71523973D01*
X183488106Y-71548975D01*
X183250400Y-71564000D01*
X182946452Y-71571586D01*
X182563735Y-71574272D01*
X182181200Y-71574600D01*
X181656267Y-71572758D01*
X181218255Y-71564277D01*
X180852507Y-71544718D01*
X180544368Y-71509644D01*
X180279180Y-71454619D01*
X180042289Y-71375204D01*
X179819038Y-71266964D01*
X179594772Y-71125460D01*
X179354834Y-70946256D01*
X179084569Y-70724914D01*
X178923065Y-70588187D01*
X178920562Y-70586259D01*
X179158600Y-70586259D01*
X179285600Y-70689803D01*
X179424344Y-70800153D01*
X179571234Y-70912724D01*
X179702914Y-71010154D01*
X179796027Y-71075080D01*
X179826621Y-71092000D01*
X179836767Y-71046274D01*
X179843203Y-70929371D01*
X179844400Y-70838000D01*
X179844400Y-70584000D01*
X179996800Y-70584000D01*
X179996800Y-70882636D01*
X180000586Y-71052091D01*
X180019583Y-71149040D01*
X180065244Y-71202507D01*
X180136500Y-71236606D01*
X180335022Y-71300352D01*
X180583661Y-71359912D01*
X180831207Y-71403606D01*
X180911200Y-71413305D01*
X181040896Y-71427579D01*
X181122580Y-71438598D01*
X181127100Y-71439470D01*
X181144285Y-71396420D01*
X181157441Y-71274530D01*
X181164525Y-71096537D01*
X181165200Y-71015800D01*
X181165200Y-70584000D01*
X181317600Y-70584000D01*
X181317600Y-70981933D01*
X181321651Y-71174139D01*
X181332386Y-71325022D01*
X181347679Y-71407455D01*
X181351466Y-71413733D01*
X181413242Y-71427524D01*
X181554218Y-71438610D01*
X181752006Y-71445690D01*
X181935666Y-71447600D01*
X182486000Y-71447600D01*
X182486000Y-70584000D01*
X182638400Y-70584000D01*
X182638400Y-70981933D01*
X182642972Y-71175135D01*
X182655084Y-71327994D01*
X182672333Y-71412878D01*
X182676500Y-71419606D01*
X182744782Y-71436392D01*
X182886328Y-71440952D01*
X183073775Y-71435084D01*
X183279758Y-71420588D01*
X183476915Y-71399265D01*
X183637881Y-71372913D01*
X183717900Y-71351121D01*
X183791007Y-71317219D01*
X183832808Y-71268522D01*
X183852025Y-71179413D01*
X183857383Y-71024271D01*
X183857600Y-70940857D01*
X183857600Y-70584000D01*
X183959200Y-70584000D01*
X183963366Y-71219000D01*
X184168789Y-70991714D01*
X184288287Y-70853544D01*
X184383077Y-70733285D01*
X184422493Y-70674214D01*
X184440396Y-70621016D01*
X184406724Y-70594089D01*
X184301547Y-70584767D01*
X184214987Y-70584000D01*
X183959200Y-70584000D01*
X183857600Y-70584000D01*
X182638400Y-70584000D01*
X182486000Y-70584000D01*
X181317600Y-70584000D01*
X181165200Y-70584000D01*
X179996800Y-70584000D01*
X179844400Y-70584000D01*
X179501500Y-70585129D01*
X179158600Y-70586259D01*
X178920562Y-70586259D01*
X178717682Y-70430020D01*
X178485656Y-70276307D01*
X178276042Y-70159465D01*
X178269600Y-70156387D01*
X177917563Y-70035972D01*
X177549425Y-69992677D01*
X177193471Y-70027465D01*
X176938825Y-70111088D01*
X176619070Y-70311150D01*
X176347873Y-70588193D01*
X176136708Y-70924608D01*
X175997048Y-71302785D01*
X175943468Y-71638626D01*
X175934870Y-71845030D01*
X175947658Y-71996731D01*
X175990870Y-72139874D01*
X176073545Y-72320604D01*
X176079385Y-72332487D01*
X176269451Y-72636131D01*
X176520191Y-72917135D01*
X176805364Y-73150688D01*
X177098732Y-73311978D01*
X177126748Y-73322892D01*
X177185052Y-73343798D01*
X177245122Y-73361756D01*
X177314743Y-73376990D01*
X177401700Y-73389723D01*
X177513779Y-73400180D01*
X177658765Y-73408584D01*
X177844444Y-73415159D01*
X178078600Y-73420130D01*
X178369021Y-73423720D01*
X178723490Y-73426154D01*
X179149793Y-73427654D01*
X179655715Y-73428446D01*
X180249043Y-73428753D01*
X180808625Y-73428800D01*
X184207438Y-73428799D01*
X184286519Y-73541703D01*
X184356684Y-73717541D01*
X184347237Y-73903398D01*
X184293496Y-74015990D01*
X184283550Y-74027467D01*
X184268434Y-74038026D01*
X184244018Y-74047711D01*
X184206170Y-74056568D01*
X184150759Y-74064640D01*
X184073654Y-74071974D01*
X183970724Y-74078613D01*
X183837839Y-74084602D01*
X183670866Y-74089986D01*
X183465676Y-74094809D01*
X183218137Y-74099117D01*
X182924117Y-74102954D01*
X182579487Y-74106365D01*
X182180114Y-74109395D01*
X181721868Y-74112087D01*
X181200618Y-74114488D01*
X180612232Y-74116641D01*
X179952580Y-74118592D01*
X179217531Y-74120385D01*
X178402954Y-74122064D01*
X177504716Y-74123676D01*
X176518689Y-74125263D01*
X175440740Y-74126872D01*
X174266738Y-74128546D01*
X173841396Y-74129143D01*
X172541069Y-74130707D01*
X171312874Y-74131660D01*
X170158959Y-74132010D01*
X169081470Y-74131763D01*
X168082552Y-74130926D01*
X167164352Y-74129506D01*
X166329015Y-74127511D01*
X165578687Y-74124947D01*
X164915515Y-74121822D01*
X164341644Y-74118141D01*
X163859220Y-74113914D01*
X163470389Y-74109145D01*
X163177298Y-74103843D01*
X162982092Y-74098015D01*
X162902600Y-74093428D01*
X162591256Y-74058134D01*
X162314712Y-74007612D01*
X162045855Y-73933755D01*
X161757571Y-73828460D01*
X161422747Y-73683622D01*
X161226200Y-73592328D01*
X160992006Y-73484600D01*
X160817965Y-73414931D01*
X160673757Y-73375156D01*
X160529060Y-73357107D01*
X160353552Y-73352618D01*
X160336131Y-73352600D01*
X160110752Y-73359615D01*
X159936078Y-73388445D01*
X159761719Y-73450765D01*
X159614364Y-73519833D01*
X159260820Y-73745924D01*
X158985481Y-74034670D01*
X158792828Y-74379476D01*
X158687341Y-74773743D01*
X158672978Y-74905808D01*
X158687053Y-75319548D01*
X158793571Y-75691764D01*
X158993054Y-76023491D01*
X159286024Y-76315763D01*
X159443811Y-76431544D01*
X159717498Y-76588405D01*
X159989509Y-76682833D01*
X160274955Y-76714370D01*
X160588948Y-76682558D01*
X160925658Y-76592538D01*
X161404000Y-76592538D01*
X161404000Y-77035600D01*
X162623200Y-77035600D01*
X162623200Y-76159014D01*
X162414948Y-76192315D01*
X162269799Y-76229593D01*
X162071077Y-76298689D01*
X161856237Y-76386283D01*
X161805348Y-76409077D01*
X161404000Y-76592538D01*
X160925658Y-76592538D01*
X160946601Y-76586939D01*
X161363025Y-76427057D01*
X161495135Y-76369409D01*
X161751261Y-76258956D01*
X162003093Y-76156842D01*
X162097657Y-76121200D01*
X162775600Y-76121200D01*
X162775600Y-77035600D01*
X163944000Y-77035600D01*
X163944000Y-76121200D01*
X164096400Y-76121200D01*
X164096400Y-77035600D01*
X165264800Y-77035600D01*
X165264800Y-76121200D01*
X165417200Y-76121200D01*
X165417200Y-77035600D01*
X166585600Y-77035600D01*
X166585600Y-76121200D01*
X166738000Y-76121200D01*
X166738000Y-77035600D01*
X167906400Y-77035600D01*
X167906400Y-76121200D01*
X168058800Y-76121200D01*
X168058800Y-77035600D01*
X169227200Y-77035600D01*
X169227200Y-76121200D01*
X169379600Y-76121200D01*
X169379600Y-77035600D01*
X170548000Y-77035600D01*
X170548000Y-76121200D01*
X170700400Y-76121200D01*
X170700400Y-77035600D01*
X171919600Y-77035600D01*
X171919600Y-76121200D01*
X172021200Y-76121200D01*
X172021200Y-77035600D01*
X173240400Y-77035600D01*
X173240400Y-76121200D01*
X173342000Y-76121200D01*
X173342000Y-77035600D01*
X174561200Y-77035600D01*
X174561200Y-76121200D01*
X174662800Y-76121200D01*
X174662800Y-77035600D01*
X175882000Y-77035600D01*
X175882000Y-76121200D01*
X176034400Y-76121200D01*
X176034400Y-77035600D01*
X177202800Y-77035600D01*
X177202800Y-76121200D01*
X177355200Y-76121200D01*
X177355200Y-77035600D01*
X178523600Y-77035600D01*
X178523600Y-76121200D01*
X178676000Y-76121200D01*
X178676000Y-77035600D01*
X179844400Y-77035600D01*
X179844400Y-76121200D01*
X179996800Y-76121200D01*
X179996800Y-77035600D01*
X181165200Y-77035600D01*
X181165200Y-76121200D01*
X181317600Y-76121200D01*
X181317600Y-77035600D01*
X182486000Y-77035600D01*
X182486000Y-76121200D01*
X182638400Y-76121200D01*
X182638400Y-77035600D01*
X183857600Y-77035600D01*
X183857600Y-76121200D01*
X183959200Y-76121200D01*
X183959200Y-76942086D01*
X184302100Y-76911125D01*
X184531525Y-76889851D01*
X184767421Y-76867109D01*
X184911700Y-76852627D01*
X185001797Y-76843324D01*
X185276042Y-76843324D01*
X185671721Y-76807422D01*
X185894597Y-76785170D01*
X186106756Y-76760583D01*
X186264178Y-76738784D01*
X186270600Y-76737731D01*
X186473800Y-76703941D01*
X186488580Y-76283940D01*
X186503246Y-75867200D01*
X186600800Y-75867200D01*
X186600800Y-76641900D01*
X186757475Y-76610564D01*
X186911891Y-76557347D01*
X187062153Y-76473842D01*
X187205917Y-76317146D01*
X187256267Y-76123234D01*
X187240339Y-75994200D01*
X187214184Y-75923336D01*
X187163494Y-75885249D01*
X187061709Y-75869892D01*
X186904632Y-75867200D01*
X186600800Y-75867200D01*
X186503246Y-75867200D01*
X186503361Y-75863939D01*
X185904380Y-75878269D01*
X185305400Y-75892600D01*
X185276042Y-76843324D01*
X185001797Y-76843324D01*
X185178400Y-76825089D01*
X185178400Y-75929615D01*
X184813535Y-76025407D01*
X184591481Y-76074546D01*
X184368707Y-76109101D01*
X184203935Y-76121200D01*
X183959200Y-76121200D01*
X183857600Y-76121200D01*
X182638400Y-76121200D01*
X182486000Y-76121200D01*
X181317600Y-76121200D01*
X181165200Y-76121200D01*
X179996800Y-76121200D01*
X179844400Y-76121200D01*
X178676000Y-76121200D01*
X178523600Y-76121200D01*
X177355200Y-76121200D01*
X177202800Y-76121200D01*
X176034400Y-76121200D01*
X175882000Y-76121200D01*
X174662800Y-76121200D01*
X174561200Y-76121200D01*
X173342000Y-76121200D01*
X173240400Y-76121200D01*
X172021200Y-76121200D01*
X171919600Y-76121200D01*
X170700400Y-76121200D01*
X170548000Y-76121200D01*
X169379600Y-76121200D01*
X169227200Y-76121200D01*
X168058800Y-76121200D01*
X167906400Y-76121200D01*
X166738000Y-76121200D01*
X166585600Y-76121200D01*
X165417200Y-76121200D01*
X165264800Y-76121200D01*
X164096400Y-76121200D01*
X163944000Y-76121200D01*
X162775600Y-76121200D01*
X162097657Y-76121200D01*
X162220869Y-76074761D01*
X162369200Y-76025966D01*
X162409601Y-76017012D01*
X162467170Y-76008703D01*
X162545868Y-76001002D01*
X162649659Y-75993872D01*
X162782507Y-75987277D01*
X162948373Y-75981179D01*
X163151221Y-75975542D01*
X163395014Y-75970328D01*
X163683715Y-75965501D01*
X164021287Y-75961023D01*
X164411693Y-75956858D01*
X164858895Y-75952969D01*
X165366858Y-75949318D01*
X165939543Y-75945870D01*
X166580914Y-75942586D01*
X167294934Y-75939430D01*
X168085565Y-75936366D01*
X168956772Y-75933355D01*
X169912516Y-75930361D01*
X170956761Y-75927348D01*
X172093469Y-75924278D01*
X173326605Y-75921114D01*
X173723000Y-75920124D01*
X184797400Y-75892600D01*
X185361815Y-75705620D01*
X185423433Y-75687041D01*
X185992678Y-75687041D01*
X186026492Y-75701141D01*
X186151451Y-75708516D01*
X186207100Y-75709736D01*
X186367396Y-75704464D01*
X186472480Y-75685189D01*
X186499200Y-75664000D01*
X186482119Y-75651300D01*
X186614595Y-75651300D01*
X186634130Y-75692091D01*
X186736859Y-75711064D01*
X186837866Y-75713255D01*
X186980379Y-75706060D01*
X187025845Y-75686167D01*
X187005538Y-75666108D01*
X186883075Y-75619882D01*
X186750605Y-75604384D01*
X186647580Y-75621108D01*
X186614595Y-75651300D01*
X186482119Y-75651300D01*
X186454947Y-75631098D01*
X186343774Y-75619703D01*
X186198059Y-75629816D01*
X186050178Y-75661437D01*
X186042000Y-75664000D01*
X185992678Y-75687041D01*
X185423433Y-75687041D01*
X185856089Y-75556589D01*
X186271657Y-75464472D01*
X186614151Y-75429530D01*
X186889202Y-75452020D01*
X187102440Y-75532202D01*
X187259497Y-75670335D01*
X187336579Y-75796445D01*
X187410681Y-76049202D01*
X187388274Y-76280950D01*
X187273541Y-76484249D01*
X187070661Y-76651663D01*
X186786538Y-76774920D01*
X186630979Y-76820955D01*
X186487254Y-76857935D01*
X186338258Y-76888221D01*
X186166883Y-76914174D01*
X185956025Y-76938155D01*
X185688576Y-76962526D01*
X185347432Y-76989648D01*
X185091948Y-77008841D01*
X184676804Y-77043175D01*
X184358060Y-77077594D01*
X184130517Y-77112801D01*
X183988977Y-77149497D01*
X183960646Y-77161851D01*
X183813953Y-77271158D01*
X183652221Y-77457994D01*
X183469869Y-77729526D01*
X183323242Y-77980485D01*
X183217851Y-78152444D01*
X183113557Y-78295667D01*
X183032752Y-78379436D01*
X183032057Y-78379927D01*
X183012513Y-78388349D01*
X182976371Y-78396145D01*
X182919925Y-78403338D01*
X182839468Y-78409948D01*
X182731293Y-78415999D01*
X182591693Y-78421513D01*
X182416962Y-78426511D01*
X182203392Y-78431015D01*
X181947277Y-78435047D01*
X181644909Y-78438631D01*
X181292583Y-78441786D01*
X180886591Y-78444536D01*
X180423226Y-78446903D01*
X179898781Y-78448908D01*
X179309550Y-78450574D01*
X178651826Y-78451923D01*
X177921901Y-78452976D01*
X177116070Y-78453756D01*
X176230624Y-78454284D01*
X175261858Y-78454584D01*
X174206065Y-78454676D01*
X173059537Y-78454583D01*
X171818568Y-78454327D01*
X170574796Y-78453961D01*
X169211195Y-78453430D01*
X167945725Y-78452748D01*
X166774917Y-78451896D01*
X165695302Y-78450853D01*
X164703411Y-78449602D01*
X163795775Y-78448122D01*
X162968925Y-78446393D01*
X162219392Y-78444395D01*
X161543706Y-78442111D01*
X160938400Y-78439518D01*
X160400003Y-78436599D01*
X159925048Y-78433333D01*
X159510064Y-78429701D01*
X159151584Y-78425684D01*
X158846137Y-78421261D01*
X158590256Y-78416413D01*
X158380470Y-78411121D01*
X158213311Y-78405365D01*
X158085311Y-78399125D01*
X157992999Y-78392382D01*
X157932907Y-78385116D01*
X157919104Y-78382503D01*
X157343566Y-78209936D01*
X156767786Y-77948307D01*
X156205592Y-77609173D01*
X155776705Y-77284304D01*
X156120800Y-77284304D01*
X156165382Y-77373764D01*
X156288878Y-77485062D01*
X156362528Y-77535725D01*
X156518867Y-77630663D01*
X156704064Y-77735251D01*
X156894172Y-77836973D01*
X157065244Y-77923311D01*
X157193332Y-77981750D01*
X157251100Y-78000156D01*
X157268790Y-77953688D01*
X157282113Y-77829629D01*
X157288816Y-77651966D01*
X157289200Y-77594400D01*
X157289200Y-77188000D01*
X157441600Y-77188000D01*
X157441600Y-78091117D01*
X157759100Y-78172286D01*
X158011022Y-78233872D01*
X158194814Y-78270525D01*
X158339551Y-78286857D01*
X158474312Y-78287479D01*
X158483000Y-78287104D01*
X158635400Y-78280200D01*
X158649818Y-77734100D01*
X158664237Y-77188000D01*
X158762400Y-77188000D01*
X158762400Y-78305600D01*
X159981600Y-78305600D01*
X159981600Y-77188000D01*
X160083200Y-77188000D01*
X160083200Y-78305600D01*
X161302400Y-78305600D01*
X161302400Y-77188000D01*
X161404000Y-77188000D01*
X161404000Y-77712933D01*
X161407092Y-77934539D01*
X161415439Y-78116878D01*
X161427646Y-78236940D01*
X161437866Y-78271733D01*
X161499406Y-78285238D01*
X161640722Y-78296185D01*
X161840001Y-78303363D01*
X162047466Y-78305600D01*
X162623200Y-78305600D01*
X162623200Y-77188000D01*
X162775600Y-77188000D01*
X162775600Y-78305600D01*
X163944000Y-78305600D01*
X163944000Y-77188000D01*
X164096400Y-77188000D01*
X164096400Y-78305600D01*
X165264800Y-78305600D01*
X165264800Y-77188000D01*
X165417200Y-77188000D01*
X165417200Y-78305600D01*
X166585600Y-78305600D01*
X166585600Y-77188000D01*
X166738000Y-77188000D01*
X166738000Y-78305600D01*
X167906400Y-78305600D01*
X167906400Y-77188000D01*
X168058800Y-77188000D01*
X168058800Y-78305600D01*
X169227200Y-78305600D01*
X169227200Y-77188000D01*
X169379600Y-77188000D01*
X169379600Y-78305600D01*
X170548000Y-78305600D01*
X170548000Y-77188000D01*
X170700400Y-77188000D01*
X170700400Y-78305600D01*
X171919600Y-78305600D01*
X171919600Y-77188000D01*
X172021200Y-77188000D01*
X172021200Y-78305600D01*
X173240400Y-78305600D01*
X173240400Y-77188000D01*
X173342000Y-77188000D01*
X173342000Y-77712933D01*
X173345092Y-77934539D01*
X173353439Y-78116878D01*
X173365646Y-78236940D01*
X173375866Y-78271733D01*
X173437406Y-78285238D01*
X173578722Y-78296185D01*
X173778001Y-78303363D01*
X173985466Y-78305600D01*
X174561200Y-78305600D01*
X174561200Y-77188000D01*
X174662800Y-77188000D01*
X174662800Y-77712933D01*
X174665892Y-77934539D01*
X174674239Y-78116878D01*
X174686446Y-78236940D01*
X174696666Y-78271733D01*
X174758206Y-78285238D01*
X174899522Y-78296185D01*
X175098801Y-78303363D01*
X175306266Y-78305600D01*
X175882000Y-78305600D01*
X175882000Y-77188000D01*
X176034400Y-77188000D01*
X176034400Y-78305600D01*
X177202800Y-78305600D01*
X177202800Y-77188000D01*
X177355200Y-77188000D01*
X177355200Y-78305600D01*
X178523600Y-78305600D01*
X178523600Y-77188000D01*
X178676000Y-77188000D01*
X178676000Y-78305600D01*
X179844400Y-78305600D01*
X179844400Y-77188000D01*
X179996800Y-77188000D01*
X179996800Y-78305600D01*
X181165200Y-78305600D01*
X181165200Y-77188000D01*
X181317600Y-77188000D01*
X181317600Y-78305600D01*
X182486000Y-78305600D01*
X182486000Y-77188000D01*
X182638400Y-77188000D01*
X182638400Y-77746800D01*
X182639176Y-77990799D01*
X182643999Y-78150879D01*
X182656606Y-78244722D01*
X182680735Y-78290007D01*
X182720125Y-78304416D01*
X182756544Y-78305600D01*
X182875885Y-78269517D01*
X182980451Y-78191300D01*
X183058521Y-78090145D01*
X183163056Y-77933091D01*
X183271920Y-77753458D01*
X183275750Y-77746800D01*
X183383995Y-77567034D01*
X183488230Y-77408583D01*
X183566520Y-77304734D01*
X183568699Y-77302300D01*
X183672110Y-77188000D01*
X182638400Y-77188000D01*
X182486000Y-77188000D01*
X181317600Y-77188000D01*
X181165200Y-77188000D01*
X179996800Y-77188000D01*
X179844400Y-77188000D01*
X178676000Y-77188000D01*
X178523600Y-77188000D01*
X177355200Y-77188000D01*
X177202800Y-77188000D01*
X176034400Y-77188000D01*
X175882000Y-77188000D01*
X174662800Y-77188000D01*
X174561200Y-77188000D01*
X173342000Y-77188000D01*
X173240400Y-77188000D01*
X172021200Y-77188000D01*
X171919600Y-77188000D01*
X170700400Y-77188000D01*
X170548000Y-77188000D01*
X169379600Y-77188000D01*
X169227200Y-77188000D01*
X168058800Y-77188000D01*
X167906400Y-77188000D01*
X166738000Y-77188000D01*
X166585600Y-77188000D01*
X165417200Y-77188000D01*
X165264800Y-77188000D01*
X164096400Y-77188000D01*
X163944000Y-77188000D01*
X162775600Y-77188000D01*
X162623200Y-77188000D01*
X161404000Y-77188000D01*
X161302400Y-77188000D01*
X160083200Y-77188000D01*
X159981600Y-77188000D01*
X158762400Y-77188000D01*
X158664237Y-77188000D01*
X157441600Y-77188000D01*
X157289200Y-77188000D01*
X156705000Y-77188000D01*
X156453555Y-77189223D01*
X156286604Y-77194773D01*
X156187050Y-77207467D01*
X156137798Y-77230124D01*
X156121751Y-77265561D01*
X156120800Y-77284304D01*
X155776705Y-77284304D01*
X155683098Y-77213400D01*
X155917600Y-77213400D01*
X155943000Y-77238800D01*
X155968400Y-77213400D01*
X155943000Y-77188000D01*
X155917600Y-77213400D01*
X155683098Y-77213400D01*
X155670811Y-77204093D01*
X155177272Y-76744625D01*
X154738802Y-76242328D01*
X154562388Y-75987630D01*
X154800000Y-75987630D01*
X154836731Y-76087353D01*
X154948130Y-76245093D01*
X155136003Y-76463268D01*
X155236573Y-76571830D01*
X155430569Y-76773413D01*
X155573358Y-76909009D01*
X155679435Y-76990125D01*
X155763297Y-77028269D01*
X155820773Y-77035600D01*
X155968400Y-77035600D01*
X155968400Y-75867200D01*
X156120800Y-75867200D01*
X156120800Y-77035600D01*
X157289200Y-77035600D01*
X157289200Y-75867200D01*
X157441600Y-75867200D01*
X157441600Y-77035600D01*
X158660800Y-77035600D01*
X158762400Y-77035600D01*
X159372000Y-77035600D01*
X159629329Y-77034603D01*
X159801900Y-77029741D01*
X159906550Y-77018210D01*
X159960116Y-76997202D01*
X159977775Y-76966767D01*
X160083200Y-76966767D01*
X160104556Y-76997055D01*
X160177948Y-77017460D01*
X160317359Y-77029561D01*
X160536773Y-77034937D01*
X160692800Y-77035600D01*
X161302400Y-77035600D01*
X161302400Y-76638961D01*
X161037720Y-76739531D01*
X160838744Y-76798709D01*
X160599233Y-76847253D01*
X160428120Y-76869018D01*
X160224280Y-76893885D01*
X160112594Y-76927811D01*
X160083200Y-76966767D01*
X159977775Y-76966767D01*
X159979433Y-76963911D01*
X159981600Y-76934000D01*
X159953211Y-76851585D01*
X159913513Y-76832400D01*
X159789327Y-76801648D01*
X159614882Y-76720047D01*
X159416445Y-76603577D01*
X159220283Y-76468219D01*
X159052664Y-76329953D01*
X158997088Y-76274854D01*
X158762400Y-76023952D01*
X158762400Y-77035600D01*
X158660800Y-77035600D01*
X158660800Y-75867200D01*
X157441600Y-75867200D01*
X157289200Y-75867200D01*
X156120800Y-75867200D01*
X155968400Y-75867200D01*
X155384200Y-75867200D01*
X155133729Y-75867856D01*
X154967562Y-75872202D01*
X154868402Y-75883803D01*
X154818952Y-75906225D01*
X154801915Y-75943033D01*
X154800000Y-75987630D01*
X154562388Y-75987630D01*
X154369231Y-75708760D01*
X154096155Y-75187077D01*
X154022563Y-75014936D01*
X153963182Y-74858072D01*
X153916295Y-74702694D01*
X153882637Y-74546400D01*
X154046189Y-74546400D01*
X154095128Y-74723641D01*
X154152724Y-74895725D01*
X154234222Y-75093596D01*
X154328493Y-75295311D01*
X154424407Y-75478927D01*
X154510838Y-75622502D01*
X154576654Y-75704094D01*
X154597832Y-75714800D01*
X154619349Y-75666445D01*
X154635586Y-75531003D01*
X154645314Y-75322906D01*
X154647600Y-75130600D01*
X154647600Y-74546400D01*
X154800000Y-74546400D01*
X154800000Y-75714800D01*
X155968400Y-75714800D01*
X155968400Y-74546400D01*
X156120800Y-74546400D01*
X156120800Y-75714800D01*
X157289200Y-75714800D01*
X157289200Y-74546400D01*
X157441600Y-74546400D01*
X157441600Y-75714800D01*
X158616846Y-75714800D01*
X158575323Y-75600500D01*
X158556803Y-75499880D01*
X158542539Y-75327889D01*
X158534677Y-75114732D01*
X158533800Y-75016255D01*
X158533800Y-74546310D01*
X157441600Y-74546400D01*
X157289200Y-74546400D01*
X156120800Y-74546400D01*
X155968400Y-74546400D01*
X154800000Y-74546400D01*
X154647600Y-74546400D01*
X154046189Y-74546400D01*
X153882637Y-74546400D01*
X153880184Y-74535014D01*
X153853133Y-74341239D01*
X153833424Y-74107580D01*
X153819340Y-73820246D01*
X153809164Y-73465446D01*
X153804772Y-73225600D01*
X153936400Y-73225600D01*
X153936761Y-73466900D01*
X153942080Y-73651035D01*
X153955479Y-73879118D01*
X153969507Y-74051100D01*
X154001891Y-74394000D01*
X154647600Y-74394000D01*
X154647600Y-73225600D01*
X154800000Y-73225600D01*
X154800000Y-74394000D01*
X155968400Y-74394000D01*
X155968400Y-73225600D01*
X156120800Y-73225600D01*
X156120800Y-74394000D01*
X157289200Y-74394000D01*
X157289200Y-73225600D01*
X157441600Y-73225600D01*
X157441600Y-74394000D01*
X158020364Y-74394000D01*
X158277771Y-74391798D01*
X158450727Y-74383694D01*
X158556313Y-74367434D01*
X158611613Y-74340767D01*
X158629964Y-74313645D01*
X158643172Y-74230363D01*
X158653553Y-74071920D01*
X158659711Y-73864744D01*
X158660800Y-73729445D01*
X158660800Y-73225600D01*
X158762400Y-73225600D01*
X158762400Y-74034047D01*
X158997088Y-73783145D01*
X159180209Y-73617085D01*
X159399724Y-73458966D01*
X159538602Y-73378922D01*
X159840095Y-73228264D01*
X160819800Y-73228264D01*
X161023000Y-73324420D01*
X161176507Y-73393955D01*
X161260290Y-73417821D01*
X161295278Y-73396227D01*
X161300587Y-73346379D01*
X161404000Y-73346379D01*
X161431899Y-73465573D01*
X161474561Y-73525720D01*
X161571652Y-73581349D01*
X161736406Y-73652858D01*
X161938445Y-73729475D01*
X162147390Y-73800427D01*
X162332864Y-73854939D01*
X162464487Y-73882240D01*
X162483500Y-73883530D01*
X162558539Y-73880513D01*
X162600329Y-73852887D01*
X162618601Y-73777822D01*
X162623086Y-73632489D01*
X162623200Y-73555800D01*
X162623200Y-73225600D01*
X162775600Y-73225600D01*
X162775600Y-73936800D01*
X163944000Y-73936800D01*
X163944000Y-73225600D01*
X164096400Y-73225600D01*
X164096400Y-73936800D01*
X165264800Y-73936800D01*
X165264800Y-73225600D01*
X165417200Y-73225600D01*
X165417200Y-73936800D01*
X166585600Y-73936800D01*
X166585600Y-73225600D01*
X166738000Y-73225600D01*
X166738000Y-73936800D01*
X167906400Y-73936800D01*
X167906400Y-73225600D01*
X168058800Y-73225600D01*
X168058800Y-73936800D01*
X169227200Y-73936800D01*
X169227200Y-73225600D01*
X169379600Y-73225600D01*
X169379600Y-73936800D01*
X170548000Y-73936800D01*
X170548000Y-73225600D01*
X170700400Y-73225600D01*
X170700400Y-73936800D01*
X171919600Y-73936800D01*
X171919600Y-73225600D01*
X172021200Y-73225600D01*
X172021200Y-73936800D01*
X173240400Y-73936800D01*
X173240400Y-73225600D01*
X173342000Y-73225600D01*
X173342000Y-73936800D01*
X174561200Y-73936800D01*
X174561200Y-73225600D01*
X174662800Y-73225600D01*
X174662800Y-73936800D01*
X175882000Y-73936800D01*
X175882000Y-73225600D01*
X176034400Y-73225600D01*
X176034400Y-73936800D01*
X177202800Y-73936800D01*
X177202800Y-73742077D01*
X177197527Y-73636653D01*
X177175441Y-73581200D01*
X177355200Y-73581200D01*
X177355200Y-73936800D01*
X178523600Y-73936800D01*
X178523600Y-73581200D01*
X178676000Y-73581200D01*
X178676000Y-73936800D01*
X179844400Y-73936800D01*
X179844400Y-73581200D01*
X179996800Y-73581200D01*
X179996800Y-73936800D01*
X181165200Y-73936800D01*
X181165200Y-73581200D01*
X181317600Y-73581200D01*
X181317600Y-73936800D01*
X182486000Y-73936800D01*
X182486000Y-73581200D01*
X182638400Y-73581200D01*
X182638400Y-73936800D01*
X183857600Y-73936800D01*
X183857600Y-73759000D01*
X183959200Y-73759000D01*
X183970907Y-73882048D01*
X184015741Y-73931473D01*
X184057801Y-73936800D01*
X184156006Y-73912071D01*
X184189584Y-73883112D01*
X184209382Y-73777741D01*
X184173305Y-73665728D01*
X184100223Y-73590981D01*
X184059832Y-73581200D01*
X183990386Y-73601468D01*
X183962403Y-73680109D01*
X183959200Y-73759000D01*
X183857600Y-73759000D01*
X183857600Y-73581200D01*
X182638400Y-73581200D01*
X182486000Y-73581200D01*
X181317600Y-73581200D01*
X181165200Y-73581200D01*
X179996800Y-73581200D01*
X179844400Y-73581200D01*
X178676000Y-73581200D01*
X178523600Y-73581200D01*
X177355200Y-73581200D01*
X177175441Y-73581200D01*
X177168312Y-73563301D01*
X177095056Y-73499107D01*
X176957660Y-73421162D01*
X176890864Y-73386477D01*
X176660944Y-73283581D01*
X176460233Y-73234675D01*
X176306664Y-73225600D01*
X176034400Y-73225600D01*
X175882000Y-73225600D01*
X174662800Y-73225600D01*
X174561200Y-73225600D01*
X173342000Y-73225600D01*
X173240400Y-73225600D01*
X172021200Y-73225600D01*
X171919600Y-73225600D01*
X170700400Y-73225600D01*
X170548000Y-73225600D01*
X169379600Y-73225600D01*
X169227200Y-73225600D01*
X168058800Y-73225600D01*
X167906400Y-73225600D01*
X166738000Y-73225600D01*
X166585600Y-73225600D01*
X165417200Y-73225600D01*
X165264800Y-73225600D01*
X164096400Y-73225600D01*
X163944000Y-73225600D01*
X162775600Y-73225600D01*
X162623200Y-73225600D01*
X162013600Y-73225600D01*
X161756776Y-73226185D01*
X161584620Y-73230179D01*
X161480197Y-73240936D01*
X161426575Y-73261810D01*
X161406820Y-73296158D01*
X161404000Y-73346379D01*
X161300587Y-73346379D01*
X161302398Y-73329380D01*
X161302400Y-73327200D01*
X161288462Y-73265145D01*
X161229683Y-73235243D01*
X161100617Y-73226921D01*
X161061100Y-73226932D01*
X160819800Y-73228264D01*
X159840095Y-73228264D01*
X159845427Y-73225600D01*
X158762400Y-73225600D01*
X158660800Y-73225600D01*
X157441600Y-73225600D01*
X157289200Y-73225600D01*
X156120800Y-73225600D01*
X155968400Y-73225600D01*
X154800000Y-73225600D01*
X154647600Y-73225600D01*
X153936400Y-73225600D01*
X153804772Y-73225600D01*
X153801179Y-73029390D01*
X153797657Y-72789724D01*
X153791722Y-72304485D01*
X153789683Y-71909056D01*
X153789722Y-71904800D01*
X153936400Y-71904800D01*
X153936400Y-73073200D01*
X154647600Y-73073200D01*
X154647600Y-71904800D01*
X154800000Y-71904800D01*
X154800000Y-73073200D01*
X155968400Y-73073200D01*
X155968400Y-71904800D01*
X156120800Y-71904800D01*
X156120800Y-73073200D01*
X157289200Y-73073200D01*
X157289200Y-71904800D01*
X157441600Y-71904800D01*
X157441600Y-73073200D01*
X158660800Y-73073200D01*
X158660800Y-71904800D01*
X158762400Y-71904800D01*
X158762400Y-73073200D01*
X159981600Y-73073200D01*
X159981600Y-71904800D01*
X160083200Y-71904800D01*
X160083200Y-73073200D01*
X161302400Y-73073200D01*
X161302400Y-71904800D01*
X161404000Y-71904800D01*
X161404000Y-73073200D01*
X162623200Y-73073200D01*
X162623200Y-71904800D01*
X162775600Y-71904800D01*
X162775600Y-73073200D01*
X163944000Y-73073200D01*
X163944000Y-71904800D01*
X164096400Y-71904800D01*
X164096400Y-73073200D01*
X165264800Y-73073200D01*
X165264800Y-71904800D01*
X165417200Y-71904800D01*
X165417200Y-73073200D01*
X166585600Y-73073200D01*
X166585600Y-71904800D01*
X166738000Y-71904800D01*
X166738000Y-73073200D01*
X167906400Y-73073200D01*
X167906400Y-71904800D01*
X168058800Y-71904800D01*
X168058800Y-73073200D01*
X169227200Y-73073200D01*
X169227200Y-71904800D01*
X169379600Y-71904800D01*
X169379600Y-73073200D01*
X170548000Y-73073200D01*
X170548000Y-71904800D01*
X170700400Y-71904800D01*
X170700400Y-73073200D01*
X171919600Y-73073200D01*
X171919600Y-71904800D01*
X172021200Y-71904800D01*
X172021200Y-73073200D01*
X173240400Y-73073200D01*
X173240400Y-71904800D01*
X173342000Y-71904800D01*
X173342000Y-73073200D01*
X174561200Y-73073200D01*
X174561200Y-71904800D01*
X174662800Y-71904800D01*
X174662800Y-73073200D01*
X175882000Y-73073200D01*
X175882000Y-72836133D01*
X176034400Y-72836133D01*
X176034400Y-73073200D01*
X176398537Y-73073200D01*
X176232069Y-72857300D01*
X176136361Y-72733010D01*
X176069054Y-72645304D01*
X176050001Y-72620233D01*
X176040909Y-72652611D01*
X176035286Y-72758743D01*
X176034400Y-72836133D01*
X175882000Y-72836133D01*
X175882000Y-72718329D01*
X175872691Y-72496163D01*
X175848501Y-72277115D01*
X175820663Y-72134129D01*
X175759327Y-71904800D01*
X174662800Y-71904800D01*
X174561200Y-71904800D01*
X173342000Y-71904800D01*
X173240400Y-71904800D01*
X172021200Y-71904800D01*
X171919600Y-71904800D01*
X170700400Y-71904800D01*
X170548000Y-71904800D01*
X169379600Y-71904800D01*
X169227200Y-71904800D01*
X168058800Y-71904800D01*
X167906400Y-71904800D01*
X166738000Y-71904800D01*
X166585600Y-71904800D01*
X165417200Y-71904800D01*
X165264800Y-71904800D01*
X164096400Y-71904800D01*
X163944000Y-71904800D01*
X162775600Y-71904800D01*
X162623200Y-71904800D01*
X161404000Y-71904800D01*
X161302400Y-71904800D01*
X160083200Y-71904800D01*
X159981600Y-71904800D01*
X158762400Y-71904800D01*
X158660800Y-71904800D01*
X157441600Y-71904800D01*
X157289200Y-71904800D01*
X156120800Y-71904800D01*
X155968400Y-71904800D01*
X154800000Y-71904800D01*
X154647600Y-71904800D01*
X153936400Y-71904800D01*
X153789722Y-71904800D01*
X153791143Y-71752400D01*
X153923038Y-71752400D01*
X154647600Y-71752400D01*
X154647600Y-70584000D01*
X154800000Y-70584000D01*
X154800000Y-71752400D01*
X155968400Y-71752400D01*
X155968400Y-70584000D01*
X156120800Y-70584000D01*
X156120800Y-71752400D01*
X157289200Y-71752400D01*
X157289200Y-70584000D01*
X157441600Y-70584000D01*
X157441600Y-71752400D01*
X158660800Y-71752400D01*
X158660800Y-70584000D01*
X158762400Y-70584000D01*
X158762400Y-71752400D01*
X159981600Y-71752400D01*
X159981600Y-70584000D01*
X160083200Y-70584000D01*
X160083200Y-71752400D01*
X161302400Y-71752400D01*
X161302400Y-70584000D01*
X161404000Y-70584000D01*
X161404000Y-71752400D01*
X162623200Y-71752400D01*
X162623200Y-70584000D01*
X162775600Y-70584000D01*
X162775600Y-71752400D01*
X163944000Y-71752400D01*
X163944000Y-70584000D01*
X164096400Y-70584000D01*
X164096400Y-71752400D01*
X165264800Y-71752400D01*
X165264800Y-70584000D01*
X165417200Y-70584000D01*
X165417200Y-71752400D01*
X166585600Y-71752400D01*
X166585600Y-70584000D01*
X166738000Y-70584000D01*
X166738000Y-71752400D01*
X167906400Y-71752400D01*
X167906400Y-70584000D01*
X168058800Y-70584000D01*
X168058800Y-71752400D01*
X169227200Y-71752400D01*
X169227200Y-70584000D01*
X169379600Y-70584000D01*
X169379600Y-71752400D01*
X170548000Y-71752400D01*
X170548000Y-70584000D01*
X170700400Y-70584000D01*
X170700400Y-71752400D01*
X171919600Y-71752400D01*
X171919600Y-70584000D01*
X172021200Y-70584000D01*
X172021200Y-71752400D01*
X173240400Y-71752400D01*
X173240400Y-70584000D01*
X173342000Y-70584000D01*
X173342000Y-71752400D01*
X174561200Y-71752400D01*
X174561200Y-70584000D01*
X174662800Y-70584000D01*
X174662800Y-71752400D01*
X175718576Y-71752400D01*
X175800288Y-71390568D01*
X175842317Y-71172569D01*
X175871808Y-70958706D01*
X175882000Y-70806368D01*
X175882000Y-70660200D01*
X176034400Y-70660200D01*
X176045268Y-70727977D01*
X176054364Y-70736400D01*
X176087121Y-70696676D01*
X176103570Y-70660200D01*
X176104626Y-70594787D01*
X176083605Y-70584000D01*
X176039943Y-70625170D01*
X176034400Y-70660200D01*
X175882000Y-70660200D01*
X175882000Y-70584000D01*
X174662800Y-70584000D01*
X174561200Y-70584000D01*
X173342000Y-70584000D01*
X173240400Y-70584000D01*
X172021200Y-70584000D01*
X171919600Y-70584000D01*
X170700400Y-70584000D01*
X170548000Y-70584000D01*
X169379600Y-70584000D01*
X169227200Y-70584000D01*
X168058800Y-70584000D01*
X167906400Y-70584000D01*
X166738000Y-70584000D01*
X166585600Y-70584000D01*
X165417200Y-70584000D01*
X165264800Y-70584000D01*
X164096400Y-70584000D01*
X163944000Y-70584000D01*
X162775600Y-70584000D01*
X162623200Y-70584000D01*
X161404000Y-70584000D01*
X161302400Y-70584000D01*
X160083200Y-70584000D01*
X159981600Y-70584000D01*
X158762400Y-70584000D01*
X158660800Y-70584000D01*
X157441600Y-70584000D01*
X157289200Y-70584000D01*
X156120800Y-70584000D01*
X155968400Y-70584000D01*
X154800000Y-70584000D01*
X154647600Y-70584000D01*
X154428354Y-70584000D01*
X154290273Y-70591642D01*
X154203984Y-70630804D01*
X154130622Y-70725833D01*
X154089960Y-70795995D01*
X154004548Y-71002821D01*
X153956616Y-71264537D01*
X153946925Y-71380195D01*
X153923038Y-71752400D01*
X153791143Y-71752400D01*
X153792642Y-71591684D01*
X153801701Y-71340619D01*
X153817963Y-71144108D01*
X153842528Y-70990399D01*
X153876501Y-70867742D01*
X153920982Y-70764383D01*
X153977074Y-70668571D01*
X153999791Y-70634443D01*
X154115690Y-70482293D01*
X154211149Y-70397733D01*
X154562933Y-70397733D01*
X154569906Y-70427933D01*
X154596800Y-70431600D01*
X154621057Y-70420817D01*
X154774600Y-70420817D01*
X155371500Y-70426208D01*
X155625359Y-70427629D01*
X155794702Y-70424501D01*
X155896598Y-70413914D01*
X155948117Y-70392961D01*
X155966328Y-70358732D01*
X155968400Y-70324492D01*
X155965404Y-70309002D01*
X156120800Y-70309002D01*
X156123727Y-70361564D01*
X156144042Y-70396434D01*
X156199042Y-70417243D01*
X156306024Y-70427620D01*
X156482285Y-70431196D01*
X156705000Y-70431600D01*
X157289200Y-70431600D01*
X157438272Y-70431600D01*
X158660800Y-70431600D01*
X158660800Y-69263200D01*
X158762400Y-69263200D01*
X158762400Y-70431600D01*
X159981600Y-70431600D01*
X159981600Y-69263200D01*
X160083200Y-69263200D01*
X160083200Y-70431600D01*
X161302400Y-70431600D01*
X161302400Y-69263200D01*
X161404000Y-69263200D01*
X161404000Y-70431600D01*
X162623200Y-70431600D01*
X162623200Y-69263200D01*
X162775600Y-69263200D01*
X162775600Y-70431600D01*
X163944000Y-70431600D01*
X163944000Y-69263200D01*
X164096400Y-69263200D01*
X164096400Y-70431600D01*
X165264800Y-70431600D01*
X165264800Y-69263200D01*
X165417200Y-69263200D01*
X165417200Y-70431600D01*
X166585600Y-70431600D01*
X166585600Y-69263200D01*
X166738000Y-69263200D01*
X166738000Y-70431600D01*
X167906400Y-70431600D01*
X167906400Y-69263200D01*
X168058800Y-69263200D01*
X168058800Y-70431600D01*
X169227200Y-70431600D01*
X169227200Y-69263200D01*
X169379600Y-69263200D01*
X169379600Y-70431600D01*
X170548000Y-70431600D01*
X170548000Y-69263200D01*
X170700400Y-69263200D01*
X170700400Y-70431600D01*
X171919600Y-70431600D01*
X171919600Y-69263200D01*
X172021200Y-69263200D01*
X172021200Y-70431600D01*
X173240400Y-70431600D01*
X173240400Y-69263200D01*
X173342000Y-69263200D01*
X173342000Y-70431600D01*
X174561200Y-70431600D01*
X174561200Y-69263200D01*
X174662800Y-69263200D01*
X174662800Y-70431600D01*
X175882000Y-70431600D01*
X175882000Y-69263200D01*
X176034400Y-69263200D01*
X176034400Y-69847400D01*
X176035355Y-70098148D01*
X176040317Y-70264542D01*
X176052428Y-70363824D01*
X176074832Y-70413235D01*
X176110673Y-70430018D01*
X176140904Y-70431600D01*
X176234841Y-70399350D01*
X176368360Y-70315855D01*
X176479116Y-70227643D01*
X176654969Y-70095957D01*
X176851472Y-69982098D01*
X176956811Y-69936319D01*
X177202800Y-69848952D01*
X177202800Y-69263200D01*
X177355200Y-69263200D01*
X177355200Y-69808089D01*
X177674361Y-69833709D01*
X177890894Y-69865742D01*
X178106322Y-69920693D01*
X178220461Y-69963383D01*
X178359949Y-70024851D01*
X178460035Y-70064409D01*
X178485500Y-70071719D01*
X178503174Y-70027027D01*
X178516492Y-69904458D01*
X178523208Y-69727714D01*
X178523600Y-69669600D01*
X178523600Y-69263200D01*
X178676000Y-69263200D01*
X178676877Y-69733100D01*
X178677755Y-70203000D01*
X178841262Y-70317300D01*
X178942684Y-70376575D01*
X179056943Y-70411427D01*
X179214298Y-70427786D01*
X179424584Y-70431600D01*
X179844400Y-70431600D01*
X179844400Y-69263200D01*
X179996800Y-69263200D01*
X179996800Y-70431600D01*
X181165200Y-70431600D01*
X181165200Y-69263200D01*
X181317600Y-69263200D01*
X181317600Y-70431600D01*
X182486000Y-70431600D01*
X182486000Y-69263200D01*
X182638400Y-69263200D01*
X182638400Y-70431600D01*
X183857600Y-70431600D01*
X183857600Y-69847400D01*
X183959200Y-69847400D01*
X183959200Y-70431600D01*
X184302100Y-70430675D01*
X184505452Y-70423416D01*
X184650614Y-70395262D01*
X184780564Y-70334649D01*
X184868544Y-70278275D01*
X185001950Y-70192988D01*
X185102369Y-70138047D01*
X185135244Y-70126800D01*
X185157289Y-70080480D01*
X185172843Y-69959357D01*
X185178400Y-69798901D01*
X185178400Y-69774971D01*
X185280000Y-69774971D01*
X185283140Y-69945444D01*
X185296818Y-70034255D01*
X185327416Y-70061255D01*
X185368900Y-70051479D01*
X185460111Y-70031351D01*
X185621273Y-70010051D01*
X185820865Y-69991589D01*
X185864200Y-69988482D01*
X186119267Y-69966560D01*
X186288593Y-69936292D01*
X186388035Y-69889131D01*
X186433450Y-69816533D01*
X186440696Y-69709954D01*
X186438568Y-69678977D01*
X186423000Y-69491800D01*
X185280000Y-69463072D01*
X185280000Y-69774971D01*
X185178400Y-69774971D01*
X185178400Y-69471003D01*
X184987900Y-69442361D01*
X184838345Y-69416637D01*
X184635656Y-69377710D01*
X184441800Y-69337808D01*
X184256801Y-69300203D01*
X184107355Y-69273261D01*
X184024508Y-69262558D01*
X184022700Y-69262548D01*
X183993420Y-69291945D01*
X183973916Y-69387131D01*
X183962935Y-69559662D01*
X183959220Y-69821096D01*
X183959200Y-69847400D01*
X183857600Y-69847400D01*
X183857600Y-69263200D01*
X182638400Y-69263200D01*
X182486000Y-69263200D01*
X181317600Y-69263200D01*
X181165200Y-69263200D01*
X179996800Y-69263200D01*
X179844400Y-69263200D01*
X178676000Y-69263200D01*
X178523600Y-69263200D01*
X177355200Y-69263200D01*
X177202800Y-69263200D01*
X176034400Y-69263200D01*
X175882000Y-69263200D01*
X174662800Y-69263200D01*
X174561200Y-69263200D01*
X173342000Y-69263200D01*
X173240400Y-69263200D01*
X172021200Y-69263200D01*
X171919600Y-69263200D01*
X170700400Y-69263200D01*
X170548000Y-69263200D01*
X169379600Y-69263200D01*
X169227200Y-69263200D01*
X168058800Y-69263200D01*
X167906400Y-69263200D01*
X166738000Y-69263200D01*
X166585600Y-69263200D01*
X165417200Y-69263200D01*
X165264800Y-69263200D01*
X164096400Y-69263200D01*
X163944000Y-69263200D01*
X162775600Y-69263200D01*
X162623200Y-69263200D01*
X161404000Y-69263200D01*
X161302400Y-69263200D01*
X160083200Y-69263200D01*
X159981600Y-69263200D01*
X158762400Y-69263200D01*
X158660800Y-69263200D01*
X158660800Y-69259975D01*
X158063900Y-69274287D01*
X157467000Y-69288600D01*
X157438272Y-70431600D01*
X157289200Y-70431600D01*
X157289200Y-69458482D01*
X157081097Y-69636611D01*
X156930656Y-69747826D01*
X156728654Y-69874481D01*
X156516407Y-69990834D01*
X156496897Y-70000572D01*
X156305753Y-70099898D01*
X156191052Y-70175024D01*
X156135250Y-70240338D01*
X156120800Y-70309002D01*
X155965404Y-70309002D01*
X155954280Y-70251489D01*
X155892090Y-70240437D01*
X155828700Y-70254832D01*
X155715540Y-70278804D01*
X155534116Y-70310468D01*
X155316899Y-70344290D01*
X155231800Y-70356547D01*
X154774600Y-70420817D01*
X154621057Y-70420817D01*
X154638614Y-70413013D01*
X154630666Y-70397733D01*
X154570378Y-70391653D01*
X154562933Y-70397733D01*
X154211149Y-70397733D01*
X154235901Y-70375808D01*
X154383459Y-70304714D01*
X154581398Y-70258741D01*
X154852753Y-70227617D01*
X154925403Y-70221679D01*
X155375789Y-70173145D01*
X155759589Y-70099200D01*
X156110383Y-69991462D01*
X156461746Y-69841550D01*
X156476400Y-69834503D01*
X156632157Y-69753660D01*
X156775277Y-69663860D01*
X156922843Y-69551225D01*
X157091938Y-69401873D01*
X157299646Y-69201926D01*
X157390710Y-69110800D01*
X157627089Y-69110800D01*
X158660800Y-69110800D01*
X158660800Y-68679000D01*
X158656110Y-68483873D01*
X158643595Y-68334639D01*
X158625586Y-68254614D01*
X158617621Y-68247200D01*
X158536679Y-68280791D01*
X158404179Y-68370736D01*
X158239644Y-68500796D01*
X158062596Y-68654728D01*
X157892558Y-68816292D01*
X157749052Y-68969247D01*
X157747454Y-68971100D01*
X157627089Y-69110800D01*
X157390710Y-69110800D01*
X157492400Y-69009042D01*
X157717787Y-68785965D01*
X157938200Y-68576097D01*
X158136053Y-68395589D01*
X158293763Y-68260591D01*
X158372527Y-68200680D01*
X158473985Y-68139979D01*
X158762400Y-68139979D01*
X158762400Y-69110800D01*
X159984824Y-69110800D01*
X160079975Y-69110800D01*
X161305624Y-69110800D01*
X161400775Y-69110800D01*
X162623200Y-69110800D01*
X162623200Y-67891600D01*
X162775600Y-67891600D01*
X162775600Y-69110800D01*
X163944000Y-69110800D01*
X163944000Y-67891600D01*
X164096400Y-67891600D01*
X164096400Y-69110800D01*
X165264800Y-69110800D01*
X165264800Y-67891600D01*
X165417200Y-67891600D01*
X165417200Y-69110800D01*
X166585600Y-69110800D01*
X166585600Y-67891600D01*
X166738000Y-67891600D01*
X166738000Y-69110800D01*
X167906400Y-69110800D01*
X167906400Y-67891600D01*
X168058800Y-67891600D01*
X168058800Y-69110800D01*
X169227200Y-69110800D01*
X169227200Y-67891600D01*
X169379600Y-67891600D01*
X169379600Y-69110800D01*
X170548000Y-69110800D01*
X170700400Y-69110800D01*
X171922824Y-69110800D01*
X172017975Y-69110800D01*
X173243624Y-69110800D01*
X173338775Y-69110800D01*
X174561200Y-69110800D01*
X174659575Y-69110800D01*
X175882000Y-69110800D01*
X175882000Y-67891600D01*
X176034400Y-67891600D01*
X176034400Y-69110800D01*
X177202800Y-69110800D01*
X177202800Y-67891600D01*
X177355200Y-67891600D01*
X177355200Y-69110800D01*
X178523600Y-69110800D01*
X178523600Y-67891600D01*
X178676000Y-67891600D01*
X178676000Y-69110800D01*
X179844400Y-69110800D01*
X179996800Y-69110800D01*
X181165200Y-69110800D01*
X181165200Y-68977875D01*
X181317600Y-68977875D01*
X181317600Y-69110800D01*
X181901800Y-69110800D01*
X182163306Y-69108274D01*
X182337627Y-69099567D01*
X182439081Y-69082980D01*
X182481982Y-69056815D01*
X182486000Y-69041521D01*
X182475749Y-69028631D01*
X182638400Y-69028631D01*
X182650807Y-69065250D01*
X182699376Y-69088808D01*
X182801124Y-69101706D01*
X182973069Y-69106340D01*
X183184500Y-69105600D01*
X183418677Y-69101428D01*
X183557827Y-69093759D01*
X183608489Y-69081753D01*
X183577201Y-69064569D01*
X183552800Y-69058275D01*
X183410419Y-69031910D01*
X183210946Y-69003923D01*
X183006700Y-68981307D01*
X182814998Y-68965945D01*
X182703425Y-68966773D01*
X182651415Y-68986431D01*
X182638403Y-69027564D01*
X182638400Y-69028631D01*
X182475749Y-69028631D01*
X182456811Y-69004819D01*
X182360603Y-68977043D01*
X182184414Y-68955482D01*
X182016100Y-68943221D01*
X181794540Y-68926627D01*
X181600891Y-68906888D01*
X181465320Y-68887289D01*
X181431900Y-68879574D01*
X181348200Y-68868775D01*
X181319641Y-68924682D01*
X181317600Y-68977875D01*
X181165200Y-68977875D01*
X181165200Y-68963249D01*
X181151144Y-68870415D01*
X181095208Y-68792767D01*
X180976738Y-68706798D01*
X180898500Y-68659706D01*
X180727025Y-68546327D01*
X180524166Y-68393203D01*
X180331174Y-68231630D01*
X180314300Y-68216479D01*
X179996800Y-67929243D01*
X179996800Y-69110800D01*
X179844400Y-69110800D01*
X179844400Y-67891600D01*
X178676000Y-67891600D01*
X178523600Y-67891600D01*
X177355200Y-67891600D01*
X177202800Y-67891600D01*
X176034400Y-67891600D01*
X175882000Y-67891600D01*
X175882000Y-67888375D01*
X175285100Y-67902687D01*
X174688200Y-67917000D01*
X174673887Y-68513900D01*
X174659575Y-69110800D01*
X174561200Y-69110800D01*
X174561200Y-67888375D01*
X173964300Y-67902687D01*
X173367400Y-67917000D01*
X173353087Y-68513900D01*
X173338775Y-69110800D01*
X173243624Y-69110800D01*
X173215000Y-67917000D01*
X172046600Y-67917000D01*
X172032287Y-68513900D01*
X172017975Y-69110800D01*
X171922824Y-69110800D01*
X171894200Y-67917000D01*
X171297300Y-67902687D01*
X170700400Y-67888375D01*
X170700400Y-69110800D01*
X170548000Y-69110800D01*
X170548000Y-67891600D01*
X169379600Y-67891600D01*
X169227200Y-67891600D01*
X168058800Y-67891600D01*
X167906400Y-67891600D01*
X166738000Y-67891600D01*
X166585600Y-67891600D01*
X165417200Y-67891600D01*
X165264800Y-67891600D01*
X164096400Y-67891600D01*
X163944000Y-67891600D01*
X162775600Y-67891600D01*
X162623200Y-67891600D01*
X162623200Y-67888375D01*
X162026300Y-67902687D01*
X161429400Y-67917000D01*
X161415087Y-68513900D01*
X161400775Y-69110800D01*
X161305624Y-69110800D01*
X161277000Y-67917000D01*
X160108600Y-67917000D01*
X160094287Y-68513900D01*
X160079975Y-69110800D01*
X159984824Y-69110800D01*
X159956200Y-67917000D01*
X159636012Y-67901806D01*
X159407697Y-67903673D01*
X159217902Y-67942117D01*
X159039112Y-68013295D01*
X158762400Y-68139979D01*
X158473985Y-68139979D01*
X158666245Y-68024954D01*
X159024151Y-67848571D01*
X159192480Y-67778588D01*
X159689966Y-67778588D01*
X159764658Y-67789119D01*
X159820733Y-67790000D01*
X159931339Y-67775735D01*
X159981352Y-67741111D01*
X159981600Y-67738232D01*
X159964114Y-67726500D01*
X160095817Y-67726500D01*
X160111055Y-67754484D01*
X160186647Y-67773472D01*
X160334627Y-67784743D01*
X160567028Y-67789579D01*
X160692291Y-67790000D01*
X160952041Y-67788783D01*
X161126199Y-67783554D01*
X161230761Y-67771946D01*
X161281723Y-67751591D01*
X161295078Y-67720122D01*
X161292967Y-67701100D01*
X161413670Y-67701100D01*
X161414906Y-67738536D01*
X161446355Y-67763753D01*
X161524011Y-67779120D01*
X161663869Y-67787007D01*
X161881925Y-67789785D01*
X162013600Y-67790000D01*
X162273212Y-67788783D01*
X162447232Y-67783552D01*
X162551656Y-67771938D01*
X162602478Y-67751569D01*
X162615693Y-67720076D01*
X162613529Y-67701100D01*
X162606821Y-67686736D01*
X162775600Y-67686736D01*
X162781422Y-67730970D01*
X162810326Y-67760373D01*
X162879469Y-67777958D01*
X163006008Y-67786740D01*
X163207098Y-67789731D01*
X163363524Y-67790000D01*
X163615892Y-67788687D01*
X163783016Y-67783053D01*
X163881240Y-67770554D01*
X163926905Y-67748643D01*
X163936353Y-67714776D01*
X163934416Y-67701100D01*
X163928194Y-67688400D01*
X164096400Y-67688400D01*
X164102595Y-67732053D01*
X164132642Y-67761027D01*
X164203728Y-67778312D01*
X164333042Y-67786896D01*
X164537774Y-67789770D01*
X164680600Y-67790000D01*
X164931607Y-67788922D01*
X165098210Y-67783697D01*
X165197597Y-67771334D01*
X165246957Y-67748844D01*
X165263479Y-67713239D01*
X165264800Y-67688400D01*
X165417200Y-67688400D01*
X165423395Y-67732053D01*
X165453442Y-67761027D01*
X165524528Y-67778312D01*
X165653842Y-67786896D01*
X165858574Y-67789770D01*
X166001400Y-67790000D01*
X166252407Y-67788922D01*
X166419010Y-67783697D01*
X166518397Y-67771334D01*
X166567757Y-67748844D01*
X166584279Y-67713239D01*
X166585600Y-67688400D01*
X166738000Y-67688400D01*
X166744195Y-67732053D01*
X166774242Y-67761027D01*
X166845328Y-67778312D01*
X166974642Y-67786896D01*
X167179374Y-67789770D01*
X167322200Y-67790000D01*
X167573207Y-67788922D01*
X167739810Y-67783697D01*
X167839197Y-67771334D01*
X167888557Y-67748844D01*
X167905079Y-67713239D01*
X167905724Y-67701100D01*
X168068383Y-67701100D01*
X168069743Y-67739298D01*
X168102128Y-67764732D01*
X168181879Y-67779947D01*
X168325337Y-67787486D01*
X168548844Y-67789896D01*
X168639275Y-67790000D01*
X168891117Y-67788977D01*
X169058521Y-67783900D01*
X169158643Y-67771756D01*
X169208640Y-67749530D01*
X169225669Y-67714211D01*
X169226399Y-67701100D01*
X169389183Y-67701100D01*
X169390543Y-67739298D01*
X169422928Y-67764732D01*
X169502679Y-67779947D01*
X169646137Y-67787486D01*
X169869644Y-67789896D01*
X169960075Y-67790000D01*
X170211917Y-67788977D01*
X170379321Y-67783900D01*
X170479443Y-67771756D01*
X170529440Y-67749530D01*
X170546469Y-67714211D01*
X170547199Y-67701100D01*
X170710070Y-67701100D01*
X170711306Y-67738536D01*
X170742755Y-67763753D01*
X170820411Y-67779120D01*
X170960269Y-67787007D01*
X171178325Y-67789785D01*
X171310000Y-67790000D01*
X171569612Y-67788783D01*
X171743632Y-67783552D01*
X171848056Y-67771938D01*
X171898878Y-67751569D01*
X171912093Y-67720076D01*
X171909929Y-67701100D01*
X172030870Y-67701100D01*
X172032106Y-67738536D01*
X172063555Y-67763753D01*
X172141211Y-67779120D01*
X172281069Y-67787007D01*
X172499125Y-67789785D01*
X172630800Y-67790000D01*
X172890412Y-67788783D01*
X173064432Y-67783552D01*
X173168856Y-67771938D01*
X173219678Y-67751569D01*
X173232893Y-67720076D01*
X173230729Y-67701100D01*
X173351670Y-67701100D01*
X173352906Y-67738536D01*
X173384355Y-67763753D01*
X173462011Y-67779120D01*
X173601869Y-67787007D01*
X173819925Y-67789785D01*
X173951600Y-67790000D01*
X174211212Y-67788783D01*
X174385232Y-67783552D01*
X174489656Y-67771938D01*
X174540478Y-67751569D01*
X174553693Y-67720076D01*
X174551529Y-67701100D01*
X174548115Y-67693790D01*
X174663019Y-67693790D01*
X174701176Y-67739094D01*
X174820717Y-67769047D01*
X175028381Y-67785417D01*
X175304522Y-67790000D01*
X175556134Y-67788677D01*
X175722540Y-67782998D01*
X175820119Y-67770401D01*
X175865250Y-67748320D01*
X175874312Y-67714193D01*
X175872422Y-67701100D01*
X175866161Y-67688400D01*
X176034400Y-67688400D01*
X176040595Y-67732053D01*
X176070642Y-67761027D01*
X176141728Y-67778312D01*
X176271042Y-67786896D01*
X176475774Y-67789770D01*
X176618600Y-67790000D01*
X176869607Y-67788922D01*
X177036210Y-67783697D01*
X177135597Y-67771334D01*
X177184957Y-67748844D01*
X177201479Y-67713239D01*
X177202800Y-67688400D01*
X177355200Y-67688400D01*
X177361395Y-67732053D01*
X177391442Y-67761027D01*
X177462528Y-67778312D01*
X177591842Y-67786896D01*
X177796574Y-67789770D01*
X177939400Y-67790000D01*
X178190407Y-67788922D01*
X178357010Y-67783697D01*
X178456397Y-67771334D01*
X178505757Y-67748844D01*
X178522279Y-67713239D01*
X178522639Y-67706467D01*
X178676000Y-67706467D01*
X178688635Y-67745247D01*
X178738443Y-67769675D01*
X178843277Y-67782644D01*
X179020989Y-67787050D01*
X179171300Y-67786779D01*
X179395002Y-67783194D01*
X179527028Y-67775005D01*
X179577252Y-67760743D01*
X179555549Y-67738937D01*
X179539600Y-67731954D01*
X179425573Y-67702109D01*
X179248287Y-67673316D01*
X179045951Y-67651771D01*
X179044300Y-67651642D01*
X178852422Y-67639527D01*
X178740822Y-67642467D01*
X178688886Y-67663531D01*
X178676001Y-67705787D01*
X178676000Y-67706467D01*
X178522639Y-67706467D01*
X178523600Y-67688400D01*
X178517404Y-67644746D01*
X178487357Y-67615772D01*
X178416271Y-67598487D01*
X178286957Y-67589903D01*
X178082225Y-67587029D01*
X177939400Y-67586800D01*
X177688392Y-67587877D01*
X177521789Y-67593102D01*
X177422402Y-67605465D01*
X177373042Y-67627955D01*
X177356520Y-67663560D01*
X177355200Y-67688400D01*
X177202800Y-67688400D01*
X177196604Y-67644746D01*
X177166557Y-67615772D01*
X177095471Y-67598487D01*
X176966157Y-67589903D01*
X176761425Y-67587029D01*
X176618600Y-67586800D01*
X176367592Y-67587877D01*
X176200989Y-67593102D01*
X176101602Y-67605465D01*
X176052242Y-67627955D01*
X176035720Y-67663560D01*
X176034400Y-67688400D01*
X175866161Y-67688400D01*
X175852751Y-67661203D01*
X175800097Y-67634024D01*
X175696809Y-67616367D01*
X175525238Y-67605034D01*
X175301541Y-67597696D01*
X175071965Y-67595988D01*
X174879403Y-67602597D01*
X174746871Y-67616236D01*
X174699509Y-67631370D01*
X174663019Y-67693790D01*
X174548115Y-67693790D01*
X174533496Y-67662491D01*
X174485523Y-67636873D01*
X174390241Y-67621670D01*
X174230281Y-67614310D01*
X173988277Y-67612219D01*
X173951600Y-67612200D01*
X173698182Y-67613816D01*
X173528969Y-67620381D01*
X173426592Y-67634469D01*
X173373682Y-67658652D01*
X173352873Y-67695505D01*
X173351670Y-67701100D01*
X173230729Y-67701100D01*
X173212696Y-67662491D01*
X173164723Y-67636873D01*
X173069441Y-67621670D01*
X172909481Y-67614310D01*
X172667477Y-67612219D01*
X172630800Y-67612200D01*
X172377382Y-67613816D01*
X172208169Y-67620381D01*
X172105792Y-67634469D01*
X172052882Y-67658652D01*
X172032073Y-67695505D01*
X172030870Y-67701100D01*
X171909929Y-67701100D01*
X171891896Y-67662491D01*
X171843923Y-67636873D01*
X171748641Y-67621670D01*
X171588681Y-67614310D01*
X171346677Y-67612219D01*
X171310000Y-67612200D01*
X171056582Y-67613816D01*
X170887369Y-67620381D01*
X170784992Y-67634469D01*
X170732082Y-67658652D01*
X170711273Y-67695505D01*
X170710070Y-67701100D01*
X170547199Y-67701100D01*
X170548000Y-67686736D01*
X170542543Y-67642132D01*
X170514561Y-67613311D01*
X170446634Y-67597561D01*
X170321346Y-67592169D01*
X170121277Y-67594422D01*
X169977108Y-67597836D01*
X169725900Y-67605985D01*
X169558890Y-67617418D01*
X169458674Y-67635193D01*
X169407850Y-67662366D01*
X169389183Y-67701100D01*
X169226399Y-67701100D01*
X169227200Y-67686736D01*
X169221743Y-67642132D01*
X169193761Y-67613311D01*
X169125834Y-67597561D01*
X169000546Y-67592169D01*
X168800477Y-67594422D01*
X168656308Y-67597836D01*
X168405100Y-67605985D01*
X168238090Y-67617418D01*
X168137874Y-67635193D01*
X168087050Y-67662366D01*
X168068383Y-67701100D01*
X167905724Y-67701100D01*
X167906400Y-67688400D01*
X167900204Y-67644746D01*
X167870157Y-67615772D01*
X167799071Y-67598487D01*
X167669757Y-67589903D01*
X167465025Y-67587029D01*
X167322200Y-67586800D01*
X167071192Y-67587877D01*
X166904589Y-67593102D01*
X166805202Y-67605465D01*
X166755842Y-67627955D01*
X166739320Y-67663560D01*
X166738000Y-67688400D01*
X166585600Y-67688400D01*
X166579404Y-67644746D01*
X166549357Y-67615772D01*
X166478271Y-67598487D01*
X166348957Y-67589903D01*
X166144225Y-67587029D01*
X166001400Y-67586800D01*
X165750392Y-67587877D01*
X165583789Y-67593102D01*
X165484402Y-67605465D01*
X165435042Y-67627955D01*
X165418520Y-67663560D01*
X165417200Y-67688400D01*
X165264800Y-67688400D01*
X165258604Y-67644746D01*
X165228557Y-67615772D01*
X165157471Y-67598487D01*
X165028157Y-67589903D01*
X164823425Y-67587029D01*
X164680600Y-67586800D01*
X164429592Y-67587877D01*
X164262989Y-67593102D01*
X164163602Y-67605465D01*
X164114242Y-67627955D01*
X164097720Y-67663560D01*
X164096400Y-67688400D01*
X163928194Y-67688400D01*
X163915132Y-67661739D01*
X163863526Y-67634775D01*
X163762196Y-67617150D01*
X163593738Y-67605808D01*
X163346491Y-67597836D01*
X163099142Y-67592599D01*
X162935915Y-67593554D01*
X162839391Y-67603412D01*
X162792153Y-67624886D01*
X162776782Y-67660688D01*
X162775600Y-67686736D01*
X162606821Y-67686736D01*
X162595496Y-67662491D01*
X162547523Y-67636873D01*
X162452241Y-67621670D01*
X162292281Y-67614310D01*
X162050277Y-67612219D01*
X162013600Y-67612200D01*
X161760182Y-67613816D01*
X161590969Y-67620381D01*
X161488592Y-67634469D01*
X161435682Y-67658652D01*
X161414873Y-67695505D01*
X161413670Y-67701100D01*
X161292967Y-67701100D01*
X161251102Y-67639783D01*
X161141168Y-67606821D01*
X161047943Y-67597782D01*
X160848335Y-67594852D01*
X160631647Y-67606888D01*
X160422987Y-67630498D01*
X160247464Y-67662287D01*
X160130183Y-67698860D01*
X160095817Y-67726500D01*
X159964114Y-67726500D01*
X159939044Y-67709681D01*
X159841900Y-67719978D01*
X159715659Y-67755720D01*
X159689966Y-67778588D01*
X159192480Y-67778588D01*
X159410294Y-67688032D01*
X159731017Y-67577234D01*
X160108600Y-67460567D01*
X169278000Y-67445768D01*
X170613260Y-67443927D01*
X171851573Y-67442868D01*
X172992555Y-67442591D01*
X174035824Y-67443092D01*
X174035824Y-67443092D01*
G37*
X174035824Y-67443092D02*
X174980998Y-67444372D01*
X175827693Y-67446429D01*
X176575528Y-67449260D01*
X177224121Y-67452865D01*
X177773088Y-67457242D01*
X178222047Y-67462390D01*
X178570616Y-67468306D01*
X178818412Y-67474990D01*
X178965052Y-67482441D01*
X178978718Y-67483665D01*
X179386739Y-67544133D01*
X179728308Y-67645161D01*
X180034997Y-67800605D01*
X180338381Y-68024321D01*
X180466409Y-68136507D01*
X180676607Y-68320163D01*
X180866988Y-68464007D01*
X181055099Y-68573727D01*
X181258487Y-68655012D01*
X181494698Y-68713548D01*
X181781279Y-68755025D01*
X182135776Y-68785130D01*
X182536800Y-68807664D01*
X182974367Y-68833397D01*
X183326090Y-68864807D01*
X183607678Y-68904482D01*
X183834840Y-68955009D01*
X184023283Y-69018978D01*
X184137000Y-69071308D01*
X184323546Y-69146643D01*
X184562355Y-69205540D01*
X184866106Y-69249923D01*
X185247480Y-69281717D01*
X185646907Y-69300446D01*
X185985238Y-69314749D01*
X186235224Y-69334478D01*
X186410120Y-69365377D01*
X186523178Y-69413190D01*
X186587655Y-69483659D01*
X186616803Y-69582529D01*
X186623878Y-69715543D01*
X186623890Y-69723797D01*
X186609240Y-69879644D01*
X186554997Y-69988235D01*
X186445721Y-70059657D01*
X186265975Y-70103995D01*
X186000318Y-70131335D01*
X185999989Y-70131358D01*
X185705299Y-70158519D01*
X185460539Y-70200618D01*
X185248540Y-70267608D01*
X185052134Y-70369441D01*
X184854153Y-70516071D01*
X184637430Y-70717450D01*
X184384796Y-70983531D01*
X184224881Y-71160434D01*
X184121522Y-71273409D01*
X184027093Y-71363711D01*
X183929065Y-71433880D01*
X183814911Y-71486454D01*
X183672100Y-71523973D01*
X183488106Y-71548975D01*
X183250400Y-71564000D01*
X182946452Y-71571586D01*
X182563735Y-71574272D01*
X182181200Y-71574600D01*
X181656267Y-71572758D01*
X181218255Y-71564277D01*
X180852507Y-71544718D01*
X180544368Y-71509644D01*
X180279180Y-71454619D01*
X180042289Y-71375204D01*
X179819038Y-71266964D01*
X179594772Y-71125460D01*
X179354834Y-70946256D01*
X179084569Y-70724914D01*
X178923065Y-70588187D01*
X178920562Y-70586259D01*
X179158600Y-70586259D01*
X179285600Y-70689803D01*
X179424344Y-70800153D01*
X179571234Y-70912724D01*
X179702914Y-71010154D01*
X179796027Y-71075080D01*
X179826621Y-71092000D01*
X179836767Y-71046274D01*
X179843203Y-70929371D01*
X179844400Y-70838000D01*
X179844400Y-70584000D01*
X179996800Y-70584000D01*
X179996800Y-70882636D01*
X180000586Y-71052091D01*
X180019583Y-71149040D01*
X180065244Y-71202507D01*
X180136500Y-71236606D01*
X180335022Y-71300352D01*
X180583661Y-71359912D01*
X180831207Y-71403606D01*
X180911200Y-71413305D01*
X181040896Y-71427579D01*
X181122580Y-71438598D01*
X181127100Y-71439470D01*
X181144285Y-71396420D01*
X181157441Y-71274530D01*
X181164525Y-71096537D01*
X181165200Y-71015800D01*
X181165200Y-70584000D01*
X181317600Y-70584000D01*
X181317600Y-70981933D01*
X181321651Y-71174139D01*
X181332386Y-71325022D01*
X181347679Y-71407455D01*
X181351466Y-71413733D01*
X181413242Y-71427524D01*
X181554218Y-71438610D01*
X181752006Y-71445690D01*
X181935666Y-71447600D01*
X182486000Y-71447600D01*
X182486000Y-70584000D01*
X182638400Y-70584000D01*
X182638400Y-70981933D01*
X182642972Y-71175135D01*
X182655084Y-71327994D01*
X182672333Y-71412878D01*
X182676500Y-71419606D01*
X182744782Y-71436392D01*
X182886328Y-71440952D01*
X183073775Y-71435084D01*
X183279758Y-71420588D01*
X183476915Y-71399265D01*
X183637881Y-71372913D01*
X183717900Y-71351121D01*
X183791007Y-71317219D01*
X183832808Y-71268522D01*
X183852025Y-71179413D01*
X183857383Y-71024271D01*
X183857600Y-70940857D01*
X183857600Y-70584000D01*
X183959200Y-70584000D01*
X183963366Y-71219000D01*
X184168789Y-70991714D01*
X184288287Y-70853544D01*
X184383077Y-70733285D01*
X184422493Y-70674214D01*
X184440396Y-70621016D01*
X184406724Y-70594089D01*
X184301547Y-70584767D01*
X184214987Y-70584000D01*
X183959200Y-70584000D01*
X183857600Y-70584000D01*
X182638400Y-70584000D01*
X182486000Y-70584000D01*
X181317600Y-70584000D01*
X181165200Y-70584000D01*
X179996800Y-70584000D01*
X179844400Y-70584000D01*
X179501500Y-70585129D01*
X179158600Y-70586259D01*
X178920562Y-70586259D01*
X178717682Y-70430020D01*
X178485656Y-70276307D01*
X178276042Y-70159465D01*
X178269600Y-70156387D01*
X177917563Y-70035972D01*
X177549425Y-69992677D01*
X177193471Y-70027465D01*
X176938825Y-70111088D01*
X176619070Y-70311150D01*
X176347873Y-70588193D01*
X176136708Y-70924608D01*
X175997048Y-71302785D01*
X175943468Y-71638626D01*
X175934870Y-71845030D01*
X175947658Y-71996731D01*
X175990870Y-72139874D01*
X176073545Y-72320604D01*
X176079385Y-72332487D01*
X176269451Y-72636131D01*
X176520191Y-72917135D01*
X176805364Y-73150688D01*
X177098732Y-73311978D01*
X177126748Y-73322892D01*
X177185052Y-73343798D01*
X177245122Y-73361756D01*
X177314743Y-73376990D01*
X177401700Y-73389723D01*
X177513779Y-73400180D01*
X177658765Y-73408584D01*
X177844444Y-73415159D01*
X178078600Y-73420130D01*
X178369021Y-73423720D01*
X178723490Y-73426154D01*
X179149793Y-73427654D01*
X179655715Y-73428446D01*
X180249043Y-73428753D01*
X180808625Y-73428800D01*
X184207438Y-73428799D01*
X184286519Y-73541703D01*
X184356684Y-73717541D01*
X184347237Y-73903398D01*
X184293496Y-74015990D01*
X184283550Y-74027467D01*
X184268434Y-74038026D01*
X184244018Y-74047711D01*
X184206170Y-74056568D01*
X184150759Y-74064640D01*
X184073654Y-74071974D01*
X183970724Y-74078613D01*
X183837839Y-74084602D01*
X183670866Y-74089986D01*
X183465676Y-74094809D01*
X183218137Y-74099117D01*
X182924117Y-74102954D01*
X182579487Y-74106365D01*
X182180114Y-74109395D01*
X181721868Y-74112087D01*
X181200618Y-74114488D01*
X180612232Y-74116641D01*
X179952580Y-74118592D01*
X179217531Y-74120385D01*
X178402954Y-74122064D01*
X177504716Y-74123676D01*
X176518689Y-74125263D01*
X175440740Y-74126872D01*
X174266738Y-74128546D01*
X173841396Y-74129143D01*
X172541069Y-74130707D01*
X171312874Y-74131660D01*
X170158959Y-74132010D01*
X169081470Y-74131763D01*
X168082552Y-74130926D01*
X167164352Y-74129506D01*
X166329015Y-74127511D01*
X165578687Y-74124947D01*
X164915515Y-74121822D01*
X164341644Y-74118141D01*
X163859220Y-74113914D01*
X163470389Y-74109145D01*
X163177298Y-74103843D01*
X162982092Y-74098015D01*
X162902600Y-74093428D01*
X162591256Y-74058134D01*
X162314712Y-74007612D01*
X162045855Y-73933755D01*
X161757571Y-73828460D01*
X161422747Y-73683622D01*
X161226200Y-73592328D01*
X160992006Y-73484600D01*
X160817965Y-73414931D01*
X160673757Y-73375156D01*
X160529060Y-73357107D01*
X160353552Y-73352618D01*
X160336131Y-73352600D01*
X160110752Y-73359615D01*
X159936078Y-73388445D01*
X159761719Y-73450765D01*
X159614364Y-73519833D01*
X159260820Y-73745924D01*
X158985481Y-74034670D01*
X158792828Y-74379476D01*
X158687341Y-74773743D01*
X158672978Y-74905808D01*
X158687053Y-75319548D01*
X158793571Y-75691764D01*
X158993054Y-76023491D01*
X159286024Y-76315763D01*
X159443811Y-76431544D01*
X159717498Y-76588405D01*
X159989509Y-76682833D01*
X160274955Y-76714370D01*
X160588948Y-76682558D01*
X160925658Y-76592538D01*
X161404000Y-76592538D01*
X161404000Y-77035600D01*
X162623200Y-77035600D01*
X162623200Y-76159014D01*
X162414948Y-76192315D01*
X162269799Y-76229593D01*
X162071077Y-76298689D01*
X161856237Y-76386283D01*
X161805348Y-76409077D01*
X161404000Y-76592538D01*
X160925658Y-76592538D01*
X160946601Y-76586939D01*
X161363025Y-76427057D01*
X161495135Y-76369409D01*
X161751261Y-76258956D01*
X162003093Y-76156842D01*
X162097657Y-76121200D01*
X162775600Y-76121200D01*
X162775600Y-77035600D01*
X163944000Y-77035600D01*
X163944000Y-76121200D01*
X164096400Y-76121200D01*
X164096400Y-77035600D01*
X165264800Y-77035600D01*
X165264800Y-76121200D01*
X165417200Y-76121200D01*
X165417200Y-77035600D01*
X166585600Y-77035600D01*
X166585600Y-76121200D01*
X166738000Y-76121200D01*
X166738000Y-77035600D01*
X167906400Y-77035600D01*
X167906400Y-76121200D01*
X168058800Y-76121200D01*
X168058800Y-77035600D01*
X169227200Y-77035600D01*
X169227200Y-76121200D01*
X169379600Y-76121200D01*
X169379600Y-77035600D01*
X170548000Y-77035600D01*
X170548000Y-76121200D01*
X170700400Y-76121200D01*
X170700400Y-77035600D01*
X171919600Y-77035600D01*
X171919600Y-76121200D01*
X172021200Y-76121200D01*
X172021200Y-77035600D01*
X173240400Y-77035600D01*
X173240400Y-76121200D01*
X173342000Y-76121200D01*
X173342000Y-77035600D01*
X174561200Y-77035600D01*
X174561200Y-76121200D01*
X174662800Y-76121200D01*
X174662800Y-77035600D01*
X175882000Y-77035600D01*
X175882000Y-76121200D01*
X176034400Y-76121200D01*
X176034400Y-77035600D01*
X177202800Y-77035600D01*
X177202800Y-76121200D01*
X177355200Y-76121200D01*
X177355200Y-77035600D01*
X178523600Y-77035600D01*
X178523600Y-76121200D01*
X178676000Y-76121200D01*
X178676000Y-77035600D01*
X179844400Y-77035600D01*
X179844400Y-76121200D01*
X179996800Y-76121200D01*
X179996800Y-77035600D01*
X181165200Y-77035600D01*
X181165200Y-76121200D01*
X181317600Y-76121200D01*
X181317600Y-77035600D01*
X182486000Y-77035600D01*
X182486000Y-76121200D01*
X182638400Y-76121200D01*
X182638400Y-77035600D01*
X183857600Y-77035600D01*
X183857600Y-76121200D01*
X183959200Y-76121200D01*
X183959200Y-76942086D01*
X184302100Y-76911125D01*
X184531525Y-76889851D01*
X184767421Y-76867109D01*
X184911700Y-76852627D01*
X185001797Y-76843324D01*
X185276042Y-76843324D01*
X185671721Y-76807422D01*
X185894597Y-76785170D01*
X186106756Y-76760583D01*
X186264178Y-76738784D01*
X186270600Y-76737731D01*
X186473800Y-76703941D01*
X186488580Y-76283940D01*
X186503246Y-75867200D01*
X186600800Y-75867200D01*
X186600800Y-76641900D01*
X186757475Y-76610564D01*
X186911891Y-76557347D01*
X187062153Y-76473842D01*
X187205917Y-76317146D01*
X187256267Y-76123234D01*
X187240339Y-75994200D01*
X187214184Y-75923336D01*
X187163494Y-75885249D01*
X187061709Y-75869892D01*
X186904632Y-75867200D01*
X186600800Y-75867200D01*
X186503246Y-75867200D01*
X186503361Y-75863939D01*
X185904380Y-75878269D01*
X185305400Y-75892600D01*
X185276042Y-76843324D01*
X185001797Y-76843324D01*
X185178400Y-76825089D01*
X185178400Y-75929615D01*
X184813535Y-76025407D01*
X184591481Y-76074546D01*
X184368707Y-76109101D01*
X184203935Y-76121200D01*
X183959200Y-76121200D01*
X183857600Y-76121200D01*
X182638400Y-76121200D01*
X182486000Y-76121200D01*
X181317600Y-76121200D01*
X181165200Y-76121200D01*
X179996800Y-76121200D01*
X179844400Y-76121200D01*
X178676000Y-76121200D01*
X178523600Y-76121200D01*
X177355200Y-76121200D01*
X177202800Y-76121200D01*
X176034400Y-76121200D01*
X175882000Y-76121200D01*
X174662800Y-76121200D01*
X174561200Y-76121200D01*
X173342000Y-76121200D01*
X173240400Y-76121200D01*
X172021200Y-76121200D01*
X171919600Y-76121200D01*
X170700400Y-76121200D01*
X170548000Y-76121200D01*
X169379600Y-76121200D01*
X169227200Y-76121200D01*
X168058800Y-76121200D01*
X167906400Y-76121200D01*
X166738000Y-76121200D01*
X166585600Y-76121200D01*
X165417200Y-76121200D01*
X165264800Y-76121200D01*
X164096400Y-76121200D01*
X163944000Y-76121200D01*
X162775600Y-76121200D01*
X162097657Y-76121200D01*
X162220869Y-76074761D01*
X162369200Y-76025966D01*
X162409601Y-76017012D01*
X162467170Y-76008703D01*
X162545868Y-76001002D01*
X162649659Y-75993872D01*
X162782507Y-75987277D01*
X162948373Y-75981179D01*
X163151221Y-75975542D01*
X163395014Y-75970328D01*
X163683715Y-75965501D01*
X164021287Y-75961023D01*
X164411693Y-75956858D01*
X164858895Y-75952969D01*
X165366858Y-75949318D01*
X165939543Y-75945870D01*
X166580914Y-75942586D01*
X167294934Y-75939430D01*
X168085565Y-75936366D01*
X168956772Y-75933355D01*
X169912516Y-75930361D01*
X170956761Y-75927348D01*
X172093469Y-75924278D01*
X173326605Y-75921114D01*
X173723000Y-75920124D01*
X184797400Y-75892600D01*
X185361815Y-75705620D01*
X185423433Y-75687041D01*
X185992678Y-75687041D01*
X186026492Y-75701141D01*
X186151451Y-75708516D01*
X186207100Y-75709736D01*
X186367396Y-75704464D01*
X186472480Y-75685189D01*
X186499200Y-75664000D01*
X186482119Y-75651300D01*
X186614595Y-75651300D01*
X186634130Y-75692091D01*
X186736859Y-75711064D01*
X186837866Y-75713255D01*
X186980379Y-75706060D01*
X187025845Y-75686167D01*
X187005538Y-75666108D01*
X186883075Y-75619882D01*
X186750605Y-75604384D01*
X186647580Y-75621108D01*
X186614595Y-75651300D01*
X186482119Y-75651300D01*
X186454947Y-75631098D01*
X186343774Y-75619703D01*
X186198059Y-75629816D01*
X186050178Y-75661437D01*
X186042000Y-75664000D01*
X185992678Y-75687041D01*
X185423433Y-75687041D01*
X185856089Y-75556589D01*
X186271657Y-75464472D01*
X186614151Y-75429530D01*
X186889202Y-75452020D01*
X187102440Y-75532202D01*
X187259497Y-75670335D01*
X187336579Y-75796445D01*
X187410681Y-76049202D01*
X187388274Y-76280950D01*
X187273541Y-76484249D01*
X187070661Y-76651663D01*
X186786538Y-76774920D01*
X186630979Y-76820955D01*
X186487254Y-76857935D01*
X186338258Y-76888221D01*
X186166883Y-76914174D01*
X185956025Y-76938155D01*
X185688576Y-76962526D01*
X185347432Y-76989648D01*
X185091948Y-77008841D01*
X184676804Y-77043175D01*
X184358060Y-77077594D01*
X184130517Y-77112801D01*
X183988977Y-77149497D01*
X183960646Y-77161851D01*
X183813953Y-77271158D01*
X183652221Y-77457994D01*
X183469869Y-77729526D01*
X183323242Y-77980485D01*
X183217851Y-78152444D01*
X183113557Y-78295667D01*
X183032752Y-78379436D01*
X183032057Y-78379927D01*
X183012513Y-78388349D01*
X182976371Y-78396145D01*
X182919925Y-78403338D01*
X182839468Y-78409948D01*
X182731293Y-78415999D01*
X182591693Y-78421513D01*
X182416962Y-78426511D01*
X182203392Y-78431015D01*
X181947277Y-78435047D01*
X181644909Y-78438631D01*
X181292583Y-78441786D01*
X180886591Y-78444536D01*
X180423226Y-78446903D01*
X179898781Y-78448908D01*
X179309550Y-78450574D01*
X178651826Y-78451923D01*
X177921901Y-78452976D01*
X177116070Y-78453756D01*
X176230624Y-78454284D01*
X175261858Y-78454584D01*
X174206065Y-78454676D01*
X173059537Y-78454583D01*
X171818568Y-78454327D01*
X170574796Y-78453961D01*
X169211195Y-78453430D01*
X167945725Y-78452748D01*
X166774917Y-78451896D01*
X165695302Y-78450853D01*
X164703411Y-78449602D01*
X163795775Y-78448122D01*
X162968925Y-78446393D01*
X162219392Y-78444395D01*
X161543706Y-78442111D01*
X160938400Y-78439518D01*
X160400003Y-78436599D01*
X159925048Y-78433333D01*
X159510064Y-78429701D01*
X159151584Y-78425684D01*
X158846137Y-78421261D01*
X158590256Y-78416413D01*
X158380470Y-78411121D01*
X158213311Y-78405365D01*
X158085311Y-78399125D01*
X157992999Y-78392382D01*
X157932907Y-78385116D01*
X157919104Y-78382503D01*
X157343566Y-78209936D01*
X156767786Y-77948307D01*
X156205592Y-77609173D01*
X155776705Y-77284304D01*
X156120800Y-77284304D01*
X156165382Y-77373764D01*
X156288878Y-77485062D01*
X156362528Y-77535725D01*
X156518867Y-77630663D01*
X156704064Y-77735251D01*
X156894172Y-77836973D01*
X157065244Y-77923311D01*
X157193332Y-77981750D01*
X157251100Y-78000156D01*
X157268790Y-77953688D01*
X157282113Y-77829629D01*
X157288816Y-77651966D01*
X157289200Y-77594400D01*
X157289200Y-77188000D01*
X157441600Y-77188000D01*
X157441600Y-78091117D01*
X157759100Y-78172286D01*
X158011022Y-78233872D01*
X158194814Y-78270525D01*
X158339551Y-78286857D01*
X158474312Y-78287479D01*
X158483000Y-78287104D01*
X158635400Y-78280200D01*
X158649818Y-77734100D01*
X158664237Y-77188000D01*
X158762400Y-77188000D01*
X158762400Y-78305600D01*
X159981600Y-78305600D01*
X159981600Y-77188000D01*
X160083200Y-77188000D01*
X160083200Y-78305600D01*
X161302400Y-78305600D01*
X161302400Y-77188000D01*
X161404000Y-77188000D01*
X161404000Y-77712933D01*
X161407092Y-77934539D01*
X161415439Y-78116878D01*
X161427646Y-78236940D01*
X161437866Y-78271733D01*
X161499406Y-78285238D01*
X161640722Y-78296185D01*
X161840001Y-78303363D01*
X162047466Y-78305600D01*
X162623200Y-78305600D01*
X162623200Y-77188000D01*
X162775600Y-77188000D01*
X162775600Y-78305600D01*
X163944000Y-78305600D01*
X163944000Y-77188000D01*
X164096400Y-77188000D01*
X164096400Y-78305600D01*
X165264800Y-78305600D01*
X165264800Y-77188000D01*
X165417200Y-77188000D01*
X165417200Y-78305600D01*
X166585600Y-78305600D01*
X166585600Y-77188000D01*
X166738000Y-77188000D01*
X166738000Y-78305600D01*
X167906400Y-78305600D01*
X167906400Y-77188000D01*
X168058800Y-77188000D01*
X168058800Y-78305600D01*
X169227200Y-78305600D01*
X169227200Y-77188000D01*
X169379600Y-77188000D01*
X169379600Y-78305600D01*
X170548000Y-78305600D01*
X170548000Y-77188000D01*
X170700400Y-77188000D01*
X170700400Y-78305600D01*
X171919600Y-78305600D01*
X171919600Y-77188000D01*
X172021200Y-77188000D01*
X172021200Y-78305600D01*
X173240400Y-78305600D01*
X173240400Y-77188000D01*
X173342000Y-77188000D01*
X173342000Y-77712933D01*
X173345092Y-77934539D01*
X173353439Y-78116878D01*
X173365646Y-78236940D01*
X173375866Y-78271733D01*
X173437406Y-78285238D01*
X173578722Y-78296185D01*
X173778001Y-78303363D01*
X173985466Y-78305600D01*
X174561200Y-78305600D01*
X174561200Y-77188000D01*
X174662800Y-77188000D01*
X174662800Y-77712933D01*
X174665892Y-77934539D01*
X174674239Y-78116878D01*
X174686446Y-78236940D01*
X174696666Y-78271733D01*
X174758206Y-78285238D01*
X174899522Y-78296185D01*
X175098801Y-78303363D01*
X175306266Y-78305600D01*
X175882000Y-78305600D01*
X175882000Y-77188000D01*
X176034400Y-77188000D01*
X176034400Y-78305600D01*
X177202800Y-78305600D01*
X177202800Y-77188000D01*
X177355200Y-77188000D01*
X177355200Y-78305600D01*
X178523600Y-78305600D01*
X178523600Y-77188000D01*
X178676000Y-77188000D01*
X178676000Y-78305600D01*
X179844400Y-78305600D01*
X179844400Y-77188000D01*
X179996800Y-77188000D01*
X179996800Y-78305600D01*
X181165200Y-78305600D01*
X181165200Y-77188000D01*
X181317600Y-77188000D01*
X181317600Y-78305600D01*
X182486000Y-78305600D01*
X182486000Y-77188000D01*
X182638400Y-77188000D01*
X182638400Y-77746800D01*
X182639176Y-77990799D01*
X182643999Y-78150879D01*
X182656606Y-78244722D01*
X182680735Y-78290007D01*
X182720125Y-78304416D01*
X182756544Y-78305600D01*
X182875885Y-78269517D01*
X182980451Y-78191300D01*
X183058521Y-78090145D01*
X183163056Y-77933091D01*
X183271920Y-77753458D01*
X183275750Y-77746800D01*
X183383995Y-77567034D01*
X183488230Y-77408583D01*
X183566520Y-77304734D01*
X183568699Y-77302300D01*
X183672110Y-77188000D01*
X182638400Y-77188000D01*
X182486000Y-77188000D01*
X181317600Y-77188000D01*
X181165200Y-77188000D01*
X179996800Y-77188000D01*
X179844400Y-77188000D01*
X178676000Y-77188000D01*
X178523600Y-77188000D01*
X177355200Y-77188000D01*
X177202800Y-77188000D01*
X176034400Y-77188000D01*
X175882000Y-77188000D01*
X174662800Y-77188000D01*
X174561200Y-77188000D01*
X173342000Y-77188000D01*
X173240400Y-77188000D01*
X172021200Y-77188000D01*
X171919600Y-77188000D01*
X170700400Y-77188000D01*
X170548000Y-77188000D01*
X169379600Y-77188000D01*
X169227200Y-77188000D01*
X168058800Y-77188000D01*
X167906400Y-77188000D01*
X166738000Y-77188000D01*
X166585600Y-77188000D01*
X165417200Y-77188000D01*
X165264800Y-77188000D01*
X164096400Y-77188000D01*
X163944000Y-77188000D01*
X162775600Y-77188000D01*
X162623200Y-77188000D01*
X161404000Y-77188000D01*
X161302400Y-77188000D01*
X160083200Y-77188000D01*
X159981600Y-77188000D01*
X158762400Y-77188000D01*
X158664237Y-77188000D01*
X157441600Y-77188000D01*
X157289200Y-77188000D01*
X156705000Y-77188000D01*
X156453555Y-77189223D01*
X156286604Y-77194773D01*
X156187050Y-77207467D01*
X156137798Y-77230124D01*
X156121751Y-77265561D01*
X156120800Y-77284304D01*
X155776705Y-77284304D01*
X155683098Y-77213400D01*
X155917600Y-77213400D01*
X155943000Y-77238800D01*
X155968400Y-77213400D01*
X155943000Y-77188000D01*
X155917600Y-77213400D01*
X155683098Y-77213400D01*
X155670811Y-77204093D01*
X155177272Y-76744625D01*
X154738802Y-76242328D01*
X154562388Y-75987630D01*
X154800000Y-75987630D01*
X154836731Y-76087353D01*
X154948130Y-76245093D01*
X155136003Y-76463268D01*
X155236573Y-76571830D01*
X155430569Y-76773413D01*
X155573358Y-76909009D01*
X155679435Y-76990125D01*
X155763297Y-77028269D01*
X155820773Y-77035600D01*
X155968400Y-77035600D01*
X155968400Y-75867200D01*
X156120800Y-75867200D01*
X156120800Y-77035600D01*
X157289200Y-77035600D01*
X157289200Y-75867200D01*
X157441600Y-75867200D01*
X157441600Y-77035600D01*
X158660800Y-77035600D01*
X158762400Y-77035600D01*
X159372000Y-77035600D01*
X159629329Y-77034603D01*
X159801900Y-77029741D01*
X159906550Y-77018210D01*
X159960116Y-76997202D01*
X159977775Y-76966767D01*
X160083200Y-76966767D01*
X160104556Y-76997055D01*
X160177948Y-77017460D01*
X160317359Y-77029561D01*
X160536773Y-77034937D01*
X160692800Y-77035600D01*
X161302400Y-77035600D01*
X161302400Y-76638961D01*
X161037720Y-76739531D01*
X160838744Y-76798709D01*
X160599233Y-76847253D01*
X160428120Y-76869018D01*
X160224280Y-76893885D01*
X160112594Y-76927811D01*
X160083200Y-76966767D01*
X159977775Y-76966767D01*
X159979433Y-76963911D01*
X159981600Y-76934000D01*
X159953211Y-76851585D01*
X159913513Y-76832400D01*
X159789327Y-76801648D01*
X159614882Y-76720047D01*
X159416445Y-76603577D01*
X159220283Y-76468219D01*
X159052664Y-76329953D01*
X158997088Y-76274854D01*
X158762400Y-76023952D01*
X158762400Y-77035600D01*
X158660800Y-77035600D01*
X158660800Y-75867200D01*
X157441600Y-75867200D01*
X157289200Y-75867200D01*
X156120800Y-75867200D01*
X155968400Y-75867200D01*
X155384200Y-75867200D01*
X155133729Y-75867856D01*
X154967562Y-75872202D01*
X154868402Y-75883803D01*
X154818952Y-75906225D01*
X154801915Y-75943033D01*
X154800000Y-75987630D01*
X154562388Y-75987630D01*
X154369231Y-75708760D01*
X154096155Y-75187077D01*
X154022563Y-75014936D01*
X153963182Y-74858072D01*
X153916295Y-74702694D01*
X153882637Y-74546400D01*
X154046189Y-74546400D01*
X154095128Y-74723641D01*
X154152724Y-74895725D01*
X154234222Y-75093596D01*
X154328493Y-75295311D01*
X154424407Y-75478927D01*
X154510838Y-75622502D01*
X154576654Y-75704094D01*
X154597832Y-75714800D01*
X154619349Y-75666445D01*
X154635586Y-75531003D01*
X154645314Y-75322906D01*
X154647600Y-75130600D01*
X154647600Y-74546400D01*
X154800000Y-74546400D01*
X154800000Y-75714800D01*
X155968400Y-75714800D01*
X155968400Y-74546400D01*
X156120800Y-74546400D01*
X156120800Y-75714800D01*
X157289200Y-75714800D01*
X157289200Y-74546400D01*
X157441600Y-74546400D01*
X157441600Y-75714800D01*
X158616846Y-75714800D01*
X158575323Y-75600500D01*
X158556803Y-75499880D01*
X158542539Y-75327889D01*
X158534677Y-75114732D01*
X158533800Y-75016255D01*
X158533800Y-74546310D01*
X157441600Y-74546400D01*
X157289200Y-74546400D01*
X156120800Y-74546400D01*
X155968400Y-74546400D01*
X154800000Y-74546400D01*
X154647600Y-74546400D01*
X154046189Y-74546400D01*
X153882637Y-74546400D01*
X153880184Y-74535014D01*
X153853133Y-74341239D01*
X153833424Y-74107580D01*
X153819340Y-73820246D01*
X153809164Y-73465446D01*
X153804772Y-73225600D01*
X153936400Y-73225600D01*
X153936761Y-73466900D01*
X153942080Y-73651035D01*
X153955479Y-73879118D01*
X153969507Y-74051100D01*
X154001891Y-74394000D01*
X154647600Y-74394000D01*
X154647600Y-73225600D01*
X154800000Y-73225600D01*
X154800000Y-74394000D01*
X155968400Y-74394000D01*
X155968400Y-73225600D01*
X156120800Y-73225600D01*
X156120800Y-74394000D01*
X157289200Y-74394000D01*
X157289200Y-73225600D01*
X157441600Y-73225600D01*
X157441600Y-74394000D01*
X158020364Y-74394000D01*
X158277771Y-74391798D01*
X158450727Y-74383694D01*
X158556313Y-74367434D01*
X158611613Y-74340767D01*
X158629964Y-74313645D01*
X158643172Y-74230363D01*
X158653553Y-74071920D01*
X158659711Y-73864744D01*
X158660800Y-73729445D01*
X158660800Y-73225600D01*
X158762400Y-73225600D01*
X158762400Y-74034047D01*
X158997088Y-73783145D01*
X159180209Y-73617085D01*
X159399724Y-73458966D01*
X159538602Y-73378922D01*
X159840095Y-73228264D01*
X160819800Y-73228264D01*
X161023000Y-73324420D01*
X161176507Y-73393955D01*
X161260290Y-73417821D01*
X161295278Y-73396227D01*
X161300587Y-73346379D01*
X161404000Y-73346379D01*
X161431899Y-73465573D01*
X161474561Y-73525720D01*
X161571652Y-73581349D01*
X161736406Y-73652858D01*
X161938445Y-73729475D01*
X162147390Y-73800427D01*
X162332864Y-73854939D01*
X162464487Y-73882240D01*
X162483500Y-73883530D01*
X162558539Y-73880513D01*
X162600329Y-73852887D01*
X162618601Y-73777822D01*
X162623086Y-73632489D01*
X162623200Y-73555800D01*
X162623200Y-73225600D01*
X162775600Y-73225600D01*
X162775600Y-73936800D01*
X163944000Y-73936800D01*
X163944000Y-73225600D01*
X164096400Y-73225600D01*
X164096400Y-73936800D01*
X165264800Y-73936800D01*
X165264800Y-73225600D01*
X165417200Y-73225600D01*
X165417200Y-73936800D01*
X166585600Y-73936800D01*
X166585600Y-73225600D01*
X166738000Y-73225600D01*
X166738000Y-73936800D01*
X167906400Y-73936800D01*
X167906400Y-73225600D01*
X168058800Y-73225600D01*
X168058800Y-73936800D01*
X169227200Y-73936800D01*
X169227200Y-73225600D01*
X169379600Y-73225600D01*
X169379600Y-73936800D01*
X170548000Y-73936800D01*
X170548000Y-73225600D01*
X170700400Y-73225600D01*
X170700400Y-73936800D01*
X171919600Y-73936800D01*
X171919600Y-73225600D01*
X172021200Y-73225600D01*
X172021200Y-73936800D01*
X173240400Y-73936800D01*
X173240400Y-73225600D01*
X173342000Y-73225600D01*
X173342000Y-73936800D01*
X174561200Y-73936800D01*
X174561200Y-73225600D01*
X174662800Y-73225600D01*
X174662800Y-73936800D01*
X175882000Y-73936800D01*
X175882000Y-73225600D01*
X176034400Y-73225600D01*
X176034400Y-73936800D01*
X177202800Y-73936800D01*
X177202800Y-73742077D01*
X177197527Y-73636653D01*
X177175441Y-73581200D01*
X177355200Y-73581200D01*
X177355200Y-73936800D01*
X178523600Y-73936800D01*
X178523600Y-73581200D01*
X178676000Y-73581200D01*
X178676000Y-73936800D01*
X179844400Y-73936800D01*
X179844400Y-73581200D01*
X179996800Y-73581200D01*
X179996800Y-73936800D01*
X181165200Y-73936800D01*
X181165200Y-73581200D01*
X181317600Y-73581200D01*
X181317600Y-73936800D01*
X182486000Y-73936800D01*
X182486000Y-73581200D01*
X182638400Y-73581200D01*
X182638400Y-73936800D01*
X183857600Y-73936800D01*
X183857600Y-73759000D01*
X183959200Y-73759000D01*
X183970907Y-73882048D01*
X184015741Y-73931473D01*
X184057801Y-73936800D01*
X184156006Y-73912071D01*
X184189584Y-73883112D01*
X184209382Y-73777741D01*
X184173305Y-73665728D01*
X184100223Y-73590981D01*
X184059832Y-73581200D01*
X183990386Y-73601468D01*
X183962403Y-73680109D01*
X183959200Y-73759000D01*
X183857600Y-73759000D01*
X183857600Y-73581200D01*
X182638400Y-73581200D01*
X182486000Y-73581200D01*
X181317600Y-73581200D01*
X181165200Y-73581200D01*
X179996800Y-73581200D01*
X179844400Y-73581200D01*
X178676000Y-73581200D01*
X178523600Y-73581200D01*
X177355200Y-73581200D01*
X177175441Y-73581200D01*
X177168312Y-73563301D01*
X177095056Y-73499107D01*
X176957660Y-73421162D01*
X176890864Y-73386477D01*
X176660944Y-73283581D01*
X176460233Y-73234675D01*
X176306664Y-73225600D01*
X176034400Y-73225600D01*
X175882000Y-73225600D01*
X174662800Y-73225600D01*
X174561200Y-73225600D01*
X173342000Y-73225600D01*
X173240400Y-73225600D01*
X172021200Y-73225600D01*
X171919600Y-73225600D01*
X170700400Y-73225600D01*
X170548000Y-73225600D01*
X169379600Y-73225600D01*
X169227200Y-73225600D01*
X168058800Y-73225600D01*
X167906400Y-73225600D01*
X166738000Y-73225600D01*
X166585600Y-73225600D01*
X165417200Y-73225600D01*
X165264800Y-73225600D01*
X164096400Y-73225600D01*
X163944000Y-73225600D01*
X162775600Y-73225600D01*
X162623200Y-73225600D01*
X162013600Y-73225600D01*
X161756776Y-73226185D01*
X161584620Y-73230179D01*
X161480197Y-73240936D01*
X161426575Y-73261810D01*
X161406820Y-73296158D01*
X161404000Y-73346379D01*
X161300587Y-73346379D01*
X161302398Y-73329380D01*
X161302400Y-73327200D01*
X161288462Y-73265145D01*
X161229683Y-73235243D01*
X161100617Y-73226921D01*
X161061100Y-73226932D01*
X160819800Y-73228264D01*
X159840095Y-73228264D01*
X159845427Y-73225600D01*
X158762400Y-73225600D01*
X158660800Y-73225600D01*
X157441600Y-73225600D01*
X157289200Y-73225600D01*
X156120800Y-73225600D01*
X155968400Y-73225600D01*
X154800000Y-73225600D01*
X154647600Y-73225600D01*
X153936400Y-73225600D01*
X153804772Y-73225600D01*
X153801179Y-73029390D01*
X153797657Y-72789724D01*
X153791722Y-72304485D01*
X153789683Y-71909056D01*
X153789722Y-71904800D01*
X153936400Y-71904800D01*
X153936400Y-73073200D01*
X154647600Y-73073200D01*
X154647600Y-71904800D01*
X154800000Y-71904800D01*
X154800000Y-73073200D01*
X155968400Y-73073200D01*
X155968400Y-71904800D01*
X156120800Y-71904800D01*
X156120800Y-73073200D01*
X157289200Y-73073200D01*
X157289200Y-71904800D01*
X157441600Y-71904800D01*
X157441600Y-73073200D01*
X158660800Y-73073200D01*
X158660800Y-71904800D01*
X158762400Y-71904800D01*
X158762400Y-73073200D01*
X159981600Y-73073200D01*
X159981600Y-71904800D01*
X160083200Y-71904800D01*
X160083200Y-73073200D01*
X161302400Y-73073200D01*
X161302400Y-71904800D01*
X161404000Y-71904800D01*
X161404000Y-73073200D01*
X162623200Y-73073200D01*
X162623200Y-71904800D01*
X162775600Y-71904800D01*
X162775600Y-73073200D01*
X163944000Y-73073200D01*
X163944000Y-71904800D01*
X164096400Y-71904800D01*
X164096400Y-73073200D01*
X165264800Y-73073200D01*
X165264800Y-71904800D01*
X165417200Y-71904800D01*
X165417200Y-73073200D01*
X166585600Y-73073200D01*
X166585600Y-71904800D01*
X166738000Y-71904800D01*
X166738000Y-73073200D01*
X167906400Y-73073200D01*
X167906400Y-71904800D01*
X168058800Y-71904800D01*
X168058800Y-73073200D01*
X169227200Y-73073200D01*
X169227200Y-71904800D01*
X169379600Y-71904800D01*
X169379600Y-73073200D01*
X170548000Y-73073200D01*
X170548000Y-71904800D01*
X170700400Y-71904800D01*
X170700400Y-73073200D01*
X171919600Y-73073200D01*
X171919600Y-71904800D01*
X172021200Y-71904800D01*
X172021200Y-73073200D01*
X173240400Y-73073200D01*
X173240400Y-71904800D01*
X173342000Y-71904800D01*
X173342000Y-73073200D01*
X174561200Y-73073200D01*
X174561200Y-71904800D01*
X174662800Y-71904800D01*
X174662800Y-73073200D01*
X175882000Y-73073200D01*
X175882000Y-72836133D01*
X176034400Y-72836133D01*
X176034400Y-73073200D01*
X176398537Y-73073200D01*
X176232069Y-72857300D01*
X176136361Y-72733010D01*
X176069054Y-72645304D01*
X176050001Y-72620233D01*
X176040909Y-72652611D01*
X176035286Y-72758743D01*
X176034400Y-72836133D01*
X175882000Y-72836133D01*
X175882000Y-72718329D01*
X175872691Y-72496163D01*
X175848501Y-72277115D01*
X175820663Y-72134129D01*
X175759327Y-71904800D01*
X174662800Y-71904800D01*
X174561200Y-71904800D01*
X173342000Y-71904800D01*
X173240400Y-71904800D01*
X172021200Y-71904800D01*
X171919600Y-71904800D01*
X170700400Y-71904800D01*
X170548000Y-71904800D01*
X169379600Y-71904800D01*
X169227200Y-71904800D01*
X168058800Y-71904800D01*
X167906400Y-71904800D01*
X166738000Y-71904800D01*
X166585600Y-71904800D01*
X165417200Y-71904800D01*
X165264800Y-71904800D01*
X164096400Y-71904800D01*
X163944000Y-71904800D01*
X162775600Y-71904800D01*
X162623200Y-71904800D01*
X161404000Y-71904800D01*
X161302400Y-71904800D01*
X160083200Y-71904800D01*
X159981600Y-71904800D01*
X158762400Y-71904800D01*
X158660800Y-71904800D01*
X157441600Y-71904800D01*
X157289200Y-71904800D01*
X156120800Y-71904800D01*
X155968400Y-71904800D01*
X154800000Y-71904800D01*
X154647600Y-71904800D01*
X153936400Y-71904800D01*
X153789722Y-71904800D01*
X153791143Y-71752400D01*
X153923038Y-71752400D01*
X154647600Y-71752400D01*
X154647600Y-70584000D01*
X154800000Y-70584000D01*
X154800000Y-71752400D01*
X155968400Y-71752400D01*
X155968400Y-70584000D01*
X156120800Y-70584000D01*
X156120800Y-71752400D01*
X157289200Y-71752400D01*
X157289200Y-70584000D01*
X157441600Y-70584000D01*
X157441600Y-71752400D01*
X158660800Y-71752400D01*
X158660800Y-70584000D01*
X158762400Y-70584000D01*
X158762400Y-71752400D01*
X159981600Y-71752400D01*
X159981600Y-70584000D01*
X160083200Y-70584000D01*
X160083200Y-71752400D01*
X161302400Y-71752400D01*
X161302400Y-70584000D01*
X161404000Y-70584000D01*
X161404000Y-71752400D01*
X162623200Y-71752400D01*
X162623200Y-70584000D01*
X162775600Y-70584000D01*
X162775600Y-71752400D01*
X163944000Y-71752400D01*
X163944000Y-70584000D01*
X164096400Y-70584000D01*
X164096400Y-71752400D01*
X165264800Y-71752400D01*
X165264800Y-70584000D01*
X165417200Y-70584000D01*
X165417200Y-71752400D01*
X166585600Y-71752400D01*
X166585600Y-70584000D01*
X166738000Y-70584000D01*
X166738000Y-71752400D01*
X167906400Y-71752400D01*
X167906400Y-70584000D01*
X168058800Y-70584000D01*
X168058800Y-71752400D01*
X169227200Y-71752400D01*
X169227200Y-70584000D01*
X169379600Y-70584000D01*
X169379600Y-71752400D01*
X170548000Y-71752400D01*
X170548000Y-70584000D01*
X170700400Y-70584000D01*
X170700400Y-71752400D01*
X171919600Y-71752400D01*
X171919600Y-70584000D01*
X172021200Y-70584000D01*
X172021200Y-71752400D01*
X173240400Y-71752400D01*
X173240400Y-70584000D01*
X173342000Y-70584000D01*
X173342000Y-71752400D01*
X174561200Y-71752400D01*
X174561200Y-70584000D01*
X174662800Y-70584000D01*
X174662800Y-71752400D01*
X175718576Y-71752400D01*
X175800288Y-71390568D01*
X175842317Y-71172569D01*
X175871808Y-70958706D01*
X175882000Y-70806368D01*
X175882000Y-70660200D01*
X176034400Y-70660200D01*
X176045268Y-70727977D01*
X176054364Y-70736400D01*
X176087121Y-70696676D01*
X176103570Y-70660200D01*
X176104626Y-70594787D01*
X176083605Y-70584000D01*
X176039943Y-70625170D01*
X176034400Y-70660200D01*
X175882000Y-70660200D01*
X175882000Y-70584000D01*
X174662800Y-70584000D01*
X174561200Y-70584000D01*
X173342000Y-70584000D01*
X173240400Y-70584000D01*
X172021200Y-70584000D01*
X171919600Y-70584000D01*
X170700400Y-70584000D01*
X170548000Y-70584000D01*
X169379600Y-70584000D01*
X169227200Y-70584000D01*
X168058800Y-70584000D01*
X167906400Y-70584000D01*
X166738000Y-70584000D01*
X166585600Y-70584000D01*
X165417200Y-70584000D01*
X165264800Y-70584000D01*
X164096400Y-70584000D01*
X163944000Y-70584000D01*
X162775600Y-70584000D01*
X162623200Y-70584000D01*
X161404000Y-70584000D01*
X161302400Y-70584000D01*
X160083200Y-70584000D01*
X159981600Y-70584000D01*
X158762400Y-70584000D01*
X158660800Y-70584000D01*
X157441600Y-70584000D01*
X157289200Y-70584000D01*
X156120800Y-70584000D01*
X155968400Y-70584000D01*
X154800000Y-70584000D01*
X154647600Y-70584000D01*
X154428354Y-70584000D01*
X154290273Y-70591642D01*
X154203984Y-70630804D01*
X154130622Y-70725833D01*
X154089960Y-70795995D01*
X154004548Y-71002821D01*
X153956616Y-71264537D01*
X153946925Y-71380195D01*
X153923038Y-71752400D01*
X153791143Y-71752400D01*
X153792642Y-71591684D01*
X153801701Y-71340619D01*
X153817963Y-71144108D01*
X153842528Y-70990399D01*
X153876501Y-70867742D01*
X153920982Y-70764383D01*
X153977074Y-70668571D01*
X153999791Y-70634443D01*
X154115690Y-70482293D01*
X154211149Y-70397733D01*
X154562933Y-70397733D01*
X154569906Y-70427933D01*
X154596800Y-70431600D01*
X154621057Y-70420817D01*
X154774600Y-70420817D01*
X155371500Y-70426208D01*
X155625359Y-70427629D01*
X155794702Y-70424501D01*
X155896598Y-70413914D01*
X155948117Y-70392961D01*
X155966328Y-70358732D01*
X155968400Y-70324492D01*
X155965404Y-70309002D01*
X156120800Y-70309002D01*
X156123727Y-70361564D01*
X156144042Y-70396434D01*
X156199042Y-70417243D01*
X156306024Y-70427620D01*
X156482285Y-70431196D01*
X156705000Y-70431600D01*
X157289200Y-70431600D01*
X157438272Y-70431600D01*
X158660800Y-70431600D01*
X158660800Y-69263200D01*
X158762400Y-69263200D01*
X158762400Y-70431600D01*
X159981600Y-70431600D01*
X159981600Y-69263200D01*
X160083200Y-69263200D01*
X160083200Y-70431600D01*
X161302400Y-70431600D01*
X161302400Y-69263200D01*
X161404000Y-69263200D01*
X161404000Y-70431600D01*
X162623200Y-70431600D01*
X162623200Y-69263200D01*
X162775600Y-69263200D01*
X162775600Y-70431600D01*
X163944000Y-70431600D01*
X163944000Y-69263200D01*
X164096400Y-69263200D01*
X164096400Y-70431600D01*
X165264800Y-70431600D01*
X165264800Y-69263200D01*
X165417200Y-69263200D01*
X165417200Y-70431600D01*
X166585600Y-70431600D01*
X166585600Y-69263200D01*
X166738000Y-69263200D01*
X166738000Y-70431600D01*
X167906400Y-70431600D01*
X167906400Y-69263200D01*
X168058800Y-69263200D01*
X168058800Y-70431600D01*
X169227200Y-70431600D01*
X169227200Y-69263200D01*
X169379600Y-69263200D01*
X169379600Y-70431600D01*
X170548000Y-70431600D01*
X170548000Y-69263200D01*
X170700400Y-69263200D01*
X170700400Y-70431600D01*
X171919600Y-70431600D01*
X171919600Y-69263200D01*
X172021200Y-69263200D01*
X172021200Y-70431600D01*
X173240400Y-70431600D01*
X173240400Y-69263200D01*
X173342000Y-69263200D01*
X173342000Y-70431600D01*
X174561200Y-70431600D01*
X174561200Y-69263200D01*
X174662800Y-69263200D01*
X174662800Y-70431600D01*
X175882000Y-70431600D01*
X175882000Y-69263200D01*
X176034400Y-69263200D01*
X176034400Y-69847400D01*
X176035355Y-70098148D01*
X176040317Y-70264542D01*
X176052428Y-70363824D01*
X176074832Y-70413235D01*
X176110673Y-70430018D01*
X176140904Y-70431600D01*
X176234841Y-70399350D01*
X176368360Y-70315855D01*
X176479116Y-70227643D01*
X176654969Y-70095957D01*
X176851472Y-69982098D01*
X176956811Y-69936319D01*
X177202800Y-69848952D01*
X177202800Y-69263200D01*
X177355200Y-69263200D01*
X177355200Y-69808089D01*
X177674361Y-69833709D01*
X177890894Y-69865742D01*
X178106322Y-69920693D01*
X178220461Y-69963383D01*
X178359949Y-70024851D01*
X178460035Y-70064409D01*
X178485500Y-70071719D01*
X178503174Y-70027027D01*
X178516492Y-69904458D01*
X178523208Y-69727714D01*
X178523600Y-69669600D01*
X178523600Y-69263200D01*
X178676000Y-69263200D01*
X178676877Y-69733100D01*
X178677755Y-70203000D01*
X178841262Y-70317300D01*
X178942684Y-70376575D01*
X179056943Y-70411427D01*
X179214298Y-70427786D01*
X179424584Y-70431600D01*
X179844400Y-70431600D01*
X179844400Y-69263200D01*
X179996800Y-69263200D01*
X179996800Y-70431600D01*
X181165200Y-70431600D01*
X181165200Y-69263200D01*
X181317600Y-69263200D01*
X181317600Y-70431600D01*
X182486000Y-70431600D01*
X182486000Y-69263200D01*
X182638400Y-69263200D01*
X182638400Y-70431600D01*
X183857600Y-70431600D01*
X183857600Y-69847400D01*
X183959200Y-69847400D01*
X183959200Y-70431600D01*
X184302100Y-70430675D01*
X184505452Y-70423416D01*
X184650614Y-70395262D01*
X184780564Y-70334649D01*
X184868544Y-70278275D01*
X185001950Y-70192988D01*
X185102369Y-70138047D01*
X185135244Y-70126800D01*
X185157289Y-70080480D01*
X185172843Y-69959357D01*
X185178400Y-69798901D01*
X185178400Y-69774971D01*
X185280000Y-69774971D01*
X185283140Y-69945444D01*
X185296818Y-70034255D01*
X185327416Y-70061255D01*
X185368900Y-70051479D01*
X185460111Y-70031351D01*
X185621273Y-70010051D01*
X185820865Y-69991589D01*
X185864200Y-69988482D01*
X186119267Y-69966560D01*
X186288593Y-69936292D01*
X186388035Y-69889131D01*
X186433450Y-69816533D01*
X186440696Y-69709954D01*
X186438568Y-69678977D01*
X186423000Y-69491800D01*
X185280000Y-69463072D01*
X185280000Y-69774971D01*
X185178400Y-69774971D01*
X185178400Y-69471003D01*
X184987900Y-69442361D01*
X184838345Y-69416637D01*
X184635656Y-69377710D01*
X184441800Y-69337808D01*
X184256801Y-69300203D01*
X184107355Y-69273261D01*
X184024508Y-69262558D01*
X184022700Y-69262548D01*
X183993420Y-69291945D01*
X183973916Y-69387131D01*
X183962935Y-69559662D01*
X183959220Y-69821096D01*
X183959200Y-69847400D01*
X183857600Y-69847400D01*
X183857600Y-69263200D01*
X182638400Y-69263200D01*
X182486000Y-69263200D01*
X181317600Y-69263200D01*
X181165200Y-69263200D01*
X179996800Y-69263200D01*
X179844400Y-69263200D01*
X178676000Y-69263200D01*
X178523600Y-69263200D01*
X177355200Y-69263200D01*
X177202800Y-69263200D01*
X176034400Y-69263200D01*
X175882000Y-69263200D01*
X174662800Y-69263200D01*
X174561200Y-69263200D01*
X173342000Y-69263200D01*
X173240400Y-69263200D01*
X172021200Y-69263200D01*
X171919600Y-69263200D01*
X170700400Y-69263200D01*
X170548000Y-69263200D01*
X169379600Y-69263200D01*
X169227200Y-69263200D01*
X168058800Y-69263200D01*
X167906400Y-69263200D01*
X166738000Y-69263200D01*
X166585600Y-69263200D01*
X165417200Y-69263200D01*
X165264800Y-69263200D01*
X164096400Y-69263200D01*
X163944000Y-69263200D01*
X162775600Y-69263200D01*
X162623200Y-69263200D01*
X161404000Y-69263200D01*
X161302400Y-69263200D01*
X160083200Y-69263200D01*
X159981600Y-69263200D01*
X158762400Y-69263200D01*
X158660800Y-69263200D01*
X158660800Y-69259975D01*
X158063900Y-69274287D01*
X157467000Y-69288600D01*
X157438272Y-70431600D01*
X157289200Y-70431600D01*
X157289200Y-69458482D01*
X157081097Y-69636611D01*
X156930656Y-69747826D01*
X156728654Y-69874481D01*
X156516407Y-69990834D01*
X156496897Y-70000572D01*
X156305753Y-70099898D01*
X156191052Y-70175024D01*
X156135250Y-70240338D01*
X156120800Y-70309002D01*
X155965404Y-70309002D01*
X155954280Y-70251489D01*
X155892090Y-70240437D01*
X155828700Y-70254832D01*
X155715540Y-70278804D01*
X155534116Y-70310468D01*
X155316899Y-70344290D01*
X155231800Y-70356547D01*
X154774600Y-70420817D01*
X154621057Y-70420817D01*
X154638614Y-70413013D01*
X154630666Y-70397733D01*
X154570378Y-70391653D01*
X154562933Y-70397733D01*
X154211149Y-70397733D01*
X154235901Y-70375808D01*
X154383459Y-70304714D01*
X154581398Y-70258741D01*
X154852753Y-70227617D01*
X154925403Y-70221679D01*
X155375789Y-70173145D01*
X155759589Y-70099200D01*
X156110383Y-69991462D01*
X156461746Y-69841550D01*
X156476400Y-69834503D01*
X156632157Y-69753660D01*
X156775277Y-69663860D01*
X156922843Y-69551225D01*
X157091938Y-69401873D01*
X157299646Y-69201926D01*
X157390710Y-69110800D01*
X157627089Y-69110800D01*
X158660800Y-69110800D01*
X158660800Y-68679000D01*
X158656110Y-68483873D01*
X158643595Y-68334639D01*
X158625586Y-68254614D01*
X158617621Y-68247200D01*
X158536679Y-68280791D01*
X158404179Y-68370736D01*
X158239644Y-68500796D01*
X158062596Y-68654728D01*
X157892558Y-68816292D01*
X157749052Y-68969247D01*
X157747454Y-68971100D01*
X157627089Y-69110800D01*
X157390710Y-69110800D01*
X157492400Y-69009042D01*
X157717787Y-68785965D01*
X157938200Y-68576097D01*
X158136053Y-68395589D01*
X158293763Y-68260591D01*
X158372527Y-68200680D01*
X158473985Y-68139979D01*
X158762400Y-68139979D01*
X158762400Y-69110800D01*
X159984824Y-69110800D01*
X160079975Y-69110800D01*
X161305624Y-69110800D01*
X161400775Y-69110800D01*
X162623200Y-69110800D01*
X162623200Y-67891600D01*
X162775600Y-67891600D01*
X162775600Y-69110800D01*
X163944000Y-69110800D01*
X163944000Y-67891600D01*
X164096400Y-67891600D01*
X164096400Y-69110800D01*
X165264800Y-69110800D01*
X165264800Y-67891600D01*
X165417200Y-67891600D01*
X165417200Y-69110800D01*
X166585600Y-69110800D01*
X166585600Y-67891600D01*
X166738000Y-67891600D01*
X166738000Y-69110800D01*
X167906400Y-69110800D01*
X167906400Y-67891600D01*
X168058800Y-67891600D01*
X168058800Y-69110800D01*
X169227200Y-69110800D01*
X169227200Y-67891600D01*
X169379600Y-67891600D01*
X169379600Y-69110800D01*
X170548000Y-69110800D01*
X170700400Y-69110800D01*
X171922824Y-69110800D01*
X172017975Y-69110800D01*
X173243624Y-69110800D01*
X173338775Y-69110800D01*
X174561200Y-69110800D01*
X174659575Y-69110800D01*
X175882000Y-69110800D01*
X175882000Y-67891600D01*
X176034400Y-67891600D01*
X176034400Y-69110800D01*
X177202800Y-69110800D01*
X177202800Y-67891600D01*
X177355200Y-67891600D01*
X177355200Y-69110800D01*
X178523600Y-69110800D01*
X178523600Y-67891600D01*
X178676000Y-67891600D01*
X178676000Y-69110800D01*
X179844400Y-69110800D01*
X179996800Y-69110800D01*
X181165200Y-69110800D01*
X181165200Y-68977875D01*
X181317600Y-68977875D01*
X181317600Y-69110800D01*
X181901800Y-69110800D01*
X182163306Y-69108274D01*
X182337627Y-69099567D01*
X182439081Y-69082980D01*
X182481982Y-69056815D01*
X182486000Y-69041521D01*
X182475749Y-69028631D01*
X182638400Y-69028631D01*
X182650807Y-69065250D01*
X182699376Y-69088808D01*
X182801124Y-69101706D01*
X182973069Y-69106340D01*
X183184500Y-69105600D01*
X183418677Y-69101428D01*
X183557827Y-69093759D01*
X183608489Y-69081753D01*
X183577201Y-69064569D01*
X183552800Y-69058275D01*
X183410419Y-69031910D01*
X183210946Y-69003923D01*
X183006700Y-68981307D01*
X182814998Y-68965945D01*
X182703425Y-68966773D01*
X182651415Y-68986431D01*
X182638403Y-69027564D01*
X182638400Y-69028631D01*
X182475749Y-69028631D01*
X182456811Y-69004819D01*
X182360603Y-68977043D01*
X182184414Y-68955482D01*
X182016100Y-68943221D01*
X181794540Y-68926627D01*
X181600891Y-68906888D01*
X181465320Y-68887289D01*
X181431900Y-68879574D01*
X181348200Y-68868775D01*
X181319641Y-68924682D01*
X181317600Y-68977875D01*
X181165200Y-68977875D01*
X181165200Y-68963249D01*
X181151144Y-68870415D01*
X181095208Y-68792767D01*
X180976738Y-68706798D01*
X180898500Y-68659706D01*
X180727025Y-68546327D01*
X180524166Y-68393203D01*
X180331174Y-68231630D01*
X180314300Y-68216479D01*
X179996800Y-67929243D01*
X179996800Y-69110800D01*
X179844400Y-69110800D01*
X179844400Y-67891600D01*
X178676000Y-67891600D01*
X178523600Y-67891600D01*
X177355200Y-67891600D01*
X177202800Y-67891600D01*
X176034400Y-67891600D01*
X175882000Y-67891600D01*
X175882000Y-67888375D01*
X175285100Y-67902687D01*
X174688200Y-67917000D01*
X174673887Y-68513900D01*
X174659575Y-69110800D01*
X174561200Y-69110800D01*
X174561200Y-67888375D01*
X173964300Y-67902687D01*
X173367400Y-67917000D01*
X173353087Y-68513900D01*
X173338775Y-69110800D01*
X173243624Y-69110800D01*
X173215000Y-67917000D01*
X172046600Y-67917000D01*
X172032287Y-68513900D01*
X172017975Y-69110800D01*
X171922824Y-69110800D01*
X171894200Y-67917000D01*
X171297300Y-67902687D01*
X170700400Y-67888375D01*
X170700400Y-69110800D01*
X170548000Y-69110800D01*
X170548000Y-67891600D01*
X169379600Y-67891600D01*
X169227200Y-67891600D01*
X168058800Y-67891600D01*
X167906400Y-67891600D01*
X166738000Y-67891600D01*
X166585600Y-67891600D01*
X165417200Y-67891600D01*
X165264800Y-67891600D01*
X164096400Y-67891600D01*
X163944000Y-67891600D01*
X162775600Y-67891600D01*
X162623200Y-67891600D01*
X162623200Y-67888375D01*
X162026300Y-67902687D01*
X161429400Y-67917000D01*
X161415087Y-68513900D01*
X161400775Y-69110800D01*
X161305624Y-69110800D01*
X161277000Y-67917000D01*
X160108600Y-67917000D01*
X160094287Y-68513900D01*
X160079975Y-69110800D01*
X159984824Y-69110800D01*
X159956200Y-67917000D01*
X159636012Y-67901806D01*
X159407697Y-67903673D01*
X159217902Y-67942117D01*
X159039112Y-68013295D01*
X158762400Y-68139979D01*
X158473985Y-68139979D01*
X158666245Y-68024954D01*
X159024151Y-67848571D01*
X159192480Y-67778588D01*
X159689966Y-67778588D01*
X159764658Y-67789119D01*
X159820733Y-67790000D01*
X159931339Y-67775735D01*
X159981352Y-67741111D01*
X159981600Y-67738232D01*
X159964114Y-67726500D01*
X160095817Y-67726500D01*
X160111055Y-67754484D01*
X160186647Y-67773472D01*
X160334627Y-67784743D01*
X160567028Y-67789579D01*
X160692291Y-67790000D01*
X160952041Y-67788783D01*
X161126199Y-67783554D01*
X161230761Y-67771946D01*
X161281723Y-67751591D01*
X161295078Y-67720122D01*
X161292967Y-67701100D01*
X161413670Y-67701100D01*
X161414906Y-67738536D01*
X161446355Y-67763753D01*
X161524011Y-67779120D01*
X161663869Y-67787007D01*
X161881925Y-67789785D01*
X162013600Y-67790000D01*
X162273212Y-67788783D01*
X162447232Y-67783552D01*
X162551656Y-67771938D01*
X162602478Y-67751569D01*
X162615693Y-67720076D01*
X162613529Y-67701100D01*
X162606821Y-67686736D01*
X162775600Y-67686736D01*
X162781422Y-67730970D01*
X162810326Y-67760373D01*
X162879469Y-67777958D01*
X163006008Y-67786740D01*
X163207098Y-67789731D01*
X163363524Y-67790000D01*
X163615892Y-67788687D01*
X163783016Y-67783053D01*
X163881240Y-67770554D01*
X163926905Y-67748643D01*
X163936353Y-67714776D01*
X163934416Y-67701100D01*
X163928194Y-67688400D01*
X164096400Y-67688400D01*
X164102595Y-67732053D01*
X164132642Y-67761027D01*
X164203728Y-67778312D01*
X164333042Y-67786896D01*
X164537774Y-67789770D01*
X164680600Y-67790000D01*
X164931607Y-67788922D01*
X165098210Y-67783697D01*
X165197597Y-67771334D01*
X165246957Y-67748844D01*
X165263479Y-67713239D01*
X165264800Y-67688400D01*
X165417200Y-67688400D01*
X165423395Y-67732053D01*
X165453442Y-67761027D01*
X165524528Y-67778312D01*
X165653842Y-67786896D01*
X165858574Y-67789770D01*
X166001400Y-67790000D01*
X166252407Y-67788922D01*
X166419010Y-67783697D01*
X166518397Y-67771334D01*
X166567757Y-67748844D01*
X166584279Y-67713239D01*
X166585600Y-67688400D01*
X166738000Y-67688400D01*
X166744195Y-67732053D01*
X166774242Y-67761027D01*
X166845328Y-67778312D01*
X166974642Y-67786896D01*
X167179374Y-67789770D01*
X167322200Y-67790000D01*
X167573207Y-67788922D01*
X167739810Y-67783697D01*
X167839197Y-67771334D01*
X167888557Y-67748844D01*
X167905079Y-67713239D01*
X167905724Y-67701100D01*
X168068383Y-67701100D01*
X168069743Y-67739298D01*
X168102128Y-67764732D01*
X168181879Y-67779947D01*
X168325337Y-67787486D01*
X168548844Y-67789896D01*
X168639275Y-67790000D01*
X168891117Y-67788977D01*
X169058521Y-67783900D01*
X169158643Y-67771756D01*
X169208640Y-67749530D01*
X169225669Y-67714211D01*
X169226399Y-67701100D01*
X169389183Y-67701100D01*
X169390543Y-67739298D01*
X169422928Y-67764732D01*
X169502679Y-67779947D01*
X169646137Y-67787486D01*
X169869644Y-67789896D01*
X169960075Y-67790000D01*
X170211917Y-67788977D01*
X170379321Y-67783900D01*
X170479443Y-67771756D01*
X170529440Y-67749530D01*
X170546469Y-67714211D01*
X170547199Y-67701100D01*
X170710070Y-67701100D01*
X170711306Y-67738536D01*
X170742755Y-67763753D01*
X170820411Y-67779120D01*
X170960269Y-67787007D01*
X171178325Y-67789785D01*
X171310000Y-67790000D01*
X171569612Y-67788783D01*
X171743632Y-67783552D01*
X171848056Y-67771938D01*
X171898878Y-67751569D01*
X171912093Y-67720076D01*
X171909929Y-67701100D01*
X172030870Y-67701100D01*
X172032106Y-67738536D01*
X172063555Y-67763753D01*
X172141211Y-67779120D01*
X172281069Y-67787007D01*
X172499125Y-67789785D01*
X172630800Y-67790000D01*
X172890412Y-67788783D01*
X173064432Y-67783552D01*
X173168856Y-67771938D01*
X173219678Y-67751569D01*
X173232893Y-67720076D01*
X173230729Y-67701100D01*
X173351670Y-67701100D01*
X173352906Y-67738536D01*
X173384355Y-67763753D01*
X173462011Y-67779120D01*
X173601869Y-67787007D01*
X173819925Y-67789785D01*
X173951600Y-67790000D01*
X174211212Y-67788783D01*
X174385232Y-67783552D01*
X174489656Y-67771938D01*
X174540478Y-67751569D01*
X174553693Y-67720076D01*
X174551529Y-67701100D01*
X174548115Y-67693790D01*
X174663019Y-67693790D01*
X174701176Y-67739094D01*
X174820717Y-67769047D01*
X175028381Y-67785417D01*
X175304522Y-67790000D01*
X175556134Y-67788677D01*
X175722540Y-67782998D01*
X175820119Y-67770401D01*
X175865250Y-67748320D01*
X175874312Y-67714193D01*
X175872422Y-67701100D01*
X175866161Y-67688400D01*
X176034400Y-67688400D01*
X176040595Y-67732053D01*
X176070642Y-67761027D01*
X176141728Y-67778312D01*
X176271042Y-67786896D01*
X176475774Y-67789770D01*
X176618600Y-67790000D01*
X176869607Y-67788922D01*
X177036210Y-67783697D01*
X177135597Y-67771334D01*
X177184957Y-67748844D01*
X177201479Y-67713239D01*
X177202800Y-67688400D01*
X177355200Y-67688400D01*
X177361395Y-67732053D01*
X177391442Y-67761027D01*
X177462528Y-67778312D01*
X177591842Y-67786896D01*
X177796574Y-67789770D01*
X177939400Y-67790000D01*
X178190407Y-67788922D01*
X178357010Y-67783697D01*
X178456397Y-67771334D01*
X178505757Y-67748844D01*
X178522279Y-67713239D01*
X178522639Y-67706467D01*
X178676000Y-67706467D01*
X178688635Y-67745247D01*
X178738443Y-67769675D01*
X178843277Y-67782644D01*
X179020989Y-67787050D01*
X179171300Y-67786779D01*
X179395002Y-67783194D01*
X179527028Y-67775005D01*
X179577252Y-67760743D01*
X179555549Y-67738937D01*
X179539600Y-67731954D01*
X179425573Y-67702109D01*
X179248287Y-67673316D01*
X179045951Y-67651771D01*
X179044300Y-67651642D01*
X178852422Y-67639527D01*
X178740822Y-67642467D01*
X178688886Y-67663531D01*
X178676001Y-67705787D01*
X178676000Y-67706467D01*
X178522639Y-67706467D01*
X178523600Y-67688400D01*
X178517404Y-67644746D01*
X178487357Y-67615772D01*
X178416271Y-67598487D01*
X178286957Y-67589903D01*
X178082225Y-67587029D01*
X177939400Y-67586800D01*
X177688392Y-67587877D01*
X177521789Y-67593102D01*
X177422402Y-67605465D01*
X177373042Y-67627955D01*
X177356520Y-67663560D01*
X177355200Y-67688400D01*
X177202800Y-67688400D01*
X177196604Y-67644746D01*
X177166557Y-67615772D01*
X177095471Y-67598487D01*
X176966157Y-67589903D01*
X176761425Y-67587029D01*
X176618600Y-67586800D01*
X176367592Y-67587877D01*
X176200989Y-67593102D01*
X176101602Y-67605465D01*
X176052242Y-67627955D01*
X176035720Y-67663560D01*
X176034400Y-67688400D01*
X175866161Y-67688400D01*
X175852751Y-67661203D01*
X175800097Y-67634024D01*
X175696809Y-67616367D01*
X175525238Y-67605034D01*
X175301541Y-67597696D01*
X175071965Y-67595988D01*
X174879403Y-67602597D01*
X174746871Y-67616236D01*
X174699509Y-67631370D01*
X174663019Y-67693790D01*
X174548115Y-67693790D01*
X174533496Y-67662491D01*
X174485523Y-67636873D01*
X174390241Y-67621670D01*
X174230281Y-67614310D01*
X173988277Y-67612219D01*
X173951600Y-67612200D01*
X173698182Y-67613816D01*
X173528969Y-67620381D01*
X173426592Y-67634469D01*
X173373682Y-67658652D01*
X173352873Y-67695505D01*
X173351670Y-67701100D01*
X173230729Y-67701100D01*
X173212696Y-67662491D01*
X173164723Y-67636873D01*
X173069441Y-67621670D01*
X172909481Y-67614310D01*
X172667477Y-67612219D01*
X172630800Y-67612200D01*
X172377382Y-67613816D01*
X172208169Y-67620381D01*
X172105792Y-67634469D01*
X172052882Y-67658652D01*
X172032073Y-67695505D01*
X172030870Y-67701100D01*
X171909929Y-67701100D01*
X171891896Y-67662491D01*
X171843923Y-67636873D01*
X171748641Y-67621670D01*
X171588681Y-67614310D01*
X171346677Y-67612219D01*
X171310000Y-67612200D01*
X171056582Y-67613816D01*
X170887369Y-67620381D01*
X170784992Y-67634469D01*
X170732082Y-67658652D01*
X170711273Y-67695505D01*
X170710070Y-67701100D01*
X170547199Y-67701100D01*
X170548000Y-67686736D01*
X170542543Y-67642132D01*
X170514561Y-67613311D01*
X170446634Y-67597561D01*
X170321346Y-67592169D01*
X170121277Y-67594422D01*
X169977108Y-67597836D01*
X169725900Y-67605985D01*
X169558890Y-67617418D01*
X169458674Y-67635193D01*
X169407850Y-67662366D01*
X169389183Y-67701100D01*
X169226399Y-67701100D01*
X169227200Y-67686736D01*
X169221743Y-67642132D01*
X169193761Y-67613311D01*
X169125834Y-67597561D01*
X169000546Y-67592169D01*
X168800477Y-67594422D01*
X168656308Y-67597836D01*
X168405100Y-67605985D01*
X168238090Y-67617418D01*
X168137874Y-67635193D01*
X168087050Y-67662366D01*
X168068383Y-67701100D01*
X167905724Y-67701100D01*
X167906400Y-67688400D01*
X167900204Y-67644746D01*
X167870157Y-67615772D01*
X167799071Y-67598487D01*
X167669757Y-67589903D01*
X167465025Y-67587029D01*
X167322200Y-67586800D01*
X167071192Y-67587877D01*
X166904589Y-67593102D01*
X166805202Y-67605465D01*
X166755842Y-67627955D01*
X166739320Y-67663560D01*
X166738000Y-67688400D01*
X166585600Y-67688400D01*
X166579404Y-67644746D01*
X166549357Y-67615772D01*
X166478271Y-67598487D01*
X166348957Y-67589903D01*
X166144225Y-67587029D01*
X166001400Y-67586800D01*
X165750392Y-67587877D01*
X165583789Y-67593102D01*
X165484402Y-67605465D01*
X165435042Y-67627955D01*
X165418520Y-67663560D01*
X165417200Y-67688400D01*
X165264800Y-67688400D01*
X165258604Y-67644746D01*
X165228557Y-67615772D01*
X165157471Y-67598487D01*
X165028157Y-67589903D01*
X164823425Y-67587029D01*
X164680600Y-67586800D01*
X164429592Y-67587877D01*
X164262989Y-67593102D01*
X164163602Y-67605465D01*
X164114242Y-67627955D01*
X164097720Y-67663560D01*
X164096400Y-67688400D01*
X163928194Y-67688400D01*
X163915132Y-67661739D01*
X163863526Y-67634775D01*
X163762196Y-67617150D01*
X163593738Y-67605808D01*
X163346491Y-67597836D01*
X163099142Y-67592599D01*
X162935915Y-67593554D01*
X162839391Y-67603412D01*
X162792153Y-67624886D01*
X162776782Y-67660688D01*
X162775600Y-67686736D01*
X162606821Y-67686736D01*
X162595496Y-67662491D01*
X162547523Y-67636873D01*
X162452241Y-67621670D01*
X162292281Y-67614310D01*
X162050277Y-67612219D01*
X162013600Y-67612200D01*
X161760182Y-67613816D01*
X161590969Y-67620381D01*
X161488592Y-67634469D01*
X161435682Y-67658652D01*
X161414873Y-67695505D01*
X161413670Y-67701100D01*
X161292967Y-67701100D01*
X161251102Y-67639783D01*
X161141168Y-67606821D01*
X161047943Y-67597782D01*
X160848335Y-67594852D01*
X160631647Y-67606888D01*
X160422987Y-67630498D01*
X160247464Y-67662287D01*
X160130183Y-67698860D01*
X160095817Y-67726500D01*
X159964114Y-67726500D01*
X159939044Y-67709681D01*
X159841900Y-67719978D01*
X159715659Y-67755720D01*
X159689966Y-67778588D01*
X159192480Y-67778588D01*
X159410294Y-67688032D01*
X159731017Y-67577234D01*
X160108600Y-67460567D01*
X169278000Y-67445768D01*
X170613260Y-67443927D01*
X171851573Y-67442868D01*
X172992555Y-67442591D01*
X174035824Y-67443092D01*
D12*
X195750000Y-75350000D03*
X195750000Y-77250000D03*
D10*
G36*
X191560660Y-67630152D02*
X190924264Y-68266548D01*
X190712132Y-68054416D01*
X191348528Y-67418020D01*
X191560660Y-67630152D01*
X191560660Y-67630152D01*
G37*
G36*
X191914213Y-67983705D02*
X191065685Y-68832233D01*
X190853553Y-68620101D01*
X191702081Y-67771573D01*
X191914213Y-67983705D01*
X191914213Y-67983705D01*
G37*
G36*
X192267767Y-68337258D02*
X191419239Y-69185786D01*
X191207107Y-68973654D01*
X192055635Y-68125126D01*
X192267767Y-68337258D01*
X192267767Y-68337258D01*
G37*
G36*
X192621320Y-68690812D02*
X191772792Y-69539340D01*
X191560660Y-69327208D01*
X192409188Y-68478680D01*
X192621320Y-68690812D01*
X192621320Y-68690812D01*
G37*
G36*
X192974874Y-69044365D02*
X192126346Y-69892893D01*
X191914214Y-69680761D01*
X192762742Y-68832233D01*
X192974874Y-69044365D01*
X192974874Y-69044365D01*
G37*
G36*
X193328427Y-69397919D02*
X192479899Y-70246447D01*
X192267767Y-70034315D01*
X193116295Y-69185787D01*
X193328427Y-69397919D01*
X193328427Y-69397919D01*
G37*
G36*
X193681980Y-69751472D02*
X193045584Y-70387868D01*
X192833452Y-70175736D01*
X193469848Y-69539340D01*
X193681980Y-69751472D01*
X193681980Y-69751472D01*
G37*
G36*
X193469848Y-71660660D02*
X192833452Y-71024264D01*
X193045584Y-70812132D01*
X193681980Y-71448528D01*
X193469848Y-71660660D01*
X193469848Y-71660660D01*
G37*
G36*
X193116295Y-72014213D02*
X192267767Y-71165685D01*
X192479899Y-70953553D01*
X193328427Y-71802081D01*
X193116295Y-72014213D01*
X193116295Y-72014213D01*
G37*
G36*
X192762742Y-72367767D02*
X191914214Y-71519239D01*
X192126346Y-71307107D01*
X192974874Y-72155635D01*
X192762742Y-72367767D01*
X192762742Y-72367767D01*
G37*
G36*
X192409188Y-72721320D02*
X191560660Y-71872792D01*
X191772792Y-71660660D01*
X192621320Y-72509188D01*
X192409188Y-72721320D01*
X192409188Y-72721320D01*
G37*
G36*
X192055635Y-73074874D02*
X191207107Y-72226346D01*
X191419239Y-72014214D01*
X192267767Y-72862742D01*
X192055635Y-73074874D01*
X192055635Y-73074874D01*
G37*
G36*
X191702081Y-73428427D02*
X190853553Y-72579899D01*
X191065685Y-72367767D01*
X191914213Y-73216295D01*
X191702081Y-73428427D01*
X191702081Y-73428427D01*
G37*
G36*
X191348528Y-73781980D02*
X190712132Y-73145584D01*
X190924264Y-72933452D01*
X191560660Y-73569848D01*
X191348528Y-73781980D01*
X191348528Y-73781980D01*
G37*
G36*
X190287868Y-73145584D02*
X189651472Y-73781980D01*
X189439340Y-73569848D01*
X190075736Y-72933452D01*
X190287868Y-73145584D01*
X190287868Y-73145584D01*
G37*
G36*
X190146447Y-72579899D02*
X189297919Y-73428427D01*
X189085787Y-73216295D01*
X189934315Y-72367767D01*
X190146447Y-72579899D01*
X190146447Y-72579899D01*
G37*
G36*
X189792893Y-72226346D02*
X188944365Y-73074874D01*
X188732233Y-72862742D01*
X189580761Y-72014214D01*
X189792893Y-72226346D01*
X189792893Y-72226346D01*
G37*
G36*
X189439340Y-71872792D02*
X188590812Y-72721320D01*
X188378680Y-72509188D01*
X189227208Y-71660660D01*
X189439340Y-71872792D01*
X189439340Y-71872792D01*
G37*
G36*
X189085786Y-71519239D02*
X188237258Y-72367767D01*
X188025126Y-72155635D01*
X188873654Y-71307107D01*
X189085786Y-71519239D01*
X189085786Y-71519239D01*
G37*
G36*
X188732233Y-71165685D02*
X187883705Y-72014213D01*
X187671573Y-71802081D01*
X188520101Y-70953553D01*
X188732233Y-71165685D01*
X188732233Y-71165685D01*
G37*
G36*
X188166548Y-71024264D02*
X187530152Y-71660660D01*
X187318020Y-71448528D01*
X187954416Y-70812132D01*
X188166548Y-71024264D01*
X188166548Y-71024264D01*
G37*
G36*
X187954416Y-70387868D02*
X187318020Y-69751472D01*
X187530152Y-69539340D01*
X188166548Y-70175736D01*
X187954416Y-70387868D01*
X187954416Y-70387868D01*
G37*
G36*
X188520101Y-70246447D02*
X187671573Y-69397919D01*
X187883705Y-69185787D01*
X188732233Y-70034315D01*
X188520101Y-70246447D01*
X188520101Y-70246447D01*
G37*
G36*
X188873654Y-69892893D02*
X188025126Y-69044365D01*
X188237258Y-68832233D01*
X189085786Y-69680761D01*
X188873654Y-69892893D01*
X188873654Y-69892893D01*
G37*
G36*
X189227208Y-69539340D02*
X188378680Y-68690812D01*
X188590812Y-68478680D01*
X189439340Y-69327208D01*
X189227208Y-69539340D01*
X189227208Y-69539340D01*
G37*
G36*
X189580761Y-69185786D02*
X188732233Y-68337258D01*
X188944365Y-68125126D01*
X189792893Y-68973654D01*
X189580761Y-69185786D01*
X189580761Y-69185786D01*
G37*
G36*
X189934315Y-68832233D02*
X189085787Y-67983705D01*
X189297919Y-67771573D01*
X190146447Y-68620101D01*
X189934315Y-68832233D01*
X189934315Y-68832233D01*
G37*
G36*
X190075736Y-68266548D02*
X189439340Y-67630152D01*
X189651472Y-67418020D01*
X190287868Y-68054416D01*
X190075736Y-68266548D01*
X190075736Y-68266548D01*
G37*
G36*
X191242462Y-67948349D02*
X190676776Y-68514035D01*
X190676776Y-68089771D01*
X190818198Y-67948349D01*
X191242462Y-67948349D01*
X191242462Y-67948349D01*
G37*
G36*
X190323224Y-68514035D02*
X189757538Y-67948349D01*
X190181802Y-67948349D01*
X190323224Y-68089771D01*
X190323224Y-68514035D01*
X190323224Y-68514035D01*
G37*
G36*
X190676776Y-72685965D02*
X191242462Y-73251651D01*
X190818198Y-73251651D01*
X190676776Y-73110229D01*
X190676776Y-72685965D01*
X190676776Y-72685965D01*
G37*
G36*
X189757538Y-73251651D02*
X190323224Y-72685965D01*
X190323224Y-73110229D01*
X190181802Y-73251651D01*
X189757538Y-73251651D01*
X189757538Y-73251651D01*
G37*
G36*
X192585965Y-70423224D02*
X193151651Y-69857538D01*
X193151651Y-70281802D01*
X193010229Y-70423224D01*
X192585965Y-70423224D01*
X192585965Y-70423224D01*
G37*
G36*
X193151651Y-71342462D02*
X192585965Y-70776776D01*
X193010229Y-70776776D01*
X193151651Y-70918198D01*
X193151651Y-71342462D01*
X193151651Y-71342462D01*
G37*
G36*
X188414035Y-70776776D02*
X187848349Y-71342462D01*
X187848349Y-70918198D01*
X187989771Y-70776776D01*
X188414035Y-70776776D01*
X188414035Y-70776776D01*
G37*
G36*
X187848349Y-69857538D02*
X188414035Y-70423224D01*
X187989771Y-70423224D01*
X187848349Y-70281802D01*
X187848349Y-69857538D01*
X187848349Y-69857538D01*
G37*
D13*
X182900000Y-65500000D03*
X184150000Y-65500000D03*
X181650000Y-65500000D03*
X180400000Y-65500000D03*
D14*
X187400000Y-62450000D03*
X178400000Y-62450000D03*
D13*
X185400000Y-65500000D03*
D15*
X167500000Y-65250000D03*
D16*
X164800000Y-64450000D03*
X164800000Y-66050000D03*
X170200000Y-64450000D03*
X170200000Y-66050000D03*
D17*
X170500000Y-64250000D03*
X170500000Y-66250000D03*
X164500000Y-64250000D03*
X164500000Y-66250000D03*
D10*
G36*
X170050000Y-63650000D02*
X170600000Y-64050000D01*
X169400000Y-64050000D01*
X169950000Y-63650000D01*
X170050000Y-63650000D01*
X170050000Y-63650000D01*
G37*
G36*
X169950000Y-66850000D02*
X169400000Y-66450000D01*
X170600000Y-66450000D01*
X170050000Y-66850000D01*
X169950000Y-66850000D01*
X169950000Y-66850000D01*
G37*
G36*
X165050000Y-63650000D02*
X165600000Y-64050000D01*
X164400000Y-64050000D01*
X164950000Y-63650000D01*
X165050000Y-63650000D01*
X165050000Y-63650000D01*
G37*
G36*
X164950000Y-66850000D02*
X164400000Y-66450000D01*
X165600000Y-66450000D01*
X165050000Y-66850000D01*
X164950000Y-66850000D01*
X164950000Y-66850000D01*
G37*
D18*
X157800000Y-64775000D03*
X157800000Y-63525000D03*
X157800000Y-66025000D03*
X157800000Y-67275000D03*
D19*
X154750000Y-61600000D03*
X154750000Y-69200000D03*
D10*
G36*
X198526687Y-68032932D02*
X199728769Y-66830850D01*
X200153033Y-67255114D01*
X198950951Y-68457196D01*
X198526687Y-68032932D01*
X198526687Y-68032932D01*
G37*
G36*
X199410571Y-68916816D02*
X200612653Y-67714734D01*
X201036917Y-68138998D01*
X199834835Y-69341080D01*
X199410571Y-68916816D01*
X199410571Y-68916816D01*
G37*
G36*
X197642804Y-67149049D02*
X198844886Y-65946967D01*
X199269150Y-66371231D01*
X198067068Y-67573313D01*
X197642804Y-67149049D01*
X197642804Y-67149049D01*
G37*
G36*
X196758920Y-66265165D02*
X197961002Y-65063083D01*
X198385266Y-65487347D01*
X197183184Y-66689429D01*
X196758920Y-66265165D01*
X196758920Y-66265165D01*
G37*
G36*
X202433452Y-68333453D02*
X204342641Y-66424264D01*
X205049748Y-67131371D01*
X203140559Y-69040560D01*
X202433452Y-68333453D01*
X202433452Y-68333453D01*
G37*
G36*
X197059440Y-62959441D02*
X198968629Y-61050252D01*
X199675736Y-61757359D01*
X197766547Y-63666548D01*
X197059440Y-62959441D01*
X197059440Y-62959441D01*
G37*
G36*
X198067068Y-72426687D02*
X199269150Y-73628769D01*
X198844886Y-74053033D01*
X197642804Y-72850951D01*
X198067068Y-72426687D01*
X198067068Y-72426687D01*
G37*
G36*
X197183184Y-73310571D02*
X198385266Y-74512653D01*
X197961002Y-74936917D01*
X196758920Y-73734835D01*
X197183184Y-73310571D01*
X197183184Y-73310571D01*
G37*
G36*
X198950951Y-71542804D02*
X200153033Y-72744886D01*
X199728769Y-73169150D01*
X198526687Y-71967068D01*
X198950951Y-71542804D01*
X198950951Y-71542804D01*
G37*
G36*
X199834835Y-70658920D02*
X201036917Y-71861002D01*
X200612653Y-72285266D01*
X199410571Y-71083184D01*
X199834835Y-70658920D01*
X199834835Y-70658920D01*
G37*
G36*
X197766547Y-76333452D02*
X199675736Y-78242641D01*
X198968629Y-78949748D01*
X197059440Y-77040559D01*
X197766547Y-76333452D01*
X197766547Y-76333452D01*
G37*
G36*
X203140559Y-70959440D02*
X205049748Y-72868629D01*
X204342641Y-73575736D01*
X202433452Y-71666547D01*
X203140559Y-70959440D01*
X203140559Y-70959440D01*
G37*
D20*
X188150000Y-78000000D03*
X185150000Y-78000000D03*
D21*
X162350000Y-64600000D03*
X160050000Y-65550000D03*
X160050000Y-63650000D03*
D22*
X173400000Y-64050000D03*
X174350000Y-66350000D03*
X172450000Y-66350000D03*
X176400000Y-64050000D03*
X177350000Y-66350000D03*
X175450000Y-66350000D03*
D23*
X171500000Y-66500000D03*
X171500000Y-65300000D03*
X171500000Y-62900000D03*
X171500000Y-64100000D03*
X163500000Y-64000000D03*
X163500000Y-65200000D03*
D24*
X172600000Y-62600000D03*
X173800000Y-62600000D03*
D10*
G36*
X194930330Y-66716117D02*
X195283883Y-67069670D01*
X194718198Y-67635355D01*
X194364645Y-67281802D01*
X194930330Y-66716117D01*
X194930330Y-66716117D01*
G37*
G36*
X194081802Y-67564645D02*
X194435355Y-67918198D01*
X193869670Y-68483883D01*
X193516117Y-68130330D01*
X194081802Y-67564645D01*
X194081802Y-67564645D01*
G37*
G36*
X195530330Y-67316117D02*
X195883883Y-67669670D01*
X195318198Y-68235355D01*
X194964645Y-67881802D01*
X195530330Y-67316117D01*
X195530330Y-67316117D01*
G37*
G36*
X194681802Y-68164645D02*
X195035355Y-68518198D01*
X194469670Y-69083883D01*
X194116117Y-68730330D01*
X194681802Y-68164645D01*
X194681802Y-68164645D01*
G37*
D24*
X192200000Y-66800000D03*
X191000000Y-66800000D03*
X185450000Y-71400000D03*
X186650000Y-71400000D03*
X185450000Y-74600000D03*
X186650000Y-74600000D03*
D25*
X185050000Y-73650000D03*
X185050000Y-73000000D03*
X185050000Y-72350000D03*
X187050000Y-72350000D03*
X187050000Y-73650000D03*
D21*
X194350000Y-76300000D03*
X194350000Y-75350000D03*
X194350000Y-77250000D03*
X192050000Y-77250000D03*
X192050000Y-75350000D03*
D23*
X189350000Y-76600000D03*
X189350000Y-75400000D03*
D12*
X190600000Y-75350000D03*
X190600000Y-77250000D03*
D24*
X192200000Y-65700000D03*
X191000000Y-65700000D03*
D26*
X190600000Y-63800000D03*
X194800000Y-63800000D03*
D27*
X189200000Y-61650000D03*
X196200000Y-61650000D03*
D28*
X185400000Y-64150000D03*
X192700000Y-62650000D03*
X156000000Y-63100000D03*
X186250000Y-72800000D03*
X200050000Y-76000000D03*
X189650000Y-74400000D03*
X190450000Y-72100000D03*
X177429180Y-64851261D03*
X174450000Y-63950000D03*
X159200000Y-64800000D03*
X184250000Y-78000000D03*
X190600000Y-78400000D03*
X156600000Y-67200000D03*
X199300000Y-70600000D03*
X196600000Y-65900000D03*
X190950000Y-74450000D03*
X191950000Y-70500000D03*
X181700000Y-63900000D03*
X193100000Y-65700000D03*
X182050000Y-63000000D03*
X176300000Y-62400000D03*
X181250000Y-62400000D03*
X177200000Y-62450000D03*
X186950000Y-70600000D03*
X189050000Y-70700000D03*
X194800000Y-69400000D03*
X186850000Y-68550000D03*
X195300000Y-70000000D03*
X186000000Y-68550000D03*
X196100000Y-70100000D03*
X185150000Y-68600000D03*
X160400000Y-75000000D03*
X177600000Y-71600000D03*
X187350000Y-72749989D03*
X190250000Y-70700000D03*
X189850000Y-65000000D03*
X194450000Y-65000000D03*
D29*
X194350000Y-75350000D02*
X195700000Y-75350000D01*
X195700000Y-75350000D02*
X195750000Y-75300000D01*
D30*
X194350000Y-77250000D02*
X193600000Y-77250000D01*
X193600000Y-77250000D02*
X193524999Y-77174999D01*
X193524999Y-77174999D02*
X193524999Y-75875001D01*
X193524999Y-75875001D02*
X194050000Y-75350000D01*
X194050000Y-75350000D02*
X194350000Y-75350000D01*
D29*
X164500000Y-66250000D02*
X158025000Y-66250000D01*
X158025000Y-66250000D02*
X157800000Y-66025000D01*
X195950000Y-75386927D02*
X195513073Y-75386927D01*
X195513073Y-75386927D02*
X195500000Y-75400000D01*
X196813073Y-75386927D02*
X195950000Y-75386927D01*
X195950000Y-75386927D02*
X196013073Y-75386927D01*
X196813073Y-75386927D02*
X198147404Y-75386927D01*
X185400000Y-65450000D02*
X185400000Y-64150000D01*
X196650000Y-63100000D02*
X196200000Y-62650000D01*
X196200000Y-62650000D02*
X192700000Y-62650000D01*
X196650000Y-63115702D02*
X196650000Y-63100000D01*
X198147404Y-64613073D02*
X198147371Y-64613073D01*
X198147371Y-64613073D02*
X196650000Y-63115702D01*
X198076661Y-75386927D02*
X198147404Y-75386927D01*
X198147404Y-75386927D02*
X200506603Y-73027728D01*
X156000000Y-63100000D02*
X156000000Y-65575000D01*
X156000000Y-65575000D02*
X156450000Y-66025000D01*
X156450000Y-66025000D02*
X157800000Y-66025000D01*
X199622720Y-66088389D02*
X198147404Y-64613073D01*
X199339860Y-72355977D02*
X200011611Y-73027728D01*
X200011611Y-73027728D02*
X200506603Y-73027728D01*
X200506603Y-73027728D02*
X201486927Y-72047404D01*
X201486927Y-72047404D02*
X201486927Y-67952596D01*
X201486927Y-67952596D02*
X199622720Y-66088389D01*
X199622720Y-66088389D02*
X199127728Y-66088389D01*
X199127728Y-66088389D02*
X198455977Y-66760140D01*
X186250000Y-72800000D02*
X186050000Y-73000000D01*
X186050000Y-73000000D02*
X185050000Y-73000000D01*
X198367588Y-77641600D02*
X198408400Y-77641600D01*
X198408400Y-77641600D02*
X200050000Y-76000000D01*
X187400000Y-62450000D02*
X188400000Y-62450000D01*
X188400000Y-62450000D02*
X189200000Y-61650000D01*
X195750000Y-77250000D02*
X195750000Y-77047998D01*
X195750000Y-77047998D02*
X195002002Y-76300000D01*
X195002002Y-76300000D02*
X194350000Y-76300000D01*
X190600000Y-63800000D02*
X190600000Y-63050000D01*
X180400000Y-64200000D02*
X180400000Y-63550000D01*
X185150000Y-78000000D02*
X184550000Y-78000000D01*
X184550000Y-78000000D02*
X184250000Y-78000000D01*
X189350000Y-75350000D02*
X188000000Y-75350000D01*
X188000000Y-75350000D02*
X187550000Y-75800000D01*
X187550000Y-75800000D02*
X187550000Y-76400000D01*
X187550000Y-76400000D02*
X185950000Y-78000000D01*
X185950000Y-78000000D02*
X184550000Y-78000000D01*
X185150000Y-77700000D02*
X185150000Y-78000000D01*
D30*
X189350000Y-75450000D02*
X189350000Y-74700000D01*
X189350000Y-74700000D02*
X189650000Y-74400000D01*
X189300000Y-75500000D02*
X189350000Y-75450000D01*
X190450000Y-72100000D02*
X190414214Y-72100000D01*
X190414214Y-72100000D02*
X189616117Y-72898097D01*
X175930441Y-66350000D02*
X177429180Y-64851261D01*
X175450000Y-66350000D02*
X175930441Y-66350000D01*
X172450000Y-66350000D02*
X172900000Y-66350000D01*
X172900000Y-66350000D02*
X174450000Y-64800000D01*
X174450000Y-64800000D02*
X174450000Y-63950000D01*
X160050000Y-63650000D02*
X159750000Y-63650000D01*
X159200000Y-64200000D02*
X159200000Y-64800000D01*
X159750000Y-63650000D02*
X159200000Y-64200000D01*
D29*
X180400000Y-65500000D02*
X180400000Y-64200000D01*
D30*
X192200000Y-66800000D02*
X192050000Y-66800000D01*
X192050000Y-66800000D02*
X191000000Y-65750000D01*
X191000000Y-65750000D02*
X191000000Y-65700000D01*
X191000000Y-65700000D02*
X191000000Y-64200000D01*
X191000000Y-64200000D02*
X190600000Y-63800000D01*
D29*
X195200000Y-78400000D02*
X195750000Y-77850000D01*
X195750000Y-77850000D02*
X195750000Y-77300000D01*
X190600000Y-77300000D02*
X190600000Y-77089998D01*
X190600000Y-78400000D02*
X190600000Y-77300000D01*
X157800000Y-67275000D02*
X156675000Y-67275000D01*
X156675000Y-67275000D02*
X156600000Y-67200000D01*
X200223744Y-71472093D02*
X200172093Y-71472093D01*
X200172093Y-71472093D02*
X199300000Y-70600000D01*
X197572093Y-65876256D02*
X196623744Y-65876256D01*
X196623744Y-65876256D02*
X196600000Y-65900000D01*
D31*
X191000000Y-65700000D02*
X191100000Y-65700000D01*
D29*
X190090001Y-76259999D02*
X190600000Y-75750000D01*
X190600000Y-75750000D02*
X190600000Y-75350000D01*
X189350000Y-76600000D02*
X189690001Y-76259999D01*
X189690001Y-76259999D02*
X190090001Y-76259999D01*
X188150000Y-78000000D02*
X188150000Y-77800000D01*
X188150000Y-77800000D02*
X189350000Y-76600000D01*
D30*
X188157107Y-73650000D02*
X189262563Y-72544544D01*
X187250000Y-73650000D02*
X188157107Y-73650000D01*
X189262563Y-72544544D02*
X191307107Y-70500000D01*
X191307107Y-70500000D02*
X191950000Y-70500000D01*
D29*
X190600000Y-75300000D02*
X192000000Y-75300000D01*
X192000000Y-75300000D02*
X192050000Y-75350000D01*
D30*
X190950000Y-74450000D02*
X190950000Y-74950000D01*
X190950000Y-74950000D02*
X190600000Y-75300000D01*
D29*
X190600000Y-75600000D02*
X190600000Y-75300000D01*
D30*
X192444544Y-69362563D02*
X191950000Y-69857107D01*
X191950000Y-69857107D02*
X191950000Y-70500000D01*
X181700000Y-63900000D02*
X181700000Y-65450000D01*
X181700000Y-65450000D02*
X181650000Y-65500000D01*
X192090990Y-69009010D02*
X193850000Y-67250000D01*
X193850000Y-67250000D02*
X193850000Y-66450000D01*
X193850000Y-66450000D02*
X193100000Y-65700000D01*
X193100000Y-65700000D02*
X192200000Y-65700000D01*
X163500000Y-64000000D02*
X164350000Y-64000000D01*
X164350000Y-64000000D02*
X164800000Y-64450000D01*
X164300000Y-64050000D02*
X164500000Y-64250000D01*
X164100000Y-64250000D02*
X164500000Y-64250000D01*
X171500000Y-62900000D02*
X171500000Y-63050000D01*
X171500000Y-63050000D02*
X170500000Y-64050000D01*
X170500000Y-64050000D02*
X170500000Y-64250000D01*
X170500000Y-64200000D02*
X170500000Y-64250000D01*
X170500000Y-64650000D02*
X170500000Y-64250000D01*
X171500000Y-66500000D02*
X170650000Y-66500000D01*
X170650000Y-66500000D02*
X170200000Y-66050000D01*
X170700000Y-66450000D02*
X170500000Y-66250000D01*
X170850000Y-66600000D02*
X170500000Y-66250000D01*
D31*
X170750000Y-66500000D02*
X170500000Y-66250000D01*
D30*
X182050000Y-63000000D02*
X185000000Y-63000000D01*
X185000000Y-63000000D02*
X186800000Y-64800000D01*
X186800000Y-64800000D02*
X186800000Y-66350000D01*
X186800000Y-66350000D02*
X188050000Y-67600000D01*
X188050000Y-67600000D02*
X188050000Y-68350000D01*
X188050000Y-68350000D02*
X188060482Y-68360482D01*
X188060482Y-68360482D02*
X188060482Y-68867589D01*
X188060482Y-68867589D02*
X188555456Y-69362563D01*
X173509989Y-61709989D02*
X175609989Y-61709989D01*
X175609989Y-61709989D02*
X176300000Y-62400000D01*
X162750000Y-62650000D02*
X159700000Y-62650000D01*
X158875001Y-64249999D02*
X158350000Y-64775000D01*
X158875001Y-63474999D02*
X158875001Y-64249999D01*
X159700000Y-62650000D02*
X158875001Y-63474999D01*
X173509989Y-61709989D02*
X163690011Y-61709989D01*
X163690011Y-61709989D02*
X162750000Y-62650000D01*
X158350000Y-64775000D02*
X157800000Y-64775000D01*
X184950000Y-62500000D02*
X184850000Y-62400000D01*
X184850000Y-62400000D02*
X181250000Y-62400000D01*
X185150000Y-62700000D02*
X184950000Y-62500000D01*
X173994976Y-61419978D02*
X176169978Y-61419978D01*
X176169978Y-61419978D02*
X177200000Y-62450000D01*
X163480022Y-61419978D02*
X173994976Y-61419978D01*
X162550000Y-62350000D02*
X163480022Y-61419978D01*
X159525000Y-62350000D02*
X162550000Y-62350000D01*
X158350000Y-63525000D02*
X159525000Y-62350000D01*
X157800000Y-63525000D02*
X158350000Y-63525000D01*
X187150000Y-64700000D02*
X185150000Y-62700000D01*
X187150000Y-66250000D02*
X187150000Y-64700000D01*
X188414036Y-67514036D02*
X187150000Y-66250000D01*
X188909010Y-69009010D02*
X188414036Y-68514036D01*
X188414036Y-68514036D02*
X188414036Y-67514036D01*
X199339860Y-67644023D02*
X194297919Y-72685964D01*
X194297919Y-72685964D02*
X192585964Y-72685964D01*
X192585964Y-72685964D02*
X192090990Y-72190990D01*
X191737437Y-72544544D02*
X192232411Y-73039518D01*
X192232411Y-73039518D02*
X195712133Y-73039518D01*
X199551993Y-69199658D02*
X200223744Y-68527907D01*
X195712133Y-73039518D02*
X199551993Y-69199658D01*
X191383883Y-72898097D02*
X191878857Y-73393071D01*
X191878857Y-73393071D02*
X196796612Y-73393071D01*
X196796612Y-73393071D02*
X197621574Y-72568109D01*
X197621574Y-72568109D02*
X197784226Y-72568109D01*
X197784226Y-72568109D02*
X198455977Y-73239860D01*
X197572093Y-74123744D02*
X197522363Y-74123744D01*
X197522363Y-74123744D02*
X197145243Y-73746624D01*
X197145243Y-73746624D02*
X191525304Y-73746624D01*
X191525304Y-73746624D02*
X191136396Y-73357716D01*
X173400000Y-64050000D02*
X173400000Y-64350000D01*
X173400000Y-64350000D02*
X172450000Y-65300000D01*
X172450000Y-65300000D02*
X171900000Y-65300000D01*
X171900000Y-65300000D02*
X171500000Y-65300000D01*
X176400000Y-64050000D02*
X175950000Y-64050000D01*
X175950000Y-64050000D02*
X175134999Y-63234999D01*
X175134999Y-63234999D02*
X172765001Y-63234999D01*
X172765001Y-63234999D02*
X171900000Y-64100000D01*
X171900000Y-64100000D02*
X171500000Y-64100000D01*
X188621320Y-74600000D02*
X189863604Y-73357716D01*
X186650000Y-74600000D02*
X188621320Y-74600000D01*
X186650000Y-71400000D02*
X186650000Y-70900000D01*
X186650000Y-70900000D02*
X186950000Y-70600000D01*
X189050000Y-70700000D02*
X189403984Y-71053984D01*
X189403984Y-71053984D02*
X189403984Y-71696016D01*
X189403984Y-71696016D02*
X188909010Y-72190990D01*
D31*
X190853553Y-68125126D02*
X190853553Y-66946447D01*
X190853553Y-66946447D02*
X191000000Y-66800000D01*
X191200000Y-67778680D02*
X191136396Y-67842284D01*
D30*
X194575736Y-68624264D02*
X192974874Y-70225126D01*
X192974874Y-70225126D02*
X192974874Y-70246447D01*
D31*
X193257716Y-69963604D02*
X193257716Y-69942284D01*
D30*
X193975736Y-68024264D02*
X193975736Y-68538478D01*
X193975736Y-68538478D02*
X192798097Y-69716117D01*
X194800000Y-69694112D02*
X194800000Y-69400000D01*
X193257716Y-71236396D02*
X194800000Y-69694112D01*
X186059989Y-67759989D02*
X186550001Y-68250001D01*
X186550001Y-68250001D02*
X186850000Y-68550000D01*
X184180262Y-67759989D02*
X186059989Y-67759989D01*
X183020273Y-66600000D02*
X184180262Y-67759989D01*
X179962998Y-66600000D02*
X183020273Y-66600000D01*
X178255013Y-64892015D02*
X179962998Y-66600000D01*
X178255013Y-64482672D02*
X178255013Y-64892015D01*
X177007340Y-63234999D02*
X178255013Y-64482672D01*
X175700000Y-62600000D02*
X176334999Y-63234999D01*
X173800000Y-62600000D02*
X175700000Y-62600000D01*
X176334999Y-63234999D02*
X177007340Y-63234999D01*
X186487238Y-67425034D02*
X187365002Y-68302798D01*
X187065002Y-69865002D02*
X188025126Y-70825126D01*
X187365002Y-68797202D02*
X187065002Y-69097202D01*
X188025126Y-70825126D02*
X188025126Y-70953553D01*
X187365002Y-68302798D02*
X187365002Y-68797202D01*
X184275034Y-67425034D02*
X186487238Y-67425034D01*
X182900000Y-65500000D02*
X182900000Y-66050000D01*
X182900000Y-66050000D02*
X184275034Y-67425034D01*
X187065002Y-69097202D02*
X187065002Y-69865002D01*
X187455013Y-69117328D02*
X187455013Y-69676333D01*
X187655013Y-68182672D02*
X187655013Y-68917328D01*
X185225023Y-67125023D02*
X186597364Y-67125023D01*
X184150000Y-66050000D02*
X185225023Y-67125023D01*
X187655013Y-68917328D02*
X187455013Y-69117328D01*
X186597364Y-67125023D02*
X187655013Y-68182672D01*
X187455013Y-69676333D02*
X187742284Y-69963604D01*
X184150000Y-65500000D02*
X184150000Y-66050000D01*
D31*
X189262563Y-68655456D02*
X189262563Y-68584761D01*
D30*
X195424264Y-67775736D02*
X195671750Y-68023222D01*
X195671750Y-68023222D02*
X195671750Y-69628250D01*
X195671750Y-69628250D02*
X195600000Y-69700000D01*
X195600000Y-69700000D02*
X195300000Y-70000000D01*
X184050000Y-68050000D02*
X185500000Y-68050000D01*
X185500000Y-68050000D02*
X186000000Y-68550000D01*
X182900000Y-66900000D02*
X184050000Y-68050000D01*
X182750000Y-66900000D02*
X182900000Y-66900000D01*
X179810136Y-66900000D02*
X182700000Y-66900000D01*
X182750000Y-66900000D02*
X182700000Y-66900000D01*
X177965002Y-65054866D02*
X179810136Y-66900000D01*
X177965002Y-64602798D02*
X177965002Y-65054866D01*
X175534999Y-64865001D02*
X176872001Y-64865001D01*
X177152798Y-64284998D02*
X177647202Y-64284998D01*
X176915001Y-64822001D02*
X176915001Y-64522795D01*
X174350000Y-66050000D02*
X175534999Y-64865001D01*
X177647202Y-64284998D02*
X177965002Y-64602798D01*
X176915001Y-64522795D02*
X177152798Y-64284998D01*
X174350000Y-66350000D02*
X174350000Y-66050000D01*
X176872001Y-64865001D02*
X176915001Y-64822001D01*
X194824264Y-67175736D02*
X195177816Y-66822184D01*
X195177816Y-66822184D02*
X195340470Y-66822184D01*
X195340470Y-66822184D02*
X196100000Y-67581714D01*
X196100000Y-67581714D02*
X196100000Y-70100000D01*
X182750000Y-67200000D02*
X184150000Y-68600000D01*
X184150000Y-68600000D02*
X185150000Y-68600000D01*
X180750000Y-67200000D02*
X182750000Y-67200000D01*
X179700000Y-67200000D02*
X180750000Y-67200000D01*
X178850000Y-66350000D02*
X179700000Y-67200000D01*
X177350000Y-66350000D02*
X178850000Y-66350000D01*
X163500000Y-65200000D02*
X162500000Y-65200000D01*
X162500000Y-65200000D02*
X162350000Y-65050000D01*
X162350000Y-65050000D02*
X162350000Y-64600000D01*
X163900000Y-62000000D02*
X171500000Y-62000000D01*
X171500000Y-62000000D02*
X171850000Y-62000000D01*
X171850000Y-62000000D02*
X172450000Y-62600000D01*
X172450000Y-62600000D02*
X172600000Y-62600000D01*
X163300000Y-62600000D02*
X163900000Y-62000000D01*
X162900000Y-63000000D02*
X163300000Y-62600000D01*
X162150000Y-63000000D02*
X162900000Y-63000000D01*
X160050000Y-65550000D02*
X160050000Y-65100000D01*
X160050000Y-65100000D02*
X162150000Y-63000000D01*
X185450000Y-74600000D02*
X185250000Y-74400000D01*
X185250000Y-74400000D02*
X185250000Y-73650000D01*
X186100000Y-73650000D02*
X186475001Y-73274999D01*
X185250000Y-73650000D02*
X186100000Y-73650000D01*
X186475001Y-73274999D02*
X187737205Y-73274999D01*
X187737205Y-73274999D02*
X188060482Y-72951722D01*
X188060482Y-72332411D02*
X188555456Y-71837437D01*
X188060482Y-72951722D02*
X188060482Y-72332411D01*
X183950000Y-75000000D02*
X183750000Y-75000000D01*
X183750000Y-75000000D02*
X160400000Y-75000000D01*
X185450000Y-74600000D02*
X184900000Y-74600000D01*
X184900000Y-74600000D02*
X184500000Y-75000000D01*
X184500000Y-75000000D02*
X183750000Y-75000000D01*
X184650000Y-72050000D02*
X184600000Y-72100000D01*
X184600000Y-72100000D02*
X184200000Y-72500000D01*
X185050000Y-72350000D02*
X184850000Y-72350000D01*
X184850000Y-72350000D02*
X184600000Y-72100000D01*
X185050000Y-72350000D02*
X185300000Y-72350000D01*
X185300000Y-72350000D02*
X185671143Y-71978857D01*
X185671143Y-71978857D02*
X187706929Y-71978857D01*
X187706929Y-71978857D02*
X188201903Y-71483883D01*
X185250000Y-72350000D02*
X185000000Y-72350000D01*
X185300000Y-71400000D02*
X184650000Y-72050000D01*
X183850000Y-72500000D02*
X178500000Y-72500000D01*
X184200000Y-72500000D02*
X183850000Y-72500000D01*
X185450000Y-71400000D02*
X185300000Y-71400000D01*
X178500000Y-72500000D02*
X177600000Y-71600000D01*
X187250000Y-72669989D02*
X187330000Y-72749989D01*
X187050000Y-72650000D02*
X187149989Y-72749989D01*
X187050000Y-72350000D02*
X187050000Y-72650000D01*
X187330000Y-72749989D02*
X187350000Y-72749989D01*
X187149989Y-72749989D02*
X187350000Y-72749989D01*
X190250000Y-70700000D02*
X190250000Y-70275736D01*
X190250000Y-70275736D02*
X190361457Y-70164279D01*
X190361457Y-70164279D02*
X190361457Y-68340136D01*
X190361457Y-68340136D02*
X190146447Y-68125126D01*
X189850000Y-65000000D02*
X189850000Y-67828680D01*
X189850000Y-67828680D02*
X189863604Y-67842284D01*
X194800000Y-63800000D02*
X194800000Y-64650000D01*
X194800000Y-64650000D02*
X194450000Y-65000000D01*
X194400000Y-63400000D02*
X194800000Y-63800000D01*
D32*
G36*
X157950000Y-62823065D02*
X156950000Y-62823065D01*
X156886302Y-62828145D01*
X156778262Y-62861602D01*
X156683821Y-62923835D01*
X156679697Y-62928674D01*
X156673366Y-62896699D01*
X156621054Y-62769780D01*
X156545086Y-62655439D01*
X156448356Y-62558031D01*
X156334548Y-62481267D01*
X156280074Y-62458368D01*
X156289471Y-62454476D01*
X156354985Y-62410701D01*
X156410700Y-62354986D01*
X156454475Y-62289471D01*
X156484628Y-62216676D01*
X156500000Y-62139397D01*
X156500000Y-61750000D01*
X156400000Y-61650000D01*
X154800000Y-61650000D01*
X154800000Y-62400000D01*
X154900000Y-62500000D01*
X155638451Y-62500000D01*
X155559255Y-62551824D01*
X155461174Y-62647872D01*
X155383617Y-62761141D01*
X155329538Y-62887317D01*
X155300997Y-63021594D01*
X155299080Y-63158858D01*
X155323861Y-63293880D01*
X155350000Y-63359900D01*
X155350000Y-65575000D01*
X155355861Y-65634778D01*
X155361092Y-65694568D01*
X155362045Y-65697850D01*
X155362379Y-65701252D01*
X155379734Y-65758735D01*
X155396484Y-65816389D01*
X155398057Y-65819424D01*
X155399045Y-65822696D01*
X155427244Y-65875731D01*
X155454864Y-65929015D01*
X155456995Y-65931684D01*
X155458601Y-65934705D01*
X155496548Y-65981232D01*
X155534008Y-66028158D01*
X155538698Y-66032913D01*
X155538779Y-66033012D01*
X155538871Y-66033088D01*
X155540381Y-66034619D01*
X155990381Y-66484619D01*
X156036768Y-66522722D01*
X156082771Y-66561324D01*
X156085766Y-66562970D01*
X156088407Y-66565140D01*
X156141345Y-66593525D01*
X156193938Y-66622438D01*
X156197194Y-66623471D01*
X156200208Y-66625087D01*
X156257664Y-66642653D01*
X156314857Y-66660796D01*
X156318251Y-66661177D01*
X156321523Y-66662177D01*
X156381271Y-66668246D01*
X156440925Y-66674937D01*
X156447607Y-66674983D01*
X156447731Y-66674996D01*
X156447847Y-66674985D01*
X156450000Y-66675000D01*
X156684314Y-66675000D01*
X156639300Y-66720014D01*
X156595525Y-66785529D01*
X156565372Y-66858324D01*
X156550000Y-66935603D01*
X156550000Y-67125000D01*
X156650000Y-67225000D01*
X157750000Y-67225000D01*
X157750000Y-67205000D01*
X157850000Y-67205000D01*
X157850000Y-67225000D01*
X157870000Y-67225000D01*
X157870000Y-67325000D01*
X157850000Y-67325000D01*
X157850000Y-67345000D01*
X157750000Y-67345000D01*
X157750000Y-67325000D01*
X156650000Y-67325000D01*
X156550000Y-67425000D01*
X156550000Y-67614397D01*
X156565372Y-67691676D01*
X156595525Y-67764471D01*
X156639300Y-67829986D01*
X156695015Y-67885701D01*
X156760529Y-67929476D01*
X156833325Y-67959628D01*
X156910604Y-67975000D01*
X157492158Y-67975000D01*
X156500000Y-68967158D01*
X156500000Y-68660603D01*
X156484628Y-68583324D01*
X156454475Y-68510529D01*
X156410700Y-68445014D01*
X156354985Y-68389299D01*
X156289471Y-68345524D01*
X156216675Y-68315372D01*
X156139396Y-68300000D01*
X154900000Y-68300000D01*
X154800000Y-68400000D01*
X154800000Y-69150000D01*
X154820000Y-69150000D01*
X154820000Y-69250000D01*
X154800000Y-69250000D01*
X154800000Y-69270000D01*
X154700000Y-69270000D01*
X154700000Y-69250000D01*
X154680000Y-69250000D01*
X154680000Y-69150000D01*
X154700000Y-69150000D01*
X154700000Y-68400000D01*
X154600000Y-68300000D01*
X153700000Y-68300000D01*
X153700000Y-62500000D01*
X154600000Y-62500000D01*
X154700000Y-62400000D01*
X154700000Y-61650000D01*
X154680000Y-61650000D01*
X154680000Y-61550000D01*
X154700000Y-61550000D01*
X154700000Y-61530000D01*
X154800000Y-61530000D01*
X154800000Y-61550000D01*
X156400000Y-61550000D01*
X156500000Y-61450000D01*
X156500000Y-61417457D01*
X157950000Y-61417457D01*
X157950000Y-62823065D01*
X157950000Y-62823065D01*
G37*
X157950000Y-62823065D02*
X156950000Y-62823065D01*
X156886302Y-62828145D01*
X156778262Y-62861602D01*
X156683821Y-62923835D01*
X156679697Y-62928674D01*
X156673366Y-62896699D01*
X156621054Y-62769780D01*
X156545086Y-62655439D01*
X156448356Y-62558031D01*
X156334548Y-62481267D01*
X156280074Y-62458368D01*
X156289471Y-62454476D01*
X156354985Y-62410701D01*
X156410700Y-62354986D01*
X156454475Y-62289471D01*
X156484628Y-62216676D01*
X156500000Y-62139397D01*
X156500000Y-61750000D01*
X156400000Y-61650000D01*
X154800000Y-61650000D01*
X154800000Y-62400000D01*
X154900000Y-62500000D01*
X155638451Y-62500000D01*
X155559255Y-62551824D01*
X155461174Y-62647872D01*
X155383617Y-62761141D01*
X155329538Y-62887317D01*
X155300997Y-63021594D01*
X155299080Y-63158858D01*
X155323861Y-63293880D01*
X155350000Y-63359900D01*
X155350000Y-65575000D01*
X155355861Y-65634778D01*
X155361092Y-65694568D01*
X155362045Y-65697850D01*
X155362379Y-65701252D01*
X155379734Y-65758735D01*
X155396484Y-65816389D01*
X155398057Y-65819424D01*
X155399045Y-65822696D01*
X155427244Y-65875731D01*
X155454864Y-65929015D01*
X155456995Y-65931684D01*
X155458601Y-65934705D01*
X155496548Y-65981232D01*
X155534008Y-66028158D01*
X155538698Y-66032913D01*
X155538779Y-66033012D01*
X155538871Y-66033088D01*
X155540381Y-66034619D01*
X155990381Y-66484619D01*
X156036768Y-66522722D01*
X156082771Y-66561324D01*
X156085766Y-66562970D01*
X156088407Y-66565140D01*
X156141345Y-66593525D01*
X156193938Y-66622438D01*
X156197194Y-66623471D01*
X156200208Y-66625087D01*
X156257664Y-66642653D01*
X156314857Y-66660796D01*
X156318251Y-66661177D01*
X156321523Y-66662177D01*
X156381271Y-66668246D01*
X156440925Y-66674937D01*
X156447607Y-66674983D01*
X156447731Y-66674996D01*
X156447847Y-66674985D01*
X156450000Y-66675000D01*
X156684314Y-66675000D01*
X156639300Y-66720014D01*
X156595525Y-66785529D01*
X156565372Y-66858324D01*
X156550000Y-66935603D01*
X156550000Y-67125000D01*
X156650000Y-67225000D01*
X157750000Y-67225000D01*
X157750000Y-67205000D01*
X157850000Y-67205000D01*
X157850000Y-67225000D01*
X157870000Y-67225000D01*
X157870000Y-67325000D01*
X157850000Y-67325000D01*
X157850000Y-67345000D01*
X157750000Y-67345000D01*
X157750000Y-67325000D01*
X156650000Y-67325000D01*
X156550000Y-67425000D01*
X156550000Y-67614397D01*
X156565372Y-67691676D01*
X156595525Y-67764471D01*
X156639300Y-67829986D01*
X156695015Y-67885701D01*
X156760529Y-67929476D01*
X156833325Y-67959628D01*
X156910604Y-67975000D01*
X157492158Y-67975000D01*
X156500000Y-68967158D01*
X156500000Y-68660603D01*
X156484628Y-68583324D01*
X156454475Y-68510529D01*
X156410700Y-68445014D01*
X156354985Y-68389299D01*
X156289471Y-68345524D01*
X156216675Y-68315372D01*
X156139396Y-68300000D01*
X154900000Y-68300000D01*
X154800000Y-68400000D01*
X154800000Y-69150000D01*
X154820000Y-69150000D01*
X154820000Y-69250000D01*
X154800000Y-69250000D01*
X154800000Y-69270000D01*
X154700000Y-69270000D01*
X154700000Y-69250000D01*
X154680000Y-69250000D01*
X154680000Y-69150000D01*
X154700000Y-69150000D01*
X154700000Y-68400000D01*
X154600000Y-68300000D01*
X153700000Y-68300000D01*
X153700000Y-62500000D01*
X154600000Y-62500000D01*
X154700000Y-62400000D01*
X154700000Y-61650000D01*
X154680000Y-61650000D01*
X154680000Y-61550000D01*
X154700000Y-61550000D01*
X154700000Y-61530000D01*
X154800000Y-61530000D01*
X154800000Y-61550000D01*
X156400000Y-61550000D01*
X156500000Y-61450000D01*
X156500000Y-61417457D01*
X157950000Y-61417457D01*
X157950000Y-62823065D01*
D33*
G36*
X188837500Y-75300000D02*
X189055692Y-75300000D01*
X189319692Y-75520000D01*
X189250000Y-75520000D01*
X189250000Y-75500000D01*
X188837500Y-75500000D01*
X188750000Y-75587500D01*
X188750000Y-75834472D01*
X188763450Y-75902091D01*
X188789834Y-75965787D01*
X188812810Y-76000173D01*
X188802900Y-76011800D01*
X188762231Y-76102021D01*
X188748307Y-76200000D01*
X188748307Y-76353165D01*
X188253165Y-76848307D01*
X187650000Y-76848307D01*
X187594264Y-76852752D01*
X187499729Y-76882027D01*
X187417094Y-76936480D01*
X187352900Y-77011800D01*
X187312231Y-77102021D01*
X187298307Y-77200000D01*
X187298307Y-78612408D01*
X186000000Y-78612408D01*
X186000000Y-78187500D01*
X185912500Y-78100000D01*
X185250000Y-78100000D01*
X185250000Y-78120000D01*
X185050000Y-78120000D01*
X185050000Y-78100000D01*
X185030000Y-78100000D01*
X185030000Y-77900000D01*
X185050000Y-77900000D01*
X185050000Y-77880000D01*
X185250000Y-77880000D01*
X185250000Y-77900000D01*
X185912500Y-77900000D01*
X186000000Y-77812500D01*
X186000000Y-77350000D01*
X186450000Y-77350000D01*
X186491789Y-77344061D01*
X186530269Y-77326716D01*
X186556066Y-77306066D01*
X186689732Y-77172400D01*
X186719438Y-77164757D01*
X186723109Y-77163419D01*
X186726953Y-77162735D01*
X186731717Y-77161362D01*
X186887276Y-77115327D01*
X186904990Y-77108139D01*
X186923259Y-77102536D01*
X186927821Y-77100595D01*
X187211944Y-76977338D01*
X187223005Y-76971194D01*
X187234741Y-76966469D01*
X187253220Y-76954409D01*
X187272511Y-76943693D01*
X187282170Y-76935516D01*
X187292762Y-76928603D01*
X187296607Y-76925475D01*
X187499488Y-76758061D01*
X187519214Y-76738246D01*
X187539672Y-76719194D01*
X187543615Y-76713734D01*
X187548368Y-76708960D01*
X187563873Y-76685685D01*
X187580238Y-76663027D01*
X187582705Y-76658727D01*
X187697438Y-76455428D01*
X187698337Y-76453393D01*
X187699594Y-76451552D01*
X187712341Y-76421700D01*
X187725439Y-76392055D01*
X187725926Y-76389883D01*
X187726801Y-76387834D01*
X187733496Y-76356127D01*
X187740599Y-76324450D01*
X187740655Y-76322219D01*
X187741114Y-76320045D01*
X187741626Y-76315115D01*
X187764033Y-76083366D01*
X187763992Y-76052836D01*
X187764663Y-76022339D01*
X187763946Y-76018245D01*
X187763940Y-76014083D01*
X187757967Y-75984130D01*
X187752704Y-75954096D01*
X187751343Y-75949329D01*
X187677241Y-75696572D01*
X187673649Y-75687655D01*
X187671352Y-75678327D01*
X187660733Y-75655589D01*
X187651354Y-75632306D01*
X187646101Y-75624259D01*
X187642034Y-75615552D01*
X187639478Y-75611305D01*
X187562396Y-75485194D01*
X187552617Y-75472233D01*
X187544245Y-75458337D01*
X187531810Y-75444656D01*
X187520667Y-75429887D01*
X187508556Y-75419072D01*
X187497645Y-75407067D01*
X187493946Y-75403767D01*
X187400000Y-75321141D01*
X187400000Y-75250000D01*
X188787500Y-75250000D01*
X188837500Y-75300000D01*
X188837500Y-75300000D01*
G37*
X188837500Y-75300000D02*
X189055692Y-75300000D01*
X189319692Y-75520000D01*
X189250000Y-75520000D01*
X189250000Y-75500000D01*
X188837500Y-75500000D01*
X188750000Y-75587500D01*
X188750000Y-75834472D01*
X188763450Y-75902091D01*
X188789834Y-75965787D01*
X188812810Y-76000173D01*
X188802900Y-76011800D01*
X188762231Y-76102021D01*
X188748307Y-76200000D01*
X188748307Y-76353165D01*
X188253165Y-76848307D01*
X187650000Y-76848307D01*
X187594264Y-76852752D01*
X187499729Y-76882027D01*
X187417094Y-76936480D01*
X187352900Y-77011800D01*
X187312231Y-77102021D01*
X187298307Y-77200000D01*
X187298307Y-78612408D01*
X186000000Y-78612408D01*
X186000000Y-78187500D01*
X185912500Y-78100000D01*
X185250000Y-78100000D01*
X185250000Y-78120000D01*
X185050000Y-78120000D01*
X185050000Y-78100000D01*
X185030000Y-78100000D01*
X185030000Y-77900000D01*
X185050000Y-77900000D01*
X185050000Y-77880000D01*
X185250000Y-77880000D01*
X185250000Y-77900000D01*
X185912500Y-77900000D01*
X186000000Y-77812500D01*
X186000000Y-77350000D01*
X186450000Y-77350000D01*
X186491789Y-77344061D01*
X186530269Y-77326716D01*
X186556066Y-77306066D01*
X186689732Y-77172400D01*
X186719438Y-77164757D01*
X186723109Y-77163419D01*
X186726953Y-77162735D01*
X186731717Y-77161362D01*
X186887276Y-77115327D01*
X186904990Y-77108139D01*
X186923259Y-77102536D01*
X186927821Y-77100595D01*
X187211944Y-76977338D01*
X187223005Y-76971194D01*
X187234741Y-76966469D01*
X187253220Y-76954409D01*
X187272511Y-76943693D01*
X187282170Y-76935516D01*
X187292762Y-76928603D01*
X187296607Y-76925475D01*
X187499488Y-76758061D01*
X187519214Y-76738246D01*
X187539672Y-76719194D01*
X187543615Y-76713734D01*
X187548368Y-76708960D01*
X187563873Y-76685685D01*
X187580238Y-76663027D01*
X187582705Y-76658727D01*
X187697438Y-76455428D01*
X187698337Y-76453393D01*
X187699594Y-76451552D01*
X187712341Y-76421700D01*
X187725439Y-76392055D01*
X187725926Y-76389883D01*
X187726801Y-76387834D01*
X187733496Y-76356127D01*
X187740599Y-76324450D01*
X187740655Y-76322219D01*
X187741114Y-76320045D01*
X187741626Y-76315115D01*
X187764033Y-76083366D01*
X187763992Y-76052836D01*
X187764663Y-76022339D01*
X187763946Y-76018245D01*
X187763940Y-76014083D01*
X187757967Y-75984130D01*
X187752704Y-75954096D01*
X187751343Y-75949329D01*
X187677241Y-75696572D01*
X187673649Y-75687655D01*
X187671352Y-75678327D01*
X187660733Y-75655589D01*
X187651354Y-75632306D01*
X187646101Y-75624259D01*
X187642034Y-75615552D01*
X187639478Y-75611305D01*
X187562396Y-75485194D01*
X187552617Y-75472233D01*
X187544245Y-75458337D01*
X187531810Y-75444656D01*
X187520667Y-75429887D01*
X187508556Y-75419072D01*
X187497645Y-75407067D01*
X187493946Y-75403767D01*
X187400000Y-75321141D01*
X187400000Y-75250000D01*
X188787500Y-75250000D01*
X188837500Y-75300000D01*
G36*
X194850000Y-61462500D02*
X194937500Y-61550000D01*
X196100000Y-61550000D01*
X196100000Y-61530000D01*
X196300000Y-61530000D01*
X196300000Y-61550000D01*
X197462500Y-61550000D01*
X197550000Y-61462500D01*
X197550000Y-61367457D01*
X198156450Y-61367457D01*
X197899130Y-61624777D01*
X197899130Y-61748520D01*
X198367588Y-62216979D01*
X198381731Y-62202837D01*
X198523152Y-62344258D01*
X198509009Y-62358400D01*
X198977468Y-62826858D01*
X199101211Y-62826858D01*
X199790509Y-62137561D01*
X203962439Y-66309491D01*
X203273142Y-66998789D01*
X203273142Y-67122532D01*
X203741600Y-67590991D01*
X203755743Y-67576849D01*
X203897164Y-67718270D01*
X203883021Y-67732412D01*
X204351480Y-68200870D01*
X204475223Y-68200870D01*
X204748035Y-67928058D01*
X204748035Y-72071942D01*
X204475223Y-71799130D01*
X204351480Y-71799130D01*
X203883021Y-72267588D01*
X203897164Y-72281731D01*
X203755743Y-72423152D01*
X203741600Y-72409009D01*
X203273142Y-72877468D01*
X203273142Y-73001211D01*
X203952371Y-73680441D01*
X199780441Y-77852371D01*
X199101211Y-77173142D01*
X198977468Y-77173142D01*
X198509009Y-77641600D01*
X198523152Y-77655743D01*
X198381731Y-77797164D01*
X198367588Y-77783021D01*
X197899130Y-78251480D01*
X197899130Y-78375223D01*
X198136315Y-78612408D01*
X189001693Y-78612408D01*
X189001693Y-77796835D01*
X189361028Y-77437500D01*
X189875000Y-77437500D01*
X189875000Y-77884472D01*
X189888450Y-77952091D01*
X189914834Y-78015787D01*
X189953137Y-78073112D01*
X190001888Y-78121863D01*
X190059213Y-78160166D01*
X190122909Y-78186550D01*
X190190528Y-78200000D01*
X190412500Y-78200000D01*
X190500000Y-78112500D01*
X190500000Y-77350000D01*
X189962500Y-77350000D01*
X189875000Y-77437500D01*
X189361028Y-77437500D01*
X189446835Y-77351693D01*
X189600000Y-77351693D01*
X189655736Y-77347248D01*
X189750271Y-77317973D01*
X189832906Y-77263520D01*
X189897100Y-77188200D01*
X189929290Y-77116790D01*
X189962500Y-77150000D01*
X190500000Y-77150000D01*
X190500000Y-77130000D01*
X190700000Y-77130000D01*
X190700000Y-77150000D01*
X190720000Y-77150000D01*
X190720000Y-77350000D01*
X190700000Y-77350000D01*
X190700000Y-78112500D01*
X190787500Y-78200000D01*
X191009472Y-78200000D01*
X191077091Y-78186550D01*
X191140787Y-78160166D01*
X191198112Y-78121863D01*
X191246863Y-78073112D01*
X191285166Y-78015787D01*
X191311550Y-77952091D01*
X191325000Y-77884472D01*
X191325000Y-77875589D01*
X191352021Y-77887769D01*
X191450000Y-77901693D01*
X192650000Y-77901693D01*
X192705736Y-77897248D01*
X192800271Y-77867973D01*
X192882906Y-77813520D01*
X192947100Y-77738200D01*
X192987769Y-77647979D01*
X193001693Y-77550000D01*
X193001693Y-77150000D01*
X193099999Y-77150000D01*
X193099999Y-77174999D01*
X193103832Y-77214090D01*
X193107252Y-77253178D01*
X193107875Y-77255321D01*
X193108093Y-77257549D01*
X193119440Y-77295130D01*
X193130392Y-77332831D01*
X193131422Y-77334819D01*
X193132067Y-77336954D01*
X193150481Y-77371586D01*
X193168564Y-77406471D01*
X193169958Y-77408217D01*
X193171007Y-77410190D01*
X193195837Y-77440635D01*
X193220312Y-77471294D01*
X193223372Y-77474396D01*
X193223431Y-77474469D01*
X193223498Y-77474525D01*
X193224479Y-77475519D01*
X193299479Y-77550520D01*
X193329818Y-77575441D01*
X193359889Y-77600673D01*
X193361847Y-77601749D01*
X193363574Y-77603168D01*
X193398158Y-77621712D01*
X193409657Y-77628034D01*
X193432027Y-77700271D01*
X193486480Y-77782906D01*
X193561800Y-77847100D01*
X193652021Y-77887769D01*
X193750000Y-77901693D01*
X194950000Y-77901693D01*
X195005736Y-77897248D01*
X195026276Y-77890887D01*
X195038450Y-77952091D01*
X195064834Y-78015787D01*
X195103137Y-78073112D01*
X195151888Y-78121863D01*
X195209213Y-78160166D01*
X195272909Y-78186550D01*
X195340528Y-78200000D01*
X195562500Y-78200000D01*
X195650000Y-78112500D01*
X195650000Y-77350000D01*
X195850000Y-77350000D01*
X195850000Y-78112500D01*
X195937500Y-78200000D01*
X196159472Y-78200000D01*
X196227091Y-78186550D01*
X196290787Y-78160166D01*
X196348112Y-78121863D01*
X196396863Y-78073112D01*
X196435166Y-78015787D01*
X196461550Y-77952091D01*
X196475000Y-77884472D01*
X196475000Y-77437500D01*
X196387500Y-77350000D01*
X195850000Y-77350000D01*
X195650000Y-77350000D01*
X195630000Y-77350000D01*
X195630000Y-77150000D01*
X195650000Y-77150000D01*
X195650000Y-77130000D01*
X195850000Y-77130000D01*
X195850000Y-77150000D01*
X196387500Y-77150000D01*
X196475000Y-77062500D01*
X196475000Y-77006087D01*
X196709440Y-77006087D01*
X196709440Y-77075031D01*
X196722891Y-77142651D01*
X196749274Y-77206347D01*
X196787578Y-77263671D01*
X196836328Y-77312422D01*
X197633965Y-78110058D01*
X197757708Y-78110058D01*
X198226167Y-77641600D01*
X197156668Y-76572101D01*
X197032924Y-76572101D01*
X196787578Y-76817447D01*
X196749274Y-76874772D01*
X196722891Y-76938468D01*
X196709440Y-77006087D01*
X196475000Y-77006087D01*
X196475000Y-76615528D01*
X196461550Y-76547909D01*
X196435166Y-76484213D01*
X196396863Y-76426888D01*
X196348112Y-76378137D01*
X196290787Y-76339834D01*
X196242358Y-76319774D01*
X196330654Y-76231478D01*
X196357906Y-76213520D01*
X196411530Y-76150602D01*
X196575205Y-75986927D01*
X197714606Y-75986927D01*
X197664456Y-75996903D01*
X197600760Y-76023286D01*
X197543435Y-76061590D01*
X197298089Y-76306936D01*
X197298089Y-76430680D01*
X198367588Y-77500179D01*
X198836046Y-77031720D01*
X198836046Y-76907977D01*
X198038410Y-76110340D01*
X197989659Y-76061590D01*
X197932335Y-76023286D01*
X197868639Y-75996903D01*
X197818488Y-75986927D01*
X198147404Y-75986927D01*
X198202574Y-75981518D01*
X198257775Y-75976688D01*
X198260804Y-75975808D01*
X198263945Y-75975500D01*
X198317042Y-75959469D01*
X198370225Y-75944018D01*
X198373023Y-75942568D01*
X198376046Y-75941655D01*
X198424977Y-75915638D01*
X198474188Y-75890130D01*
X198476656Y-75888160D01*
X198479439Y-75886680D01*
X198522354Y-75851679D01*
X198565704Y-75817073D01*
X198570095Y-75812743D01*
X198570185Y-75812669D01*
X198570254Y-75812585D01*
X198571668Y-75811191D01*
X201911191Y-72471668D01*
X201946366Y-72428845D01*
X201981995Y-72386384D01*
X201983514Y-72383620D01*
X201985518Y-72381181D01*
X202011726Y-72332303D01*
X202038408Y-72283769D01*
X202039361Y-72280764D01*
X202040853Y-72277982D01*
X202057062Y-72224964D01*
X202073816Y-72172151D01*
X202074168Y-72169016D01*
X202075090Y-72165999D01*
X202080686Y-72110900D01*
X202086869Y-72055781D01*
X202086912Y-72049609D01*
X202086923Y-72049498D01*
X202086913Y-72049392D01*
X202086927Y-72047404D01*
X202086927Y-71718488D01*
X202096903Y-71768639D01*
X202123286Y-71832335D01*
X202161590Y-71889659D01*
X202210340Y-71938410D01*
X203007977Y-72736046D01*
X203131720Y-72736046D01*
X203600179Y-72267588D01*
X202530680Y-71198089D01*
X202406936Y-71198089D01*
X202161590Y-71443435D01*
X202123286Y-71500760D01*
X202096903Y-71564456D01*
X202086927Y-71614606D01*
X202086927Y-70932924D01*
X202672101Y-70932924D01*
X202672101Y-71056668D01*
X203741600Y-72126167D01*
X204210058Y-71657708D01*
X204210058Y-71533965D01*
X203412422Y-70736328D01*
X203363671Y-70687578D01*
X203306347Y-70649274D01*
X203242651Y-70622891D01*
X203175031Y-70609440D01*
X203106087Y-70609440D01*
X203038468Y-70622891D01*
X202974772Y-70649274D01*
X202917447Y-70687578D01*
X202672101Y-70932924D01*
X202086927Y-70932924D01*
X202086927Y-70475205D01*
X202256066Y-70306066D01*
X202281416Y-70272317D01*
X202296360Y-70232843D01*
X202300000Y-70200000D01*
X202300000Y-69800000D01*
X202294061Y-69758211D01*
X202276716Y-69719731D01*
X202256066Y-69693934D01*
X202086927Y-69524795D01*
X202086927Y-68943332D01*
X202672101Y-68943332D01*
X202672101Y-69067076D01*
X202917447Y-69312422D01*
X202974772Y-69350726D01*
X203038468Y-69377109D01*
X203106087Y-69390560D01*
X203175031Y-69390560D01*
X203242651Y-69377109D01*
X203306347Y-69350726D01*
X203363671Y-69312422D01*
X203412422Y-69263672D01*
X204210058Y-68466035D01*
X204210058Y-68342292D01*
X203741600Y-67873833D01*
X202672101Y-68943332D01*
X202086927Y-68943332D01*
X202086927Y-68385394D01*
X202096903Y-68435544D01*
X202123286Y-68499240D01*
X202161590Y-68556565D01*
X202406936Y-68801911D01*
X202530680Y-68801911D01*
X203600179Y-67732412D01*
X203131720Y-67263954D01*
X203007977Y-67263954D01*
X202210340Y-68061590D01*
X202161590Y-68110341D01*
X202123286Y-68167665D01*
X202096903Y-68231361D01*
X202086927Y-68281512D01*
X202086927Y-67952596D01*
X202081519Y-67897440D01*
X202076688Y-67842225D01*
X202075808Y-67839196D01*
X202075500Y-67836055D01*
X202059469Y-67782958D01*
X202044018Y-67729775D01*
X202042568Y-67726977D01*
X202041655Y-67723954D01*
X202015638Y-67675023D01*
X201990130Y-67625812D01*
X201988160Y-67623344D01*
X201986680Y-67620561D01*
X201951673Y-67577638D01*
X201917074Y-67534297D01*
X201912743Y-67529905D01*
X201912669Y-67529815D01*
X201912585Y-67529746D01*
X201911191Y-67528332D01*
X198571668Y-64188809D01*
X198571483Y-64188657D01*
X198155448Y-63772622D01*
X198836046Y-63092023D01*
X198836046Y-62968280D01*
X198367588Y-62499821D01*
X198353446Y-62513964D01*
X198212025Y-62372543D01*
X198226167Y-62358400D01*
X197757708Y-61889942D01*
X197633965Y-61889942D01*
X197550000Y-61973907D01*
X197550000Y-61837500D01*
X197462500Y-61750000D01*
X196300000Y-61750000D01*
X196300000Y-61770000D01*
X196100000Y-61770000D01*
X196100000Y-61750000D01*
X194937500Y-61750000D01*
X194850000Y-61837500D01*
X194850000Y-62050000D01*
X192950080Y-62050000D01*
X192893140Y-62026065D01*
X192768272Y-62000433D01*
X192640804Y-61999543D01*
X192515590Y-62023429D01*
X192397401Y-62071181D01*
X192290737Y-62140979D01*
X192199662Y-62230166D01*
X192127645Y-62335345D01*
X192077428Y-62452509D01*
X192050925Y-62577195D01*
X192049146Y-62704654D01*
X192072157Y-62830031D01*
X192119082Y-62948551D01*
X192188135Y-63055700D01*
X192276684Y-63147395D01*
X192381357Y-63220145D01*
X192498167Y-63271178D01*
X192622665Y-63298550D01*
X192750109Y-63301220D01*
X192875644Y-63279085D01*
X192950629Y-63250000D01*
X193948307Y-63250000D01*
X193948307Y-63750000D01*
X191450000Y-63750000D01*
X191450000Y-63699998D01*
X191362502Y-63699998D01*
X191450000Y-63612500D01*
X191450000Y-63065528D01*
X191436550Y-62997909D01*
X191410166Y-62934213D01*
X191371863Y-62876888D01*
X191323112Y-62828137D01*
X191265787Y-62789834D01*
X191202091Y-62763450D01*
X191134472Y-62750000D01*
X190787500Y-62750000D01*
X190700000Y-62837500D01*
X190700000Y-63700000D01*
X190720000Y-63700000D01*
X190720000Y-63750000D01*
X190480000Y-63750000D01*
X190480000Y-63700000D01*
X190500000Y-63700000D01*
X190500000Y-62837500D01*
X190412500Y-62750000D01*
X190065528Y-62750000D01*
X189997909Y-62763450D01*
X189934213Y-62789834D01*
X189876888Y-62828137D01*
X189828137Y-62876888D01*
X189789834Y-62934213D01*
X189763450Y-62997909D01*
X189750000Y-63065528D01*
X189750000Y-63612500D01*
X189837498Y-63699998D01*
X189750000Y-63699998D01*
X189750000Y-63750000D01*
X188250000Y-63750000D01*
X188250000Y-62637500D01*
X188162502Y-62550002D01*
X188250000Y-62550002D01*
X188250000Y-62500000D01*
X189012500Y-62500000D01*
X189100000Y-62412500D01*
X189100000Y-61750000D01*
X189300000Y-61750000D01*
X189300000Y-62412500D01*
X189387500Y-62500000D01*
X190234472Y-62500000D01*
X190302091Y-62486550D01*
X190365787Y-62460166D01*
X190423112Y-62421863D01*
X190471863Y-62373112D01*
X190510166Y-62315787D01*
X190536550Y-62252091D01*
X190550000Y-62184472D01*
X190550000Y-61837500D01*
X190462500Y-61750000D01*
X189300000Y-61750000D01*
X189100000Y-61750000D01*
X189080000Y-61750000D01*
X189080000Y-61550000D01*
X189100000Y-61550000D01*
X189100000Y-61530000D01*
X189300000Y-61530000D01*
X189300000Y-61550000D01*
X190462500Y-61550000D01*
X190550000Y-61462500D01*
X190550000Y-61367457D01*
X194850000Y-61367457D01*
X194850000Y-61462500D01*
X194850000Y-61462500D01*
G37*
X194850000Y-61462500D02*
X194937500Y-61550000D01*
X196100000Y-61550000D01*
X196100000Y-61530000D01*
X196300000Y-61530000D01*
X196300000Y-61550000D01*
X197462500Y-61550000D01*
X197550000Y-61462500D01*
X197550000Y-61367457D01*
X198156450Y-61367457D01*
X197899130Y-61624777D01*
X197899130Y-61748520D01*
X198367588Y-62216979D01*
X198381731Y-62202837D01*
X198523152Y-62344258D01*
X198509009Y-62358400D01*
X198977468Y-62826858D01*
X199101211Y-62826858D01*
X199790509Y-62137561D01*
X203962439Y-66309491D01*
X203273142Y-66998789D01*
X203273142Y-67122532D01*
X203741600Y-67590991D01*
X203755743Y-67576849D01*
X203897164Y-67718270D01*
X203883021Y-67732412D01*
X204351480Y-68200870D01*
X204475223Y-68200870D01*
X204748035Y-67928058D01*
X204748035Y-72071942D01*
X204475223Y-71799130D01*
X204351480Y-71799130D01*
X203883021Y-72267588D01*
X203897164Y-72281731D01*
X203755743Y-72423152D01*
X203741600Y-72409009D01*
X203273142Y-72877468D01*
X203273142Y-73001211D01*
X203952371Y-73680441D01*
X199780441Y-77852371D01*
X199101211Y-77173142D01*
X198977468Y-77173142D01*
X198509009Y-77641600D01*
X198523152Y-77655743D01*
X198381731Y-77797164D01*
X198367588Y-77783021D01*
X197899130Y-78251480D01*
X197899130Y-78375223D01*
X198136315Y-78612408D01*
X189001693Y-78612408D01*
X189001693Y-77796835D01*
X189361028Y-77437500D01*
X189875000Y-77437500D01*
X189875000Y-77884472D01*
X189888450Y-77952091D01*
X189914834Y-78015787D01*
X189953137Y-78073112D01*
X190001888Y-78121863D01*
X190059213Y-78160166D01*
X190122909Y-78186550D01*
X190190528Y-78200000D01*
X190412500Y-78200000D01*
X190500000Y-78112500D01*
X190500000Y-77350000D01*
X189962500Y-77350000D01*
X189875000Y-77437500D01*
X189361028Y-77437500D01*
X189446835Y-77351693D01*
X189600000Y-77351693D01*
X189655736Y-77347248D01*
X189750271Y-77317973D01*
X189832906Y-77263520D01*
X189897100Y-77188200D01*
X189929290Y-77116790D01*
X189962500Y-77150000D01*
X190500000Y-77150000D01*
X190500000Y-77130000D01*
X190700000Y-77130000D01*
X190700000Y-77150000D01*
X190720000Y-77150000D01*
X190720000Y-77350000D01*
X190700000Y-77350000D01*
X190700000Y-78112500D01*
X190787500Y-78200000D01*
X191009472Y-78200000D01*
X191077091Y-78186550D01*
X191140787Y-78160166D01*
X191198112Y-78121863D01*
X191246863Y-78073112D01*
X191285166Y-78015787D01*
X191311550Y-77952091D01*
X191325000Y-77884472D01*
X191325000Y-77875589D01*
X191352021Y-77887769D01*
X191450000Y-77901693D01*
X192650000Y-77901693D01*
X192705736Y-77897248D01*
X192800271Y-77867973D01*
X192882906Y-77813520D01*
X192947100Y-77738200D01*
X192987769Y-77647979D01*
X193001693Y-77550000D01*
X193001693Y-77150000D01*
X193099999Y-77150000D01*
X193099999Y-77174999D01*
X193103832Y-77214090D01*
X193107252Y-77253178D01*
X193107875Y-77255321D01*
X193108093Y-77257549D01*
X193119440Y-77295130D01*
X193130392Y-77332831D01*
X193131422Y-77334819D01*
X193132067Y-77336954D01*
X193150481Y-77371586D01*
X193168564Y-77406471D01*
X193169958Y-77408217D01*
X193171007Y-77410190D01*
X193195837Y-77440635D01*
X193220312Y-77471294D01*
X193223372Y-77474396D01*
X193223431Y-77474469D01*
X193223498Y-77474525D01*
X193224479Y-77475519D01*
X193299479Y-77550520D01*
X193329818Y-77575441D01*
X193359889Y-77600673D01*
X193361847Y-77601749D01*
X193363574Y-77603168D01*
X193398158Y-77621712D01*
X193409657Y-77628034D01*
X193432027Y-77700271D01*
X193486480Y-77782906D01*
X193561800Y-77847100D01*
X193652021Y-77887769D01*
X193750000Y-77901693D01*
X194950000Y-77901693D01*
X195005736Y-77897248D01*
X195026276Y-77890887D01*
X195038450Y-77952091D01*
X195064834Y-78015787D01*
X195103137Y-78073112D01*
X195151888Y-78121863D01*
X195209213Y-78160166D01*
X195272909Y-78186550D01*
X195340528Y-78200000D01*
X195562500Y-78200000D01*
X195650000Y-78112500D01*
X195650000Y-77350000D01*
X195850000Y-77350000D01*
X195850000Y-78112500D01*
X195937500Y-78200000D01*
X196159472Y-78200000D01*
X196227091Y-78186550D01*
X196290787Y-78160166D01*
X196348112Y-78121863D01*
X196396863Y-78073112D01*
X196435166Y-78015787D01*
X196461550Y-77952091D01*
X196475000Y-77884472D01*
X196475000Y-77437500D01*
X196387500Y-77350000D01*
X195850000Y-77350000D01*
X195650000Y-77350000D01*
X195630000Y-77350000D01*
X195630000Y-77150000D01*
X195650000Y-77150000D01*
X195650000Y-77130000D01*
X195850000Y-77130000D01*
X195850000Y-77150000D01*
X196387500Y-77150000D01*
X196475000Y-77062500D01*
X196475000Y-77006087D01*
X196709440Y-77006087D01*
X196709440Y-77075031D01*
X196722891Y-77142651D01*
X196749274Y-77206347D01*
X196787578Y-77263671D01*
X196836328Y-77312422D01*
X197633965Y-78110058D01*
X197757708Y-78110058D01*
X198226167Y-77641600D01*
X197156668Y-76572101D01*
X197032924Y-76572101D01*
X196787578Y-76817447D01*
X196749274Y-76874772D01*
X196722891Y-76938468D01*
X196709440Y-77006087D01*
X196475000Y-77006087D01*
X196475000Y-76615528D01*
X196461550Y-76547909D01*
X196435166Y-76484213D01*
X196396863Y-76426888D01*
X196348112Y-76378137D01*
X196290787Y-76339834D01*
X196242358Y-76319774D01*
X196330654Y-76231478D01*
X196357906Y-76213520D01*
X196411530Y-76150602D01*
X196575205Y-75986927D01*
X197714606Y-75986927D01*
X197664456Y-75996903D01*
X197600760Y-76023286D01*
X197543435Y-76061590D01*
X197298089Y-76306936D01*
X197298089Y-76430680D01*
X198367588Y-77500179D01*
X198836046Y-77031720D01*
X198836046Y-76907977D01*
X198038410Y-76110340D01*
X197989659Y-76061590D01*
X197932335Y-76023286D01*
X197868639Y-75996903D01*
X197818488Y-75986927D01*
X198147404Y-75986927D01*
X198202574Y-75981518D01*
X198257775Y-75976688D01*
X198260804Y-75975808D01*
X198263945Y-75975500D01*
X198317042Y-75959469D01*
X198370225Y-75944018D01*
X198373023Y-75942568D01*
X198376046Y-75941655D01*
X198424977Y-75915638D01*
X198474188Y-75890130D01*
X198476656Y-75888160D01*
X198479439Y-75886680D01*
X198522354Y-75851679D01*
X198565704Y-75817073D01*
X198570095Y-75812743D01*
X198570185Y-75812669D01*
X198570254Y-75812585D01*
X198571668Y-75811191D01*
X201911191Y-72471668D01*
X201946366Y-72428845D01*
X201981995Y-72386384D01*
X201983514Y-72383620D01*
X201985518Y-72381181D01*
X202011726Y-72332303D01*
X202038408Y-72283769D01*
X202039361Y-72280764D01*
X202040853Y-72277982D01*
X202057062Y-72224964D01*
X202073816Y-72172151D01*
X202074168Y-72169016D01*
X202075090Y-72165999D01*
X202080686Y-72110900D01*
X202086869Y-72055781D01*
X202086912Y-72049609D01*
X202086923Y-72049498D01*
X202086913Y-72049392D01*
X202086927Y-72047404D01*
X202086927Y-71718488D01*
X202096903Y-71768639D01*
X202123286Y-71832335D01*
X202161590Y-71889659D01*
X202210340Y-71938410D01*
X203007977Y-72736046D01*
X203131720Y-72736046D01*
X203600179Y-72267588D01*
X202530680Y-71198089D01*
X202406936Y-71198089D01*
X202161590Y-71443435D01*
X202123286Y-71500760D01*
X202096903Y-71564456D01*
X202086927Y-71614606D01*
X202086927Y-70932924D01*
X202672101Y-70932924D01*
X202672101Y-71056668D01*
X203741600Y-72126167D01*
X204210058Y-71657708D01*
X204210058Y-71533965D01*
X203412422Y-70736328D01*
X203363671Y-70687578D01*
X203306347Y-70649274D01*
X203242651Y-70622891D01*
X203175031Y-70609440D01*
X203106087Y-70609440D01*
X203038468Y-70622891D01*
X202974772Y-70649274D01*
X202917447Y-70687578D01*
X202672101Y-70932924D01*
X202086927Y-70932924D01*
X202086927Y-70475205D01*
X202256066Y-70306066D01*
X202281416Y-70272317D01*
X202296360Y-70232843D01*
X202300000Y-70200000D01*
X202300000Y-69800000D01*
X202294061Y-69758211D01*
X202276716Y-69719731D01*
X202256066Y-69693934D01*
X202086927Y-69524795D01*
X202086927Y-68943332D01*
X202672101Y-68943332D01*
X202672101Y-69067076D01*
X202917447Y-69312422D01*
X202974772Y-69350726D01*
X203038468Y-69377109D01*
X203106087Y-69390560D01*
X203175031Y-69390560D01*
X203242651Y-69377109D01*
X203306347Y-69350726D01*
X203363671Y-69312422D01*
X203412422Y-69263672D01*
X204210058Y-68466035D01*
X204210058Y-68342292D01*
X203741600Y-67873833D01*
X202672101Y-68943332D01*
X202086927Y-68943332D01*
X202086927Y-68385394D01*
X202096903Y-68435544D01*
X202123286Y-68499240D01*
X202161590Y-68556565D01*
X202406936Y-68801911D01*
X202530680Y-68801911D01*
X203600179Y-67732412D01*
X203131720Y-67263954D01*
X203007977Y-67263954D01*
X202210340Y-68061590D01*
X202161590Y-68110341D01*
X202123286Y-68167665D01*
X202096903Y-68231361D01*
X202086927Y-68281512D01*
X202086927Y-67952596D01*
X202081519Y-67897440D01*
X202076688Y-67842225D01*
X202075808Y-67839196D01*
X202075500Y-67836055D01*
X202059469Y-67782958D01*
X202044018Y-67729775D01*
X202042568Y-67726977D01*
X202041655Y-67723954D01*
X202015638Y-67675023D01*
X201990130Y-67625812D01*
X201988160Y-67623344D01*
X201986680Y-67620561D01*
X201951673Y-67577638D01*
X201917074Y-67534297D01*
X201912743Y-67529905D01*
X201912669Y-67529815D01*
X201912585Y-67529746D01*
X201911191Y-67528332D01*
X198571668Y-64188809D01*
X198571483Y-64188657D01*
X198155448Y-63772622D01*
X198836046Y-63092023D01*
X198836046Y-62968280D01*
X198367588Y-62499821D01*
X198353446Y-62513964D01*
X198212025Y-62372543D01*
X198226167Y-62358400D01*
X197757708Y-61889942D01*
X197633965Y-61889942D01*
X197550000Y-61973907D01*
X197550000Y-61837500D01*
X197462500Y-61750000D01*
X196300000Y-61750000D01*
X196300000Y-61770000D01*
X196100000Y-61770000D01*
X196100000Y-61750000D01*
X194937500Y-61750000D01*
X194850000Y-61837500D01*
X194850000Y-62050000D01*
X192950080Y-62050000D01*
X192893140Y-62026065D01*
X192768272Y-62000433D01*
X192640804Y-61999543D01*
X192515590Y-62023429D01*
X192397401Y-62071181D01*
X192290737Y-62140979D01*
X192199662Y-62230166D01*
X192127645Y-62335345D01*
X192077428Y-62452509D01*
X192050925Y-62577195D01*
X192049146Y-62704654D01*
X192072157Y-62830031D01*
X192119082Y-62948551D01*
X192188135Y-63055700D01*
X192276684Y-63147395D01*
X192381357Y-63220145D01*
X192498167Y-63271178D01*
X192622665Y-63298550D01*
X192750109Y-63301220D01*
X192875644Y-63279085D01*
X192950629Y-63250000D01*
X193948307Y-63250000D01*
X193948307Y-63750000D01*
X191450000Y-63750000D01*
X191450000Y-63699998D01*
X191362502Y-63699998D01*
X191450000Y-63612500D01*
X191450000Y-63065528D01*
X191436550Y-62997909D01*
X191410166Y-62934213D01*
X191371863Y-62876888D01*
X191323112Y-62828137D01*
X191265787Y-62789834D01*
X191202091Y-62763450D01*
X191134472Y-62750000D01*
X190787500Y-62750000D01*
X190700000Y-62837500D01*
X190700000Y-63700000D01*
X190720000Y-63700000D01*
X190720000Y-63750000D01*
X190480000Y-63750000D01*
X190480000Y-63700000D01*
X190500000Y-63700000D01*
X190500000Y-62837500D01*
X190412500Y-62750000D01*
X190065528Y-62750000D01*
X189997909Y-62763450D01*
X189934213Y-62789834D01*
X189876888Y-62828137D01*
X189828137Y-62876888D01*
X189789834Y-62934213D01*
X189763450Y-62997909D01*
X189750000Y-63065528D01*
X189750000Y-63612500D01*
X189837498Y-63699998D01*
X189750000Y-63699998D01*
X189750000Y-63750000D01*
X188250000Y-63750000D01*
X188250000Y-62637500D01*
X188162502Y-62550002D01*
X188250000Y-62550002D01*
X188250000Y-62500000D01*
X189012500Y-62500000D01*
X189100000Y-62412500D01*
X189100000Y-61750000D01*
X189300000Y-61750000D01*
X189300000Y-62412500D01*
X189387500Y-62500000D01*
X190234472Y-62500000D01*
X190302091Y-62486550D01*
X190365787Y-62460166D01*
X190423112Y-62421863D01*
X190471863Y-62373112D01*
X190510166Y-62315787D01*
X190536550Y-62252091D01*
X190550000Y-62184472D01*
X190550000Y-61837500D01*
X190462500Y-61750000D01*
X189300000Y-61750000D01*
X189100000Y-61750000D01*
X189080000Y-61750000D01*
X189080000Y-61550000D01*
X189100000Y-61550000D01*
X189100000Y-61530000D01*
X189300000Y-61530000D01*
X189300000Y-61550000D01*
X190462500Y-61550000D01*
X190550000Y-61462500D01*
X190550000Y-61367457D01*
X194850000Y-61367457D01*
X194850000Y-61462500D01*
G36*
X186550000Y-62262500D02*
X186637500Y-62350000D01*
X187300000Y-62350000D01*
X187300000Y-62330000D01*
X187500000Y-62330000D01*
X187500000Y-62350000D01*
X187520000Y-62350000D01*
X187520000Y-62550000D01*
X187500000Y-62550000D01*
X187500000Y-62570000D01*
X187300000Y-62570000D01*
X187300000Y-62550000D01*
X186637500Y-62550000D01*
X186550000Y-62637500D01*
X186550000Y-63498960D01*
X185450593Y-62399553D01*
X185450521Y-62399480D01*
X185250592Y-62199552D01*
X185250520Y-62199479D01*
X185150520Y-62099480D01*
X185120201Y-62074576D01*
X185090111Y-62049327D01*
X185088154Y-62048251D01*
X185086425Y-62046831D01*
X185051843Y-62028289D01*
X185017425Y-62009367D01*
X185015291Y-62008690D01*
X185013325Y-62007636D01*
X184975829Y-61996172D01*
X184938362Y-61984287D01*
X184936140Y-61984038D01*
X184934005Y-61983385D01*
X184894959Y-61979419D01*
X184855934Y-61975041D01*
X184851571Y-61975011D01*
X184851484Y-61975002D01*
X184851403Y-61975010D01*
X184850000Y-61975000D01*
X181744043Y-61975000D01*
X181666330Y-61896743D01*
X181560652Y-61825462D01*
X181443140Y-61776065D01*
X181318272Y-61750433D01*
X181190804Y-61749543D01*
X181065590Y-61773429D01*
X180947401Y-61821181D01*
X180840737Y-61890979D01*
X180749662Y-61980166D01*
X180677645Y-62085345D01*
X180627428Y-62202509D01*
X180600925Y-62327195D01*
X180599146Y-62454654D01*
X180622157Y-62580031D01*
X180669082Y-62698551D01*
X180738135Y-62805700D01*
X180826684Y-62897395D01*
X180931357Y-62970145D01*
X181048167Y-63021178D01*
X181172665Y-63048550D01*
X181300109Y-63051220D01*
X181399438Y-63033706D01*
X181399146Y-63054654D01*
X181422157Y-63180031D01*
X181466921Y-63293093D01*
X181397401Y-63321181D01*
X181290737Y-63390979D01*
X181199662Y-63480166D01*
X181127645Y-63585345D01*
X181077428Y-63702509D01*
X181067333Y-63750000D01*
X179250000Y-63750000D01*
X179250000Y-62637500D01*
X179162500Y-62550000D01*
X178500000Y-62550000D01*
X178500000Y-62570000D01*
X178300000Y-62570000D01*
X178300000Y-62550000D01*
X178280000Y-62550000D01*
X178280000Y-62350000D01*
X178300000Y-62350000D01*
X178300000Y-62330000D01*
X178500000Y-62330000D01*
X178500000Y-62350000D01*
X179162500Y-62350000D01*
X179250000Y-62262500D01*
X179250000Y-61367457D01*
X186550000Y-61367457D01*
X186550000Y-62262500D01*
X186550000Y-62262500D01*
G37*
X186550000Y-62262500D02*
X186637500Y-62350000D01*
X187300000Y-62350000D01*
X187300000Y-62330000D01*
X187500000Y-62330000D01*
X187500000Y-62350000D01*
X187520000Y-62350000D01*
X187520000Y-62550000D01*
X187500000Y-62550000D01*
X187500000Y-62570000D01*
X187300000Y-62570000D01*
X187300000Y-62550000D01*
X186637500Y-62550000D01*
X186550000Y-62637500D01*
X186550000Y-63498960D01*
X185450593Y-62399553D01*
X185450521Y-62399480D01*
X185250592Y-62199552D01*
X185250520Y-62199479D01*
X185150520Y-62099480D01*
X185120201Y-62074576D01*
X185090111Y-62049327D01*
X185088154Y-62048251D01*
X185086425Y-62046831D01*
X185051843Y-62028289D01*
X185017425Y-62009367D01*
X185015291Y-62008690D01*
X185013325Y-62007636D01*
X184975829Y-61996172D01*
X184938362Y-61984287D01*
X184936140Y-61984038D01*
X184934005Y-61983385D01*
X184894959Y-61979419D01*
X184855934Y-61975041D01*
X184851571Y-61975011D01*
X184851484Y-61975002D01*
X184851403Y-61975010D01*
X184850000Y-61975000D01*
X181744043Y-61975000D01*
X181666330Y-61896743D01*
X181560652Y-61825462D01*
X181443140Y-61776065D01*
X181318272Y-61750433D01*
X181190804Y-61749543D01*
X181065590Y-61773429D01*
X180947401Y-61821181D01*
X180840737Y-61890979D01*
X180749662Y-61980166D01*
X180677645Y-62085345D01*
X180627428Y-62202509D01*
X180600925Y-62327195D01*
X180599146Y-62454654D01*
X180622157Y-62580031D01*
X180669082Y-62698551D01*
X180738135Y-62805700D01*
X180826684Y-62897395D01*
X180931357Y-62970145D01*
X181048167Y-63021178D01*
X181172665Y-63048550D01*
X181300109Y-63051220D01*
X181399438Y-63033706D01*
X181399146Y-63054654D01*
X181422157Y-63180031D01*
X181466921Y-63293093D01*
X181397401Y-63321181D01*
X181290737Y-63390979D01*
X181199662Y-63480166D01*
X181127645Y-63585345D01*
X181077428Y-63702509D01*
X181067333Y-63750000D01*
X179250000Y-63750000D01*
X179250000Y-62637500D01*
X179162500Y-62550000D01*
X178500000Y-62550000D01*
X178500000Y-62570000D01*
X178300000Y-62570000D01*
X178300000Y-62550000D01*
X178280000Y-62550000D01*
X178280000Y-62350000D01*
X178300000Y-62350000D01*
X178300000Y-62330000D01*
X178500000Y-62330000D01*
X178500000Y-62350000D01*
X179162500Y-62350000D01*
X179250000Y-62262500D01*
X179250000Y-61367457D01*
X186550000Y-61367457D01*
X186550000Y-62262500D01*
M02*
