G04 #@! TF.FileFunction,Profile,NP*
%FSLAX46Y46*%
G04 Gerber Fmt 4.6, Leading zero omitted, Abs format (unit mm)*
G04 Created by KiCad (PCBNEW 4.0.7-e2-6376~58~ubuntu14.04.1) date Wed Aug  8 16:14:33 2018*
%MOMM*%
%LPD*%
G01*
G04 APERTURE LIST*
%ADD10C,0.100000*%
G04 APERTURE END LIST*
D10*
X154918624Y-77416261D02*
X155301886Y-77757528D01*
X154563815Y-77046553D02*
X154918624Y-77416261D01*
X154241901Y-76652430D02*
X154563815Y-77046553D01*
X153957330Y-76237906D02*
X154241901Y-76652430D01*
X156577989Y-78570486D02*
X157030652Y-78757797D01*
X156136011Y-78338658D02*
X156577989Y-78570486D01*
X155709164Y-78066332D02*
X156136011Y-78338658D01*
X155301886Y-77757528D02*
X155709164Y-78066332D01*
X205148035Y-73050463D02*
X205148035Y-66929402D01*
X199186090Y-79012408D02*
X205148035Y-73050463D01*
X153250000Y-60967457D02*
X153250000Y-74000000D01*
X153372057Y-74912138D02*
X153517963Y-75363740D01*
X153281256Y-74456219D02*
X153372057Y-74912138D01*
X199186090Y-60967457D02*
X153250000Y-60967457D01*
X158408348Y-79012408D02*
X199186090Y-79012408D01*
X157950273Y-78982774D02*
X158408348Y-79012408D01*
X157489559Y-78896566D02*
X157950273Y-78982774D01*
X157030652Y-78757797D02*
X157489559Y-78896566D01*
X205148035Y-66929402D02*
X199186090Y-60967457D01*
X153714534Y-75807002D02*
X153957330Y-76237906D01*
X153517963Y-75363740D02*
X153714534Y-75807002D01*
X153250000Y-74000000D02*
X153281256Y-74456219D01*
M02*
