G04 #@! TF.FileFunction,Paste,Bot*
%FSLAX46Y46*%
G04 Gerber Fmt 4.6, Leading zero omitted, Abs format (unit mm)*
G04 Created by KiCad (PCBNEW 4.0.7-e2-6376~58~ubuntu14.04.1) date Wed May 23 17:30:10 2018*
%MOMM*%
%LPD*%
G01*
G04 APERTURE LIST*
%ADD10C,0.100000*%
%ADD11R,1.200000X0.600000*%
%ADD12R,0.600000X1.700000*%
%ADD13R,1.000000X2.700000*%
%ADD14R,1.200000X1.000000*%
%ADD15R,0.500000X0.800000*%
%ADD16R,0.800000X0.500000*%
%ADD17R,1.600000X0.800000*%
%ADD18R,1.000000X1.200000*%
%ADD19R,1.700000X0.600000*%
%ADD20R,2.700000X1.000000*%
%ADD21R,1.000000X1.400000*%
%ADD22R,2.000000X1.000000*%
%ADD23R,0.600000X1.200000*%
%ADD24R,1.800000X1.250000*%
%ADD25R,0.800000X0.300000*%
G04 APERTURE END LIST*
D10*
G36*
X191560660Y-67630152D02*
X190924264Y-68266548D01*
X190712132Y-68054416D01*
X191348528Y-67418020D01*
X191560660Y-67630152D01*
X191560660Y-67630152D01*
G37*
G36*
X191914213Y-67983705D02*
X191065685Y-68832233D01*
X190853553Y-68620101D01*
X191702081Y-67771573D01*
X191914213Y-67983705D01*
X191914213Y-67983705D01*
G37*
G36*
X192267767Y-68337258D02*
X191419239Y-69185786D01*
X191207107Y-68973654D01*
X192055635Y-68125126D01*
X192267767Y-68337258D01*
X192267767Y-68337258D01*
G37*
G36*
X192621320Y-68690812D02*
X191772792Y-69539340D01*
X191560660Y-69327208D01*
X192409188Y-68478680D01*
X192621320Y-68690812D01*
X192621320Y-68690812D01*
G37*
G36*
X192974874Y-69044365D02*
X192126346Y-69892893D01*
X191914214Y-69680761D01*
X192762742Y-68832233D01*
X192974874Y-69044365D01*
X192974874Y-69044365D01*
G37*
G36*
X193328427Y-69397919D02*
X192479899Y-70246447D01*
X192267767Y-70034315D01*
X193116295Y-69185787D01*
X193328427Y-69397919D01*
X193328427Y-69397919D01*
G37*
G36*
X193681980Y-69751472D02*
X193045584Y-70387868D01*
X192833452Y-70175736D01*
X193469848Y-69539340D01*
X193681980Y-69751472D01*
X193681980Y-69751472D01*
G37*
G36*
X193469848Y-71660660D02*
X192833452Y-71024264D01*
X193045584Y-70812132D01*
X193681980Y-71448528D01*
X193469848Y-71660660D01*
X193469848Y-71660660D01*
G37*
G36*
X193116295Y-72014213D02*
X192267767Y-71165685D01*
X192479899Y-70953553D01*
X193328427Y-71802081D01*
X193116295Y-72014213D01*
X193116295Y-72014213D01*
G37*
G36*
X192762742Y-72367767D02*
X191914214Y-71519239D01*
X192126346Y-71307107D01*
X192974874Y-72155635D01*
X192762742Y-72367767D01*
X192762742Y-72367767D01*
G37*
G36*
X192409188Y-72721320D02*
X191560660Y-71872792D01*
X191772792Y-71660660D01*
X192621320Y-72509188D01*
X192409188Y-72721320D01*
X192409188Y-72721320D01*
G37*
G36*
X192055635Y-73074874D02*
X191207107Y-72226346D01*
X191419239Y-72014214D01*
X192267767Y-72862742D01*
X192055635Y-73074874D01*
X192055635Y-73074874D01*
G37*
G36*
X191702081Y-73428427D02*
X190853553Y-72579899D01*
X191065685Y-72367767D01*
X191914213Y-73216295D01*
X191702081Y-73428427D01*
X191702081Y-73428427D01*
G37*
G36*
X191348528Y-73781980D02*
X190712132Y-73145584D01*
X190924264Y-72933452D01*
X191560660Y-73569848D01*
X191348528Y-73781980D01*
X191348528Y-73781980D01*
G37*
G36*
X190287868Y-73145584D02*
X189651472Y-73781980D01*
X189439340Y-73569848D01*
X190075736Y-72933452D01*
X190287868Y-73145584D01*
X190287868Y-73145584D01*
G37*
G36*
X190146447Y-72579899D02*
X189297919Y-73428427D01*
X189085787Y-73216295D01*
X189934315Y-72367767D01*
X190146447Y-72579899D01*
X190146447Y-72579899D01*
G37*
G36*
X189792893Y-72226346D02*
X188944365Y-73074874D01*
X188732233Y-72862742D01*
X189580761Y-72014214D01*
X189792893Y-72226346D01*
X189792893Y-72226346D01*
G37*
G36*
X189439340Y-71872792D02*
X188590812Y-72721320D01*
X188378680Y-72509188D01*
X189227208Y-71660660D01*
X189439340Y-71872792D01*
X189439340Y-71872792D01*
G37*
G36*
X189085786Y-71519239D02*
X188237258Y-72367767D01*
X188025126Y-72155635D01*
X188873654Y-71307107D01*
X189085786Y-71519239D01*
X189085786Y-71519239D01*
G37*
G36*
X188732233Y-71165685D02*
X187883705Y-72014213D01*
X187671573Y-71802081D01*
X188520101Y-70953553D01*
X188732233Y-71165685D01*
X188732233Y-71165685D01*
G37*
G36*
X188166548Y-71024264D02*
X187530152Y-71660660D01*
X187318020Y-71448528D01*
X187954416Y-70812132D01*
X188166548Y-71024264D01*
X188166548Y-71024264D01*
G37*
G36*
X187954416Y-70387868D02*
X187318020Y-69751472D01*
X187530152Y-69539340D01*
X188166548Y-70175736D01*
X187954416Y-70387868D01*
X187954416Y-70387868D01*
G37*
G36*
X188520101Y-70246447D02*
X187671573Y-69397919D01*
X187883705Y-69185787D01*
X188732233Y-70034315D01*
X188520101Y-70246447D01*
X188520101Y-70246447D01*
G37*
G36*
X188873654Y-69892893D02*
X188025126Y-69044365D01*
X188237258Y-68832233D01*
X189085786Y-69680761D01*
X188873654Y-69892893D01*
X188873654Y-69892893D01*
G37*
G36*
X189227208Y-69539340D02*
X188378680Y-68690812D01*
X188590812Y-68478680D01*
X189439340Y-69327208D01*
X189227208Y-69539340D01*
X189227208Y-69539340D01*
G37*
G36*
X189580761Y-69185786D02*
X188732233Y-68337258D01*
X188944365Y-68125126D01*
X189792893Y-68973654D01*
X189580761Y-69185786D01*
X189580761Y-69185786D01*
G37*
G36*
X189934315Y-68832233D02*
X189085787Y-67983705D01*
X189297919Y-67771573D01*
X190146447Y-68620101D01*
X189934315Y-68832233D01*
X189934315Y-68832233D01*
G37*
G36*
X190075736Y-68266548D02*
X189439340Y-67630152D01*
X189651472Y-67418020D01*
X190287868Y-68054416D01*
X190075736Y-68266548D01*
X190075736Y-68266548D01*
G37*
G36*
X191242462Y-67948349D02*
X190676776Y-68514035D01*
X190676776Y-68089771D01*
X190818198Y-67948349D01*
X191242462Y-67948349D01*
X191242462Y-67948349D01*
G37*
G36*
X190323224Y-68514035D02*
X189757538Y-67948349D01*
X190181802Y-67948349D01*
X190323224Y-68089771D01*
X190323224Y-68514035D01*
X190323224Y-68514035D01*
G37*
G36*
X190676776Y-72685965D02*
X191242462Y-73251651D01*
X190818198Y-73251651D01*
X190676776Y-73110229D01*
X190676776Y-72685965D01*
X190676776Y-72685965D01*
G37*
G36*
X189757538Y-73251651D02*
X190323224Y-72685965D01*
X190323224Y-73110229D01*
X190181802Y-73251651D01*
X189757538Y-73251651D01*
X189757538Y-73251651D01*
G37*
G36*
X192585965Y-70423224D02*
X193151651Y-69857538D01*
X193151651Y-70281802D01*
X193010229Y-70423224D01*
X192585965Y-70423224D01*
X192585965Y-70423224D01*
G37*
G36*
X193151651Y-71342462D02*
X192585965Y-70776776D01*
X193010229Y-70776776D01*
X193151651Y-70918198D01*
X193151651Y-71342462D01*
X193151651Y-71342462D01*
G37*
G36*
X188414035Y-70776776D02*
X187848349Y-71342462D01*
X187848349Y-70918198D01*
X187989771Y-70776776D01*
X188414035Y-70776776D01*
X188414035Y-70776776D01*
G37*
G36*
X187848349Y-69857538D02*
X188414035Y-70423224D01*
X187989771Y-70423224D01*
X187848349Y-70281802D01*
X187848349Y-69857538D01*
X187848349Y-69857538D01*
G37*
D11*
X162350000Y-64600000D03*
X160050000Y-65550000D03*
X160050000Y-63650000D03*
D12*
X182900000Y-65500000D03*
X184150000Y-65500000D03*
X181650000Y-65500000D03*
X180400000Y-65500000D03*
D13*
X187400000Y-62450000D03*
X178400000Y-62450000D03*
D12*
X185400000Y-65500000D03*
D11*
X194350000Y-76300000D03*
X194350000Y-75350000D03*
X194350000Y-77250000D03*
X192050000Y-77250000D03*
X192050000Y-75350000D03*
D14*
X195750000Y-75300000D03*
X195750000Y-77300000D03*
D15*
X188850000Y-76700000D03*
X188850000Y-75500000D03*
D14*
X190600000Y-75300000D03*
X190600000Y-77300000D03*
D16*
X192200000Y-65700000D03*
X191000000Y-65700000D03*
D17*
X164800000Y-64450000D03*
X164800000Y-66050000D03*
X170200000Y-64450000D03*
X170200000Y-66050000D03*
D18*
X170500000Y-64250000D03*
X170500000Y-66250000D03*
X164500000Y-64250000D03*
X164500000Y-66250000D03*
D10*
G36*
X170050000Y-63650000D02*
X170600000Y-64050000D01*
X169400000Y-64050000D01*
X169950000Y-63650000D01*
X170050000Y-63650000D01*
X170050000Y-63650000D01*
G37*
G36*
X169950000Y-66850000D02*
X169400000Y-66450000D01*
X170600000Y-66450000D01*
X170050000Y-66850000D01*
X169950000Y-66850000D01*
X169950000Y-66850000D01*
G37*
G36*
X165050000Y-63650000D02*
X165600000Y-64050000D01*
X164400000Y-64050000D01*
X164950000Y-63650000D01*
X165050000Y-63650000D01*
X165050000Y-63650000D01*
G37*
G36*
X164950000Y-66850000D02*
X164400000Y-66450000D01*
X165600000Y-66450000D01*
X165050000Y-66850000D01*
X164950000Y-66850000D01*
X164950000Y-66850000D01*
G37*
D19*
X157800000Y-64775000D03*
X157800000Y-63525000D03*
X157800000Y-66025000D03*
X157800000Y-67275000D03*
D20*
X154750000Y-61600000D03*
X154750000Y-69200000D03*
D10*
G36*
X198526687Y-68032932D02*
X199728769Y-66830850D01*
X200153033Y-67255114D01*
X198950951Y-68457196D01*
X198526687Y-68032932D01*
X198526687Y-68032932D01*
G37*
G36*
X199410571Y-68916816D02*
X200612653Y-67714734D01*
X201036917Y-68138998D01*
X199834835Y-69341080D01*
X199410571Y-68916816D01*
X199410571Y-68916816D01*
G37*
G36*
X197642804Y-67149049D02*
X198844886Y-65946967D01*
X199269150Y-66371231D01*
X198067068Y-67573313D01*
X197642804Y-67149049D01*
X197642804Y-67149049D01*
G37*
G36*
X196758920Y-66265165D02*
X197961002Y-65063083D01*
X198385266Y-65487347D01*
X197183184Y-66689429D01*
X196758920Y-66265165D01*
X196758920Y-66265165D01*
G37*
G36*
X202433452Y-68333453D02*
X204342641Y-66424264D01*
X205049748Y-67131371D01*
X203140559Y-69040560D01*
X202433452Y-68333453D01*
X202433452Y-68333453D01*
G37*
G36*
X197059440Y-62959441D02*
X198968629Y-61050252D01*
X199675736Y-61757359D01*
X197766547Y-63666548D01*
X197059440Y-62959441D01*
X197059440Y-62959441D01*
G37*
G36*
X198067068Y-72426687D02*
X199269150Y-73628769D01*
X198844886Y-74053033D01*
X197642804Y-72850951D01*
X198067068Y-72426687D01*
X198067068Y-72426687D01*
G37*
G36*
X197183184Y-73310571D02*
X198385266Y-74512653D01*
X197961002Y-74936917D01*
X196758920Y-73734835D01*
X197183184Y-73310571D01*
X197183184Y-73310571D01*
G37*
G36*
X198950951Y-71542804D02*
X200153033Y-72744886D01*
X199728769Y-73169150D01*
X198526687Y-71967068D01*
X198950951Y-71542804D01*
X198950951Y-71542804D01*
G37*
G36*
X199834835Y-70658920D02*
X201036917Y-71861002D01*
X200612653Y-72285266D01*
X199410571Y-71083184D01*
X199834835Y-70658920D01*
X199834835Y-70658920D01*
G37*
G36*
X197766547Y-76333452D02*
X199675736Y-78242641D01*
X198968629Y-78949748D01*
X197059440Y-77040559D01*
X197766547Y-76333452D01*
X197766547Y-76333452D01*
G37*
G36*
X203140559Y-70959440D02*
X205049748Y-72868629D01*
X204342641Y-73575736D01*
X202433452Y-71666547D01*
X203140559Y-70959440D01*
X203140559Y-70959440D01*
G37*
D15*
X171500000Y-66500000D03*
X171500000Y-65300000D03*
D16*
X185450000Y-74600000D03*
X186650000Y-74600000D03*
X185450000Y-71400000D03*
X186650000Y-71400000D03*
X192200000Y-66800000D03*
X191000000Y-66800000D03*
D15*
X171500000Y-62900000D03*
X171500000Y-64100000D03*
X163500000Y-64000000D03*
X163500000Y-65200000D03*
D21*
X190600000Y-63800000D03*
X194800000Y-63800000D03*
D22*
X189200000Y-61650000D03*
X196200000Y-61650000D03*
D23*
X173400000Y-64050000D03*
X174350000Y-66350000D03*
X172450000Y-66350000D03*
X176400000Y-64050000D03*
X177350000Y-66350000D03*
X175450000Y-66350000D03*
D10*
G36*
X195530330Y-67316117D02*
X195883883Y-67669670D01*
X195318198Y-68235355D01*
X194964645Y-67881802D01*
X195530330Y-67316117D01*
X195530330Y-67316117D01*
G37*
G36*
X194681802Y-68164645D02*
X195035355Y-68518198D01*
X194469670Y-69083883D01*
X194116117Y-68730330D01*
X194681802Y-68164645D01*
X194681802Y-68164645D01*
G37*
G36*
X194930330Y-66716117D02*
X195283883Y-67069670D01*
X194718198Y-67635355D01*
X194364645Y-67281802D01*
X194930330Y-66716117D01*
X194930330Y-66716117D01*
G37*
G36*
X194081802Y-67564645D02*
X194435355Y-67918198D01*
X193869670Y-68483883D01*
X193516117Y-68130330D01*
X194081802Y-67564645D01*
X194081802Y-67564645D01*
G37*
D16*
X172600000Y-62600000D03*
X173800000Y-62600000D03*
D24*
X188300000Y-78000000D03*
X185700000Y-78000000D03*
D25*
X185050000Y-73650000D03*
X185050000Y-73000000D03*
X185050000Y-72350000D03*
X187050000Y-72350000D03*
X187050000Y-73650000D03*
M02*
