G04 #@! TF.FileFunction,Copper,L1,Top,Signal*
%FSLAX46Y46*%
G04 Gerber Fmt 4.6, Leading zero omitted, Abs format (unit mm)*
G04 Created by KiCad (PCBNEW 4.0.7-e2-6376~58~ubuntu14.04.1) date Mon Aug  6 17:59:04 2018*
%MOMM*%
%LPD*%
G01*
G04 APERTURE LIST*
%ADD10C,0.100000*%
%ADD11C,0.210000*%
%ADD12C,0.140000*%
%ADD13C,0.010000*%
%ADD14C,3.000000*%
%ADD15C,1.200000*%
%ADD16C,0.600000*%
%ADD17C,0.200000*%
%ADD18C,0.150000*%
%ADD19C,0.500000*%
G04 APERTURE END LIST*
D10*
D11*
X184857143Y-74178571D02*
X184857143Y-72678571D01*
X185714286Y-74178571D01*
X185714286Y-72678571D01*
X187000000Y-74107143D02*
X186857143Y-74178571D01*
X186571429Y-74178571D01*
X186428572Y-74107143D01*
X186357143Y-73964286D01*
X186357143Y-73392857D01*
X186428572Y-73250000D01*
X186571429Y-73178571D01*
X186857143Y-73178571D01*
X187000000Y-73250000D01*
X187071429Y-73392857D01*
X187071429Y-73535714D01*
X186357143Y-73678571D01*
X188357143Y-73178571D02*
X188357143Y-74178571D01*
X187714286Y-73178571D02*
X187714286Y-73964286D01*
X187785714Y-74107143D01*
X187928572Y-74178571D01*
X188142857Y-74178571D01*
X188285714Y-74107143D01*
X188357143Y-74035714D01*
X189071429Y-74178571D02*
X189071429Y-73178571D01*
X189071429Y-73464286D02*
X189142857Y-73321429D01*
X189214286Y-73250000D01*
X189357143Y-73178571D01*
X189500000Y-73178571D01*
X190214286Y-74178571D02*
X190071428Y-74107143D01*
X190000000Y-74035714D01*
X189928571Y-73892857D01*
X189928571Y-73464286D01*
X190000000Y-73321429D01*
X190071428Y-73250000D01*
X190214286Y-73178571D01*
X190428571Y-73178571D01*
X190571428Y-73250000D01*
X190642857Y-73321429D01*
X190714286Y-73464286D01*
X190714286Y-73892857D01*
X190642857Y-74035714D01*
X190571428Y-74107143D01*
X190428571Y-74178571D01*
X190214286Y-74178571D01*
X191857143Y-73392857D02*
X192071429Y-73464286D01*
X192142857Y-73535714D01*
X192214286Y-73678571D01*
X192214286Y-73892857D01*
X192142857Y-74035714D01*
X192071429Y-74107143D01*
X191928571Y-74178571D01*
X191357143Y-74178571D01*
X191357143Y-72678571D01*
X191857143Y-72678571D01*
X192000000Y-72750000D01*
X192071429Y-72821429D01*
X192142857Y-72964286D01*
X192142857Y-73107143D01*
X192071429Y-73250000D01*
X192000000Y-73321429D01*
X191857143Y-73392857D01*
X191357143Y-73392857D01*
X192714286Y-73178571D02*
X193071429Y-74178571D01*
X193428571Y-73178571D02*
X193071429Y-74178571D01*
X192928571Y-74535714D01*
X192857143Y-74607143D01*
X192714286Y-74678571D01*
X193785714Y-73178571D02*
X194357143Y-73178571D01*
X194000000Y-72678571D02*
X194000000Y-73964286D01*
X194071428Y-74107143D01*
X194214286Y-74178571D01*
X194357143Y-74178571D01*
X195428571Y-74107143D02*
X195285714Y-74178571D01*
X195000000Y-74178571D01*
X194857143Y-74107143D01*
X194785714Y-73964286D01*
X194785714Y-73392857D01*
X194857143Y-73250000D01*
X195000000Y-73178571D01*
X195285714Y-73178571D01*
X195428571Y-73250000D01*
X195500000Y-73392857D01*
X195500000Y-73535714D01*
X194785714Y-73678571D01*
X196071428Y-74107143D02*
X196214285Y-74178571D01*
X196500000Y-74178571D01*
X196642857Y-74107143D01*
X196714285Y-73964286D01*
X196714285Y-73892857D01*
X196642857Y-73750000D01*
X196500000Y-73678571D01*
X196285714Y-73678571D01*
X196142857Y-73607143D01*
X196071428Y-73464286D01*
X196071428Y-73392857D01*
X196142857Y-73250000D01*
X196285714Y-73178571D01*
X196500000Y-73178571D01*
X196642857Y-73250000D01*
X154928572Y-63928571D02*
X154071429Y-63928571D01*
X154500001Y-63928571D02*
X154500001Y-62428571D01*
X154357144Y-62642857D01*
X154214286Y-62785714D01*
X154071429Y-62857143D01*
X198357143Y-76392857D02*
X198571429Y-76464286D01*
X198642857Y-76535714D01*
X198714286Y-76678571D01*
X198714286Y-76892857D01*
X198642857Y-77035714D01*
X198571429Y-77107143D01*
X198428571Y-77178571D01*
X197857143Y-77178571D01*
X197857143Y-75678571D01*
X198357143Y-75678571D01*
X198500000Y-75750000D01*
X198571429Y-75821429D01*
X198642857Y-75964286D01*
X198642857Y-76107143D01*
X198571429Y-76250000D01*
X198500000Y-76321429D01*
X198357143Y-76392857D01*
X197857143Y-76392857D01*
X197892857Y-63500000D02*
X198607143Y-63500000D01*
X197750000Y-63928571D02*
X198250000Y-62428571D01*
X198750000Y-63928571D01*
D12*
X197988095Y-72559524D02*
X197750000Y-72273810D01*
X197559524Y-72559524D02*
X197559524Y-71892857D01*
X197845238Y-71892857D01*
X197940476Y-71940476D01*
X197988095Y-72035714D01*
X197988095Y-72130952D01*
X197940476Y-72226190D01*
X197845238Y-72273810D01*
X197559524Y-72273810D01*
X197750000Y-71559524D02*
X197511905Y-71607143D01*
X197273809Y-71750000D01*
X197130952Y-71988095D01*
X197083333Y-72226190D01*
X197130952Y-72464286D01*
X197273809Y-72702381D01*
X197511905Y-72845238D01*
X197750000Y-72892857D01*
X197988095Y-72845238D01*
X198226190Y-72702381D01*
X198369047Y-72464286D01*
X198416667Y-72226190D01*
X198369047Y-71988095D01*
X198226190Y-71750000D01*
X197988095Y-71607143D01*
X197750000Y-71559524D01*
D13*
G36*
X168034345Y-62069558D02*
X168332966Y-62121417D01*
X168560046Y-62181626D01*
X168762983Y-62253636D01*
X168955205Y-62346793D01*
X169150141Y-62470443D01*
X169361221Y-62633934D01*
X169601874Y-62846611D01*
X169885530Y-63117822D01*
X170167122Y-63397979D01*
X170448883Y-63679787D01*
X170673252Y-63899212D01*
X170853187Y-64067176D01*
X171001645Y-64194601D01*
X171131583Y-64292408D01*
X171255959Y-64371520D01*
X171387729Y-64442858D01*
X171434546Y-64466308D01*
X171625665Y-64558707D01*
X171767948Y-64616020D01*
X171896629Y-64645362D01*
X172046942Y-64653846D01*
X172254120Y-64648585D01*
X172323423Y-64645770D01*
X172959996Y-64625946D01*
X173528971Y-64621477D01*
X174022577Y-64632161D01*
X174433041Y-64657799D01*
X174752593Y-64698189D01*
X174815200Y-64710119D01*
X175146370Y-64782178D01*
X175490419Y-64864601D01*
X175858308Y-64960597D01*
X176260997Y-65073375D01*
X176709448Y-65206142D01*
X177214623Y-65362107D01*
X177787482Y-65544477D01*
X178438988Y-65756462D01*
X178828400Y-65884720D01*
X179535235Y-66117539D01*
X180156669Y-66320126D01*
X180703345Y-66495385D01*
X181185907Y-66646220D01*
X181614996Y-66775536D01*
X182001257Y-66886238D01*
X182355332Y-66981231D01*
X182687865Y-67063419D01*
X183009499Y-67135706D01*
X183330876Y-67200999D01*
X183662639Y-67262200D01*
X184015433Y-67322215D01*
X184213200Y-67354314D01*
X184804860Y-67445087D01*
X185335595Y-67516563D01*
X185831805Y-67570795D01*
X186319884Y-67609835D01*
X186826232Y-67635737D01*
X187377244Y-67650555D01*
X187999318Y-67656340D01*
X188099400Y-67656554D01*
X188696249Y-67654429D01*
X189225011Y-67645399D01*
X189719044Y-67628136D01*
X190211707Y-67601313D01*
X190736359Y-67563602D01*
X191020400Y-67540308D01*
X191597685Y-67494973D01*
X192087828Y-67465049D01*
X192504144Y-67450740D01*
X192859945Y-67452252D01*
X193168547Y-67469790D01*
X193443262Y-67503558D01*
X193697404Y-67553762D01*
X193814400Y-67583327D01*
X194140703Y-67654695D01*
X194433699Y-67676994D01*
X194717986Y-67646428D01*
X195018163Y-67559202D01*
X195358828Y-67411522D01*
X195548144Y-67315858D01*
X195713897Y-67239539D01*
X195951478Y-67143821D01*
X196235355Y-67038338D01*
X196539991Y-66932725D01*
X196716013Y-66875242D01*
X197153797Y-66731186D01*
X197509164Y-66601730D01*
X197798595Y-66478183D01*
X198038566Y-66351853D01*
X198245557Y-66214045D01*
X198436044Y-66056067D01*
X198626507Y-65869228D01*
X198630063Y-65865519D01*
X198969830Y-65444654D01*
X199228099Y-64974185D01*
X199407048Y-64448415D01*
X199508856Y-63861645D01*
X199532993Y-63504052D01*
X199557803Y-63188258D01*
X199608975Y-62968240D01*
X199688732Y-62841082D01*
X199799297Y-62803871D01*
X199942892Y-62853691D01*
X200000696Y-62890680D01*
X200095530Y-63009656D01*
X200098731Y-63164900D01*
X200010751Y-63349748D01*
X199965461Y-63411478D01*
X199847967Y-63607302D01*
X199735237Y-63883473D01*
X199634779Y-64218776D01*
X199560791Y-64555045D01*
X199533207Y-64819602D01*
X199566615Y-65014405D01*
X199668010Y-65145849D01*
X199844389Y-65220329D01*
X200102747Y-65244239D01*
X200306370Y-65236529D01*
X200688142Y-65195436D01*
X200982005Y-65130651D01*
X201199598Y-65038792D01*
X201331729Y-64938454D01*
X201481614Y-64831898D01*
X201636038Y-64791160D01*
X201768038Y-64818759D01*
X201839012Y-64891060D01*
X201885511Y-65049122D01*
X201880859Y-65219368D01*
X201827706Y-65354856D01*
X201811771Y-65373371D01*
X201723162Y-65440187D01*
X201633837Y-65439162D01*
X201506799Y-65369838D01*
X201506417Y-65369587D01*
X201443225Y-65335483D01*
X201366670Y-65315455D01*
X201256925Y-65308863D01*
X201094160Y-65315063D01*
X200858550Y-65333414D01*
X200733504Y-65344554D01*
X200451143Y-65367733D01*
X200170882Y-65386512D01*
X199926693Y-65398853D01*
X199764015Y-65402766D01*
X199645442Y-65403427D01*
X199549194Y-65412036D01*
X199462748Y-65438072D01*
X199373582Y-65491016D01*
X199269173Y-65580349D01*
X199136998Y-65715553D01*
X198964536Y-65906108D01*
X198739262Y-66161496D01*
X198694230Y-66212703D01*
X198367061Y-66584685D01*
X198482396Y-66678077D01*
X198621508Y-66764877D01*
X198804450Y-66828849D01*
X199048316Y-66873898D01*
X199370202Y-66903927D01*
X199505263Y-66911652D01*
X199742380Y-66920828D01*
X199933355Y-66918567D01*
X200110983Y-66901037D01*
X200308055Y-66864406D01*
X200557366Y-66804841D01*
X200673663Y-66775128D01*
X200974792Y-66701500D01*
X201202759Y-66656457D01*
X201380831Y-66636580D01*
X201532273Y-66638449D01*
X201575041Y-66642629D01*
X201770199Y-66652551D01*
X201905977Y-66624422D01*
X201968371Y-66591154D01*
X202127208Y-66531464D01*
X202262847Y-66558454D01*
X202358196Y-66657386D01*
X202396162Y-66813524D01*
X202380145Y-66946196D01*
X202319749Y-67064260D01*
X202217656Y-67092824D01*
X202069746Y-67032591D01*
X202028537Y-67006063D01*
X201811809Y-66878998D01*
X201613354Y-66817026D01*
X201395539Y-66813621D01*
X201155000Y-66854538D01*
X200754637Y-66943062D01*
X200435909Y-67012194D01*
X200180967Y-67063157D01*
X199971957Y-67097171D01*
X199791031Y-67115458D01*
X199620335Y-67119242D01*
X199442020Y-67109743D01*
X199238233Y-67088183D01*
X198991125Y-67055785D01*
X198731904Y-67020396D01*
X198424804Y-66979659D01*
X198195427Y-66952913D01*
X198020934Y-66939660D01*
X197878484Y-66939404D01*
X197745241Y-66951648D01*
X197598363Y-66975895D01*
X197505812Y-66993711D01*
X197006897Y-67105099D01*
X196539959Y-67235208D01*
X196114404Y-67379611D01*
X195739638Y-67533884D01*
X195425070Y-67693603D01*
X195180105Y-67854341D01*
X195014151Y-68011675D01*
X194936614Y-68161179D01*
X194932000Y-68204430D01*
X194948719Y-68291066D01*
X195005575Y-68383311D01*
X195112618Y-68489945D01*
X195279894Y-68619749D01*
X195517452Y-68781505D01*
X195795600Y-68959121D01*
X196642420Y-69514641D01*
X197391488Y-70058569D01*
X198045656Y-70593504D01*
X198607775Y-71122047D01*
X199080696Y-71646799D01*
X199467272Y-72170360D01*
X199655852Y-72479483D01*
X199761870Y-72646618D01*
X199871226Y-72785742D01*
X199948604Y-72857661D01*
X200140187Y-72942710D01*
X200418623Y-73008067D01*
X200770696Y-73051614D01*
X201183192Y-73071233D01*
X201286826Y-73072141D01*
X201544479Y-73070867D01*
X201720592Y-73063977D01*
X201835190Y-73048515D01*
X201908300Y-73021523D01*
X201959947Y-72980046D01*
X201967799Y-72971600D01*
X202076776Y-72900533D01*
X202211485Y-72871715D01*
X202330020Y-72889413D01*
X202379668Y-72929648D01*
X202415085Y-73056636D01*
X202415379Y-73229789D01*
X202384950Y-73401678D01*
X202328198Y-73524871D01*
X202323993Y-73529744D01*
X202210693Y-73616593D01*
X202093030Y-73614373D01*
X201960025Y-73533360D01*
X201782438Y-73439836D01*
X201517389Y-73371310D01*
X201161343Y-73327198D01*
X200710761Y-73306911D01*
X200585526Y-73305508D01*
X200274570Y-73304567D01*
X200052379Y-73313286D01*
X199906130Y-73343019D01*
X199823002Y-73405120D01*
X199790173Y-73510944D01*
X199794821Y-73671842D01*
X199824124Y-73899170D01*
X199834231Y-73970781D01*
X199882620Y-74284614D01*
X199930884Y-74512705D01*
X199986080Y-74670654D01*
X200055262Y-74774067D01*
X200145487Y-74838544D01*
X200242690Y-74874029D01*
X200386535Y-74931741D01*
X200451855Y-75010335D01*
X200460418Y-75046064D01*
X200436235Y-75208350D01*
X200329116Y-75352389D01*
X200157571Y-75454308D01*
X200138833Y-75460855D01*
X199970800Y-75489741D01*
X199864918Y-75440354D01*
X199814866Y-75307840D01*
X199808800Y-75207562D01*
X199798487Y-75059992D01*
X199769888Y-74835945D01*
X199726514Y-74553839D01*
X199671875Y-74232092D01*
X199609482Y-73889121D01*
X199542845Y-73543346D01*
X199475474Y-73213184D01*
X199410880Y-72917053D01*
X199352574Y-72673370D01*
X199304065Y-72500555D01*
X199280966Y-72438200D01*
X199117997Y-72151140D01*
X198878896Y-71826542D01*
X198576221Y-71476437D01*
X198222528Y-71112855D01*
X197830374Y-70747825D01*
X197412316Y-70393378D01*
X196980911Y-70061545D01*
X196548716Y-69764354D01*
X196379800Y-69658704D01*
X196188353Y-69539989D01*
X195935697Y-69379521D01*
X195644961Y-69192196D01*
X195339279Y-68992912D01*
X195062903Y-68810598D01*
X194779504Y-68624794D01*
X194503883Y-68448371D01*
X194254900Y-68293086D01*
X194051416Y-68170692D01*
X193912293Y-68092945D01*
X193907553Y-68090536D01*
X193703128Y-67995335D01*
X193498219Y-67919319D01*
X193281214Y-67861791D01*
X193040499Y-67822056D01*
X192764461Y-67799415D01*
X192441486Y-67793173D01*
X192059960Y-67802634D01*
X191608271Y-67827099D01*
X191074805Y-67865873D01*
X190689545Y-67897500D01*
X189858518Y-67955415D01*
X189004501Y-67991580D01*
X188145670Y-68006305D01*
X187300203Y-67999899D01*
X186486276Y-67972673D01*
X185722064Y-67924935D01*
X185025743Y-67856996D01*
X184559654Y-67793076D01*
X184321909Y-67755497D01*
X184302667Y-71062048D01*
X184298730Y-71723896D01*
X184295003Y-72292340D01*
X184291197Y-72775578D01*
X184287022Y-73181805D01*
X184282188Y-73519217D01*
X184276404Y-73796010D01*
X184269381Y-74020381D01*
X184260829Y-74200525D01*
X184250458Y-74344638D01*
X184237978Y-74460916D01*
X184223099Y-74557555D01*
X184205531Y-74642752D01*
X184184984Y-74724702D01*
X184171304Y-74775000D01*
X183940728Y-75423793D01*
X183622358Y-76029250D01*
X183223178Y-76584643D01*
X182750168Y-77083245D01*
X182210312Y-77518330D01*
X181610589Y-77883172D01*
X180957983Y-78171042D01*
X180494329Y-78317586D01*
X180073000Y-78430700D01*
X169201800Y-78440224D01*
X167923318Y-78441245D01*
X166742705Y-78441969D01*
X165656231Y-78442376D01*
X164660163Y-78442447D01*
X163750771Y-78442163D01*
X162924324Y-78441504D01*
X162177092Y-78440452D01*
X161505343Y-78438987D01*
X160905346Y-78437089D01*
X160373371Y-78434740D01*
X159905687Y-78431921D01*
X159498563Y-78428612D01*
X159148268Y-78424793D01*
X158851070Y-78420447D01*
X158603240Y-78415553D01*
X158401046Y-78410092D01*
X158240758Y-78404045D01*
X158118644Y-78397393D01*
X158030974Y-78390117D01*
X157975000Y-78382385D01*
X157684708Y-78319009D01*
X157674108Y-78315803D01*
X179209400Y-78315803D01*
X179615800Y-78281365D01*
X179873724Y-78252719D01*
X180151637Y-78211415D01*
X180377800Y-78168760D01*
X180563001Y-78125370D01*
X180712404Y-78085486D01*
X180794854Y-78057455D01*
X180796476Y-78056614D01*
X180795654Y-78004660D01*
X180714270Y-77891766D01*
X180552691Y-77718423D01*
X180515938Y-77681653D01*
X180172323Y-77340671D01*
X179690861Y-77828237D01*
X179209400Y-78315803D01*
X157674108Y-78315803D01*
X157425341Y-78240564D01*
X157162549Y-78134312D01*
X156892721Y-78002527D01*
X157264867Y-78002527D01*
X157335440Y-78046519D01*
X157484537Y-78098026D01*
X157689836Y-78152211D01*
X157929014Y-78204238D01*
X158179749Y-78249269D01*
X158419718Y-78282468D01*
X158626599Y-78298999D01*
X158634396Y-78299262D01*
X158836593Y-78305600D01*
X157875767Y-77340762D01*
X157559529Y-77654189D01*
X157420578Y-77797870D01*
X157317983Y-77915495D01*
X157267051Y-77988973D01*
X157264867Y-78002527D01*
X156892721Y-78002527D01*
X156861981Y-77987514D01*
X156746092Y-77926641D01*
X156129454Y-77546916D01*
X155558143Y-77092227D01*
X155481769Y-77015359D01*
X155765200Y-77015359D01*
X155806035Y-77077689D01*
X155916190Y-77178428D01*
X156077137Y-77304942D01*
X156270349Y-77444595D01*
X156477297Y-77584754D01*
X156679456Y-77712783D01*
X156858296Y-77816048D01*
X156995291Y-77881914D01*
X157061261Y-77899200D01*
X157118346Y-77865202D01*
X157226719Y-77774148D01*
X157367483Y-77642441D01*
X157441465Y-77569135D01*
X157763798Y-77243911D01*
X157976494Y-77243911D01*
X158513803Y-77774755D01*
X158707093Y-77961475D01*
X158878812Y-78119445D01*
X159014549Y-78236004D01*
X159099897Y-78298493D01*
X159118000Y-78305600D01*
X159399406Y-78305600D01*
X160325503Y-78305600D01*
X160619572Y-78303564D01*
X160875136Y-78297906D01*
X161076268Y-78289299D01*
X161207039Y-78278416D01*
X161251600Y-78266440D01*
X161217559Y-78217586D01*
X161124710Y-78112836D01*
X160986955Y-77967255D01*
X160818202Y-77795906D01*
X160806095Y-77783841D01*
X160360591Y-77340401D01*
X159879999Y-77823000D01*
X159399406Y-78305600D01*
X159118000Y-78305600D01*
X159176038Y-78271503D01*
X159290936Y-78177653D01*
X159448282Y-78036710D01*
X159633670Y-77861331D01*
X159722196Y-77774755D01*
X160259505Y-77243911D01*
X160256852Y-77241141D01*
X160468348Y-77241141D01*
X160998766Y-77773370D01*
X161190569Y-77961130D01*
X161361623Y-78119841D01*
X161497416Y-78236690D01*
X161583432Y-78298864D01*
X161601636Y-78305600D01*
X161661685Y-78271465D01*
X161667924Y-78266440D01*
X161912000Y-78266440D01*
X161960126Y-78278950D01*
X162093818Y-78289805D01*
X162297047Y-78298322D01*
X162553783Y-78303811D01*
X162826400Y-78305600D01*
X163118500Y-78303539D01*
X163371994Y-78297813D01*
X163570853Y-78289110D01*
X163699047Y-78278115D01*
X163740800Y-78266440D01*
X163706738Y-78217744D01*
X163613700Y-78112905D01*
X163475408Y-77966754D01*
X163305583Y-77794127D01*
X163283600Y-77772200D01*
X162826400Y-77317118D01*
X162369200Y-77772200D01*
X162196495Y-77947021D01*
X162053667Y-78097156D01*
X161954437Y-78207771D01*
X161912525Y-78264034D01*
X161912000Y-78266440D01*
X161667924Y-78266440D01*
X161778348Y-78177514D01*
X161937058Y-78036430D01*
X162123250Y-77860892D01*
X162211396Y-77774755D01*
X162748705Y-77243911D01*
X162710008Y-77203519D01*
X162978800Y-77203519D01*
X163013218Y-77259731D01*
X163105991Y-77369513D01*
X163241397Y-77517001D01*
X163403712Y-77686330D01*
X163577213Y-77861635D01*
X163746178Y-78027051D01*
X163894883Y-78166712D01*
X164007607Y-78264754D01*
X164068626Y-78305311D01*
X164071000Y-78305600D01*
X164123830Y-78271356D01*
X164129552Y-78266440D01*
X164401200Y-78266440D01*
X164449326Y-78278950D01*
X164583018Y-78289805D01*
X164786247Y-78298322D01*
X165042983Y-78303811D01*
X165315600Y-78305600D01*
X165607700Y-78303539D01*
X165861194Y-78297813D01*
X166060053Y-78289110D01*
X166188247Y-78278115D01*
X166230000Y-78266440D01*
X166195938Y-78217744D01*
X166102900Y-78112905D01*
X165964608Y-77966754D01*
X165794783Y-77794127D01*
X165772800Y-77772200D01*
X165315600Y-77317118D01*
X164858400Y-77772200D01*
X164685695Y-77947021D01*
X164542867Y-78097156D01*
X164443637Y-78207771D01*
X164401725Y-78264034D01*
X164401200Y-78266440D01*
X164129552Y-78266440D01*
X164233434Y-78177205D01*
X164385692Y-78036014D01*
X164566480Y-77860650D01*
X164643407Y-77784032D01*
X164828302Y-77594631D01*
X164984206Y-77427540D01*
X165098270Y-77297111D01*
X165157642Y-77217695D01*
X165163200Y-77203519D01*
X165468000Y-77203519D01*
X165502418Y-77259731D01*
X165595191Y-77369513D01*
X165730597Y-77517001D01*
X165892912Y-77686330D01*
X166066413Y-77861635D01*
X166235378Y-78027051D01*
X166384083Y-78166712D01*
X166496807Y-78264754D01*
X166557826Y-78305311D01*
X166560200Y-78305600D01*
X166612866Y-78271342D01*
X166618565Y-78266440D01*
X166890400Y-78266440D01*
X166938543Y-78278875D01*
X167072353Y-78289681D01*
X167275904Y-78298186D01*
X167533267Y-78303715D01*
X167816496Y-78305600D01*
X168742593Y-78305600D01*
X168262000Y-77823000D01*
X167781408Y-77340401D01*
X167335904Y-77783841D01*
X167165566Y-77956381D01*
X167025293Y-78104166D01*
X166928990Y-78212131D01*
X166890563Y-78265213D01*
X166890400Y-78266440D01*
X166618565Y-78266440D01*
X166722496Y-78177060D01*
X166875141Y-78035485D01*
X167056852Y-77859353D01*
X167143233Y-77773370D01*
X167670890Y-77243911D01*
X167882494Y-77243911D01*
X168419803Y-77774755D01*
X168613093Y-77961475D01*
X168784812Y-78119445D01*
X168920549Y-78236004D01*
X169005897Y-78298493D01*
X169024000Y-78305600D01*
X169305406Y-78305600D01*
X170256903Y-78305600D01*
X170555208Y-78304906D01*
X170815221Y-78302975D01*
X171021227Y-78300033D01*
X171157511Y-78296308D01*
X171208358Y-78292024D01*
X171208400Y-78291896D01*
X171174519Y-78253066D01*
X171081802Y-78156501D01*
X170943639Y-78015924D01*
X170773418Y-77845059D01*
X170737520Y-77809272D01*
X170266641Y-77340351D01*
X169786024Y-77822975D01*
X169305406Y-78305600D01*
X169024000Y-78305600D01*
X169082038Y-78271503D01*
X169196936Y-78177653D01*
X169354282Y-78036710D01*
X169539670Y-77861331D01*
X169628196Y-77774755D01*
X170165505Y-77243911D01*
X170162852Y-77241141D01*
X170374348Y-77241141D01*
X170904766Y-77773370D01*
X171096569Y-77961130D01*
X171267623Y-78119841D01*
X171403416Y-78236690D01*
X171489432Y-78298864D01*
X171507636Y-78305600D01*
X171567685Y-78271465D01*
X171573924Y-78266440D01*
X171818000Y-78266440D01*
X171866126Y-78278950D01*
X171999818Y-78289805D01*
X172203047Y-78298322D01*
X172459783Y-78303811D01*
X172732400Y-78305600D01*
X173024500Y-78303539D01*
X173277994Y-78297813D01*
X173476853Y-78289110D01*
X173605047Y-78278115D01*
X173646800Y-78266440D01*
X173612738Y-78217744D01*
X173519700Y-78112905D01*
X173381408Y-77966754D01*
X173211583Y-77794127D01*
X173189600Y-77772200D01*
X172732400Y-77317118D01*
X172275200Y-77772200D01*
X172102495Y-77947021D01*
X171959667Y-78097156D01*
X171860437Y-78207771D01*
X171818525Y-78264034D01*
X171818000Y-78266440D01*
X171573924Y-78266440D01*
X171684348Y-78177514D01*
X171843058Y-78036430D01*
X172029250Y-77860892D01*
X172117396Y-77774755D01*
X172654705Y-77243911D01*
X172616008Y-77203519D01*
X172884800Y-77203519D01*
X172919218Y-77259731D01*
X173011991Y-77369513D01*
X173147397Y-77517001D01*
X173309712Y-77686330D01*
X173483213Y-77861635D01*
X173652178Y-78027051D01*
X173800883Y-78166712D01*
X173913607Y-78264754D01*
X173974626Y-78305311D01*
X173977000Y-78305600D01*
X174029830Y-78271356D01*
X174035552Y-78266440D01*
X174307200Y-78266440D01*
X174355326Y-78278950D01*
X174489018Y-78289805D01*
X174692247Y-78298322D01*
X174948983Y-78303811D01*
X175221600Y-78305600D01*
X175513700Y-78303539D01*
X175767194Y-78297813D01*
X175966053Y-78289110D01*
X176094247Y-78278115D01*
X176136000Y-78266440D01*
X176101938Y-78217744D01*
X176008900Y-78112905D01*
X175870608Y-77966754D01*
X175700783Y-77794127D01*
X175678800Y-77772200D01*
X175221600Y-77317118D01*
X174764400Y-77772200D01*
X174591695Y-77947021D01*
X174448867Y-78097156D01*
X174349637Y-78207771D01*
X174307725Y-78264034D01*
X174307200Y-78266440D01*
X174035552Y-78266440D01*
X174139434Y-78177205D01*
X174291692Y-78036014D01*
X174472480Y-77860650D01*
X174549407Y-77784032D01*
X174734302Y-77594631D01*
X174890206Y-77427540D01*
X175004270Y-77297111D01*
X175063642Y-77217695D01*
X175069200Y-77203519D01*
X175374000Y-77203519D01*
X175408418Y-77259731D01*
X175501191Y-77369513D01*
X175636597Y-77517001D01*
X175798912Y-77686330D01*
X175972413Y-77861635D01*
X176141378Y-78027051D01*
X176290083Y-78166712D01*
X176402807Y-78264754D01*
X176463826Y-78305311D01*
X176466200Y-78305600D01*
X176518866Y-78271342D01*
X176524565Y-78266440D01*
X176796400Y-78266440D01*
X176844543Y-78278875D01*
X176978353Y-78289681D01*
X177181904Y-78298186D01*
X177439267Y-78303715D01*
X177722496Y-78305600D01*
X178648593Y-78305600D01*
X178168000Y-77823000D01*
X177687408Y-77340401D01*
X177241904Y-77783841D01*
X177071566Y-77956381D01*
X176931293Y-78104166D01*
X176834990Y-78212131D01*
X176796563Y-78265213D01*
X176796400Y-78266440D01*
X176524565Y-78266440D01*
X176628496Y-78177060D01*
X176781141Y-78035485D01*
X176962852Y-77859353D01*
X177049233Y-77773370D01*
X177576890Y-77243911D01*
X177788494Y-77243911D01*
X178325803Y-77774755D01*
X178519093Y-77961475D01*
X178690812Y-78119445D01*
X178826549Y-78236004D01*
X178911897Y-78298493D01*
X178930000Y-78305600D01*
X178988038Y-78271503D01*
X179102936Y-78177653D01*
X179260282Y-78036710D01*
X179445670Y-77861331D01*
X179534196Y-77774755D01*
X180071505Y-77243911D01*
X180062865Y-77234892D01*
X180276200Y-77234892D01*
X180630437Y-77592446D01*
X180788861Y-77744816D01*
X180927830Y-77864806D01*
X181028126Y-77936512D01*
X181062237Y-77949751D01*
X181142536Y-77927475D01*
X181284167Y-77868788D01*
X181459041Y-77785515D01*
X181491500Y-77769023D01*
X181676037Y-77668208D01*
X181875264Y-77549554D01*
X182069785Y-77425918D01*
X182240205Y-77310155D01*
X182367126Y-77215121D01*
X182431154Y-77153670D01*
X182435200Y-77143544D01*
X182401407Y-77098153D01*
X182309302Y-76996218D01*
X182172790Y-76852658D01*
X182005777Y-76682392D01*
X181998801Y-76675380D01*
X181562403Y-76236951D01*
X181278417Y-76394975D01*
X181109676Y-76504415D01*
X180905779Y-76659314D01*
X180702227Y-76832127D01*
X180635315Y-76893946D01*
X180276200Y-77234892D01*
X180062865Y-77234892D01*
X179923048Y-77088955D01*
X179774591Y-76934000D01*
X178085408Y-76934000D01*
X177936951Y-77088955D01*
X177788494Y-77243911D01*
X177576890Y-77243911D01*
X177579651Y-77241141D01*
X177432521Y-77087570D01*
X177313091Y-76962912D01*
X177530869Y-76962912D01*
X177558400Y-77010200D01*
X177641604Y-77074587D01*
X177685400Y-77086400D01*
X177768800Y-77050824D01*
X177812400Y-77010200D01*
X177839844Y-76960612D01*
X177799562Y-76938692D01*
X177685400Y-76934000D01*
X177566158Y-76939491D01*
X177530869Y-76962912D01*
X177313091Y-76962912D01*
X177285391Y-76934000D01*
X176463546Y-76934000D01*
X176153308Y-76934962D01*
X175927526Y-76939108D01*
X175769065Y-76948326D01*
X175660789Y-76964503D01*
X175585561Y-76989526D01*
X175526247Y-77025285D01*
X175507850Y-77039287D01*
X175416097Y-77127586D01*
X175374253Y-77199684D01*
X175374000Y-77203519D01*
X175069200Y-77203519D01*
X175032582Y-77134309D01*
X174943604Y-77045892D01*
X174935349Y-77039287D01*
X174877607Y-76999756D01*
X174809456Y-76971529D01*
X174794956Y-76968679D01*
X175092512Y-76968679D01*
X175120000Y-77010200D01*
X175190215Y-77073885D01*
X175221600Y-77086400D01*
X175282282Y-77051911D01*
X175323200Y-77010200D01*
X175352032Y-76958331D01*
X175308745Y-76937222D01*
X175221600Y-76934000D01*
X175114848Y-76940571D01*
X175092512Y-76968679D01*
X174794956Y-76968679D01*
X174713795Y-76952727D01*
X174573524Y-76941470D01*
X174371546Y-76935882D01*
X174090761Y-76934082D01*
X173977000Y-76934000D01*
X173666223Y-76934956D01*
X173439940Y-76939076D01*
X173281050Y-76948239D01*
X173172454Y-76964324D01*
X173097053Y-76989209D01*
X173037748Y-77024773D01*
X173018650Y-77039287D01*
X172926897Y-77127586D01*
X172885053Y-77199684D01*
X172884800Y-77203519D01*
X172616008Y-77203519D01*
X172506248Y-77088955D01*
X172385491Y-76962912D01*
X172603269Y-76962912D01*
X172630800Y-77010200D01*
X172714004Y-77074587D01*
X172757800Y-77086400D01*
X172841200Y-77050824D01*
X172884800Y-77010200D01*
X172912244Y-76960612D01*
X172871962Y-76938692D01*
X172757800Y-76934000D01*
X172638558Y-76939491D01*
X172603269Y-76962912D01*
X172385491Y-76962912D01*
X172357791Y-76934000D01*
X170668608Y-76934000D01*
X170521478Y-77087570D01*
X170374348Y-77241141D01*
X170162852Y-77241141D01*
X170017048Y-77088955D01*
X169896291Y-76962912D01*
X170114069Y-76962912D01*
X170141600Y-77010200D01*
X170224804Y-77074587D01*
X170268600Y-77086400D01*
X170352000Y-77050824D01*
X170395600Y-77010200D01*
X170423044Y-76960612D01*
X170382762Y-76938692D01*
X170268600Y-76934000D01*
X170149358Y-76939491D01*
X170114069Y-76962912D01*
X169896291Y-76962912D01*
X169868591Y-76934000D01*
X168179408Y-76934000D01*
X168030951Y-77088955D01*
X167882494Y-77243911D01*
X167670890Y-77243911D01*
X167673651Y-77241141D01*
X167526521Y-77087570D01*
X167407091Y-76962912D01*
X167624869Y-76962912D01*
X167652400Y-77010200D01*
X167735604Y-77074587D01*
X167779400Y-77086400D01*
X167862800Y-77050824D01*
X167906400Y-77010200D01*
X167933844Y-76960612D01*
X167893562Y-76938692D01*
X167779400Y-76934000D01*
X167660158Y-76939491D01*
X167624869Y-76962912D01*
X167407091Y-76962912D01*
X167379391Y-76934000D01*
X166557546Y-76934000D01*
X166247308Y-76934962D01*
X166021526Y-76939108D01*
X165863065Y-76948326D01*
X165754789Y-76964503D01*
X165679561Y-76989526D01*
X165620247Y-77025285D01*
X165601850Y-77039287D01*
X165510097Y-77127586D01*
X165468253Y-77199684D01*
X165468000Y-77203519D01*
X165163200Y-77203519D01*
X165126582Y-77134309D01*
X165037604Y-77045892D01*
X165029349Y-77039287D01*
X164971607Y-76999756D01*
X164903456Y-76971529D01*
X164888956Y-76968679D01*
X165186512Y-76968679D01*
X165214000Y-77010200D01*
X165284215Y-77073885D01*
X165315600Y-77086400D01*
X165376282Y-77051911D01*
X165417200Y-77010200D01*
X165446032Y-76958331D01*
X165402745Y-76937222D01*
X165315600Y-76934000D01*
X165208848Y-76940571D01*
X165186512Y-76968679D01*
X164888956Y-76968679D01*
X164807795Y-76952727D01*
X164667524Y-76941470D01*
X164465546Y-76935882D01*
X164184761Y-76934082D01*
X164071000Y-76934000D01*
X163760223Y-76934956D01*
X163533940Y-76939076D01*
X163375050Y-76948239D01*
X163266454Y-76964324D01*
X163191053Y-76989209D01*
X163131748Y-77024773D01*
X163112650Y-77039287D01*
X163020897Y-77127586D01*
X162979053Y-77199684D01*
X162978800Y-77203519D01*
X162710008Y-77203519D01*
X162600248Y-77088955D01*
X162479491Y-76962912D01*
X162697269Y-76962912D01*
X162724800Y-77010200D01*
X162808004Y-77074587D01*
X162851800Y-77086400D01*
X162935200Y-77050824D01*
X162978800Y-77010200D01*
X163006244Y-76960612D01*
X162965962Y-76938692D01*
X162851800Y-76934000D01*
X162732558Y-76939491D01*
X162697269Y-76962912D01*
X162479491Y-76962912D01*
X162451791Y-76934000D01*
X160762608Y-76934000D01*
X160615478Y-77087570D01*
X160468348Y-77241141D01*
X160256852Y-77241141D01*
X160111048Y-77088955D01*
X159990291Y-76962912D01*
X160208069Y-76962912D01*
X160235600Y-77010200D01*
X160318804Y-77074587D01*
X160362600Y-77086400D01*
X160446000Y-77050824D01*
X160489600Y-77010200D01*
X160517044Y-76960612D01*
X160476762Y-76938692D01*
X160362600Y-76934000D01*
X160243358Y-76939491D01*
X160208069Y-76962912D01*
X159990291Y-76962912D01*
X159962591Y-76934000D01*
X158273408Y-76934000D01*
X158124951Y-77088955D01*
X157976494Y-77243911D01*
X157763798Y-77243911D01*
X157768596Y-77239070D01*
X157490798Y-76956981D01*
X157327075Y-76805979D01*
X157576554Y-76805979D01*
X157622044Y-76875398D01*
X157667004Y-76926163D01*
X157792617Y-77043753D01*
X157886066Y-77081360D01*
X157968512Y-77045484D01*
X157990239Y-77025439D01*
X158044321Y-76951178D01*
X158017465Y-76902507D01*
X158012956Y-76901120D01*
X179984466Y-76901120D01*
X179985666Y-76939503D01*
X180026670Y-76989739D01*
X180120161Y-77068187D01*
X180208884Y-77070916D01*
X180317449Y-76994019D01*
X180377800Y-76934000D01*
X180461072Y-76844843D01*
X180486834Y-76798943D01*
X180443453Y-76790009D01*
X180319292Y-76811745D01*
X180199097Y-76837339D01*
X180050148Y-76871893D01*
X179984466Y-76901120D01*
X158012956Y-76901120D01*
X157900183Y-76866435D01*
X157869792Y-76860474D01*
X157723054Y-76829094D01*
X157609719Y-76798456D01*
X157603092Y-76796184D01*
X157576554Y-76805979D01*
X157327075Y-76805979D01*
X157314939Y-76794786D01*
X157122815Y-76642600D01*
X156959000Y-76535170D01*
X156795435Y-76443394D01*
X156652005Y-76359879D01*
X156591245Y-76322645D01*
X156534945Y-76293572D01*
X156480161Y-76293809D01*
X156409409Y-76333796D01*
X156305206Y-76423973D01*
X156150069Y-76574782D01*
X156121345Y-76603258D01*
X155969728Y-76759331D01*
X155850222Y-76893040D01*
X155778616Y-76986117D01*
X155765200Y-77015359D01*
X155481769Y-77015359D01*
X155045206Y-76575976D01*
X154603693Y-76011569D01*
X154408149Y-75683421D01*
X154596800Y-75683421D01*
X154628515Y-75754290D01*
X154714041Y-75880766D01*
X154838950Y-76045708D01*
X154988813Y-76231973D01*
X155149202Y-76422419D01*
X155305689Y-76599904D01*
X155443845Y-76747286D01*
X155549242Y-76847422D01*
X155606638Y-76883200D01*
X155652761Y-76849641D01*
X155753515Y-76759250D01*
X155892107Y-76627448D01*
X155993513Y-76527884D01*
X156351217Y-76172568D01*
X156011990Y-75819621D01*
X155841957Y-75630973D01*
X155682123Y-75433377D01*
X155559098Y-75260396D01*
X155528481Y-75209789D01*
X155442751Y-75071174D01*
X155369973Y-74977882D01*
X155334674Y-74952851D01*
X155277618Y-74987023D01*
X155171762Y-75076582D01*
X155036818Y-75202012D01*
X154892499Y-75343795D01*
X154758516Y-75482415D01*
X154654582Y-75598355D01*
X154600408Y-75672098D01*
X154596800Y-75683421D01*
X154408149Y-75683421D01*
X154246651Y-75412408D01*
X154193721Y-75304761D01*
X154125836Y-75162558D01*
X154067091Y-75035718D01*
X154016828Y-74916049D01*
X153974385Y-74795359D01*
X153939102Y-74665459D01*
X153910319Y-74518157D01*
X153887375Y-74345261D01*
X153869609Y-74138581D01*
X153865142Y-74054711D01*
X153989543Y-74054711D01*
X154022582Y-74332571D01*
X154065690Y-74523026D01*
X154117022Y-74691839D01*
X154188122Y-74888461D01*
X154269264Y-75090296D01*
X154350718Y-75274751D01*
X154422759Y-75419231D01*
X154475657Y-75501141D01*
X154491291Y-75511600D01*
X154538023Y-75477730D01*
X154639471Y-75386150D01*
X154779434Y-75251906D01*
X154901802Y-75130396D01*
X155280461Y-74749192D01*
X154725083Y-74192087D01*
X154513543Y-73981193D01*
X154360792Y-73834064D01*
X154254646Y-73741761D01*
X154182924Y-73695343D01*
X154133444Y-73685872D01*
X154094025Y-73704407D01*
X154078452Y-73717564D01*
X154008213Y-73846756D01*
X153989543Y-74054711D01*
X153865142Y-74054711D01*
X153856363Y-73889925D01*
X153846974Y-73591102D01*
X153845922Y-73530400D01*
X153987200Y-73530400D01*
X154005786Y-73572214D01*
X154021066Y-73564266D01*
X154024557Y-73529643D01*
X154268231Y-73529643D01*
X154671107Y-73934896D01*
X154833032Y-74094386D01*
X154967644Y-74220588D01*
X155059927Y-74299846D01*
X155094353Y-74319780D01*
X155096083Y-74262939D01*
X155078513Y-74139171D01*
X155058961Y-74039404D01*
X155033838Y-73869116D01*
X155014592Y-73637502D01*
X155004206Y-73384792D01*
X155003200Y-73287037D01*
X155003200Y-73225600D01*
X155137772Y-73225600D01*
X155151488Y-73653563D01*
X155199884Y-74020647D01*
X155291308Y-74364100D01*
X155434105Y-74721169D01*
X155507697Y-74876600D01*
X155791095Y-75343748D01*
X156155256Y-75766510D01*
X156584447Y-76132304D01*
X157062938Y-76428548D01*
X157574998Y-76642662D01*
X157792951Y-76704264D01*
X157840571Y-76712328D01*
X157916928Y-76719779D01*
X158025790Y-76726640D01*
X158170925Y-76732938D01*
X158356102Y-76738697D01*
X158585090Y-76743941D01*
X158861657Y-76748696D01*
X159189572Y-76752986D01*
X159572603Y-76756835D01*
X160014520Y-76760269D01*
X160519090Y-76763311D01*
X161090082Y-76765988D01*
X161731265Y-76768323D01*
X162446407Y-76770342D01*
X163239277Y-76772069D01*
X164113644Y-76773528D01*
X165073275Y-76774745D01*
X166121941Y-76775744D01*
X167263408Y-76776550D01*
X168501446Y-76777187D01*
X168937771Y-76777367D01*
X170185437Y-76777800D01*
X171335581Y-76778067D01*
X172392282Y-76778142D01*
X173359618Y-76777995D01*
X174241666Y-76777601D01*
X175042506Y-76776930D01*
X175766215Y-76775955D01*
X176416873Y-76774648D01*
X176998556Y-76772981D01*
X177515343Y-76770927D01*
X177971313Y-76768458D01*
X178370543Y-76765545D01*
X178717112Y-76762162D01*
X179015099Y-76758280D01*
X179268581Y-76753871D01*
X179481636Y-76748908D01*
X179658344Y-76743362D01*
X179802781Y-76737207D01*
X179919027Y-76730414D01*
X180011159Y-76722955D01*
X180083256Y-76714803D01*
X180139397Y-76705929D01*
X180164571Y-76700815D01*
X180386889Y-76638784D01*
X180650034Y-76546387D01*
X180905216Y-76441120D01*
X180962000Y-76414867D01*
X181191263Y-76297044D01*
X181382938Y-76173574D01*
X181415825Y-76146600D01*
X181680658Y-76146600D01*
X182116480Y-76587192D01*
X182311644Y-76782824D01*
X182453695Y-76908967D01*
X182562406Y-76966921D01*
X182657547Y-76957983D01*
X182758889Y-76883451D01*
X182886204Y-76744623D01*
X182972687Y-76643409D01*
X183149051Y-76428588D01*
X183307427Y-76220501D01*
X183435633Y-76036623D01*
X183521485Y-75894425D01*
X183552800Y-75811394D01*
X183518534Y-75750339D01*
X183427415Y-75638391D01*
X183296957Y-75493485D01*
X183144674Y-75333559D01*
X182988082Y-75176549D01*
X182844694Y-75040392D01*
X182732027Y-74943024D01*
X182667595Y-74902384D01*
X182664921Y-74902120D01*
X182616054Y-74943837D01*
X182540581Y-75052366D01*
X182465975Y-75183615D01*
X182359792Y-75355221D01*
X182209044Y-75559831D01*
X182042043Y-75759659D01*
X181999805Y-75805794D01*
X181680658Y-76146600D01*
X181415825Y-76146600D01*
X181569835Y-76020284D01*
X181784766Y-75812999D01*
X181800419Y-75797151D01*
X182148258Y-75399441D01*
X182411818Y-74990499D01*
X182514905Y-74748758D01*
X182766805Y-74748758D01*
X183196781Y-75180979D01*
X183366011Y-75348488D01*
X183509624Y-75485758D01*
X183612523Y-75578693D01*
X183659610Y-75613197D01*
X183659722Y-75613200D01*
X183696169Y-75570559D01*
X183755434Y-75460628D01*
X183803599Y-75355380D01*
X183907684Y-75075650D01*
X183998556Y-74761780D01*
X184067630Y-74449768D01*
X184106326Y-74175610D01*
X184111600Y-74063547D01*
X184099421Y-73880008D01*
X184056425Y-73762530D01*
X184007614Y-73706041D01*
X183966423Y-73672884D01*
X183925191Y-73661174D01*
X183871585Y-73679610D01*
X183793270Y-73736893D01*
X183677913Y-73841723D01*
X183513181Y-74002801D01*
X183335217Y-74180346D01*
X182766805Y-74748758D01*
X182514905Y-74748758D01*
X182598972Y-74551620D01*
X182633083Y-74411425D01*
X182801162Y-74411425D01*
X182808474Y-74444340D01*
X182843809Y-74434957D01*
X182917648Y-74376290D01*
X183040475Y-74261352D01*
X183222772Y-74083157D01*
X183267199Y-74039403D01*
X183446787Y-73858898D01*
X183596695Y-73701436D01*
X183703510Y-73581621D01*
X183731131Y-73544528D01*
X184023317Y-73544528D01*
X184032664Y-73576773D01*
X184082913Y-73628912D01*
X184108275Y-73582587D01*
X184111600Y-73520239D01*
X184099154Y-73446540D01*
X184056245Y-73463842D01*
X184055066Y-73465013D01*
X184023317Y-73544528D01*
X183731131Y-73544528D01*
X183753821Y-73514059D01*
X183756000Y-73507127D01*
X183722394Y-73454666D01*
X183633482Y-73350407D01*
X183507123Y-73212744D01*
X183361173Y-73060068D01*
X183213491Y-72910772D01*
X183081935Y-72783248D01*
X182984362Y-72695888D01*
X182940092Y-72666800D01*
X182928263Y-72713404D01*
X182924561Y-72837007D01*
X182929486Y-73013296D01*
X182932017Y-73060927D01*
X182936457Y-73343971D01*
X182915967Y-73653428D01*
X182868162Y-74014647D01*
X182811390Y-74343200D01*
X182801162Y-74411425D01*
X182633083Y-74411425D01*
X182717592Y-74064102D01*
X182775552Y-73509239D01*
X182777125Y-73476630D01*
X182764213Y-72834528D01*
X182672916Y-72281083D01*
X182841600Y-72281083D01*
X182875439Y-72346214D01*
X182966451Y-72464494D01*
X183098876Y-72619207D01*
X183256954Y-72793639D01*
X183424926Y-72971075D01*
X183587032Y-73134798D01*
X183727512Y-73268095D01*
X183830607Y-73354249D01*
X183875808Y-73378000D01*
X183948864Y-73346935D01*
X184018699Y-73293926D01*
X184051966Y-73255026D01*
X184076265Y-73197527D01*
X184092977Y-73106491D01*
X184103478Y-72966985D01*
X184109145Y-72764073D01*
X184111357Y-72482819D01*
X184111600Y-72286781D01*
X184111112Y-71959089D01*
X184108489Y-71717544D01*
X184101989Y-71546691D01*
X184089869Y-71431078D01*
X184070389Y-71355253D01*
X184041807Y-71303761D01*
X184002381Y-71261149D01*
X183995248Y-71254403D01*
X183878896Y-71145096D01*
X183360248Y-71665515D01*
X183172693Y-71860051D01*
X183015969Y-72034776D01*
X182902792Y-72174600D01*
X182845876Y-72264430D01*
X182841600Y-72281083D01*
X182672916Y-72281083D01*
X182666153Y-72240091D01*
X182485032Y-71697225D01*
X182222940Y-71209840D01*
X181881964Y-70781840D01*
X181677336Y-70603204D01*
X181930697Y-70603204D01*
X182099557Y-70809502D01*
X182324527Y-71118136D01*
X182521761Y-71452238D01*
X182664189Y-71765100D01*
X182721021Y-71902575D01*
X182768247Y-71989960D01*
X182786004Y-72006400D01*
X182831755Y-71972353D01*
X182934520Y-71879084D01*
X183080166Y-71739894D01*
X183254557Y-71568089D01*
X183299159Y-71523438D01*
X183765322Y-71055328D01*
X184023317Y-71055328D01*
X184032664Y-71087573D01*
X184082913Y-71139712D01*
X184108275Y-71093387D01*
X184111600Y-71031040D01*
X184099154Y-70957340D01*
X184056245Y-70974642D01*
X184055066Y-70975813D01*
X184023317Y-71055328D01*
X183765322Y-71055328D01*
X183780112Y-71040477D01*
X183209798Y-70470163D01*
X182639484Y-69899848D01*
X182285090Y-70251526D01*
X181930697Y-70603204D01*
X181677336Y-70603204D01*
X181464192Y-70417134D01*
X180987400Y-70127462D01*
X180905650Y-70084744D01*
X180834450Y-70045316D01*
X180769671Y-70009045D01*
X180707185Y-69975801D01*
X180642862Y-69945454D01*
X180572574Y-69917872D01*
X180492193Y-69892925D01*
X180397589Y-69870481D01*
X180284633Y-69850409D01*
X180149197Y-69832580D01*
X179987153Y-69816862D01*
X179794371Y-69803123D01*
X179566723Y-69791234D01*
X179300079Y-69781063D01*
X178990312Y-69772480D01*
X178633292Y-69765353D01*
X178224891Y-69759551D01*
X177760980Y-69754945D01*
X177237430Y-69751402D01*
X176650113Y-69748792D01*
X175994899Y-69746985D01*
X175267660Y-69745848D01*
X174464268Y-69745252D01*
X173580592Y-69745066D01*
X172612506Y-69745158D01*
X171555879Y-69745397D01*
X170406584Y-69745654D01*
X169160491Y-69745796D01*
X168947800Y-69745800D01*
X167700799Y-69745833D01*
X166551301Y-69745956D01*
X165495210Y-69746199D01*
X164528430Y-69746597D01*
X163646864Y-69747180D01*
X162846414Y-69747982D01*
X162122986Y-69749035D01*
X161472481Y-69750372D01*
X160890804Y-69752023D01*
X160373858Y-69754024D01*
X159917546Y-69756404D01*
X159517773Y-69759198D01*
X159170440Y-69762437D01*
X158871453Y-69766153D01*
X158616713Y-69770380D01*
X158402125Y-69775150D01*
X158223593Y-69780494D01*
X158077019Y-69786446D01*
X157958306Y-69793037D01*
X157863360Y-69800301D01*
X157788082Y-69808269D01*
X157728376Y-69816975D01*
X157680147Y-69826450D01*
X157644800Y-69835218D01*
X157144062Y-70007428D01*
X156706209Y-70241570D01*
X156303431Y-70553782D01*
X156143818Y-70706245D01*
X155769778Y-71138275D01*
X155486801Y-71594992D01*
X155290240Y-72088038D01*
X155175445Y-72629056D01*
X155137772Y-73225600D01*
X155003200Y-73225600D01*
X155003200Y-72794675D01*
X154635715Y-73162159D01*
X154268231Y-73529643D01*
X154024557Y-73529643D01*
X154027146Y-73503978D01*
X154021066Y-73496533D01*
X153990866Y-73503506D01*
X153987200Y-73530400D01*
X153845922Y-73530400D01*
X153840783Y-73233922D01*
X153837130Y-72810192D01*
X153835354Y-72311722D01*
X153835327Y-72283513D01*
X153987200Y-72283513D01*
X153988828Y-72646998D01*
X153995023Y-72921112D01*
X154007752Y-73118052D01*
X154028981Y-73250015D01*
X154060676Y-73329196D01*
X154104803Y-73367792D01*
X154163329Y-73377999D01*
X154163651Y-73378000D01*
X154219633Y-73343838D01*
X154329051Y-73251337D01*
X154475002Y-73115472D01*
X154608017Y-72984300D01*
X154842975Y-72738469D01*
X155001481Y-72540880D01*
X155083923Y-72373311D01*
X155090692Y-72217538D01*
X155022178Y-72055339D01*
X154878771Y-71868489D01*
X154660861Y-71638767D01*
X154637323Y-71615080D01*
X154445721Y-71424291D01*
X154311279Y-71296960D01*
X154220376Y-71223659D01*
X154159391Y-71194960D01*
X154114701Y-71201434D01*
X154078523Y-71228299D01*
X154046540Y-71266195D01*
X154022953Y-71323263D01*
X154006515Y-71413942D01*
X153995975Y-71552670D01*
X153990083Y-71753885D01*
X153987591Y-72032026D01*
X153987200Y-72283513D01*
X153835327Y-72283513D01*
X153834794Y-71730322D01*
X153834791Y-71057798D01*
X153834791Y-71041200D01*
X153987200Y-71041200D01*
X154005786Y-71083014D01*
X154021066Y-71075066D01*
X154024566Y-71040358D01*
X154268005Y-71040358D01*
X154697981Y-71472579D01*
X154866569Y-71639937D01*
X155008725Y-71777089D01*
X155109601Y-71869983D01*
X155154347Y-71904566D01*
X155154478Y-71904570D01*
X155187485Y-71862288D01*
X155254315Y-71748922D01*
X155343574Y-71584372D01*
X155398953Y-71477589D01*
X155522097Y-71255175D01*
X155658602Y-71037664D01*
X155784347Y-70862767D01*
X155818053Y-70822324D01*
X155925358Y-70693496D01*
X155998333Y-70592640D01*
X156019200Y-70549214D01*
X155985339Y-70495361D01*
X155895110Y-70390595D01*
X155765544Y-70254257D01*
X155713742Y-70202349D01*
X155408285Y-69900079D01*
X154838145Y-70470218D01*
X154268005Y-71040358D01*
X154024566Y-71040358D01*
X154027146Y-71014778D01*
X154021066Y-71007333D01*
X153990866Y-71014306D01*
X153987200Y-71041200D01*
X153834791Y-71041200D01*
X153834800Y-70852726D01*
X153834800Y-69794313D01*
X153987200Y-69794313D01*
X153988846Y-70157991D01*
X153995077Y-70432275D01*
X154007834Y-70629336D01*
X154029056Y-70761348D01*
X154060682Y-70840480D01*
X154104654Y-70878906D01*
X154161630Y-70888800D01*
X154214152Y-70854634D01*
X154324092Y-70760481D01*
X154477693Y-70618853D01*
X154661195Y-70442265D01*
X154761106Y-70343530D01*
X155308071Y-69798261D01*
X155304191Y-69794369D01*
X155511698Y-69794369D01*
X155827481Y-70112984D01*
X155970317Y-70254967D01*
X156084409Y-70364374D01*
X156152439Y-70424778D01*
X156163326Y-70431600D01*
X156211532Y-70403944D01*
X156316808Y-70331997D01*
X156434726Y-70247100D01*
X156593764Y-70143954D01*
X156796891Y-70031152D01*
X157018699Y-69920618D01*
X157233777Y-69824275D01*
X157416715Y-69754046D01*
X157542104Y-69721852D01*
X157555900Y-69721020D01*
X157607510Y-69708635D01*
X180340626Y-69708635D01*
X180537013Y-69772298D01*
X180816239Y-69883313D01*
X181127960Y-70040177D01*
X181429397Y-70220505D01*
X181546037Y-70300287D01*
X181682971Y-70395915D01*
X181784373Y-70461867D01*
X181824162Y-70482400D01*
X181868321Y-70448947D01*
X181967110Y-70359048D01*
X182103608Y-70228386D01*
X182192892Y-70140597D01*
X182537334Y-69798794D01*
X182533419Y-69794866D01*
X182790800Y-69794866D01*
X182825125Y-69848298D01*
X182917633Y-69955611D01*
X183052620Y-70101005D01*
X183214383Y-70268681D01*
X183387217Y-70442840D01*
X183555419Y-70607681D01*
X183703286Y-70747406D01*
X183815115Y-70846215D01*
X183875202Y-70888309D01*
X183878092Y-70888800D01*
X183949244Y-70857820D01*
X184018699Y-70804726D01*
X184052082Y-70765668D01*
X184076431Y-70707927D01*
X184093142Y-70616500D01*
X184103609Y-70476387D01*
X184109224Y-70272583D01*
X184111381Y-69990088D01*
X184111600Y-69804700D01*
X184111003Y-69477612D01*
X184108081Y-69236414D01*
X184101135Y-69065401D01*
X184088468Y-68948865D01*
X184068380Y-68871100D01*
X184039174Y-68816398D01*
X183999686Y-68769621D01*
X183887773Y-68650495D01*
X183339286Y-69197281D01*
X183148937Y-69390213D01*
X182987271Y-69560123D01*
X182866815Y-69693364D01*
X182800098Y-69776285D01*
X182790800Y-69794866D01*
X182533419Y-69794866D01*
X181991833Y-69251597D01*
X181798981Y-69061451D01*
X181628965Y-68900017D01*
X181495502Y-68779844D01*
X181412311Y-68713482D01*
X181393713Y-68704400D01*
X181340574Y-68738622D01*
X181231038Y-68832537D01*
X181079556Y-68973020D01*
X180900581Y-69146943D01*
X180840860Y-69206517D01*
X180340626Y-69708635D01*
X157607510Y-69708635D01*
X157631389Y-69702905D01*
X157644800Y-69683254D01*
X157610349Y-69631621D01*
X157609728Y-69630918D01*
X158178200Y-69630918D01*
X158457600Y-69599900D01*
X158618920Y-69587777D01*
X158850658Y-69577795D01*
X159121638Y-69571001D01*
X159396278Y-69568441D01*
X160055556Y-69568000D01*
X159626000Y-69136200D01*
X159454862Y-68968379D01*
X159306790Y-68830997D01*
X159197666Y-68738267D01*
X159143462Y-68704400D01*
X159089660Y-68738759D01*
X158980701Y-68832633D01*
X158831759Y-68972214D01*
X158658008Y-69143694D01*
X158634340Y-69167659D01*
X158178200Y-69630918D01*
X157609728Y-69630918D01*
X157518103Y-69527348D01*
X157384719Y-69386925D01*
X157226855Y-69226842D01*
X157061169Y-69063591D01*
X156904319Y-68913663D01*
X156772963Y-68793548D01*
X156683759Y-68719739D01*
X156656032Y-68704400D01*
X156604053Y-68738554D01*
X156494596Y-68832677D01*
X156341381Y-68974257D01*
X156158129Y-69150782D01*
X156058379Y-69249384D01*
X155511698Y-69794369D01*
X155304191Y-69794369D01*
X154738868Y-69227439D01*
X154524328Y-69013554D01*
X154368792Y-68863479D01*
X154260266Y-68768347D01*
X154186757Y-68719292D01*
X154136271Y-68707446D01*
X154096815Y-68723944D01*
X154078433Y-68739182D01*
X154046478Y-68777080D01*
X154022913Y-68834218D01*
X154006490Y-68925029D01*
X153995960Y-69063949D01*
X153990076Y-69265412D01*
X153987588Y-69543853D01*
X153987200Y-69794313D01*
X153834800Y-69794313D01*
X153834800Y-68552000D01*
X153987200Y-68552000D01*
X154005786Y-68593814D01*
X154021066Y-68585866D01*
X154024540Y-68551414D01*
X154267749Y-68551414D01*
X154825108Y-69110507D01*
X155018026Y-69302365D01*
X155185552Y-69465829D01*
X155314808Y-69588581D01*
X155392918Y-69658306D01*
X155409600Y-69669600D01*
X155452937Y-69635484D01*
X155554705Y-69541367D01*
X155702002Y-69399589D01*
X155881921Y-69222491D01*
X155991948Y-69112656D01*
X156547165Y-68555713D01*
X156542908Y-68551414D01*
X156756949Y-68551414D01*
X157311353Y-69107543D01*
X157536106Y-69329250D01*
X157702301Y-69483461D01*
X157819600Y-69577969D01*
X157897665Y-69620567D01*
X157945778Y-69619262D01*
X158009340Y-69568311D01*
X158128464Y-69459190D01*
X158287769Y-69306457D01*
X158471874Y-69124673D01*
X158531040Y-69065240D01*
X159016416Y-68575662D01*
X159219680Y-68575662D01*
X159713986Y-69071831D01*
X159937584Y-69290488D01*
X160105475Y-69440226D01*
X160228030Y-69529304D01*
X160315623Y-69565980D01*
X160337200Y-69568000D01*
X160669643Y-69568000D01*
X162493956Y-69568000D01*
X162064400Y-69136200D01*
X161893256Y-68968378D01*
X161745170Y-68830996D01*
X161636025Y-68738265D01*
X161581800Y-68704400D01*
X161527221Y-68738540D01*
X161417881Y-68831486D01*
X161269666Y-68969025D01*
X161099200Y-69136200D01*
X160669643Y-69568000D01*
X160337200Y-69568000D01*
X160415090Y-69546145D01*
X160524542Y-69475098D01*
X160675833Y-69346636D01*
X160879244Y-69152535D01*
X160972243Y-69059956D01*
X161474678Y-68555627D01*
X161688919Y-68555627D01*
X162193206Y-69061813D01*
X162418736Y-69282593D01*
X162588292Y-69434588D01*
X162712168Y-69526028D01*
X162800659Y-69565142D01*
X162826400Y-69568000D01*
X163158718Y-69568000D01*
X164983281Y-69568000D01*
X164528200Y-69110800D01*
X164356855Y-68938814D01*
X164214649Y-68796376D01*
X164115121Y-68697024D01*
X164071806Y-68654293D01*
X164071000Y-68653600D01*
X164036592Y-68687366D01*
X163944085Y-68779641D01*
X163807014Y-68916887D01*
X163638918Y-69085567D01*
X163613800Y-69110800D01*
X163158718Y-69568000D01*
X162826400Y-69568000D01*
X162904266Y-69546152D01*
X163013688Y-69475130D01*
X163164943Y-69346708D01*
X163368308Y-69152664D01*
X163461734Y-69059663D01*
X163968149Y-68551341D01*
X164173849Y-68551341D01*
X164680271Y-69059670D01*
X164906214Y-69280903D01*
X165076127Y-69433378D01*
X165200289Y-69525318D01*
X165288976Y-69564946D01*
X165315600Y-69568000D01*
X165648043Y-69568000D01*
X167472356Y-69568000D01*
X167042800Y-69136200D01*
X166871656Y-68968378D01*
X166723570Y-68830996D01*
X166614425Y-68738265D01*
X166560200Y-68704400D01*
X166505621Y-68738540D01*
X166396281Y-68831486D01*
X166248066Y-68969025D01*
X166077600Y-69136200D01*
X165648043Y-69568000D01*
X165315600Y-69568000D01*
X165393915Y-69546010D01*
X165503876Y-69474551D01*
X165655802Y-69345382D01*
X165860012Y-69150266D01*
X165945591Y-69065027D01*
X166446676Y-68562054D01*
X166440066Y-68554987D01*
X166666682Y-68554987D01*
X167171288Y-69061493D01*
X167396879Y-69282341D01*
X167566488Y-69434408D01*
X167690407Y-69525922D01*
X167778927Y-69565113D01*
X167804800Y-69568000D01*
X168137243Y-69568000D01*
X169961556Y-69568000D01*
X169532000Y-69136200D01*
X169360856Y-68968378D01*
X169212770Y-68830996D01*
X169103625Y-68738265D01*
X169049400Y-68704400D01*
X168994821Y-68738540D01*
X168885481Y-68831486D01*
X168737266Y-68969025D01*
X168566800Y-69136200D01*
X168137243Y-69568000D01*
X167804800Y-69568000D01*
X167883179Y-69545990D01*
X167993218Y-69474468D01*
X168145239Y-69345192D01*
X168349569Y-69149923D01*
X168434037Y-69065784D01*
X168922319Y-68575662D01*
X169125680Y-68575662D01*
X169619986Y-69071831D01*
X169843584Y-69290488D01*
X170011475Y-69440226D01*
X170134030Y-69529304D01*
X170221623Y-69565980D01*
X170243200Y-69568000D01*
X170575643Y-69568000D01*
X172399956Y-69568000D01*
X171970400Y-69136200D01*
X171799256Y-68968378D01*
X171651170Y-68830996D01*
X171542025Y-68738265D01*
X171487800Y-68704400D01*
X171433221Y-68738540D01*
X171323881Y-68831486D01*
X171175666Y-68969025D01*
X171005200Y-69136200D01*
X170575643Y-69568000D01*
X170243200Y-69568000D01*
X170321090Y-69546145D01*
X170430542Y-69475098D01*
X170581833Y-69346636D01*
X170785244Y-69152535D01*
X170878243Y-69059956D01*
X171380678Y-68555627D01*
X171594919Y-68555627D01*
X172099206Y-69061813D01*
X172324736Y-69282593D01*
X172494292Y-69434588D01*
X172618168Y-69526028D01*
X172706659Y-69565142D01*
X172732400Y-69568000D01*
X173064718Y-69568000D01*
X174889281Y-69568000D01*
X174434200Y-69110800D01*
X174262855Y-68938814D01*
X174120649Y-68796376D01*
X174021121Y-68697024D01*
X173977806Y-68654293D01*
X173977000Y-68653600D01*
X173942592Y-68687366D01*
X173850085Y-68779641D01*
X173713014Y-68916887D01*
X173544918Y-69085567D01*
X173519800Y-69110800D01*
X173064718Y-69568000D01*
X172732400Y-69568000D01*
X172810266Y-69546152D01*
X172919688Y-69475130D01*
X173070943Y-69346708D01*
X173274308Y-69152664D01*
X173367734Y-69059663D01*
X173874163Y-68551327D01*
X174079836Y-68551327D01*
X174586265Y-69059663D01*
X174812209Y-69280897D01*
X174982123Y-69433374D01*
X175106286Y-69525316D01*
X175194974Y-69564946D01*
X175221600Y-69568000D01*
X175553918Y-69568000D01*
X177378481Y-69568000D01*
X176923400Y-69110800D01*
X176752055Y-68938814D01*
X176609849Y-68796376D01*
X176510321Y-68697024D01*
X176467006Y-68654293D01*
X176466200Y-68653600D01*
X176431792Y-68687366D01*
X176339285Y-68779641D01*
X176202214Y-68916887D01*
X176034118Y-69085567D01*
X176009000Y-69110800D01*
X175553918Y-69568000D01*
X175221600Y-69568000D01*
X175299466Y-69546152D01*
X175408888Y-69475130D01*
X175560143Y-69346708D01*
X175763508Y-69152664D01*
X175856934Y-69059663D01*
X176363363Y-68551327D01*
X176569036Y-68551327D01*
X177075465Y-69059663D01*
X177301409Y-69280897D01*
X177471323Y-69433374D01*
X177595486Y-69525316D01*
X177684174Y-69564946D01*
X177710800Y-69568000D01*
X177721806Y-69564911D01*
X178046315Y-69564911D01*
X178729457Y-69580762D01*
X179008955Y-69587643D01*
X179275942Y-69594920D01*
X179501521Y-69601759D01*
X179656795Y-69607330D01*
X179665540Y-69607706D01*
X179918481Y-69618800D01*
X179463400Y-69161600D01*
X179287268Y-68988626D01*
X179134143Y-68845653D01*
X179019349Y-68746470D01*
X178958211Y-68704869D01*
X178955337Y-68704400D01*
X178900751Y-68738537D01*
X178791441Y-68831456D01*
X178643324Y-68968918D01*
X178474336Y-69134655D01*
X178046315Y-69564911D01*
X177721806Y-69564911D01*
X177788845Y-69546096D01*
X177898482Y-69474899D01*
X178050004Y-69346181D01*
X178253705Y-69151710D01*
X178343993Y-69061813D01*
X178848280Y-68555627D01*
X178842410Y-68549699D01*
X179059864Y-68549699D01*
X179591832Y-69102650D01*
X179778597Y-69295507D01*
X179940243Y-69460015D01*
X180063909Y-69583274D01*
X180136734Y-69652382D01*
X180150066Y-69662600D01*
X180193035Y-69630935D01*
X180294423Y-69538979D01*
X180441398Y-69398868D01*
X180621129Y-69222740D01*
X180733400Y-69110800D01*
X181285851Y-68556630D01*
X181501749Y-68556630D01*
X182056508Y-69113115D01*
X182248961Y-69304498D01*
X182416005Y-69467459D01*
X182544728Y-69589649D01*
X182622220Y-69658722D01*
X182638400Y-69669600D01*
X182681725Y-69635482D01*
X182783507Y-69541342D01*
X182930865Y-69399502D01*
X183110917Y-69222281D01*
X183222579Y-69110820D01*
X183765581Y-68566128D01*
X184023317Y-68566128D01*
X184032664Y-68598373D01*
X184082913Y-68650512D01*
X184108275Y-68604187D01*
X184111600Y-68541840D01*
X184099154Y-68468140D01*
X184056245Y-68485442D01*
X184055066Y-68486613D01*
X184023317Y-68566128D01*
X183765581Y-68566128D01*
X183779625Y-68552041D01*
X183248020Y-68018620D01*
X183055362Y-67830499D01*
X182882626Y-67671467D01*
X182746199Y-67555774D01*
X183057613Y-67555774D01*
X183072091Y-67599941D01*
X183144911Y-67692229D01*
X183281949Y-67840411D01*
X183423670Y-67986070D01*
X183878741Y-68448249D01*
X183995170Y-68338869D01*
X184073547Y-68235526D01*
X184107289Y-68096275D01*
X184111600Y-67985312D01*
X184111684Y-67874031D01*
X184100535Y-67798758D01*
X184061044Y-67748780D01*
X183976105Y-67713384D01*
X183828611Y-67681857D01*
X183601456Y-67643486D01*
X183552800Y-67635362D01*
X183359724Y-67601974D01*
X183190255Y-67570908D01*
X183095600Y-67551949D01*
X183057613Y-67555774D01*
X182746199Y-67555774D01*
X182744525Y-67554355D01*
X182655774Y-67491991D01*
X182636254Y-67485200D01*
X182573849Y-67519861D01*
X182456085Y-67615233D01*
X182297610Y-67758393D01*
X182113071Y-67936420D01*
X182028921Y-68020915D01*
X181501749Y-68556630D01*
X181285851Y-68556630D01*
X181290467Y-68552000D01*
X180175749Y-67433814D01*
X179617807Y-67991757D01*
X179059864Y-68549699D01*
X178842410Y-68549699D01*
X178280558Y-67982313D01*
X177712837Y-67409000D01*
X177140936Y-67980163D01*
X176569036Y-68551327D01*
X176363363Y-68551327D01*
X175792481Y-67980446D01*
X175221600Y-67409564D01*
X174650718Y-67980446D01*
X174079836Y-68551327D01*
X173874163Y-68551327D01*
X173302263Y-67980163D01*
X172730362Y-67409000D01*
X172162641Y-67982313D01*
X171594919Y-68555627D01*
X171380678Y-68555627D01*
X171384380Y-68551912D01*
X170827320Y-67993120D01*
X170270261Y-67434328D01*
X169697970Y-68004995D01*
X169125680Y-68575662D01*
X168922319Y-68575662D01*
X168934368Y-68563568D01*
X168763284Y-68379041D01*
X168592200Y-68194513D01*
X168211200Y-68276477D01*
X167778178Y-68334738D01*
X167362401Y-68335409D01*
X167139851Y-68326193D01*
X166994305Y-68327797D01*
X166901389Y-68344337D01*
X166836727Y-68379931D01*
X166780643Y-68433682D01*
X166666682Y-68554987D01*
X166440066Y-68554987D01*
X166204691Y-68303353D01*
X166045015Y-68143574D01*
X166000440Y-68102332D01*
X166217370Y-68102332D01*
X166385459Y-68275756D01*
X166489721Y-68377889D01*
X166554635Y-68414763D01*
X166609545Y-68395978D01*
X166649671Y-68362189D01*
X166708990Y-68292187D01*
X166684833Y-68256792D01*
X166678397Y-68254646D01*
X166589045Y-68226025D01*
X166451599Y-68180703D01*
X166414185Y-68168213D01*
X166388326Y-68159557D01*
X168713563Y-68159557D01*
X168852885Y-68304978D01*
X168948055Y-68397280D01*
X169012843Y-68447398D01*
X169021670Y-68450400D01*
X169065824Y-68416269D01*
X169168318Y-68322109D01*
X169316188Y-68180268D01*
X169496472Y-68003094D01*
X169606519Y-67893286D01*
X169795490Y-67700828D01*
X169953774Y-67534053D01*
X170069691Y-67405721D01*
X170128658Y-67332214D01*
X170371349Y-67332214D01*
X170928744Y-67891343D01*
X171486138Y-68450471D01*
X172058742Y-67879491D01*
X172631347Y-67308511D01*
X172630273Y-67307437D01*
X172884800Y-67307437D01*
X172918942Y-67358747D01*
X173013035Y-67467618D01*
X173154578Y-67620385D01*
X173331070Y-67803383D01*
X173430069Y-67903506D01*
X173975338Y-68450471D01*
X174547668Y-67879764D01*
X175119999Y-67309058D01*
X175116690Y-67305738D01*
X175323128Y-67305738D01*
X175893835Y-67878068D01*
X176464541Y-68450399D01*
X177011470Y-67905165D01*
X177201534Y-67712509D01*
X177362896Y-67542878D01*
X177483010Y-67409946D01*
X177549331Y-67327383D01*
X177558400Y-67309133D01*
X177556211Y-67305697D01*
X177812287Y-67305697D01*
X178383287Y-67878322D01*
X178954288Y-68450947D01*
X179513048Y-67892186D01*
X180070890Y-67334344D01*
X180279472Y-67334344D01*
X181392066Y-68450398D01*
X182430272Y-67415726D01*
X181861236Y-67250849D01*
X181609480Y-67176556D01*
X181370258Y-67103595D01*
X181174132Y-67041416D01*
X181069913Y-67006186D01*
X180881214Y-66946902D01*
X180748329Y-66938281D01*
X180635050Y-66987929D01*
X180505164Y-67103449D01*
X180478645Y-67130372D01*
X180279472Y-67334344D01*
X180070890Y-67334344D01*
X180071809Y-67333426D01*
X179539912Y-66799713D01*
X179347530Y-66611609D01*
X179193490Y-66469200D01*
X179461621Y-66469200D01*
X179474972Y-66502233D01*
X179547947Y-66591306D01*
X179667577Y-66721376D01*
X179768200Y-66824800D01*
X179923707Y-66976210D01*
X180056275Y-67095544D01*
X180147815Y-67167028D01*
X180175972Y-67180400D01*
X180241525Y-67146571D01*
X180344099Y-67060997D01*
X180395659Y-67010380D01*
X180560449Y-66840360D01*
X180034183Y-66654780D01*
X179816858Y-66579553D01*
X179634239Y-66518973D01*
X179507942Y-66480047D01*
X179461621Y-66469200D01*
X179193490Y-66469200D01*
X179175493Y-66452562D01*
X179038395Y-66335382D01*
X178950833Y-66272879D01*
X178931775Y-66266000D01*
X178870197Y-66300295D01*
X178752710Y-66394566D01*
X178594173Y-66535893D01*
X178409446Y-66711353D01*
X178333910Y-66785848D01*
X177812287Y-67305697D01*
X177556211Y-67305697D01*
X177523985Y-67255118D01*
X177431233Y-67147388D01*
X177295885Y-67001734D01*
X177133680Y-66833945D01*
X176960358Y-66659811D01*
X176791659Y-66495123D01*
X176643323Y-66355670D01*
X176531089Y-66257243D01*
X176470698Y-66215630D01*
X176467937Y-66215200D01*
X176415996Y-66249354D01*
X176306568Y-66343478D01*
X176153366Y-66485066D01*
X175970106Y-66661608D01*
X175870093Y-66760469D01*
X175323128Y-67305738D01*
X175116690Y-67305738D01*
X174574765Y-66762129D01*
X174381965Y-66572033D01*
X174212005Y-66410652D01*
X174078607Y-66290537D01*
X173995492Y-66224243D01*
X173976958Y-66215200D01*
X173923026Y-66249674D01*
X173815461Y-66342585D01*
X173670032Y-66478165D01*
X173502503Y-66640646D01*
X173328644Y-66814260D01*
X173164219Y-66983239D01*
X173024997Y-67131815D01*
X172926744Y-67244220D01*
X172885226Y-67304686D01*
X172884800Y-67307437D01*
X172630273Y-67307437D01*
X172072273Y-66749438D01*
X171513200Y-66190364D01*
X170942274Y-66761289D01*
X170371349Y-67332214D01*
X170128658Y-67332214D01*
X170131562Y-67328594D01*
X170138149Y-67312415D01*
X170090285Y-67330446D01*
X169983614Y-67399209D01*
X169838210Y-67505400D01*
X169785096Y-67546430D01*
X169565008Y-67702841D01*
X169309817Y-67861085D01*
X169084681Y-67981878D01*
X168713563Y-68159557D01*
X166388326Y-68159557D01*
X166217370Y-68102332D01*
X166000440Y-68102332D01*
X165844220Y-67957794D01*
X165641572Y-67782149D01*
X165610100Y-67756173D01*
X165257494Y-67467695D01*
X164715672Y-68009518D01*
X164173849Y-68551341D01*
X163968149Y-68551341D01*
X163968163Y-68551327D01*
X163396263Y-67980163D01*
X162824362Y-67409000D01*
X162256641Y-67982313D01*
X161688919Y-68555627D01*
X161474678Y-68555627D01*
X161478380Y-68551912D01*
X160921320Y-67993120D01*
X160364261Y-67434328D01*
X159791970Y-68004995D01*
X159219680Y-68575662D01*
X159016416Y-68575662D01*
X159036280Y-68555627D01*
X158468558Y-67982313D01*
X157900837Y-67409000D01*
X156756949Y-68551414D01*
X156542908Y-68551414D01*
X155979401Y-67982356D01*
X155411637Y-67409000D01*
X154267749Y-68551414D01*
X154024540Y-68551414D01*
X154027146Y-68525578D01*
X154021066Y-68518133D01*
X153990866Y-68525106D01*
X153987200Y-68552000D01*
X153834800Y-68552000D01*
X153834800Y-67601727D01*
X153987200Y-67601727D01*
X153987200Y-67933163D01*
X153998093Y-68155315D01*
X154033420Y-68297990D01*
X154071273Y-68357499D01*
X154137060Y-68427957D01*
X154161126Y-68450400D01*
X154196808Y-68416347D01*
X154290931Y-68322767D01*
X154430652Y-68182524D01*
X154603124Y-68008482D01*
X154673953Y-67936794D01*
X154844127Y-67760598D01*
X154973747Y-67618782D01*
X155053656Y-67522035D01*
X155074698Y-67481044D01*
X155061896Y-67483952D01*
X154959420Y-67513830D01*
X154785553Y-67542574D01*
X154570445Y-67565675D01*
X154464996Y-67573221D01*
X153987200Y-67601727D01*
X153834800Y-67601727D01*
X153834800Y-67434400D01*
X154177700Y-67433158D01*
X154521400Y-67414620D01*
X154799918Y-67363902D01*
X154974869Y-67295707D01*
X155562581Y-67295707D01*
X155590576Y-67354427D01*
X155660580Y-67443013D01*
X155781249Y-67573238D01*
X155961242Y-67756878D01*
X156079757Y-67875985D01*
X156652541Y-68450399D01*
X157199470Y-67905165D01*
X157389531Y-67712525D01*
X157550890Y-67542930D01*
X157671005Y-67410048D01*
X157733540Y-67332258D01*
X157976192Y-67332258D01*
X158533530Y-67891329D01*
X158726444Y-68083182D01*
X158893966Y-68246642D01*
X159023218Y-68369390D01*
X159101322Y-68439109D01*
X159118000Y-68450400D01*
X159161325Y-68416282D01*
X159263107Y-68322142D01*
X159410464Y-68180303D01*
X159590515Y-68003084D01*
X159702156Y-67891643D01*
X160259180Y-67332887D01*
X160466019Y-67332887D01*
X161023079Y-67891679D01*
X161580138Y-68450471D01*
X162152429Y-67879804D01*
X162724719Y-67309137D01*
X162720805Y-67305208D01*
X162978800Y-67305208D01*
X163012957Y-67357311D01*
X163107089Y-67466882D01*
X163248686Y-67620193D01*
X163425239Y-67803518D01*
X163524033Y-67903469D01*
X164069266Y-68450398D01*
X164590833Y-67930607D01*
X164775834Y-67744230D01*
X164931961Y-67583122D01*
X165046436Y-67460768D01*
X165106481Y-67390654D01*
X165112400Y-67380147D01*
X165074341Y-67338553D01*
X164971980Y-67251645D01*
X164823038Y-67134063D01*
X164718700Y-67054890D01*
X164407351Y-66838775D01*
X164133433Y-66682647D01*
X163907975Y-66592170D01*
X163775963Y-66570800D01*
X163699635Y-66604641D01*
X163576445Y-66693492D01*
X163427030Y-66818338D01*
X163272027Y-66960167D01*
X163132074Y-67099968D01*
X163027808Y-67218727D01*
X162979865Y-67297431D01*
X162978800Y-67305208D01*
X162720805Y-67305208D01*
X162230413Y-66812968D01*
X162006815Y-66594311D01*
X161838924Y-66444573D01*
X161716369Y-66355495D01*
X161628776Y-66318819D01*
X161607200Y-66316800D01*
X161529309Y-66338654D01*
X161419857Y-66409701D01*
X161268566Y-66538163D01*
X161065155Y-66732264D01*
X160972156Y-66824843D01*
X160466019Y-67332887D01*
X160259180Y-67332887D01*
X159752090Y-66823696D01*
X159530538Y-66603629D01*
X159358898Y-66451377D01*
X159218363Y-66367387D01*
X159090124Y-66352107D01*
X158955376Y-66405986D01*
X158795310Y-66529471D01*
X158591119Y-66723010D01*
X158458196Y-66854519D01*
X157976192Y-67332258D01*
X157733540Y-67332258D01*
X157737328Y-67327546D01*
X157746400Y-67309327D01*
X157711905Y-67252566D01*
X157620211Y-67144836D01*
X157489004Y-67003831D01*
X157335966Y-66847242D01*
X157178784Y-66692762D01*
X157035142Y-66558082D01*
X156922725Y-66460895D01*
X156859217Y-66418892D01*
X156855843Y-66418400D01*
X156795920Y-66444812D01*
X156670935Y-66515918D01*
X156500007Y-66619523D01*
X156302254Y-66743432D01*
X156096794Y-66875449D01*
X155902744Y-67003380D01*
X155739224Y-67115030D01*
X155625351Y-67198203D01*
X155597986Y-67220766D01*
X155567937Y-67255078D01*
X155562581Y-67295707D01*
X154974869Y-67295707D01*
X155004159Y-67284290D01*
X155125033Y-67179073D01*
X155155600Y-67079636D01*
X155118281Y-66958245D01*
X155011509Y-66781384D01*
X154843060Y-66559597D01*
X154620711Y-66303427D01*
X154448848Y-66121298D01*
X154291916Y-65957877D01*
X154167883Y-65824866D01*
X154089854Y-65736591D01*
X154070059Y-65707200D01*
X154187349Y-65747345D01*
X154359716Y-65864939D01*
X154581859Y-66055716D01*
X154848476Y-66315414D01*
X154927276Y-66396666D01*
X155113902Y-66585712D01*
X155281094Y-66744959D01*
X155414177Y-66861175D01*
X155498477Y-66921124D01*
X155514684Y-66926400D01*
X155605023Y-66899082D01*
X155751909Y-66827414D01*
X155929734Y-66726820D01*
X156112889Y-66612723D01*
X156275766Y-66500549D01*
X156392757Y-66405723D01*
X156393962Y-66404505D01*
X157086000Y-66404505D01*
X157119596Y-66453472D01*
X157208019Y-66553717D01*
X157332719Y-66686390D01*
X157475148Y-66832639D01*
X157616757Y-66973613D01*
X157738996Y-67090462D01*
X157823316Y-67164334D01*
X157849463Y-67180400D01*
X157899113Y-67146878D01*
X157990206Y-67062273D01*
X158036184Y-67015300D01*
X158173343Y-66858174D01*
X158294164Y-66696497D01*
X158384299Y-66552319D01*
X158429404Y-66447689D01*
X158428478Y-66412377D01*
X158371543Y-66395944D01*
X158238458Y-66383194D01*
X158052003Y-66374259D01*
X157834954Y-66369274D01*
X157610093Y-66368371D01*
X157400197Y-66371685D01*
X157228046Y-66379349D01*
X157116418Y-66391497D01*
X157086000Y-66404505D01*
X156393962Y-66404505D01*
X156412900Y-66385376D01*
X156432809Y-66349619D01*
X159527108Y-66349619D01*
X159549828Y-66392100D01*
X159630005Y-66486357D01*
X159750442Y-66615243D01*
X159893944Y-66761614D01*
X160043317Y-66908326D01*
X160181364Y-67038235D01*
X160290891Y-67134196D01*
X160354703Y-67179065D01*
X160360347Y-67180400D01*
X160414496Y-67146472D01*
X160523536Y-67054245D01*
X160671316Y-66918049D01*
X160831438Y-66762421D01*
X160996667Y-66594434D01*
X161131331Y-66450638D01*
X161221062Y-66346852D01*
X161247348Y-66306361D01*
X161937400Y-66306361D01*
X162368078Y-66743380D01*
X162536577Y-66912144D01*
X162678996Y-67050624D01*
X162780551Y-67144732D01*
X162826454Y-67180379D01*
X162826745Y-67180400D01*
X162872474Y-67146681D01*
X162971558Y-67056344D01*
X163106528Y-66925621D01*
X163180623Y-66851589D01*
X163320993Y-66705591D01*
X163425793Y-66588141D01*
X163480279Y-66516204D01*
X163483955Y-66502517D01*
X163423561Y-66485656D01*
X163283426Y-66461130D01*
X163084854Y-66431860D01*
X162849152Y-66400767D01*
X162597625Y-66370773D01*
X162351578Y-66344798D01*
X162293000Y-66339236D01*
X161937400Y-66306361D01*
X161247348Y-66306361D01*
X161251600Y-66299813D01*
X161204222Y-66289583D01*
X161075480Y-66284293D01*
X160885457Y-66283361D01*
X160654239Y-66286209D01*
X160401912Y-66292256D01*
X160148559Y-66300921D01*
X159914266Y-66311625D01*
X159719118Y-66323788D01*
X159583200Y-66336830D01*
X159527108Y-66349619D01*
X156432809Y-66349619D01*
X156505210Y-66219588D01*
X156510232Y-66017791D01*
X156427127Y-65778059D01*
X156255054Y-65498468D01*
X155993172Y-65177094D01*
X155791454Y-64962257D01*
X155621092Y-64786659D01*
X155482226Y-64640453D01*
X155387303Y-64536980D01*
X155348768Y-64489580D01*
X155349010Y-64488000D01*
X155400218Y-64512456D01*
X155512948Y-64576455D01*
X155656954Y-64662608D01*
X155999933Y-64918327D01*
X156342626Y-65263727D01*
X156615113Y-65605600D01*
X156770906Y-65810656D01*
X156899132Y-65947445D01*
X157026226Y-66033762D01*
X157178621Y-66087400D01*
X157382754Y-66126153D01*
X157390157Y-66127303D01*
X157550980Y-66141701D01*
X157787537Y-66149098D01*
X158082216Y-66150173D01*
X158417408Y-66145602D01*
X158775501Y-66136063D01*
X159138885Y-66122232D01*
X159489950Y-66104787D01*
X159811085Y-66084406D01*
X160084679Y-66061764D01*
X160293121Y-66037540D01*
X160418802Y-66012411D01*
X160424024Y-66010643D01*
X160569245Y-65922156D01*
X160621727Y-65793392D01*
X160581702Y-65625057D01*
X160449399Y-65417853D01*
X160225048Y-65172486D01*
X160116534Y-65070139D01*
X159968758Y-64930786D01*
X159861490Y-64820821D01*
X159808276Y-64754676D01*
X159808554Y-64742000D01*
X159903370Y-64774427D01*
X160046357Y-64859812D01*
X160212818Y-64980305D01*
X160378059Y-65118058D01*
X160515000Y-65252586D01*
X160752526Y-65511716D01*
X160936586Y-65704355D01*
X161079982Y-65841026D01*
X161195516Y-65932250D01*
X161295992Y-65988548D01*
X161394212Y-66020443D01*
X161465092Y-66033393D01*
X161684769Y-66043989D01*
X161963807Y-66027077D01*
X162265252Y-65987501D01*
X162552152Y-65930103D01*
X162786299Y-65860208D01*
X163060330Y-65740528D01*
X163310292Y-65594585D01*
X163545056Y-65412559D01*
X163773493Y-65184632D01*
X164004474Y-64900985D01*
X164246870Y-64551799D01*
X164302151Y-64462454D01*
X164909200Y-64462454D01*
X164948725Y-64495763D01*
X165051208Y-64564928D01*
X165163200Y-64635573D01*
X165417200Y-64791860D01*
X165417018Y-65681800D01*
X165175809Y-65830712D01*
X165040214Y-65914823D01*
X164944362Y-65975030D01*
X164915258Y-65993987D01*
X164922303Y-66044576D01*
X164960392Y-66160926D01*
X165006973Y-66281971D01*
X165118028Y-66555594D01*
X165446533Y-66476994D01*
X165775037Y-66398394D01*
X166072748Y-66692999D01*
X166370459Y-66987603D01*
X166300832Y-67249101D01*
X166251473Y-67451775D01*
X166238765Y-67581726D01*
X166268423Y-67663006D01*
X166346163Y-67719666D01*
X166420500Y-67752769D01*
X166599469Y-67816215D01*
X166721260Y-67820641D01*
X166817843Y-67755761D01*
X166921188Y-67611290D01*
X166936373Y-67586800D01*
X167092660Y-67332800D01*
X167948485Y-67332800D01*
X168104773Y-67586800D01*
X168194601Y-67722996D01*
X168267000Y-67815283D01*
X168299630Y-67841051D01*
X168392841Y-67822806D01*
X168524481Y-67776869D01*
X168661429Y-67717664D01*
X168770563Y-67659616D01*
X168818759Y-67617152D01*
X168818990Y-67614864D01*
X168806867Y-67539168D01*
X168777449Y-67399464D01*
X168748615Y-67274645D01*
X168726029Y-67180183D01*
X170280805Y-67180183D01*
X170281659Y-67180400D01*
X170329657Y-67146238D01*
X170435134Y-67052235D01*
X170584458Y-66911115D01*
X170763997Y-66735601D01*
X170848210Y-66651605D01*
X171069209Y-66424987D01*
X171220939Y-66257032D01*
X171310289Y-66139153D01*
X171333628Y-66086503D01*
X171614763Y-66086503D01*
X172160015Y-66633451D01*
X172350758Y-66823092D01*
X172516028Y-66984198D01*
X172642789Y-67104315D01*
X172718005Y-67170987D01*
X172732400Y-67180400D01*
X172775725Y-67146282D01*
X172877507Y-67052142D01*
X173024865Y-66910302D01*
X173204917Y-66733081D01*
X173316579Y-66621620D01*
X173873529Y-66062937D01*
X174080469Y-66062937D01*
X174637468Y-66621668D01*
X174830322Y-66813460D01*
X174997781Y-66976854D01*
X175126964Y-67099529D01*
X175204988Y-67169164D01*
X175221600Y-67180400D01*
X175264926Y-67146282D01*
X175366707Y-67052144D01*
X175514060Y-66910308D01*
X175694102Y-66733098D01*
X175805637Y-66621763D01*
X176361599Y-66064070D01*
X176570799Y-66064070D01*
X177127233Y-66622235D01*
X177319993Y-66813925D01*
X177487363Y-66977211D01*
X177616452Y-67099764D01*
X177694368Y-67169256D01*
X177710886Y-67180400D01*
X177754630Y-67146365D01*
X177855949Y-67052951D01*
X178001149Y-66913191D01*
X178176537Y-66740116D01*
X178237065Y-66679561D01*
X178736025Y-66178722D01*
X177991309Y-65917649D01*
X177668283Y-65803927D01*
X177426609Y-65720603D01*
X177251040Y-65666591D01*
X177126331Y-65640803D01*
X177037235Y-65642152D01*
X176968507Y-65669552D01*
X176904898Y-65721915D01*
X176831164Y-65798155D01*
X176797899Y-65832569D01*
X176570799Y-66064070D01*
X176361599Y-66064070D01*
X176362541Y-66063126D01*
X175957170Y-65652871D01*
X175708716Y-65406783D01*
X175511712Y-65234575D01*
X175455100Y-65200086D01*
X175707623Y-65200086D01*
X176085211Y-65580211D01*
X176462800Y-65960337D01*
X176655000Y-65772658D01*
X176763006Y-65661197D01*
X176832732Y-65577729D01*
X176847200Y-65550520D01*
X176802909Y-65518274D01*
X176691254Y-65477287D01*
X176631300Y-65460497D01*
X176468281Y-65416896D01*
X176256301Y-65358045D01*
X176061511Y-65302509D01*
X175707623Y-65200086D01*
X175455100Y-65200086D01*
X175348832Y-65135347D01*
X175202748Y-65108197D01*
X175056135Y-65152224D01*
X174891665Y-65266527D01*
X174692012Y-65450205D01*
X174561131Y-65580268D01*
X174080469Y-66062937D01*
X173873529Y-66062937D01*
X173873625Y-66062841D01*
X173342020Y-65529420D01*
X173151805Y-65341834D01*
X172984642Y-65183121D01*
X172854412Y-65065996D01*
X172774996Y-65003169D01*
X172759537Y-64996000D01*
X172707595Y-65030154D01*
X172598167Y-65124278D01*
X172444967Y-65265865D01*
X172261708Y-65442406D01*
X172161711Y-65541251D01*
X171614763Y-66086503D01*
X171333628Y-66086503D01*
X171344151Y-66062765D01*
X171342001Y-66036284D01*
X171301076Y-65978989D01*
X171235163Y-66010877D01*
X171232963Y-66012693D01*
X171165660Y-66080188D01*
X171058007Y-66200956D01*
X170923172Y-66358832D01*
X170774326Y-66537653D01*
X170624635Y-66721255D01*
X170487269Y-66893473D01*
X170375397Y-67038143D01*
X170302186Y-67139101D01*
X170280805Y-67180183D01*
X168726029Y-67180183D01*
X168680049Y-66987891D01*
X168971241Y-66699738D01*
X169262433Y-66411584D01*
X169580636Y-66494039D01*
X169744856Y-66534000D01*
X169863521Y-66557969D01*
X169909529Y-66560947D01*
X169933823Y-66509512D01*
X169984982Y-66393670D01*
X170029191Y-66291400D01*
X170089254Y-66142133D01*
X170107742Y-66057033D01*
X170087245Y-66008768D01*
X170058071Y-65986600D01*
X169969305Y-65926796D01*
X171439746Y-65926796D01*
X171494960Y-65960895D01*
X171504689Y-65961200D01*
X171552929Y-65927243D01*
X171656278Y-65835091D01*
X171798942Y-65699320D01*
X171945000Y-65554800D01*
X172133832Y-65359360D01*
X172246021Y-65229703D01*
X172281760Y-65165138D01*
X172241241Y-65164974D01*
X172124660Y-65228523D01*
X172017209Y-65297660D01*
X171820693Y-65442199D01*
X171654855Y-65590113D01*
X171529528Y-65728673D01*
X171454547Y-65845144D01*
X171439746Y-65926796D01*
X169969305Y-65926796D01*
X169818742Y-65825358D01*
X169668721Y-65701164D01*
X169604161Y-65610510D01*
X169604042Y-65572715D01*
X169619101Y-65484726D01*
X169629747Y-65329445D01*
X169633600Y-65148602D01*
X169633600Y-64975748D01*
X173037200Y-64975748D01*
X173071173Y-65026167D01*
X173164108Y-65133036D01*
X173302529Y-65281563D01*
X173472957Y-65456959D01*
X173506095Y-65490344D01*
X173974991Y-65961198D01*
X174419878Y-65518372D01*
X174605481Y-65330937D01*
X174725875Y-65200755D01*
X174789954Y-65115571D01*
X174806611Y-65063130D01*
X174784738Y-65031176D01*
X174776903Y-65026378D01*
X174699028Y-65007926D01*
X174546637Y-64990976D01*
X174339682Y-64976110D01*
X174098111Y-64963909D01*
X173841873Y-64954951D01*
X173590918Y-64949819D01*
X173365195Y-64949092D01*
X173184654Y-64953352D01*
X173069243Y-64963178D01*
X173037200Y-64975748D01*
X169633600Y-64975748D01*
X169633600Y-64801514D01*
X170137426Y-64491506D01*
X170031140Y-64235753D01*
X169971528Y-64099035D01*
X169916058Y-64020713D01*
X169838832Y-63990946D01*
X169713956Y-63999895D01*
X169515533Y-64037720D01*
X169511887Y-64038452D01*
X169220829Y-64096905D01*
X168966046Y-63847952D01*
X168849607Y-63732873D01*
X168776178Y-63643617D01*
X168740307Y-63554470D01*
X168736541Y-63439716D01*
X168759428Y-63273641D01*
X168798523Y-63057861D01*
X168813647Y-62947270D01*
X168793736Y-62879067D01*
X168718478Y-62824581D01*
X168591584Y-62765761D01*
X168449182Y-62705441D01*
X168347480Y-62667289D01*
X168319042Y-62660208D01*
X168278182Y-62700864D01*
X168205053Y-62805057D01*
X168137200Y-62914208D01*
X167987001Y-63167200D01*
X167108786Y-63167200D01*
X166950891Y-62913200D01*
X166858573Y-62776987D01*
X166781461Y-62684800D01*
X166744309Y-62659200D01*
X166672553Y-62677910D01*
X166543661Y-62725620D01*
X166459293Y-62760502D01*
X166314204Y-62832887D01*
X166251380Y-62895638D01*
X166249994Y-62951002D01*
X166277367Y-63054224D01*
X166313975Y-63207412D01*
X166327867Y-63268800D01*
X166378711Y-63497400D01*
X166084333Y-63793113D01*
X165789956Y-64088827D01*
X165470958Y-64006166D01*
X165305410Y-63966228D01*
X165184257Y-63942573D01*
X165135372Y-63940093D01*
X165108063Y-63991814D01*
X165057295Y-64102848D01*
X164997923Y-64238888D01*
X164944800Y-64365627D01*
X164912781Y-64448760D01*
X164909200Y-64462454D01*
X164302151Y-64462454D01*
X164509553Y-64127256D01*
X164783403Y-63649800D01*
X164933709Y-63430574D01*
X165146727Y-63185015D01*
X165397168Y-62937565D01*
X165659744Y-62712671D01*
X165909165Y-62534777D01*
X165980494Y-62492644D01*
X166471499Y-62269368D01*
X166992131Y-62122115D01*
X167520407Y-62054356D01*
X168034345Y-62069558D01*
X168034345Y-62069558D01*
G37*
X168034345Y-62069558D02*
X168332966Y-62121417D01*
X168560046Y-62181626D01*
X168762983Y-62253636D01*
X168955205Y-62346793D01*
X169150141Y-62470443D01*
X169361221Y-62633934D01*
X169601874Y-62846611D01*
X169885530Y-63117822D01*
X170167122Y-63397979D01*
X170448883Y-63679787D01*
X170673252Y-63899212D01*
X170853187Y-64067176D01*
X171001645Y-64194601D01*
X171131583Y-64292408D01*
X171255959Y-64371520D01*
X171387729Y-64442858D01*
X171434546Y-64466308D01*
X171625665Y-64558707D01*
X171767948Y-64616020D01*
X171896629Y-64645362D01*
X172046942Y-64653846D01*
X172254120Y-64648585D01*
X172323423Y-64645770D01*
X172959996Y-64625946D01*
X173528971Y-64621477D01*
X174022577Y-64632161D01*
X174433041Y-64657799D01*
X174752593Y-64698189D01*
X174815200Y-64710119D01*
X175146370Y-64782178D01*
X175490419Y-64864601D01*
X175858308Y-64960597D01*
X176260997Y-65073375D01*
X176709448Y-65206142D01*
X177214623Y-65362107D01*
X177787482Y-65544477D01*
X178438988Y-65756462D01*
X178828400Y-65884720D01*
X179535235Y-66117539D01*
X180156669Y-66320126D01*
X180703345Y-66495385D01*
X181185907Y-66646220D01*
X181614996Y-66775536D01*
X182001257Y-66886238D01*
X182355332Y-66981231D01*
X182687865Y-67063419D01*
X183009499Y-67135706D01*
X183330876Y-67200999D01*
X183662639Y-67262200D01*
X184015433Y-67322215D01*
X184213200Y-67354314D01*
X184804860Y-67445087D01*
X185335595Y-67516563D01*
X185831805Y-67570795D01*
X186319884Y-67609835D01*
X186826232Y-67635737D01*
X187377244Y-67650555D01*
X187999318Y-67656340D01*
X188099400Y-67656554D01*
X188696249Y-67654429D01*
X189225011Y-67645399D01*
X189719044Y-67628136D01*
X190211707Y-67601313D01*
X190736359Y-67563602D01*
X191020400Y-67540308D01*
X191597685Y-67494973D01*
X192087828Y-67465049D01*
X192504144Y-67450740D01*
X192859945Y-67452252D01*
X193168547Y-67469790D01*
X193443262Y-67503558D01*
X193697404Y-67553762D01*
X193814400Y-67583327D01*
X194140703Y-67654695D01*
X194433699Y-67676994D01*
X194717986Y-67646428D01*
X195018163Y-67559202D01*
X195358828Y-67411522D01*
X195548144Y-67315858D01*
X195713897Y-67239539D01*
X195951478Y-67143821D01*
X196235355Y-67038338D01*
X196539991Y-66932725D01*
X196716013Y-66875242D01*
X197153797Y-66731186D01*
X197509164Y-66601730D01*
X197798595Y-66478183D01*
X198038566Y-66351853D01*
X198245557Y-66214045D01*
X198436044Y-66056067D01*
X198626507Y-65869228D01*
X198630063Y-65865519D01*
X198969830Y-65444654D01*
X199228099Y-64974185D01*
X199407048Y-64448415D01*
X199508856Y-63861645D01*
X199532993Y-63504052D01*
X199557803Y-63188258D01*
X199608975Y-62968240D01*
X199688732Y-62841082D01*
X199799297Y-62803871D01*
X199942892Y-62853691D01*
X200000696Y-62890680D01*
X200095530Y-63009656D01*
X200098731Y-63164900D01*
X200010751Y-63349748D01*
X199965461Y-63411478D01*
X199847967Y-63607302D01*
X199735237Y-63883473D01*
X199634779Y-64218776D01*
X199560791Y-64555045D01*
X199533207Y-64819602D01*
X199566615Y-65014405D01*
X199668010Y-65145849D01*
X199844389Y-65220329D01*
X200102747Y-65244239D01*
X200306370Y-65236529D01*
X200688142Y-65195436D01*
X200982005Y-65130651D01*
X201199598Y-65038792D01*
X201331729Y-64938454D01*
X201481614Y-64831898D01*
X201636038Y-64791160D01*
X201768038Y-64818759D01*
X201839012Y-64891060D01*
X201885511Y-65049122D01*
X201880859Y-65219368D01*
X201827706Y-65354856D01*
X201811771Y-65373371D01*
X201723162Y-65440187D01*
X201633837Y-65439162D01*
X201506799Y-65369838D01*
X201506417Y-65369587D01*
X201443225Y-65335483D01*
X201366670Y-65315455D01*
X201256925Y-65308863D01*
X201094160Y-65315063D01*
X200858550Y-65333414D01*
X200733504Y-65344554D01*
X200451143Y-65367733D01*
X200170882Y-65386512D01*
X199926693Y-65398853D01*
X199764015Y-65402766D01*
X199645442Y-65403427D01*
X199549194Y-65412036D01*
X199462748Y-65438072D01*
X199373582Y-65491016D01*
X199269173Y-65580349D01*
X199136998Y-65715553D01*
X198964536Y-65906108D01*
X198739262Y-66161496D01*
X198694230Y-66212703D01*
X198367061Y-66584685D01*
X198482396Y-66678077D01*
X198621508Y-66764877D01*
X198804450Y-66828849D01*
X199048316Y-66873898D01*
X199370202Y-66903927D01*
X199505263Y-66911652D01*
X199742380Y-66920828D01*
X199933355Y-66918567D01*
X200110983Y-66901037D01*
X200308055Y-66864406D01*
X200557366Y-66804841D01*
X200673663Y-66775128D01*
X200974792Y-66701500D01*
X201202759Y-66656457D01*
X201380831Y-66636580D01*
X201532273Y-66638449D01*
X201575041Y-66642629D01*
X201770199Y-66652551D01*
X201905977Y-66624422D01*
X201968371Y-66591154D01*
X202127208Y-66531464D01*
X202262847Y-66558454D01*
X202358196Y-66657386D01*
X202396162Y-66813524D01*
X202380145Y-66946196D01*
X202319749Y-67064260D01*
X202217656Y-67092824D01*
X202069746Y-67032591D01*
X202028537Y-67006063D01*
X201811809Y-66878998D01*
X201613354Y-66817026D01*
X201395539Y-66813621D01*
X201155000Y-66854538D01*
X200754637Y-66943062D01*
X200435909Y-67012194D01*
X200180967Y-67063157D01*
X199971957Y-67097171D01*
X199791031Y-67115458D01*
X199620335Y-67119242D01*
X199442020Y-67109743D01*
X199238233Y-67088183D01*
X198991125Y-67055785D01*
X198731904Y-67020396D01*
X198424804Y-66979659D01*
X198195427Y-66952913D01*
X198020934Y-66939660D01*
X197878484Y-66939404D01*
X197745241Y-66951648D01*
X197598363Y-66975895D01*
X197505812Y-66993711D01*
X197006897Y-67105099D01*
X196539959Y-67235208D01*
X196114404Y-67379611D01*
X195739638Y-67533884D01*
X195425070Y-67693603D01*
X195180105Y-67854341D01*
X195014151Y-68011675D01*
X194936614Y-68161179D01*
X194932000Y-68204430D01*
X194948719Y-68291066D01*
X195005575Y-68383311D01*
X195112618Y-68489945D01*
X195279894Y-68619749D01*
X195517452Y-68781505D01*
X195795600Y-68959121D01*
X196642420Y-69514641D01*
X197391488Y-70058569D01*
X198045656Y-70593504D01*
X198607775Y-71122047D01*
X199080696Y-71646799D01*
X199467272Y-72170360D01*
X199655852Y-72479483D01*
X199761870Y-72646618D01*
X199871226Y-72785742D01*
X199948604Y-72857661D01*
X200140187Y-72942710D01*
X200418623Y-73008067D01*
X200770696Y-73051614D01*
X201183192Y-73071233D01*
X201286826Y-73072141D01*
X201544479Y-73070867D01*
X201720592Y-73063977D01*
X201835190Y-73048515D01*
X201908300Y-73021523D01*
X201959947Y-72980046D01*
X201967799Y-72971600D01*
X202076776Y-72900533D01*
X202211485Y-72871715D01*
X202330020Y-72889413D01*
X202379668Y-72929648D01*
X202415085Y-73056636D01*
X202415379Y-73229789D01*
X202384950Y-73401678D01*
X202328198Y-73524871D01*
X202323993Y-73529744D01*
X202210693Y-73616593D01*
X202093030Y-73614373D01*
X201960025Y-73533360D01*
X201782438Y-73439836D01*
X201517389Y-73371310D01*
X201161343Y-73327198D01*
X200710761Y-73306911D01*
X200585526Y-73305508D01*
X200274570Y-73304567D01*
X200052379Y-73313286D01*
X199906130Y-73343019D01*
X199823002Y-73405120D01*
X199790173Y-73510944D01*
X199794821Y-73671842D01*
X199824124Y-73899170D01*
X199834231Y-73970781D01*
X199882620Y-74284614D01*
X199930884Y-74512705D01*
X199986080Y-74670654D01*
X200055262Y-74774067D01*
X200145487Y-74838544D01*
X200242690Y-74874029D01*
X200386535Y-74931741D01*
X200451855Y-75010335D01*
X200460418Y-75046064D01*
X200436235Y-75208350D01*
X200329116Y-75352389D01*
X200157571Y-75454308D01*
X200138833Y-75460855D01*
X199970800Y-75489741D01*
X199864918Y-75440354D01*
X199814866Y-75307840D01*
X199808800Y-75207562D01*
X199798487Y-75059992D01*
X199769888Y-74835945D01*
X199726514Y-74553839D01*
X199671875Y-74232092D01*
X199609482Y-73889121D01*
X199542845Y-73543346D01*
X199475474Y-73213184D01*
X199410880Y-72917053D01*
X199352574Y-72673370D01*
X199304065Y-72500555D01*
X199280966Y-72438200D01*
X199117997Y-72151140D01*
X198878896Y-71826542D01*
X198576221Y-71476437D01*
X198222528Y-71112855D01*
X197830374Y-70747825D01*
X197412316Y-70393378D01*
X196980911Y-70061545D01*
X196548716Y-69764354D01*
X196379800Y-69658704D01*
X196188353Y-69539989D01*
X195935697Y-69379521D01*
X195644961Y-69192196D01*
X195339279Y-68992912D01*
X195062903Y-68810598D01*
X194779504Y-68624794D01*
X194503883Y-68448371D01*
X194254900Y-68293086D01*
X194051416Y-68170692D01*
X193912293Y-68092945D01*
X193907553Y-68090536D01*
X193703128Y-67995335D01*
X193498219Y-67919319D01*
X193281214Y-67861791D01*
X193040499Y-67822056D01*
X192764461Y-67799415D01*
X192441486Y-67793173D01*
X192059960Y-67802634D01*
X191608271Y-67827099D01*
X191074805Y-67865873D01*
X190689545Y-67897500D01*
X189858518Y-67955415D01*
X189004501Y-67991580D01*
X188145670Y-68006305D01*
X187300203Y-67999899D01*
X186486276Y-67972673D01*
X185722064Y-67924935D01*
X185025743Y-67856996D01*
X184559654Y-67793076D01*
X184321909Y-67755497D01*
X184302667Y-71062048D01*
X184298730Y-71723896D01*
X184295003Y-72292340D01*
X184291197Y-72775578D01*
X184287022Y-73181805D01*
X184282188Y-73519217D01*
X184276404Y-73796010D01*
X184269381Y-74020381D01*
X184260829Y-74200525D01*
X184250458Y-74344638D01*
X184237978Y-74460916D01*
X184223099Y-74557555D01*
X184205531Y-74642752D01*
X184184984Y-74724702D01*
X184171304Y-74775000D01*
X183940728Y-75423793D01*
X183622358Y-76029250D01*
X183223178Y-76584643D01*
X182750168Y-77083245D01*
X182210312Y-77518330D01*
X181610589Y-77883172D01*
X180957983Y-78171042D01*
X180494329Y-78317586D01*
X180073000Y-78430700D01*
X169201800Y-78440224D01*
X167923318Y-78441245D01*
X166742705Y-78441969D01*
X165656231Y-78442376D01*
X164660163Y-78442447D01*
X163750771Y-78442163D01*
X162924324Y-78441504D01*
X162177092Y-78440452D01*
X161505343Y-78438987D01*
X160905346Y-78437089D01*
X160373371Y-78434740D01*
X159905687Y-78431921D01*
X159498563Y-78428612D01*
X159148268Y-78424793D01*
X158851070Y-78420447D01*
X158603240Y-78415553D01*
X158401046Y-78410092D01*
X158240758Y-78404045D01*
X158118644Y-78397393D01*
X158030974Y-78390117D01*
X157975000Y-78382385D01*
X157684708Y-78319009D01*
X157674108Y-78315803D01*
X179209400Y-78315803D01*
X179615800Y-78281365D01*
X179873724Y-78252719D01*
X180151637Y-78211415D01*
X180377800Y-78168760D01*
X180563001Y-78125370D01*
X180712404Y-78085486D01*
X180794854Y-78057455D01*
X180796476Y-78056614D01*
X180795654Y-78004660D01*
X180714270Y-77891766D01*
X180552691Y-77718423D01*
X180515938Y-77681653D01*
X180172323Y-77340671D01*
X179690861Y-77828237D01*
X179209400Y-78315803D01*
X157674108Y-78315803D01*
X157425341Y-78240564D01*
X157162549Y-78134312D01*
X156892721Y-78002527D01*
X157264867Y-78002527D01*
X157335440Y-78046519D01*
X157484537Y-78098026D01*
X157689836Y-78152211D01*
X157929014Y-78204238D01*
X158179749Y-78249269D01*
X158419718Y-78282468D01*
X158626599Y-78298999D01*
X158634396Y-78299262D01*
X158836593Y-78305600D01*
X157875767Y-77340762D01*
X157559529Y-77654189D01*
X157420578Y-77797870D01*
X157317983Y-77915495D01*
X157267051Y-77988973D01*
X157264867Y-78002527D01*
X156892721Y-78002527D01*
X156861981Y-77987514D01*
X156746092Y-77926641D01*
X156129454Y-77546916D01*
X155558143Y-77092227D01*
X155481769Y-77015359D01*
X155765200Y-77015359D01*
X155806035Y-77077689D01*
X155916190Y-77178428D01*
X156077137Y-77304942D01*
X156270349Y-77444595D01*
X156477297Y-77584754D01*
X156679456Y-77712783D01*
X156858296Y-77816048D01*
X156995291Y-77881914D01*
X157061261Y-77899200D01*
X157118346Y-77865202D01*
X157226719Y-77774148D01*
X157367483Y-77642441D01*
X157441465Y-77569135D01*
X157763798Y-77243911D01*
X157976494Y-77243911D01*
X158513803Y-77774755D01*
X158707093Y-77961475D01*
X158878812Y-78119445D01*
X159014549Y-78236004D01*
X159099897Y-78298493D01*
X159118000Y-78305600D01*
X159399406Y-78305600D01*
X160325503Y-78305600D01*
X160619572Y-78303564D01*
X160875136Y-78297906D01*
X161076268Y-78289299D01*
X161207039Y-78278416D01*
X161251600Y-78266440D01*
X161217559Y-78217586D01*
X161124710Y-78112836D01*
X160986955Y-77967255D01*
X160818202Y-77795906D01*
X160806095Y-77783841D01*
X160360591Y-77340401D01*
X159879999Y-77823000D01*
X159399406Y-78305600D01*
X159118000Y-78305600D01*
X159176038Y-78271503D01*
X159290936Y-78177653D01*
X159448282Y-78036710D01*
X159633670Y-77861331D01*
X159722196Y-77774755D01*
X160259505Y-77243911D01*
X160256852Y-77241141D01*
X160468348Y-77241141D01*
X160998766Y-77773370D01*
X161190569Y-77961130D01*
X161361623Y-78119841D01*
X161497416Y-78236690D01*
X161583432Y-78298864D01*
X161601636Y-78305600D01*
X161661685Y-78271465D01*
X161667924Y-78266440D01*
X161912000Y-78266440D01*
X161960126Y-78278950D01*
X162093818Y-78289805D01*
X162297047Y-78298322D01*
X162553783Y-78303811D01*
X162826400Y-78305600D01*
X163118500Y-78303539D01*
X163371994Y-78297813D01*
X163570853Y-78289110D01*
X163699047Y-78278115D01*
X163740800Y-78266440D01*
X163706738Y-78217744D01*
X163613700Y-78112905D01*
X163475408Y-77966754D01*
X163305583Y-77794127D01*
X163283600Y-77772200D01*
X162826400Y-77317118D01*
X162369200Y-77772200D01*
X162196495Y-77947021D01*
X162053667Y-78097156D01*
X161954437Y-78207771D01*
X161912525Y-78264034D01*
X161912000Y-78266440D01*
X161667924Y-78266440D01*
X161778348Y-78177514D01*
X161937058Y-78036430D01*
X162123250Y-77860892D01*
X162211396Y-77774755D01*
X162748705Y-77243911D01*
X162710008Y-77203519D01*
X162978800Y-77203519D01*
X163013218Y-77259731D01*
X163105991Y-77369513D01*
X163241397Y-77517001D01*
X163403712Y-77686330D01*
X163577213Y-77861635D01*
X163746178Y-78027051D01*
X163894883Y-78166712D01*
X164007607Y-78264754D01*
X164068626Y-78305311D01*
X164071000Y-78305600D01*
X164123830Y-78271356D01*
X164129552Y-78266440D01*
X164401200Y-78266440D01*
X164449326Y-78278950D01*
X164583018Y-78289805D01*
X164786247Y-78298322D01*
X165042983Y-78303811D01*
X165315600Y-78305600D01*
X165607700Y-78303539D01*
X165861194Y-78297813D01*
X166060053Y-78289110D01*
X166188247Y-78278115D01*
X166230000Y-78266440D01*
X166195938Y-78217744D01*
X166102900Y-78112905D01*
X165964608Y-77966754D01*
X165794783Y-77794127D01*
X165772800Y-77772200D01*
X165315600Y-77317118D01*
X164858400Y-77772200D01*
X164685695Y-77947021D01*
X164542867Y-78097156D01*
X164443637Y-78207771D01*
X164401725Y-78264034D01*
X164401200Y-78266440D01*
X164129552Y-78266440D01*
X164233434Y-78177205D01*
X164385692Y-78036014D01*
X164566480Y-77860650D01*
X164643407Y-77784032D01*
X164828302Y-77594631D01*
X164984206Y-77427540D01*
X165098270Y-77297111D01*
X165157642Y-77217695D01*
X165163200Y-77203519D01*
X165468000Y-77203519D01*
X165502418Y-77259731D01*
X165595191Y-77369513D01*
X165730597Y-77517001D01*
X165892912Y-77686330D01*
X166066413Y-77861635D01*
X166235378Y-78027051D01*
X166384083Y-78166712D01*
X166496807Y-78264754D01*
X166557826Y-78305311D01*
X166560200Y-78305600D01*
X166612866Y-78271342D01*
X166618565Y-78266440D01*
X166890400Y-78266440D01*
X166938543Y-78278875D01*
X167072353Y-78289681D01*
X167275904Y-78298186D01*
X167533267Y-78303715D01*
X167816496Y-78305600D01*
X168742593Y-78305600D01*
X168262000Y-77823000D01*
X167781408Y-77340401D01*
X167335904Y-77783841D01*
X167165566Y-77956381D01*
X167025293Y-78104166D01*
X166928990Y-78212131D01*
X166890563Y-78265213D01*
X166890400Y-78266440D01*
X166618565Y-78266440D01*
X166722496Y-78177060D01*
X166875141Y-78035485D01*
X167056852Y-77859353D01*
X167143233Y-77773370D01*
X167670890Y-77243911D01*
X167882494Y-77243911D01*
X168419803Y-77774755D01*
X168613093Y-77961475D01*
X168784812Y-78119445D01*
X168920549Y-78236004D01*
X169005897Y-78298493D01*
X169024000Y-78305600D01*
X169305406Y-78305600D01*
X170256903Y-78305600D01*
X170555208Y-78304906D01*
X170815221Y-78302975D01*
X171021227Y-78300033D01*
X171157511Y-78296308D01*
X171208358Y-78292024D01*
X171208400Y-78291896D01*
X171174519Y-78253066D01*
X171081802Y-78156501D01*
X170943639Y-78015924D01*
X170773418Y-77845059D01*
X170737520Y-77809272D01*
X170266641Y-77340351D01*
X169786024Y-77822975D01*
X169305406Y-78305600D01*
X169024000Y-78305600D01*
X169082038Y-78271503D01*
X169196936Y-78177653D01*
X169354282Y-78036710D01*
X169539670Y-77861331D01*
X169628196Y-77774755D01*
X170165505Y-77243911D01*
X170162852Y-77241141D01*
X170374348Y-77241141D01*
X170904766Y-77773370D01*
X171096569Y-77961130D01*
X171267623Y-78119841D01*
X171403416Y-78236690D01*
X171489432Y-78298864D01*
X171507636Y-78305600D01*
X171567685Y-78271465D01*
X171573924Y-78266440D01*
X171818000Y-78266440D01*
X171866126Y-78278950D01*
X171999818Y-78289805D01*
X172203047Y-78298322D01*
X172459783Y-78303811D01*
X172732400Y-78305600D01*
X173024500Y-78303539D01*
X173277994Y-78297813D01*
X173476853Y-78289110D01*
X173605047Y-78278115D01*
X173646800Y-78266440D01*
X173612738Y-78217744D01*
X173519700Y-78112905D01*
X173381408Y-77966754D01*
X173211583Y-77794127D01*
X173189600Y-77772200D01*
X172732400Y-77317118D01*
X172275200Y-77772200D01*
X172102495Y-77947021D01*
X171959667Y-78097156D01*
X171860437Y-78207771D01*
X171818525Y-78264034D01*
X171818000Y-78266440D01*
X171573924Y-78266440D01*
X171684348Y-78177514D01*
X171843058Y-78036430D01*
X172029250Y-77860892D01*
X172117396Y-77774755D01*
X172654705Y-77243911D01*
X172616008Y-77203519D01*
X172884800Y-77203519D01*
X172919218Y-77259731D01*
X173011991Y-77369513D01*
X173147397Y-77517001D01*
X173309712Y-77686330D01*
X173483213Y-77861635D01*
X173652178Y-78027051D01*
X173800883Y-78166712D01*
X173913607Y-78264754D01*
X173974626Y-78305311D01*
X173977000Y-78305600D01*
X174029830Y-78271356D01*
X174035552Y-78266440D01*
X174307200Y-78266440D01*
X174355326Y-78278950D01*
X174489018Y-78289805D01*
X174692247Y-78298322D01*
X174948983Y-78303811D01*
X175221600Y-78305600D01*
X175513700Y-78303539D01*
X175767194Y-78297813D01*
X175966053Y-78289110D01*
X176094247Y-78278115D01*
X176136000Y-78266440D01*
X176101938Y-78217744D01*
X176008900Y-78112905D01*
X175870608Y-77966754D01*
X175700783Y-77794127D01*
X175678800Y-77772200D01*
X175221600Y-77317118D01*
X174764400Y-77772200D01*
X174591695Y-77947021D01*
X174448867Y-78097156D01*
X174349637Y-78207771D01*
X174307725Y-78264034D01*
X174307200Y-78266440D01*
X174035552Y-78266440D01*
X174139434Y-78177205D01*
X174291692Y-78036014D01*
X174472480Y-77860650D01*
X174549407Y-77784032D01*
X174734302Y-77594631D01*
X174890206Y-77427540D01*
X175004270Y-77297111D01*
X175063642Y-77217695D01*
X175069200Y-77203519D01*
X175374000Y-77203519D01*
X175408418Y-77259731D01*
X175501191Y-77369513D01*
X175636597Y-77517001D01*
X175798912Y-77686330D01*
X175972413Y-77861635D01*
X176141378Y-78027051D01*
X176290083Y-78166712D01*
X176402807Y-78264754D01*
X176463826Y-78305311D01*
X176466200Y-78305600D01*
X176518866Y-78271342D01*
X176524565Y-78266440D01*
X176796400Y-78266440D01*
X176844543Y-78278875D01*
X176978353Y-78289681D01*
X177181904Y-78298186D01*
X177439267Y-78303715D01*
X177722496Y-78305600D01*
X178648593Y-78305600D01*
X178168000Y-77823000D01*
X177687408Y-77340401D01*
X177241904Y-77783841D01*
X177071566Y-77956381D01*
X176931293Y-78104166D01*
X176834990Y-78212131D01*
X176796563Y-78265213D01*
X176796400Y-78266440D01*
X176524565Y-78266440D01*
X176628496Y-78177060D01*
X176781141Y-78035485D01*
X176962852Y-77859353D01*
X177049233Y-77773370D01*
X177576890Y-77243911D01*
X177788494Y-77243911D01*
X178325803Y-77774755D01*
X178519093Y-77961475D01*
X178690812Y-78119445D01*
X178826549Y-78236004D01*
X178911897Y-78298493D01*
X178930000Y-78305600D01*
X178988038Y-78271503D01*
X179102936Y-78177653D01*
X179260282Y-78036710D01*
X179445670Y-77861331D01*
X179534196Y-77774755D01*
X180071505Y-77243911D01*
X180062865Y-77234892D01*
X180276200Y-77234892D01*
X180630437Y-77592446D01*
X180788861Y-77744816D01*
X180927830Y-77864806D01*
X181028126Y-77936512D01*
X181062237Y-77949751D01*
X181142536Y-77927475D01*
X181284167Y-77868788D01*
X181459041Y-77785515D01*
X181491500Y-77769023D01*
X181676037Y-77668208D01*
X181875264Y-77549554D01*
X182069785Y-77425918D01*
X182240205Y-77310155D01*
X182367126Y-77215121D01*
X182431154Y-77153670D01*
X182435200Y-77143544D01*
X182401407Y-77098153D01*
X182309302Y-76996218D01*
X182172790Y-76852658D01*
X182005777Y-76682392D01*
X181998801Y-76675380D01*
X181562403Y-76236951D01*
X181278417Y-76394975D01*
X181109676Y-76504415D01*
X180905779Y-76659314D01*
X180702227Y-76832127D01*
X180635315Y-76893946D01*
X180276200Y-77234892D01*
X180062865Y-77234892D01*
X179923048Y-77088955D01*
X179774591Y-76934000D01*
X178085408Y-76934000D01*
X177936951Y-77088955D01*
X177788494Y-77243911D01*
X177576890Y-77243911D01*
X177579651Y-77241141D01*
X177432521Y-77087570D01*
X177313091Y-76962912D01*
X177530869Y-76962912D01*
X177558400Y-77010200D01*
X177641604Y-77074587D01*
X177685400Y-77086400D01*
X177768800Y-77050824D01*
X177812400Y-77010200D01*
X177839844Y-76960612D01*
X177799562Y-76938692D01*
X177685400Y-76934000D01*
X177566158Y-76939491D01*
X177530869Y-76962912D01*
X177313091Y-76962912D01*
X177285391Y-76934000D01*
X176463546Y-76934000D01*
X176153308Y-76934962D01*
X175927526Y-76939108D01*
X175769065Y-76948326D01*
X175660789Y-76964503D01*
X175585561Y-76989526D01*
X175526247Y-77025285D01*
X175507850Y-77039287D01*
X175416097Y-77127586D01*
X175374253Y-77199684D01*
X175374000Y-77203519D01*
X175069200Y-77203519D01*
X175032582Y-77134309D01*
X174943604Y-77045892D01*
X174935349Y-77039287D01*
X174877607Y-76999756D01*
X174809456Y-76971529D01*
X174794956Y-76968679D01*
X175092512Y-76968679D01*
X175120000Y-77010200D01*
X175190215Y-77073885D01*
X175221600Y-77086400D01*
X175282282Y-77051911D01*
X175323200Y-77010200D01*
X175352032Y-76958331D01*
X175308745Y-76937222D01*
X175221600Y-76934000D01*
X175114848Y-76940571D01*
X175092512Y-76968679D01*
X174794956Y-76968679D01*
X174713795Y-76952727D01*
X174573524Y-76941470D01*
X174371546Y-76935882D01*
X174090761Y-76934082D01*
X173977000Y-76934000D01*
X173666223Y-76934956D01*
X173439940Y-76939076D01*
X173281050Y-76948239D01*
X173172454Y-76964324D01*
X173097053Y-76989209D01*
X173037748Y-77024773D01*
X173018650Y-77039287D01*
X172926897Y-77127586D01*
X172885053Y-77199684D01*
X172884800Y-77203519D01*
X172616008Y-77203519D01*
X172506248Y-77088955D01*
X172385491Y-76962912D01*
X172603269Y-76962912D01*
X172630800Y-77010200D01*
X172714004Y-77074587D01*
X172757800Y-77086400D01*
X172841200Y-77050824D01*
X172884800Y-77010200D01*
X172912244Y-76960612D01*
X172871962Y-76938692D01*
X172757800Y-76934000D01*
X172638558Y-76939491D01*
X172603269Y-76962912D01*
X172385491Y-76962912D01*
X172357791Y-76934000D01*
X170668608Y-76934000D01*
X170521478Y-77087570D01*
X170374348Y-77241141D01*
X170162852Y-77241141D01*
X170017048Y-77088955D01*
X169896291Y-76962912D01*
X170114069Y-76962912D01*
X170141600Y-77010200D01*
X170224804Y-77074587D01*
X170268600Y-77086400D01*
X170352000Y-77050824D01*
X170395600Y-77010200D01*
X170423044Y-76960612D01*
X170382762Y-76938692D01*
X170268600Y-76934000D01*
X170149358Y-76939491D01*
X170114069Y-76962912D01*
X169896291Y-76962912D01*
X169868591Y-76934000D01*
X168179408Y-76934000D01*
X168030951Y-77088955D01*
X167882494Y-77243911D01*
X167670890Y-77243911D01*
X167673651Y-77241141D01*
X167526521Y-77087570D01*
X167407091Y-76962912D01*
X167624869Y-76962912D01*
X167652400Y-77010200D01*
X167735604Y-77074587D01*
X167779400Y-77086400D01*
X167862800Y-77050824D01*
X167906400Y-77010200D01*
X167933844Y-76960612D01*
X167893562Y-76938692D01*
X167779400Y-76934000D01*
X167660158Y-76939491D01*
X167624869Y-76962912D01*
X167407091Y-76962912D01*
X167379391Y-76934000D01*
X166557546Y-76934000D01*
X166247308Y-76934962D01*
X166021526Y-76939108D01*
X165863065Y-76948326D01*
X165754789Y-76964503D01*
X165679561Y-76989526D01*
X165620247Y-77025285D01*
X165601850Y-77039287D01*
X165510097Y-77127586D01*
X165468253Y-77199684D01*
X165468000Y-77203519D01*
X165163200Y-77203519D01*
X165126582Y-77134309D01*
X165037604Y-77045892D01*
X165029349Y-77039287D01*
X164971607Y-76999756D01*
X164903456Y-76971529D01*
X164888956Y-76968679D01*
X165186512Y-76968679D01*
X165214000Y-77010200D01*
X165284215Y-77073885D01*
X165315600Y-77086400D01*
X165376282Y-77051911D01*
X165417200Y-77010200D01*
X165446032Y-76958331D01*
X165402745Y-76937222D01*
X165315600Y-76934000D01*
X165208848Y-76940571D01*
X165186512Y-76968679D01*
X164888956Y-76968679D01*
X164807795Y-76952727D01*
X164667524Y-76941470D01*
X164465546Y-76935882D01*
X164184761Y-76934082D01*
X164071000Y-76934000D01*
X163760223Y-76934956D01*
X163533940Y-76939076D01*
X163375050Y-76948239D01*
X163266454Y-76964324D01*
X163191053Y-76989209D01*
X163131748Y-77024773D01*
X163112650Y-77039287D01*
X163020897Y-77127586D01*
X162979053Y-77199684D01*
X162978800Y-77203519D01*
X162710008Y-77203519D01*
X162600248Y-77088955D01*
X162479491Y-76962912D01*
X162697269Y-76962912D01*
X162724800Y-77010200D01*
X162808004Y-77074587D01*
X162851800Y-77086400D01*
X162935200Y-77050824D01*
X162978800Y-77010200D01*
X163006244Y-76960612D01*
X162965962Y-76938692D01*
X162851800Y-76934000D01*
X162732558Y-76939491D01*
X162697269Y-76962912D01*
X162479491Y-76962912D01*
X162451791Y-76934000D01*
X160762608Y-76934000D01*
X160615478Y-77087570D01*
X160468348Y-77241141D01*
X160256852Y-77241141D01*
X160111048Y-77088955D01*
X159990291Y-76962912D01*
X160208069Y-76962912D01*
X160235600Y-77010200D01*
X160318804Y-77074587D01*
X160362600Y-77086400D01*
X160446000Y-77050824D01*
X160489600Y-77010200D01*
X160517044Y-76960612D01*
X160476762Y-76938692D01*
X160362600Y-76934000D01*
X160243358Y-76939491D01*
X160208069Y-76962912D01*
X159990291Y-76962912D01*
X159962591Y-76934000D01*
X158273408Y-76934000D01*
X158124951Y-77088955D01*
X157976494Y-77243911D01*
X157763798Y-77243911D01*
X157768596Y-77239070D01*
X157490798Y-76956981D01*
X157327075Y-76805979D01*
X157576554Y-76805979D01*
X157622044Y-76875398D01*
X157667004Y-76926163D01*
X157792617Y-77043753D01*
X157886066Y-77081360D01*
X157968512Y-77045484D01*
X157990239Y-77025439D01*
X158044321Y-76951178D01*
X158017465Y-76902507D01*
X158012956Y-76901120D01*
X179984466Y-76901120D01*
X179985666Y-76939503D01*
X180026670Y-76989739D01*
X180120161Y-77068187D01*
X180208884Y-77070916D01*
X180317449Y-76994019D01*
X180377800Y-76934000D01*
X180461072Y-76844843D01*
X180486834Y-76798943D01*
X180443453Y-76790009D01*
X180319292Y-76811745D01*
X180199097Y-76837339D01*
X180050148Y-76871893D01*
X179984466Y-76901120D01*
X158012956Y-76901120D01*
X157900183Y-76866435D01*
X157869792Y-76860474D01*
X157723054Y-76829094D01*
X157609719Y-76798456D01*
X157603092Y-76796184D01*
X157576554Y-76805979D01*
X157327075Y-76805979D01*
X157314939Y-76794786D01*
X157122815Y-76642600D01*
X156959000Y-76535170D01*
X156795435Y-76443394D01*
X156652005Y-76359879D01*
X156591245Y-76322645D01*
X156534945Y-76293572D01*
X156480161Y-76293809D01*
X156409409Y-76333796D01*
X156305206Y-76423973D01*
X156150069Y-76574782D01*
X156121345Y-76603258D01*
X155969728Y-76759331D01*
X155850222Y-76893040D01*
X155778616Y-76986117D01*
X155765200Y-77015359D01*
X155481769Y-77015359D01*
X155045206Y-76575976D01*
X154603693Y-76011569D01*
X154408149Y-75683421D01*
X154596800Y-75683421D01*
X154628515Y-75754290D01*
X154714041Y-75880766D01*
X154838950Y-76045708D01*
X154988813Y-76231973D01*
X155149202Y-76422419D01*
X155305689Y-76599904D01*
X155443845Y-76747286D01*
X155549242Y-76847422D01*
X155606638Y-76883200D01*
X155652761Y-76849641D01*
X155753515Y-76759250D01*
X155892107Y-76627448D01*
X155993513Y-76527884D01*
X156351217Y-76172568D01*
X156011990Y-75819621D01*
X155841957Y-75630973D01*
X155682123Y-75433377D01*
X155559098Y-75260396D01*
X155528481Y-75209789D01*
X155442751Y-75071174D01*
X155369973Y-74977882D01*
X155334674Y-74952851D01*
X155277618Y-74987023D01*
X155171762Y-75076582D01*
X155036818Y-75202012D01*
X154892499Y-75343795D01*
X154758516Y-75482415D01*
X154654582Y-75598355D01*
X154600408Y-75672098D01*
X154596800Y-75683421D01*
X154408149Y-75683421D01*
X154246651Y-75412408D01*
X154193721Y-75304761D01*
X154125836Y-75162558D01*
X154067091Y-75035718D01*
X154016828Y-74916049D01*
X153974385Y-74795359D01*
X153939102Y-74665459D01*
X153910319Y-74518157D01*
X153887375Y-74345261D01*
X153869609Y-74138581D01*
X153865142Y-74054711D01*
X153989543Y-74054711D01*
X154022582Y-74332571D01*
X154065690Y-74523026D01*
X154117022Y-74691839D01*
X154188122Y-74888461D01*
X154269264Y-75090296D01*
X154350718Y-75274751D01*
X154422759Y-75419231D01*
X154475657Y-75501141D01*
X154491291Y-75511600D01*
X154538023Y-75477730D01*
X154639471Y-75386150D01*
X154779434Y-75251906D01*
X154901802Y-75130396D01*
X155280461Y-74749192D01*
X154725083Y-74192087D01*
X154513543Y-73981193D01*
X154360792Y-73834064D01*
X154254646Y-73741761D01*
X154182924Y-73695343D01*
X154133444Y-73685872D01*
X154094025Y-73704407D01*
X154078452Y-73717564D01*
X154008213Y-73846756D01*
X153989543Y-74054711D01*
X153865142Y-74054711D01*
X153856363Y-73889925D01*
X153846974Y-73591102D01*
X153845922Y-73530400D01*
X153987200Y-73530400D01*
X154005786Y-73572214D01*
X154021066Y-73564266D01*
X154024557Y-73529643D01*
X154268231Y-73529643D01*
X154671107Y-73934896D01*
X154833032Y-74094386D01*
X154967644Y-74220588D01*
X155059927Y-74299846D01*
X155094353Y-74319780D01*
X155096083Y-74262939D01*
X155078513Y-74139171D01*
X155058961Y-74039404D01*
X155033838Y-73869116D01*
X155014592Y-73637502D01*
X155004206Y-73384792D01*
X155003200Y-73287037D01*
X155003200Y-73225600D01*
X155137772Y-73225600D01*
X155151488Y-73653563D01*
X155199884Y-74020647D01*
X155291308Y-74364100D01*
X155434105Y-74721169D01*
X155507697Y-74876600D01*
X155791095Y-75343748D01*
X156155256Y-75766510D01*
X156584447Y-76132304D01*
X157062938Y-76428548D01*
X157574998Y-76642662D01*
X157792951Y-76704264D01*
X157840571Y-76712328D01*
X157916928Y-76719779D01*
X158025790Y-76726640D01*
X158170925Y-76732938D01*
X158356102Y-76738697D01*
X158585090Y-76743941D01*
X158861657Y-76748696D01*
X159189572Y-76752986D01*
X159572603Y-76756835D01*
X160014520Y-76760269D01*
X160519090Y-76763311D01*
X161090082Y-76765988D01*
X161731265Y-76768323D01*
X162446407Y-76770342D01*
X163239277Y-76772069D01*
X164113644Y-76773528D01*
X165073275Y-76774745D01*
X166121941Y-76775744D01*
X167263408Y-76776550D01*
X168501446Y-76777187D01*
X168937771Y-76777367D01*
X170185437Y-76777800D01*
X171335581Y-76778067D01*
X172392282Y-76778142D01*
X173359618Y-76777995D01*
X174241666Y-76777601D01*
X175042506Y-76776930D01*
X175766215Y-76775955D01*
X176416873Y-76774648D01*
X176998556Y-76772981D01*
X177515343Y-76770927D01*
X177971313Y-76768458D01*
X178370543Y-76765545D01*
X178717112Y-76762162D01*
X179015099Y-76758280D01*
X179268581Y-76753871D01*
X179481636Y-76748908D01*
X179658344Y-76743362D01*
X179802781Y-76737207D01*
X179919027Y-76730414D01*
X180011159Y-76722955D01*
X180083256Y-76714803D01*
X180139397Y-76705929D01*
X180164571Y-76700815D01*
X180386889Y-76638784D01*
X180650034Y-76546387D01*
X180905216Y-76441120D01*
X180962000Y-76414867D01*
X181191263Y-76297044D01*
X181382938Y-76173574D01*
X181415825Y-76146600D01*
X181680658Y-76146600D01*
X182116480Y-76587192D01*
X182311644Y-76782824D01*
X182453695Y-76908967D01*
X182562406Y-76966921D01*
X182657547Y-76957983D01*
X182758889Y-76883451D01*
X182886204Y-76744623D01*
X182972687Y-76643409D01*
X183149051Y-76428588D01*
X183307427Y-76220501D01*
X183435633Y-76036623D01*
X183521485Y-75894425D01*
X183552800Y-75811394D01*
X183518534Y-75750339D01*
X183427415Y-75638391D01*
X183296957Y-75493485D01*
X183144674Y-75333559D01*
X182988082Y-75176549D01*
X182844694Y-75040392D01*
X182732027Y-74943024D01*
X182667595Y-74902384D01*
X182664921Y-74902120D01*
X182616054Y-74943837D01*
X182540581Y-75052366D01*
X182465975Y-75183615D01*
X182359792Y-75355221D01*
X182209044Y-75559831D01*
X182042043Y-75759659D01*
X181999805Y-75805794D01*
X181680658Y-76146600D01*
X181415825Y-76146600D01*
X181569835Y-76020284D01*
X181784766Y-75812999D01*
X181800419Y-75797151D01*
X182148258Y-75399441D01*
X182411818Y-74990499D01*
X182514905Y-74748758D01*
X182766805Y-74748758D01*
X183196781Y-75180979D01*
X183366011Y-75348488D01*
X183509624Y-75485758D01*
X183612523Y-75578693D01*
X183659610Y-75613197D01*
X183659722Y-75613200D01*
X183696169Y-75570559D01*
X183755434Y-75460628D01*
X183803599Y-75355380D01*
X183907684Y-75075650D01*
X183998556Y-74761780D01*
X184067630Y-74449768D01*
X184106326Y-74175610D01*
X184111600Y-74063547D01*
X184099421Y-73880008D01*
X184056425Y-73762530D01*
X184007614Y-73706041D01*
X183966423Y-73672884D01*
X183925191Y-73661174D01*
X183871585Y-73679610D01*
X183793270Y-73736893D01*
X183677913Y-73841723D01*
X183513181Y-74002801D01*
X183335217Y-74180346D01*
X182766805Y-74748758D01*
X182514905Y-74748758D01*
X182598972Y-74551620D01*
X182633083Y-74411425D01*
X182801162Y-74411425D01*
X182808474Y-74444340D01*
X182843809Y-74434957D01*
X182917648Y-74376290D01*
X183040475Y-74261352D01*
X183222772Y-74083157D01*
X183267199Y-74039403D01*
X183446787Y-73858898D01*
X183596695Y-73701436D01*
X183703510Y-73581621D01*
X183731131Y-73544528D01*
X184023317Y-73544528D01*
X184032664Y-73576773D01*
X184082913Y-73628912D01*
X184108275Y-73582587D01*
X184111600Y-73520239D01*
X184099154Y-73446540D01*
X184056245Y-73463842D01*
X184055066Y-73465013D01*
X184023317Y-73544528D01*
X183731131Y-73544528D01*
X183753821Y-73514059D01*
X183756000Y-73507127D01*
X183722394Y-73454666D01*
X183633482Y-73350407D01*
X183507123Y-73212744D01*
X183361173Y-73060068D01*
X183213491Y-72910772D01*
X183081935Y-72783248D01*
X182984362Y-72695888D01*
X182940092Y-72666800D01*
X182928263Y-72713404D01*
X182924561Y-72837007D01*
X182929486Y-73013296D01*
X182932017Y-73060927D01*
X182936457Y-73343971D01*
X182915967Y-73653428D01*
X182868162Y-74014647D01*
X182811390Y-74343200D01*
X182801162Y-74411425D01*
X182633083Y-74411425D01*
X182717592Y-74064102D01*
X182775552Y-73509239D01*
X182777125Y-73476630D01*
X182764213Y-72834528D01*
X182672916Y-72281083D01*
X182841600Y-72281083D01*
X182875439Y-72346214D01*
X182966451Y-72464494D01*
X183098876Y-72619207D01*
X183256954Y-72793639D01*
X183424926Y-72971075D01*
X183587032Y-73134798D01*
X183727512Y-73268095D01*
X183830607Y-73354249D01*
X183875808Y-73378000D01*
X183948864Y-73346935D01*
X184018699Y-73293926D01*
X184051966Y-73255026D01*
X184076265Y-73197527D01*
X184092977Y-73106491D01*
X184103478Y-72966985D01*
X184109145Y-72764073D01*
X184111357Y-72482819D01*
X184111600Y-72286781D01*
X184111112Y-71959089D01*
X184108489Y-71717544D01*
X184101989Y-71546691D01*
X184089869Y-71431078D01*
X184070389Y-71355253D01*
X184041807Y-71303761D01*
X184002381Y-71261149D01*
X183995248Y-71254403D01*
X183878896Y-71145096D01*
X183360248Y-71665515D01*
X183172693Y-71860051D01*
X183015969Y-72034776D01*
X182902792Y-72174600D01*
X182845876Y-72264430D01*
X182841600Y-72281083D01*
X182672916Y-72281083D01*
X182666153Y-72240091D01*
X182485032Y-71697225D01*
X182222940Y-71209840D01*
X181881964Y-70781840D01*
X181677336Y-70603204D01*
X181930697Y-70603204D01*
X182099557Y-70809502D01*
X182324527Y-71118136D01*
X182521761Y-71452238D01*
X182664189Y-71765100D01*
X182721021Y-71902575D01*
X182768247Y-71989960D01*
X182786004Y-72006400D01*
X182831755Y-71972353D01*
X182934520Y-71879084D01*
X183080166Y-71739894D01*
X183254557Y-71568089D01*
X183299159Y-71523438D01*
X183765322Y-71055328D01*
X184023317Y-71055328D01*
X184032664Y-71087573D01*
X184082913Y-71139712D01*
X184108275Y-71093387D01*
X184111600Y-71031040D01*
X184099154Y-70957340D01*
X184056245Y-70974642D01*
X184055066Y-70975813D01*
X184023317Y-71055328D01*
X183765322Y-71055328D01*
X183780112Y-71040477D01*
X183209798Y-70470163D01*
X182639484Y-69899848D01*
X182285090Y-70251526D01*
X181930697Y-70603204D01*
X181677336Y-70603204D01*
X181464192Y-70417134D01*
X180987400Y-70127462D01*
X180905650Y-70084744D01*
X180834450Y-70045316D01*
X180769671Y-70009045D01*
X180707185Y-69975801D01*
X180642862Y-69945454D01*
X180572574Y-69917872D01*
X180492193Y-69892925D01*
X180397589Y-69870481D01*
X180284633Y-69850409D01*
X180149197Y-69832580D01*
X179987153Y-69816862D01*
X179794371Y-69803123D01*
X179566723Y-69791234D01*
X179300079Y-69781063D01*
X178990312Y-69772480D01*
X178633292Y-69765353D01*
X178224891Y-69759551D01*
X177760980Y-69754945D01*
X177237430Y-69751402D01*
X176650113Y-69748792D01*
X175994899Y-69746985D01*
X175267660Y-69745848D01*
X174464268Y-69745252D01*
X173580592Y-69745066D01*
X172612506Y-69745158D01*
X171555879Y-69745397D01*
X170406584Y-69745654D01*
X169160491Y-69745796D01*
X168947800Y-69745800D01*
X167700799Y-69745833D01*
X166551301Y-69745956D01*
X165495210Y-69746199D01*
X164528430Y-69746597D01*
X163646864Y-69747180D01*
X162846414Y-69747982D01*
X162122986Y-69749035D01*
X161472481Y-69750372D01*
X160890804Y-69752023D01*
X160373858Y-69754024D01*
X159917546Y-69756404D01*
X159517773Y-69759198D01*
X159170440Y-69762437D01*
X158871453Y-69766153D01*
X158616713Y-69770380D01*
X158402125Y-69775150D01*
X158223593Y-69780494D01*
X158077019Y-69786446D01*
X157958306Y-69793037D01*
X157863360Y-69800301D01*
X157788082Y-69808269D01*
X157728376Y-69816975D01*
X157680147Y-69826450D01*
X157644800Y-69835218D01*
X157144062Y-70007428D01*
X156706209Y-70241570D01*
X156303431Y-70553782D01*
X156143818Y-70706245D01*
X155769778Y-71138275D01*
X155486801Y-71594992D01*
X155290240Y-72088038D01*
X155175445Y-72629056D01*
X155137772Y-73225600D01*
X155003200Y-73225600D01*
X155003200Y-72794675D01*
X154635715Y-73162159D01*
X154268231Y-73529643D01*
X154024557Y-73529643D01*
X154027146Y-73503978D01*
X154021066Y-73496533D01*
X153990866Y-73503506D01*
X153987200Y-73530400D01*
X153845922Y-73530400D01*
X153840783Y-73233922D01*
X153837130Y-72810192D01*
X153835354Y-72311722D01*
X153835327Y-72283513D01*
X153987200Y-72283513D01*
X153988828Y-72646998D01*
X153995023Y-72921112D01*
X154007752Y-73118052D01*
X154028981Y-73250015D01*
X154060676Y-73329196D01*
X154104803Y-73367792D01*
X154163329Y-73377999D01*
X154163651Y-73378000D01*
X154219633Y-73343838D01*
X154329051Y-73251337D01*
X154475002Y-73115472D01*
X154608017Y-72984300D01*
X154842975Y-72738469D01*
X155001481Y-72540880D01*
X155083923Y-72373311D01*
X155090692Y-72217538D01*
X155022178Y-72055339D01*
X154878771Y-71868489D01*
X154660861Y-71638767D01*
X154637323Y-71615080D01*
X154445721Y-71424291D01*
X154311279Y-71296960D01*
X154220376Y-71223659D01*
X154159391Y-71194960D01*
X154114701Y-71201434D01*
X154078523Y-71228299D01*
X154046540Y-71266195D01*
X154022953Y-71323263D01*
X154006515Y-71413942D01*
X153995975Y-71552670D01*
X153990083Y-71753885D01*
X153987591Y-72032026D01*
X153987200Y-72283513D01*
X153835327Y-72283513D01*
X153834794Y-71730322D01*
X153834791Y-71057798D01*
X153834791Y-71041200D01*
X153987200Y-71041200D01*
X154005786Y-71083014D01*
X154021066Y-71075066D01*
X154024566Y-71040358D01*
X154268005Y-71040358D01*
X154697981Y-71472579D01*
X154866569Y-71639937D01*
X155008725Y-71777089D01*
X155109601Y-71869983D01*
X155154347Y-71904566D01*
X155154478Y-71904570D01*
X155187485Y-71862288D01*
X155254315Y-71748922D01*
X155343574Y-71584372D01*
X155398953Y-71477589D01*
X155522097Y-71255175D01*
X155658602Y-71037664D01*
X155784347Y-70862767D01*
X155818053Y-70822324D01*
X155925358Y-70693496D01*
X155998333Y-70592640D01*
X156019200Y-70549214D01*
X155985339Y-70495361D01*
X155895110Y-70390595D01*
X155765544Y-70254257D01*
X155713742Y-70202349D01*
X155408285Y-69900079D01*
X154838145Y-70470218D01*
X154268005Y-71040358D01*
X154024566Y-71040358D01*
X154027146Y-71014778D01*
X154021066Y-71007333D01*
X153990866Y-71014306D01*
X153987200Y-71041200D01*
X153834791Y-71041200D01*
X153834800Y-70852726D01*
X153834800Y-69794313D01*
X153987200Y-69794313D01*
X153988846Y-70157991D01*
X153995077Y-70432275D01*
X154007834Y-70629336D01*
X154029056Y-70761348D01*
X154060682Y-70840480D01*
X154104654Y-70878906D01*
X154161630Y-70888800D01*
X154214152Y-70854634D01*
X154324092Y-70760481D01*
X154477693Y-70618853D01*
X154661195Y-70442265D01*
X154761106Y-70343530D01*
X155308071Y-69798261D01*
X155304191Y-69794369D01*
X155511698Y-69794369D01*
X155827481Y-70112984D01*
X155970317Y-70254967D01*
X156084409Y-70364374D01*
X156152439Y-70424778D01*
X156163326Y-70431600D01*
X156211532Y-70403944D01*
X156316808Y-70331997D01*
X156434726Y-70247100D01*
X156593764Y-70143954D01*
X156796891Y-70031152D01*
X157018699Y-69920618D01*
X157233777Y-69824275D01*
X157416715Y-69754046D01*
X157542104Y-69721852D01*
X157555900Y-69721020D01*
X157607510Y-69708635D01*
X180340626Y-69708635D01*
X180537013Y-69772298D01*
X180816239Y-69883313D01*
X181127960Y-70040177D01*
X181429397Y-70220505D01*
X181546037Y-70300287D01*
X181682971Y-70395915D01*
X181784373Y-70461867D01*
X181824162Y-70482400D01*
X181868321Y-70448947D01*
X181967110Y-70359048D01*
X182103608Y-70228386D01*
X182192892Y-70140597D01*
X182537334Y-69798794D01*
X182533419Y-69794866D01*
X182790800Y-69794866D01*
X182825125Y-69848298D01*
X182917633Y-69955611D01*
X183052620Y-70101005D01*
X183214383Y-70268681D01*
X183387217Y-70442840D01*
X183555419Y-70607681D01*
X183703286Y-70747406D01*
X183815115Y-70846215D01*
X183875202Y-70888309D01*
X183878092Y-70888800D01*
X183949244Y-70857820D01*
X184018699Y-70804726D01*
X184052082Y-70765668D01*
X184076431Y-70707927D01*
X184093142Y-70616500D01*
X184103609Y-70476387D01*
X184109224Y-70272583D01*
X184111381Y-69990088D01*
X184111600Y-69804700D01*
X184111003Y-69477612D01*
X184108081Y-69236414D01*
X184101135Y-69065401D01*
X184088468Y-68948865D01*
X184068380Y-68871100D01*
X184039174Y-68816398D01*
X183999686Y-68769621D01*
X183887773Y-68650495D01*
X183339286Y-69197281D01*
X183148937Y-69390213D01*
X182987271Y-69560123D01*
X182866815Y-69693364D01*
X182800098Y-69776285D01*
X182790800Y-69794866D01*
X182533419Y-69794866D01*
X181991833Y-69251597D01*
X181798981Y-69061451D01*
X181628965Y-68900017D01*
X181495502Y-68779844D01*
X181412311Y-68713482D01*
X181393713Y-68704400D01*
X181340574Y-68738622D01*
X181231038Y-68832537D01*
X181079556Y-68973020D01*
X180900581Y-69146943D01*
X180840860Y-69206517D01*
X180340626Y-69708635D01*
X157607510Y-69708635D01*
X157631389Y-69702905D01*
X157644800Y-69683254D01*
X157610349Y-69631621D01*
X157609728Y-69630918D01*
X158178200Y-69630918D01*
X158457600Y-69599900D01*
X158618920Y-69587777D01*
X158850658Y-69577795D01*
X159121638Y-69571001D01*
X159396278Y-69568441D01*
X160055556Y-69568000D01*
X159626000Y-69136200D01*
X159454862Y-68968379D01*
X159306790Y-68830997D01*
X159197666Y-68738267D01*
X159143462Y-68704400D01*
X159089660Y-68738759D01*
X158980701Y-68832633D01*
X158831759Y-68972214D01*
X158658008Y-69143694D01*
X158634340Y-69167659D01*
X158178200Y-69630918D01*
X157609728Y-69630918D01*
X157518103Y-69527348D01*
X157384719Y-69386925D01*
X157226855Y-69226842D01*
X157061169Y-69063591D01*
X156904319Y-68913663D01*
X156772963Y-68793548D01*
X156683759Y-68719739D01*
X156656032Y-68704400D01*
X156604053Y-68738554D01*
X156494596Y-68832677D01*
X156341381Y-68974257D01*
X156158129Y-69150782D01*
X156058379Y-69249384D01*
X155511698Y-69794369D01*
X155304191Y-69794369D01*
X154738868Y-69227439D01*
X154524328Y-69013554D01*
X154368792Y-68863479D01*
X154260266Y-68768347D01*
X154186757Y-68719292D01*
X154136271Y-68707446D01*
X154096815Y-68723944D01*
X154078433Y-68739182D01*
X154046478Y-68777080D01*
X154022913Y-68834218D01*
X154006490Y-68925029D01*
X153995960Y-69063949D01*
X153990076Y-69265412D01*
X153987588Y-69543853D01*
X153987200Y-69794313D01*
X153834800Y-69794313D01*
X153834800Y-68552000D01*
X153987200Y-68552000D01*
X154005786Y-68593814D01*
X154021066Y-68585866D01*
X154024540Y-68551414D01*
X154267749Y-68551414D01*
X154825108Y-69110507D01*
X155018026Y-69302365D01*
X155185552Y-69465829D01*
X155314808Y-69588581D01*
X155392918Y-69658306D01*
X155409600Y-69669600D01*
X155452937Y-69635484D01*
X155554705Y-69541367D01*
X155702002Y-69399589D01*
X155881921Y-69222491D01*
X155991948Y-69112656D01*
X156547165Y-68555713D01*
X156542908Y-68551414D01*
X156756949Y-68551414D01*
X157311353Y-69107543D01*
X157536106Y-69329250D01*
X157702301Y-69483461D01*
X157819600Y-69577969D01*
X157897665Y-69620567D01*
X157945778Y-69619262D01*
X158009340Y-69568311D01*
X158128464Y-69459190D01*
X158287769Y-69306457D01*
X158471874Y-69124673D01*
X158531040Y-69065240D01*
X159016416Y-68575662D01*
X159219680Y-68575662D01*
X159713986Y-69071831D01*
X159937584Y-69290488D01*
X160105475Y-69440226D01*
X160228030Y-69529304D01*
X160315623Y-69565980D01*
X160337200Y-69568000D01*
X160669643Y-69568000D01*
X162493956Y-69568000D01*
X162064400Y-69136200D01*
X161893256Y-68968378D01*
X161745170Y-68830996D01*
X161636025Y-68738265D01*
X161581800Y-68704400D01*
X161527221Y-68738540D01*
X161417881Y-68831486D01*
X161269666Y-68969025D01*
X161099200Y-69136200D01*
X160669643Y-69568000D01*
X160337200Y-69568000D01*
X160415090Y-69546145D01*
X160524542Y-69475098D01*
X160675833Y-69346636D01*
X160879244Y-69152535D01*
X160972243Y-69059956D01*
X161474678Y-68555627D01*
X161688919Y-68555627D01*
X162193206Y-69061813D01*
X162418736Y-69282593D01*
X162588292Y-69434588D01*
X162712168Y-69526028D01*
X162800659Y-69565142D01*
X162826400Y-69568000D01*
X163158718Y-69568000D01*
X164983281Y-69568000D01*
X164528200Y-69110800D01*
X164356855Y-68938814D01*
X164214649Y-68796376D01*
X164115121Y-68697024D01*
X164071806Y-68654293D01*
X164071000Y-68653600D01*
X164036592Y-68687366D01*
X163944085Y-68779641D01*
X163807014Y-68916887D01*
X163638918Y-69085567D01*
X163613800Y-69110800D01*
X163158718Y-69568000D01*
X162826400Y-69568000D01*
X162904266Y-69546152D01*
X163013688Y-69475130D01*
X163164943Y-69346708D01*
X163368308Y-69152664D01*
X163461734Y-69059663D01*
X163968149Y-68551341D01*
X164173849Y-68551341D01*
X164680271Y-69059670D01*
X164906214Y-69280903D01*
X165076127Y-69433378D01*
X165200289Y-69525318D01*
X165288976Y-69564946D01*
X165315600Y-69568000D01*
X165648043Y-69568000D01*
X167472356Y-69568000D01*
X167042800Y-69136200D01*
X166871656Y-68968378D01*
X166723570Y-68830996D01*
X166614425Y-68738265D01*
X166560200Y-68704400D01*
X166505621Y-68738540D01*
X166396281Y-68831486D01*
X166248066Y-68969025D01*
X166077600Y-69136200D01*
X165648043Y-69568000D01*
X165315600Y-69568000D01*
X165393915Y-69546010D01*
X165503876Y-69474551D01*
X165655802Y-69345382D01*
X165860012Y-69150266D01*
X165945591Y-69065027D01*
X166446676Y-68562054D01*
X166440066Y-68554987D01*
X166666682Y-68554987D01*
X167171288Y-69061493D01*
X167396879Y-69282341D01*
X167566488Y-69434408D01*
X167690407Y-69525922D01*
X167778927Y-69565113D01*
X167804800Y-69568000D01*
X168137243Y-69568000D01*
X169961556Y-69568000D01*
X169532000Y-69136200D01*
X169360856Y-68968378D01*
X169212770Y-68830996D01*
X169103625Y-68738265D01*
X169049400Y-68704400D01*
X168994821Y-68738540D01*
X168885481Y-68831486D01*
X168737266Y-68969025D01*
X168566800Y-69136200D01*
X168137243Y-69568000D01*
X167804800Y-69568000D01*
X167883179Y-69545990D01*
X167993218Y-69474468D01*
X168145239Y-69345192D01*
X168349569Y-69149923D01*
X168434037Y-69065784D01*
X168922319Y-68575662D01*
X169125680Y-68575662D01*
X169619986Y-69071831D01*
X169843584Y-69290488D01*
X170011475Y-69440226D01*
X170134030Y-69529304D01*
X170221623Y-69565980D01*
X170243200Y-69568000D01*
X170575643Y-69568000D01*
X172399956Y-69568000D01*
X171970400Y-69136200D01*
X171799256Y-68968378D01*
X171651170Y-68830996D01*
X171542025Y-68738265D01*
X171487800Y-68704400D01*
X171433221Y-68738540D01*
X171323881Y-68831486D01*
X171175666Y-68969025D01*
X171005200Y-69136200D01*
X170575643Y-69568000D01*
X170243200Y-69568000D01*
X170321090Y-69546145D01*
X170430542Y-69475098D01*
X170581833Y-69346636D01*
X170785244Y-69152535D01*
X170878243Y-69059956D01*
X171380678Y-68555627D01*
X171594919Y-68555627D01*
X172099206Y-69061813D01*
X172324736Y-69282593D01*
X172494292Y-69434588D01*
X172618168Y-69526028D01*
X172706659Y-69565142D01*
X172732400Y-69568000D01*
X173064718Y-69568000D01*
X174889281Y-69568000D01*
X174434200Y-69110800D01*
X174262855Y-68938814D01*
X174120649Y-68796376D01*
X174021121Y-68697024D01*
X173977806Y-68654293D01*
X173977000Y-68653600D01*
X173942592Y-68687366D01*
X173850085Y-68779641D01*
X173713014Y-68916887D01*
X173544918Y-69085567D01*
X173519800Y-69110800D01*
X173064718Y-69568000D01*
X172732400Y-69568000D01*
X172810266Y-69546152D01*
X172919688Y-69475130D01*
X173070943Y-69346708D01*
X173274308Y-69152664D01*
X173367734Y-69059663D01*
X173874163Y-68551327D01*
X174079836Y-68551327D01*
X174586265Y-69059663D01*
X174812209Y-69280897D01*
X174982123Y-69433374D01*
X175106286Y-69525316D01*
X175194974Y-69564946D01*
X175221600Y-69568000D01*
X175553918Y-69568000D01*
X177378481Y-69568000D01*
X176923400Y-69110800D01*
X176752055Y-68938814D01*
X176609849Y-68796376D01*
X176510321Y-68697024D01*
X176467006Y-68654293D01*
X176466200Y-68653600D01*
X176431792Y-68687366D01*
X176339285Y-68779641D01*
X176202214Y-68916887D01*
X176034118Y-69085567D01*
X176009000Y-69110800D01*
X175553918Y-69568000D01*
X175221600Y-69568000D01*
X175299466Y-69546152D01*
X175408888Y-69475130D01*
X175560143Y-69346708D01*
X175763508Y-69152664D01*
X175856934Y-69059663D01*
X176363363Y-68551327D01*
X176569036Y-68551327D01*
X177075465Y-69059663D01*
X177301409Y-69280897D01*
X177471323Y-69433374D01*
X177595486Y-69525316D01*
X177684174Y-69564946D01*
X177710800Y-69568000D01*
X177721806Y-69564911D01*
X178046315Y-69564911D01*
X178729457Y-69580762D01*
X179008955Y-69587643D01*
X179275942Y-69594920D01*
X179501521Y-69601759D01*
X179656795Y-69607330D01*
X179665540Y-69607706D01*
X179918481Y-69618800D01*
X179463400Y-69161600D01*
X179287268Y-68988626D01*
X179134143Y-68845653D01*
X179019349Y-68746470D01*
X178958211Y-68704869D01*
X178955337Y-68704400D01*
X178900751Y-68738537D01*
X178791441Y-68831456D01*
X178643324Y-68968918D01*
X178474336Y-69134655D01*
X178046315Y-69564911D01*
X177721806Y-69564911D01*
X177788845Y-69546096D01*
X177898482Y-69474899D01*
X178050004Y-69346181D01*
X178253705Y-69151710D01*
X178343993Y-69061813D01*
X178848280Y-68555627D01*
X178842410Y-68549699D01*
X179059864Y-68549699D01*
X179591832Y-69102650D01*
X179778597Y-69295507D01*
X179940243Y-69460015D01*
X180063909Y-69583274D01*
X180136734Y-69652382D01*
X180150066Y-69662600D01*
X180193035Y-69630935D01*
X180294423Y-69538979D01*
X180441398Y-69398868D01*
X180621129Y-69222740D01*
X180733400Y-69110800D01*
X181285851Y-68556630D01*
X181501749Y-68556630D01*
X182056508Y-69113115D01*
X182248961Y-69304498D01*
X182416005Y-69467459D01*
X182544728Y-69589649D01*
X182622220Y-69658722D01*
X182638400Y-69669600D01*
X182681725Y-69635482D01*
X182783507Y-69541342D01*
X182930865Y-69399502D01*
X183110917Y-69222281D01*
X183222579Y-69110820D01*
X183765581Y-68566128D01*
X184023317Y-68566128D01*
X184032664Y-68598373D01*
X184082913Y-68650512D01*
X184108275Y-68604187D01*
X184111600Y-68541840D01*
X184099154Y-68468140D01*
X184056245Y-68485442D01*
X184055066Y-68486613D01*
X184023317Y-68566128D01*
X183765581Y-68566128D01*
X183779625Y-68552041D01*
X183248020Y-68018620D01*
X183055362Y-67830499D01*
X182882626Y-67671467D01*
X182746199Y-67555774D01*
X183057613Y-67555774D01*
X183072091Y-67599941D01*
X183144911Y-67692229D01*
X183281949Y-67840411D01*
X183423670Y-67986070D01*
X183878741Y-68448249D01*
X183995170Y-68338869D01*
X184073547Y-68235526D01*
X184107289Y-68096275D01*
X184111600Y-67985312D01*
X184111684Y-67874031D01*
X184100535Y-67798758D01*
X184061044Y-67748780D01*
X183976105Y-67713384D01*
X183828611Y-67681857D01*
X183601456Y-67643486D01*
X183552800Y-67635362D01*
X183359724Y-67601974D01*
X183190255Y-67570908D01*
X183095600Y-67551949D01*
X183057613Y-67555774D01*
X182746199Y-67555774D01*
X182744525Y-67554355D01*
X182655774Y-67491991D01*
X182636254Y-67485200D01*
X182573849Y-67519861D01*
X182456085Y-67615233D01*
X182297610Y-67758393D01*
X182113071Y-67936420D01*
X182028921Y-68020915D01*
X181501749Y-68556630D01*
X181285851Y-68556630D01*
X181290467Y-68552000D01*
X180175749Y-67433814D01*
X179617807Y-67991757D01*
X179059864Y-68549699D01*
X178842410Y-68549699D01*
X178280558Y-67982313D01*
X177712837Y-67409000D01*
X177140936Y-67980163D01*
X176569036Y-68551327D01*
X176363363Y-68551327D01*
X175792481Y-67980446D01*
X175221600Y-67409564D01*
X174650718Y-67980446D01*
X174079836Y-68551327D01*
X173874163Y-68551327D01*
X173302263Y-67980163D01*
X172730362Y-67409000D01*
X172162641Y-67982313D01*
X171594919Y-68555627D01*
X171380678Y-68555627D01*
X171384380Y-68551912D01*
X170827320Y-67993120D01*
X170270261Y-67434328D01*
X169697970Y-68004995D01*
X169125680Y-68575662D01*
X168922319Y-68575662D01*
X168934368Y-68563568D01*
X168763284Y-68379041D01*
X168592200Y-68194513D01*
X168211200Y-68276477D01*
X167778178Y-68334738D01*
X167362401Y-68335409D01*
X167139851Y-68326193D01*
X166994305Y-68327797D01*
X166901389Y-68344337D01*
X166836727Y-68379931D01*
X166780643Y-68433682D01*
X166666682Y-68554987D01*
X166440066Y-68554987D01*
X166204691Y-68303353D01*
X166045015Y-68143574D01*
X166000440Y-68102332D01*
X166217370Y-68102332D01*
X166385459Y-68275756D01*
X166489721Y-68377889D01*
X166554635Y-68414763D01*
X166609545Y-68395978D01*
X166649671Y-68362189D01*
X166708990Y-68292187D01*
X166684833Y-68256792D01*
X166678397Y-68254646D01*
X166589045Y-68226025D01*
X166451599Y-68180703D01*
X166414185Y-68168213D01*
X166388326Y-68159557D01*
X168713563Y-68159557D01*
X168852885Y-68304978D01*
X168948055Y-68397280D01*
X169012843Y-68447398D01*
X169021670Y-68450400D01*
X169065824Y-68416269D01*
X169168318Y-68322109D01*
X169316188Y-68180268D01*
X169496472Y-68003094D01*
X169606519Y-67893286D01*
X169795490Y-67700828D01*
X169953774Y-67534053D01*
X170069691Y-67405721D01*
X170128658Y-67332214D01*
X170371349Y-67332214D01*
X170928744Y-67891343D01*
X171486138Y-68450471D01*
X172058742Y-67879491D01*
X172631347Y-67308511D01*
X172630273Y-67307437D01*
X172884800Y-67307437D01*
X172918942Y-67358747D01*
X173013035Y-67467618D01*
X173154578Y-67620385D01*
X173331070Y-67803383D01*
X173430069Y-67903506D01*
X173975338Y-68450471D01*
X174547668Y-67879764D01*
X175119999Y-67309058D01*
X175116690Y-67305738D01*
X175323128Y-67305738D01*
X175893835Y-67878068D01*
X176464541Y-68450399D01*
X177011470Y-67905165D01*
X177201534Y-67712509D01*
X177362896Y-67542878D01*
X177483010Y-67409946D01*
X177549331Y-67327383D01*
X177558400Y-67309133D01*
X177556211Y-67305697D01*
X177812287Y-67305697D01*
X178383287Y-67878322D01*
X178954288Y-68450947D01*
X179513048Y-67892186D01*
X180070890Y-67334344D01*
X180279472Y-67334344D01*
X181392066Y-68450398D01*
X182430272Y-67415726D01*
X181861236Y-67250849D01*
X181609480Y-67176556D01*
X181370258Y-67103595D01*
X181174132Y-67041416D01*
X181069913Y-67006186D01*
X180881214Y-66946902D01*
X180748329Y-66938281D01*
X180635050Y-66987929D01*
X180505164Y-67103449D01*
X180478645Y-67130372D01*
X180279472Y-67334344D01*
X180070890Y-67334344D01*
X180071809Y-67333426D01*
X179539912Y-66799713D01*
X179347530Y-66611609D01*
X179193490Y-66469200D01*
X179461621Y-66469200D01*
X179474972Y-66502233D01*
X179547947Y-66591306D01*
X179667577Y-66721376D01*
X179768200Y-66824800D01*
X179923707Y-66976210D01*
X180056275Y-67095544D01*
X180147815Y-67167028D01*
X180175972Y-67180400D01*
X180241525Y-67146571D01*
X180344099Y-67060997D01*
X180395659Y-67010380D01*
X180560449Y-66840360D01*
X180034183Y-66654780D01*
X179816858Y-66579553D01*
X179634239Y-66518973D01*
X179507942Y-66480047D01*
X179461621Y-66469200D01*
X179193490Y-66469200D01*
X179175493Y-66452562D01*
X179038395Y-66335382D01*
X178950833Y-66272879D01*
X178931775Y-66266000D01*
X178870197Y-66300295D01*
X178752710Y-66394566D01*
X178594173Y-66535893D01*
X178409446Y-66711353D01*
X178333910Y-66785848D01*
X177812287Y-67305697D01*
X177556211Y-67305697D01*
X177523985Y-67255118D01*
X177431233Y-67147388D01*
X177295885Y-67001734D01*
X177133680Y-66833945D01*
X176960358Y-66659811D01*
X176791659Y-66495123D01*
X176643323Y-66355670D01*
X176531089Y-66257243D01*
X176470698Y-66215630D01*
X176467937Y-66215200D01*
X176415996Y-66249354D01*
X176306568Y-66343478D01*
X176153366Y-66485066D01*
X175970106Y-66661608D01*
X175870093Y-66760469D01*
X175323128Y-67305738D01*
X175116690Y-67305738D01*
X174574765Y-66762129D01*
X174381965Y-66572033D01*
X174212005Y-66410652D01*
X174078607Y-66290537D01*
X173995492Y-66224243D01*
X173976958Y-66215200D01*
X173923026Y-66249674D01*
X173815461Y-66342585D01*
X173670032Y-66478165D01*
X173502503Y-66640646D01*
X173328644Y-66814260D01*
X173164219Y-66983239D01*
X173024997Y-67131815D01*
X172926744Y-67244220D01*
X172885226Y-67304686D01*
X172884800Y-67307437D01*
X172630273Y-67307437D01*
X172072273Y-66749438D01*
X171513200Y-66190364D01*
X170942274Y-66761289D01*
X170371349Y-67332214D01*
X170128658Y-67332214D01*
X170131562Y-67328594D01*
X170138149Y-67312415D01*
X170090285Y-67330446D01*
X169983614Y-67399209D01*
X169838210Y-67505400D01*
X169785096Y-67546430D01*
X169565008Y-67702841D01*
X169309817Y-67861085D01*
X169084681Y-67981878D01*
X168713563Y-68159557D01*
X166388326Y-68159557D01*
X166217370Y-68102332D01*
X166000440Y-68102332D01*
X165844220Y-67957794D01*
X165641572Y-67782149D01*
X165610100Y-67756173D01*
X165257494Y-67467695D01*
X164715672Y-68009518D01*
X164173849Y-68551341D01*
X163968149Y-68551341D01*
X163968163Y-68551327D01*
X163396263Y-67980163D01*
X162824362Y-67409000D01*
X162256641Y-67982313D01*
X161688919Y-68555627D01*
X161474678Y-68555627D01*
X161478380Y-68551912D01*
X160921320Y-67993120D01*
X160364261Y-67434328D01*
X159791970Y-68004995D01*
X159219680Y-68575662D01*
X159016416Y-68575662D01*
X159036280Y-68555627D01*
X158468558Y-67982313D01*
X157900837Y-67409000D01*
X156756949Y-68551414D01*
X156542908Y-68551414D01*
X155979401Y-67982356D01*
X155411637Y-67409000D01*
X154267749Y-68551414D01*
X154024540Y-68551414D01*
X154027146Y-68525578D01*
X154021066Y-68518133D01*
X153990866Y-68525106D01*
X153987200Y-68552000D01*
X153834800Y-68552000D01*
X153834800Y-67601727D01*
X153987200Y-67601727D01*
X153987200Y-67933163D01*
X153998093Y-68155315D01*
X154033420Y-68297990D01*
X154071273Y-68357499D01*
X154137060Y-68427957D01*
X154161126Y-68450400D01*
X154196808Y-68416347D01*
X154290931Y-68322767D01*
X154430652Y-68182524D01*
X154603124Y-68008482D01*
X154673953Y-67936794D01*
X154844127Y-67760598D01*
X154973747Y-67618782D01*
X155053656Y-67522035D01*
X155074698Y-67481044D01*
X155061896Y-67483952D01*
X154959420Y-67513830D01*
X154785553Y-67542574D01*
X154570445Y-67565675D01*
X154464996Y-67573221D01*
X153987200Y-67601727D01*
X153834800Y-67601727D01*
X153834800Y-67434400D01*
X154177700Y-67433158D01*
X154521400Y-67414620D01*
X154799918Y-67363902D01*
X154974869Y-67295707D01*
X155562581Y-67295707D01*
X155590576Y-67354427D01*
X155660580Y-67443013D01*
X155781249Y-67573238D01*
X155961242Y-67756878D01*
X156079757Y-67875985D01*
X156652541Y-68450399D01*
X157199470Y-67905165D01*
X157389531Y-67712525D01*
X157550890Y-67542930D01*
X157671005Y-67410048D01*
X157733540Y-67332258D01*
X157976192Y-67332258D01*
X158533530Y-67891329D01*
X158726444Y-68083182D01*
X158893966Y-68246642D01*
X159023218Y-68369390D01*
X159101322Y-68439109D01*
X159118000Y-68450400D01*
X159161325Y-68416282D01*
X159263107Y-68322142D01*
X159410464Y-68180303D01*
X159590515Y-68003084D01*
X159702156Y-67891643D01*
X160259180Y-67332887D01*
X160466019Y-67332887D01*
X161023079Y-67891679D01*
X161580138Y-68450471D01*
X162152429Y-67879804D01*
X162724719Y-67309137D01*
X162720805Y-67305208D01*
X162978800Y-67305208D01*
X163012957Y-67357311D01*
X163107089Y-67466882D01*
X163248686Y-67620193D01*
X163425239Y-67803518D01*
X163524033Y-67903469D01*
X164069266Y-68450398D01*
X164590833Y-67930607D01*
X164775834Y-67744230D01*
X164931961Y-67583122D01*
X165046436Y-67460768D01*
X165106481Y-67390654D01*
X165112400Y-67380147D01*
X165074341Y-67338553D01*
X164971980Y-67251645D01*
X164823038Y-67134063D01*
X164718700Y-67054890D01*
X164407351Y-66838775D01*
X164133433Y-66682647D01*
X163907975Y-66592170D01*
X163775963Y-66570800D01*
X163699635Y-66604641D01*
X163576445Y-66693492D01*
X163427030Y-66818338D01*
X163272027Y-66960167D01*
X163132074Y-67099968D01*
X163027808Y-67218727D01*
X162979865Y-67297431D01*
X162978800Y-67305208D01*
X162720805Y-67305208D01*
X162230413Y-66812968D01*
X162006815Y-66594311D01*
X161838924Y-66444573D01*
X161716369Y-66355495D01*
X161628776Y-66318819D01*
X161607200Y-66316800D01*
X161529309Y-66338654D01*
X161419857Y-66409701D01*
X161268566Y-66538163D01*
X161065155Y-66732264D01*
X160972156Y-66824843D01*
X160466019Y-67332887D01*
X160259180Y-67332887D01*
X159752090Y-66823696D01*
X159530538Y-66603629D01*
X159358898Y-66451377D01*
X159218363Y-66367387D01*
X159090124Y-66352107D01*
X158955376Y-66405986D01*
X158795310Y-66529471D01*
X158591119Y-66723010D01*
X158458196Y-66854519D01*
X157976192Y-67332258D01*
X157733540Y-67332258D01*
X157737328Y-67327546D01*
X157746400Y-67309327D01*
X157711905Y-67252566D01*
X157620211Y-67144836D01*
X157489004Y-67003831D01*
X157335966Y-66847242D01*
X157178784Y-66692762D01*
X157035142Y-66558082D01*
X156922725Y-66460895D01*
X156859217Y-66418892D01*
X156855843Y-66418400D01*
X156795920Y-66444812D01*
X156670935Y-66515918D01*
X156500007Y-66619523D01*
X156302254Y-66743432D01*
X156096794Y-66875449D01*
X155902744Y-67003380D01*
X155739224Y-67115030D01*
X155625351Y-67198203D01*
X155597986Y-67220766D01*
X155567937Y-67255078D01*
X155562581Y-67295707D01*
X154974869Y-67295707D01*
X155004159Y-67284290D01*
X155125033Y-67179073D01*
X155155600Y-67079636D01*
X155118281Y-66958245D01*
X155011509Y-66781384D01*
X154843060Y-66559597D01*
X154620711Y-66303427D01*
X154448848Y-66121298D01*
X154291916Y-65957877D01*
X154167883Y-65824866D01*
X154089854Y-65736591D01*
X154070059Y-65707200D01*
X154187349Y-65747345D01*
X154359716Y-65864939D01*
X154581859Y-66055716D01*
X154848476Y-66315414D01*
X154927276Y-66396666D01*
X155113902Y-66585712D01*
X155281094Y-66744959D01*
X155414177Y-66861175D01*
X155498477Y-66921124D01*
X155514684Y-66926400D01*
X155605023Y-66899082D01*
X155751909Y-66827414D01*
X155929734Y-66726820D01*
X156112889Y-66612723D01*
X156275766Y-66500549D01*
X156392757Y-66405723D01*
X156393962Y-66404505D01*
X157086000Y-66404505D01*
X157119596Y-66453472D01*
X157208019Y-66553717D01*
X157332719Y-66686390D01*
X157475148Y-66832639D01*
X157616757Y-66973613D01*
X157738996Y-67090462D01*
X157823316Y-67164334D01*
X157849463Y-67180400D01*
X157899113Y-67146878D01*
X157990206Y-67062273D01*
X158036184Y-67015300D01*
X158173343Y-66858174D01*
X158294164Y-66696497D01*
X158384299Y-66552319D01*
X158429404Y-66447689D01*
X158428478Y-66412377D01*
X158371543Y-66395944D01*
X158238458Y-66383194D01*
X158052003Y-66374259D01*
X157834954Y-66369274D01*
X157610093Y-66368371D01*
X157400197Y-66371685D01*
X157228046Y-66379349D01*
X157116418Y-66391497D01*
X157086000Y-66404505D01*
X156393962Y-66404505D01*
X156412900Y-66385376D01*
X156432809Y-66349619D01*
X159527108Y-66349619D01*
X159549828Y-66392100D01*
X159630005Y-66486357D01*
X159750442Y-66615243D01*
X159893944Y-66761614D01*
X160043317Y-66908326D01*
X160181364Y-67038235D01*
X160290891Y-67134196D01*
X160354703Y-67179065D01*
X160360347Y-67180400D01*
X160414496Y-67146472D01*
X160523536Y-67054245D01*
X160671316Y-66918049D01*
X160831438Y-66762421D01*
X160996667Y-66594434D01*
X161131331Y-66450638D01*
X161221062Y-66346852D01*
X161247348Y-66306361D01*
X161937400Y-66306361D01*
X162368078Y-66743380D01*
X162536577Y-66912144D01*
X162678996Y-67050624D01*
X162780551Y-67144732D01*
X162826454Y-67180379D01*
X162826745Y-67180400D01*
X162872474Y-67146681D01*
X162971558Y-67056344D01*
X163106528Y-66925621D01*
X163180623Y-66851589D01*
X163320993Y-66705591D01*
X163425793Y-66588141D01*
X163480279Y-66516204D01*
X163483955Y-66502517D01*
X163423561Y-66485656D01*
X163283426Y-66461130D01*
X163084854Y-66431860D01*
X162849152Y-66400767D01*
X162597625Y-66370773D01*
X162351578Y-66344798D01*
X162293000Y-66339236D01*
X161937400Y-66306361D01*
X161247348Y-66306361D01*
X161251600Y-66299813D01*
X161204222Y-66289583D01*
X161075480Y-66284293D01*
X160885457Y-66283361D01*
X160654239Y-66286209D01*
X160401912Y-66292256D01*
X160148559Y-66300921D01*
X159914266Y-66311625D01*
X159719118Y-66323788D01*
X159583200Y-66336830D01*
X159527108Y-66349619D01*
X156432809Y-66349619D01*
X156505210Y-66219588D01*
X156510232Y-66017791D01*
X156427127Y-65778059D01*
X156255054Y-65498468D01*
X155993172Y-65177094D01*
X155791454Y-64962257D01*
X155621092Y-64786659D01*
X155482226Y-64640453D01*
X155387303Y-64536980D01*
X155348768Y-64489580D01*
X155349010Y-64488000D01*
X155400218Y-64512456D01*
X155512948Y-64576455D01*
X155656954Y-64662608D01*
X155999933Y-64918327D01*
X156342626Y-65263727D01*
X156615113Y-65605600D01*
X156770906Y-65810656D01*
X156899132Y-65947445D01*
X157026226Y-66033762D01*
X157178621Y-66087400D01*
X157382754Y-66126153D01*
X157390157Y-66127303D01*
X157550980Y-66141701D01*
X157787537Y-66149098D01*
X158082216Y-66150173D01*
X158417408Y-66145602D01*
X158775501Y-66136063D01*
X159138885Y-66122232D01*
X159489950Y-66104787D01*
X159811085Y-66084406D01*
X160084679Y-66061764D01*
X160293121Y-66037540D01*
X160418802Y-66012411D01*
X160424024Y-66010643D01*
X160569245Y-65922156D01*
X160621727Y-65793392D01*
X160581702Y-65625057D01*
X160449399Y-65417853D01*
X160225048Y-65172486D01*
X160116534Y-65070139D01*
X159968758Y-64930786D01*
X159861490Y-64820821D01*
X159808276Y-64754676D01*
X159808554Y-64742000D01*
X159903370Y-64774427D01*
X160046357Y-64859812D01*
X160212818Y-64980305D01*
X160378059Y-65118058D01*
X160515000Y-65252586D01*
X160752526Y-65511716D01*
X160936586Y-65704355D01*
X161079982Y-65841026D01*
X161195516Y-65932250D01*
X161295992Y-65988548D01*
X161394212Y-66020443D01*
X161465092Y-66033393D01*
X161684769Y-66043989D01*
X161963807Y-66027077D01*
X162265252Y-65987501D01*
X162552152Y-65930103D01*
X162786299Y-65860208D01*
X163060330Y-65740528D01*
X163310292Y-65594585D01*
X163545056Y-65412559D01*
X163773493Y-65184632D01*
X164004474Y-64900985D01*
X164246870Y-64551799D01*
X164302151Y-64462454D01*
X164909200Y-64462454D01*
X164948725Y-64495763D01*
X165051208Y-64564928D01*
X165163200Y-64635573D01*
X165417200Y-64791860D01*
X165417018Y-65681800D01*
X165175809Y-65830712D01*
X165040214Y-65914823D01*
X164944362Y-65975030D01*
X164915258Y-65993987D01*
X164922303Y-66044576D01*
X164960392Y-66160926D01*
X165006973Y-66281971D01*
X165118028Y-66555594D01*
X165446533Y-66476994D01*
X165775037Y-66398394D01*
X166072748Y-66692999D01*
X166370459Y-66987603D01*
X166300832Y-67249101D01*
X166251473Y-67451775D01*
X166238765Y-67581726D01*
X166268423Y-67663006D01*
X166346163Y-67719666D01*
X166420500Y-67752769D01*
X166599469Y-67816215D01*
X166721260Y-67820641D01*
X166817843Y-67755761D01*
X166921188Y-67611290D01*
X166936373Y-67586800D01*
X167092660Y-67332800D01*
X167948485Y-67332800D01*
X168104773Y-67586800D01*
X168194601Y-67722996D01*
X168267000Y-67815283D01*
X168299630Y-67841051D01*
X168392841Y-67822806D01*
X168524481Y-67776869D01*
X168661429Y-67717664D01*
X168770563Y-67659616D01*
X168818759Y-67617152D01*
X168818990Y-67614864D01*
X168806867Y-67539168D01*
X168777449Y-67399464D01*
X168748615Y-67274645D01*
X168726029Y-67180183D01*
X170280805Y-67180183D01*
X170281659Y-67180400D01*
X170329657Y-67146238D01*
X170435134Y-67052235D01*
X170584458Y-66911115D01*
X170763997Y-66735601D01*
X170848210Y-66651605D01*
X171069209Y-66424987D01*
X171220939Y-66257032D01*
X171310289Y-66139153D01*
X171333628Y-66086503D01*
X171614763Y-66086503D01*
X172160015Y-66633451D01*
X172350758Y-66823092D01*
X172516028Y-66984198D01*
X172642789Y-67104315D01*
X172718005Y-67170987D01*
X172732400Y-67180400D01*
X172775725Y-67146282D01*
X172877507Y-67052142D01*
X173024865Y-66910302D01*
X173204917Y-66733081D01*
X173316579Y-66621620D01*
X173873529Y-66062937D01*
X174080469Y-66062937D01*
X174637468Y-66621668D01*
X174830322Y-66813460D01*
X174997781Y-66976854D01*
X175126964Y-67099529D01*
X175204988Y-67169164D01*
X175221600Y-67180400D01*
X175264926Y-67146282D01*
X175366707Y-67052144D01*
X175514060Y-66910308D01*
X175694102Y-66733098D01*
X175805637Y-66621763D01*
X176361599Y-66064070D01*
X176570799Y-66064070D01*
X177127233Y-66622235D01*
X177319993Y-66813925D01*
X177487363Y-66977211D01*
X177616452Y-67099764D01*
X177694368Y-67169256D01*
X177710886Y-67180400D01*
X177754630Y-67146365D01*
X177855949Y-67052951D01*
X178001149Y-66913191D01*
X178176537Y-66740116D01*
X178237065Y-66679561D01*
X178736025Y-66178722D01*
X177991309Y-65917649D01*
X177668283Y-65803927D01*
X177426609Y-65720603D01*
X177251040Y-65666591D01*
X177126331Y-65640803D01*
X177037235Y-65642152D01*
X176968507Y-65669552D01*
X176904898Y-65721915D01*
X176831164Y-65798155D01*
X176797899Y-65832569D01*
X176570799Y-66064070D01*
X176361599Y-66064070D01*
X176362541Y-66063126D01*
X175957170Y-65652871D01*
X175708716Y-65406783D01*
X175511712Y-65234575D01*
X175455100Y-65200086D01*
X175707623Y-65200086D01*
X176085211Y-65580211D01*
X176462800Y-65960337D01*
X176655000Y-65772658D01*
X176763006Y-65661197D01*
X176832732Y-65577729D01*
X176847200Y-65550520D01*
X176802909Y-65518274D01*
X176691254Y-65477287D01*
X176631300Y-65460497D01*
X176468281Y-65416896D01*
X176256301Y-65358045D01*
X176061511Y-65302509D01*
X175707623Y-65200086D01*
X175455100Y-65200086D01*
X175348832Y-65135347D01*
X175202748Y-65108197D01*
X175056135Y-65152224D01*
X174891665Y-65266527D01*
X174692012Y-65450205D01*
X174561131Y-65580268D01*
X174080469Y-66062937D01*
X173873529Y-66062937D01*
X173873625Y-66062841D01*
X173342020Y-65529420D01*
X173151805Y-65341834D01*
X172984642Y-65183121D01*
X172854412Y-65065996D01*
X172774996Y-65003169D01*
X172759537Y-64996000D01*
X172707595Y-65030154D01*
X172598167Y-65124278D01*
X172444967Y-65265865D01*
X172261708Y-65442406D01*
X172161711Y-65541251D01*
X171614763Y-66086503D01*
X171333628Y-66086503D01*
X171344151Y-66062765D01*
X171342001Y-66036284D01*
X171301076Y-65978989D01*
X171235163Y-66010877D01*
X171232963Y-66012693D01*
X171165660Y-66080188D01*
X171058007Y-66200956D01*
X170923172Y-66358832D01*
X170774326Y-66537653D01*
X170624635Y-66721255D01*
X170487269Y-66893473D01*
X170375397Y-67038143D01*
X170302186Y-67139101D01*
X170280805Y-67180183D01*
X168726029Y-67180183D01*
X168680049Y-66987891D01*
X168971241Y-66699738D01*
X169262433Y-66411584D01*
X169580636Y-66494039D01*
X169744856Y-66534000D01*
X169863521Y-66557969D01*
X169909529Y-66560947D01*
X169933823Y-66509512D01*
X169984982Y-66393670D01*
X170029191Y-66291400D01*
X170089254Y-66142133D01*
X170107742Y-66057033D01*
X170087245Y-66008768D01*
X170058071Y-65986600D01*
X169969305Y-65926796D01*
X171439746Y-65926796D01*
X171494960Y-65960895D01*
X171504689Y-65961200D01*
X171552929Y-65927243D01*
X171656278Y-65835091D01*
X171798942Y-65699320D01*
X171945000Y-65554800D01*
X172133832Y-65359360D01*
X172246021Y-65229703D01*
X172281760Y-65165138D01*
X172241241Y-65164974D01*
X172124660Y-65228523D01*
X172017209Y-65297660D01*
X171820693Y-65442199D01*
X171654855Y-65590113D01*
X171529528Y-65728673D01*
X171454547Y-65845144D01*
X171439746Y-65926796D01*
X169969305Y-65926796D01*
X169818742Y-65825358D01*
X169668721Y-65701164D01*
X169604161Y-65610510D01*
X169604042Y-65572715D01*
X169619101Y-65484726D01*
X169629747Y-65329445D01*
X169633600Y-65148602D01*
X169633600Y-64975748D01*
X173037200Y-64975748D01*
X173071173Y-65026167D01*
X173164108Y-65133036D01*
X173302529Y-65281563D01*
X173472957Y-65456959D01*
X173506095Y-65490344D01*
X173974991Y-65961198D01*
X174419878Y-65518372D01*
X174605481Y-65330937D01*
X174725875Y-65200755D01*
X174789954Y-65115571D01*
X174806611Y-65063130D01*
X174784738Y-65031176D01*
X174776903Y-65026378D01*
X174699028Y-65007926D01*
X174546637Y-64990976D01*
X174339682Y-64976110D01*
X174098111Y-64963909D01*
X173841873Y-64954951D01*
X173590918Y-64949819D01*
X173365195Y-64949092D01*
X173184654Y-64953352D01*
X173069243Y-64963178D01*
X173037200Y-64975748D01*
X169633600Y-64975748D01*
X169633600Y-64801514D01*
X170137426Y-64491506D01*
X170031140Y-64235753D01*
X169971528Y-64099035D01*
X169916058Y-64020713D01*
X169838832Y-63990946D01*
X169713956Y-63999895D01*
X169515533Y-64037720D01*
X169511887Y-64038452D01*
X169220829Y-64096905D01*
X168966046Y-63847952D01*
X168849607Y-63732873D01*
X168776178Y-63643617D01*
X168740307Y-63554470D01*
X168736541Y-63439716D01*
X168759428Y-63273641D01*
X168798523Y-63057861D01*
X168813647Y-62947270D01*
X168793736Y-62879067D01*
X168718478Y-62824581D01*
X168591584Y-62765761D01*
X168449182Y-62705441D01*
X168347480Y-62667289D01*
X168319042Y-62660208D01*
X168278182Y-62700864D01*
X168205053Y-62805057D01*
X168137200Y-62914208D01*
X167987001Y-63167200D01*
X167108786Y-63167200D01*
X166950891Y-62913200D01*
X166858573Y-62776987D01*
X166781461Y-62684800D01*
X166744309Y-62659200D01*
X166672553Y-62677910D01*
X166543661Y-62725620D01*
X166459293Y-62760502D01*
X166314204Y-62832887D01*
X166251380Y-62895638D01*
X166249994Y-62951002D01*
X166277367Y-63054224D01*
X166313975Y-63207412D01*
X166327867Y-63268800D01*
X166378711Y-63497400D01*
X166084333Y-63793113D01*
X165789956Y-64088827D01*
X165470958Y-64006166D01*
X165305410Y-63966228D01*
X165184257Y-63942573D01*
X165135372Y-63940093D01*
X165108063Y-63991814D01*
X165057295Y-64102848D01*
X164997923Y-64238888D01*
X164944800Y-64365627D01*
X164912781Y-64448760D01*
X164909200Y-64462454D01*
X164302151Y-64462454D01*
X164509553Y-64127256D01*
X164783403Y-63649800D01*
X164933709Y-63430574D01*
X165146727Y-63185015D01*
X165397168Y-62937565D01*
X165659744Y-62712671D01*
X165909165Y-62534777D01*
X165980494Y-62492644D01*
X166471499Y-62269368D01*
X166992131Y-62122115D01*
X167520407Y-62054356D01*
X168034345Y-62069558D01*
G36*
X158219797Y-70670505D02*
X158351511Y-70677074D01*
X158521587Y-70690542D01*
X158737349Y-70711696D01*
X159006121Y-70741326D01*
X159335227Y-70780220D01*
X159731991Y-70829168D01*
X160203736Y-70888958D01*
X160757787Y-70960380D01*
X161401468Y-71044221D01*
X161766192Y-71091961D01*
X162363530Y-71170230D01*
X162939185Y-71245633D01*
X163483974Y-71316967D01*
X163988713Y-71383032D01*
X164444220Y-71442626D01*
X164841312Y-71494549D01*
X165170807Y-71537599D01*
X165423523Y-71570575D01*
X165590275Y-71592275D01*
X165645800Y-71599455D01*
X165989579Y-71643775D01*
X166398810Y-71696826D01*
X166865419Y-71757543D01*
X167381328Y-71824861D01*
X167938462Y-71897715D01*
X168528746Y-71975040D01*
X169144105Y-72055770D01*
X169776461Y-72138842D01*
X170417740Y-72223190D01*
X171059866Y-72307748D01*
X171694763Y-72391452D01*
X172314356Y-72473237D01*
X172910569Y-72552037D01*
X173475326Y-72626788D01*
X174000551Y-72696425D01*
X174478169Y-72759881D01*
X174900105Y-72816094D01*
X175258282Y-72863996D01*
X175544625Y-72902524D01*
X175751058Y-72930612D01*
X175869505Y-72947195D01*
X175894700Y-72951121D01*
X176008214Y-73005190D01*
X176034400Y-73077236D01*
X176032663Y-73090172D01*
X176024320Y-73101911D01*
X176004667Y-73112511D01*
X175969005Y-73122031D01*
X175912631Y-73130528D01*
X175830843Y-73138061D01*
X175718940Y-73144688D01*
X175572221Y-73150466D01*
X175385984Y-73155453D01*
X175155528Y-73159709D01*
X174876150Y-73163290D01*
X174543150Y-73166255D01*
X174151825Y-73168662D01*
X173697475Y-73170570D01*
X173175397Y-73172035D01*
X172580890Y-73173116D01*
X171909253Y-73173872D01*
X171155784Y-73174360D01*
X170315781Y-73174639D01*
X169384543Y-73174766D01*
X168357369Y-73174799D01*
X168135000Y-73174800D01*
X160235600Y-73174800D01*
X160235600Y-73378000D01*
X160249047Y-73513802D01*
X160284630Y-73578830D01*
X160294667Y-73581200D01*
X160356859Y-73587735D01*
X160508256Y-73606348D01*
X160737377Y-73635550D01*
X161032738Y-73673849D01*
X161382856Y-73719757D01*
X161776246Y-73771783D01*
X162201426Y-73828438D01*
X162237767Y-73833299D01*
X162644873Y-73887711D01*
X163120912Y-73951226D01*
X163658129Y-74022818D01*
X164248770Y-74101457D01*
X164885082Y-74186115D01*
X165559311Y-74275764D01*
X166263701Y-74369375D01*
X166990500Y-74465920D01*
X167731952Y-74564370D01*
X168480304Y-74663697D01*
X169227803Y-74762873D01*
X169966692Y-74860869D01*
X170689219Y-74956656D01*
X171387630Y-75049207D01*
X172054170Y-75137492D01*
X172681085Y-75220484D01*
X173260621Y-75297155D01*
X173785024Y-75366474D01*
X174246540Y-75427415D01*
X174637414Y-75478949D01*
X174949894Y-75520047D01*
X175176224Y-75549681D01*
X175297800Y-75565437D01*
X175584421Y-75603028D01*
X175785290Y-75632949D01*
X175915556Y-75659434D01*
X175990366Y-75686715D01*
X176024870Y-75719024D01*
X176034215Y-75760594D01*
X176034400Y-75771253D01*
X176032420Y-75783286D01*
X176023525Y-75794265D01*
X176003282Y-75804237D01*
X175967256Y-75813247D01*
X175911015Y-75821341D01*
X175830125Y-75828564D01*
X175720153Y-75834963D01*
X175576665Y-75840584D01*
X175395228Y-75845471D01*
X175171408Y-75849672D01*
X174900772Y-75853231D01*
X174578887Y-75856195D01*
X174201318Y-75858609D01*
X173763633Y-75860519D01*
X173261398Y-75861972D01*
X172690180Y-75863012D01*
X172045544Y-75863685D01*
X171323059Y-75864038D01*
X170518290Y-75864116D01*
X169626803Y-75863966D01*
X168644166Y-75863632D01*
X167565945Y-75863160D01*
X167157100Y-75862967D01*
X166018762Y-75862324D01*
X164977704Y-75861503D01*
X164029607Y-75860469D01*
X163170150Y-75859185D01*
X162395013Y-75857616D01*
X161699877Y-75855726D01*
X161080421Y-75853479D01*
X160532326Y-75850838D01*
X160051273Y-75847768D01*
X159632940Y-75844233D01*
X159273008Y-75840197D01*
X158967158Y-75835625D01*
X158711069Y-75830479D01*
X158500422Y-75824724D01*
X158330896Y-75818324D01*
X158198173Y-75811244D01*
X158097931Y-75803447D01*
X158025851Y-75794897D01*
X157981811Y-75786607D01*
X157548095Y-75632570D01*
X157140591Y-75394020D01*
X156779848Y-75086824D01*
X156486417Y-74726845D01*
X156381451Y-74551189D01*
X156196152Y-74107968D01*
X156095941Y-73647176D01*
X156075953Y-73180569D01*
X156131325Y-72719900D01*
X156257191Y-72276925D01*
X156448689Y-71863398D01*
X156700953Y-71491074D01*
X157009121Y-71171708D01*
X157368327Y-70917053D01*
X157773708Y-70738864D01*
X157981592Y-70684293D01*
X158042161Y-70674903D01*
X158119122Y-70670044D01*
X158219797Y-70670505D01*
X158219797Y-70670505D01*
G37*
X158219797Y-70670505D02*
X158351511Y-70677074D01*
X158521587Y-70690542D01*
X158737349Y-70711696D01*
X159006121Y-70741326D01*
X159335227Y-70780220D01*
X159731991Y-70829168D01*
X160203736Y-70888958D01*
X160757787Y-70960380D01*
X161401468Y-71044221D01*
X161766192Y-71091961D01*
X162363530Y-71170230D01*
X162939185Y-71245633D01*
X163483974Y-71316967D01*
X163988713Y-71383032D01*
X164444220Y-71442626D01*
X164841312Y-71494549D01*
X165170807Y-71537599D01*
X165423523Y-71570575D01*
X165590275Y-71592275D01*
X165645800Y-71599455D01*
X165989579Y-71643775D01*
X166398810Y-71696826D01*
X166865419Y-71757543D01*
X167381328Y-71824861D01*
X167938462Y-71897715D01*
X168528746Y-71975040D01*
X169144105Y-72055770D01*
X169776461Y-72138842D01*
X170417740Y-72223190D01*
X171059866Y-72307748D01*
X171694763Y-72391452D01*
X172314356Y-72473237D01*
X172910569Y-72552037D01*
X173475326Y-72626788D01*
X174000551Y-72696425D01*
X174478169Y-72759881D01*
X174900105Y-72816094D01*
X175258282Y-72863996D01*
X175544625Y-72902524D01*
X175751058Y-72930612D01*
X175869505Y-72947195D01*
X175894700Y-72951121D01*
X176008214Y-73005190D01*
X176034400Y-73077236D01*
X176032663Y-73090172D01*
X176024320Y-73101911D01*
X176004667Y-73112511D01*
X175969005Y-73122031D01*
X175912631Y-73130528D01*
X175830843Y-73138061D01*
X175718940Y-73144688D01*
X175572221Y-73150466D01*
X175385984Y-73155453D01*
X175155528Y-73159709D01*
X174876150Y-73163290D01*
X174543150Y-73166255D01*
X174151825Y-73168662D01*
X173697475Y-73170570D01*
X173175397Y-73172035D01*
X172580890Y-73173116D01*
X171909253Y-73173872D01*
X171155784Y-73174360D01*
X170315781Y-73174639D01*
X169384543Y-73174766D01*
X168357369Y-73174799D01*
X168135000Y-73174800D01*
X160235600Y-73174800D01*
X160235600Y-73378000D01*
X160249047Y-73513802D01*
X160284630Y-73578830D01*
X160294667Y-73581200D01*
X160356859Y-73587735D01*
X160508256Y-73606348D01*
X160737377Y-73635550D01*
X161032738Y-73673849D01*
X161382856Y-73719757D01*
X161776246Y-73771783D01*
X162201426Y-73828438D01*
X162237767Y-73833299D01*
X162644873Y-73887711D01*
X163120912Y-73951226D01*
X163658129Y-74022818D01*
X164248770Y-74101457D01*
X164885082Y-74186115D01*
X165559311Y-74275764D01*
X166263701Y-74369375D01*
X166990500Y-74465920D01*
X167731952Y-74564370D01*
X168480304Y-74663697D01*
X169227803Y-74762873D01*
X169966692Y-74860869D01*
X170689219Y-74956656D01*
X171387630Y-75049207D01*
X172054170Y-75137492D01*
X172681085Y-75220484D01*
X173260621Y-75297155D01*
X173785024Y-75366474D01*
X174246540Y-75427415D01*
X174637414Y-75478949D01*
X174949894Y-75520047D01*
X175176224Y-75549681D01*
X175297800Y-75565437D01*
X175584421Y-75603028D01*
X175785290Y-75632949D01*
X175915556Y-75659434D01*
X175990366Y-75686715D01*
X176024870Y-75719024D01*
X176034215Y-75760594D01*
X176034400Y-75771253D01*
X176032420Y-75783286D01*
X176023525Y-75794265D01*
X176003282Y-75804237D01*
X175967256Y-75813247D01*
X175911015Y-75821341D01*
X175830125Y-75828564D01*
X175720153Y-75834963D01*
X175576665Y-75840584D01*
X175395228Y-75845471D01*
X175171408Y-75849672D01*
X174900772Y-75853231D01*
X174578887Y-75856195D01*
X174201318Y-75858609D01*
X173763633Y-75860519D01*
X173261398Y-75861972D01*
X172690180Y-75863012D01*
X172045544Y-75863685D01*
X171323059Y-75864038D01*
X170518290Y-75864116D01*
X169626803Y-75863966D01*
X168644166Y-75863632D01*
X167565945Y-75863160D01*
X167157100Y-75862967D01*
X166018762Y-75862324D01*
X164977704Y-75861503D01*
X164029607Y-75860469D01*
X163170150Y-75859185D01*
X162395013Y-75857616D01*
X161699877Y-75855726D01*
X161080421Y-75853479D01*
X160532326Y-75850838D01*
X160051273Y-75847768D01*
X159632940Y-75844233D01*
X159273008Y-75840197D01*
X158967158Y-75835625D01*
X158711069Y-75830479D01*
X158500422Y-75824724D01*
X158330896Y-75818324D01*
X158198173Y-75811244D01*
X158097931Y-75803447D01*
X158025851Y-75794897D01*
X157981811Y-75786607D01*
X157548095Y-75632570D01*
X157140591Y-75394020D01*
X156779848Y-75086824D01*
X156486417Y-74726845D01*
X156381451Y-74551189D01*
X156196152Y-74107968D01*
X156095941Y-73647176D01*
X156075953Y-73180569D01*
X156131325Y-72719900D01*
X156257191Y-72276925D01*
X156448689Y-71863398D01*
X156700953Y-71491074D01*
X157009121Y-71171708D01*
X157368327Y-70917053D01*
X157773708Y-70738864D01*
X157981592Y-70684293D01*
X158042161Y-70674903D01*
X158119122Y-70670044D01*
X158219797Y-70670505D01*
G36*
X171937918Y-70685621D02*
X172960488Y-70685717D01*
X173890613Y-70685938D01*
X174732868Y-70686333D01*
X175491830Y-70686951D01*
X176172077Y-70687840D01*
X176778184Y-70689051D01*
X177314730Y-70690632D01*
X177786290Y-70692633D01*
X178197442Y-70695102D01*
X178552762Y-70698090D01*
X178856827Y-70701644D01*
X179114214Y-70705814D01*
X179329500Y-70710650D01*
X179507262Y-70716200D01*
X179652076Y-70722514D01*
X179768520Y-70729641D01*
X179861170Y-70737630D01*
X179934603Y-70746531D01*
X179993396Y-70756391D01*
X180042126Y-70767261D01*
X180085369Y-70779190D01*
X180105748Y-70785377D01*
X180553550Y-70975495D01*
X180949712Y-71249950D01*
X181287443Y-71601912D01*
X181559952Y-72024552D01*
X181729802Y-72418562D01*
X181821275Y-72803320D01*
X181851360Y-73232713D01*
X181820147Y-73670489D01*
X181727724Y-74080391D01*
X181725709Y-74086646D01*
X181610629Y-74371936D01*
X181450872Y-74674090D01*
X181265338Y-74963197D01*
X181072923Y-75209351D01*
X180921222Y-75359866D01*
X180773999Y-75465911D01*
X180579897Y-75584855D01*
X180411050Y-75675519D01*
X180296435Y-75729166D01*
X180182976Y-75772947D01*
X180062077Y-75806487D01*
X179925141Y-75829407D01*
X179763572Y-75841330D01*
X179568774Y-75841879D01*
X179332150Y-75830677D01*
X179045106Y-75807346D01*
X178699043Y-75771508D01*
X178285367Y-75722788D01*
X177795480Y-75660806D01*
X177220787Y-75585187D01*
X176669400Y-75511279D01*
X176170787Y-75444164D01*
X175697751Y-75380577D01*
X175242438Y-75319479D01*
X174796992Y-75259830D01*
X174353557Y-75200592D01*
X173904277Y-75140725D01*
X173441298Y-75079190D01*
X172956763Y-75014949D01*
X172442817Y-74946962D01*
X171891605Y-74874190D01*
X171295271Y-74795594D01*
X170645959Y-74710135D01*
X169935814Y-74616774D01*
X169156981Y-74514471D01*
X168301603Y-74402188D01*
X167361826Y-74278886D01*
X166329794Y-74143526D01*
X166242700Y-74132104D01*
X165472959Y-74031007D01*
X164797893Y-73941938D01*
X164211404Y-73863971D01*
X163707395Y-73796182D01*
X163279769Y-73737648D01*
X162922429Y-73687444D01*
X162629279Y-73644646D01*
X162394219Y-73608329D01*
X162211155Y-73577570D01*
X162073989Y-73551443D01*
X161976623Y-73529026D01*
X161912962Y-73509393D01*
X161876907Y-73491620D01*
X161862361Y-73474783D01*
X161861200Y-73467915D01*
X161864773Y-73456024D01*
X161878615Y-73445214D01*
X161907403Y-73435424D01*
X161955818Y-73426593D01*
X162028540Y-73418662D01*
X162130248Y-73411569D01*
X162265621Y-73405254D01*
X162439340Y-73399656D01*
X162656083Y-73394715D01*
X162920532Y-73390370D01*
X163237364Y-73386560D01*
X163611260Y-73383225D01*
X164046900Y-73380305D01*
X164548963Y-73377738D01*
X165122129Y-73375464D01*
X165771077Y-73373423D01*
X166500487Y-73371553D01*
X167315039Y-73369795D01*
X168219412Y-73368088D01*
X169218286Y-73366370D01*
X169773300Y-73365459D01*
X177685400Y-73352600D01*
X177701064Y-73163811D01*
X177702184Y-73035375D01*
X177666467Y-72973098D01*
X177599464Y-72948277D01*
X177533224Y-72937928D01*
X177373364Y-72915298D01*
X177126996Y-72881343D01*
X176801236Y-72837016D01*
X176403197Y-72783273D01*
X175939992Y-72721068D01*
X175418735Y-72651355D01*
X174846541Y-72575089D01*
X174230522Y-72493225D01*
X173577793Y-72406718D01*
X172895468Y-72316521D01*
X172656200Y-72284946D01*
X171566009Y-72141108D01*
X170504254Y-72000956D01*
X169477100Y-71865306D01*
X168490709Y-71734972D01*
X167551245Y-71610772D01*
X166664871Y-71493520D01*
X165837752Y-71384033D01*
X165076050Y-71283127D01*
X164385929Y-71191616D01*
X163773553Y-71110318D01*
X163245084Y-71040047D01*
X162806688Y-70981620D01*
X162547226Y-70946936D01*
X162269108Y-70907468D01*
X162077224Y-70873864D01*
X161956678Y-70842275D01*
X161892568Y-70808852D01*
X161870401Y-70772064D01*
X161872605Y-70761250D01*
X161886483Y-70751373D01*
X161916412Y-70742391D01*
X161966768Y-70734263D01*
X162041926Y-70726945D01*
X162146261Y-70720396D01*
X162284150Y-70714572D01*
X162459968Y-70709433D01*
X162678090Y-70704935D01*
X162942893Y-70701036D01*
X163258752Y-70697695D01*
X163630043Y-70694868D01*
X164061141Y-70692513D01*
X164556422Y-70690589D01*
X165120262Y-70689053D01*
X165757036Y-70687862D01*
X166471120Y-70686974D01*
X167266890Y-70686348D01*
X168148720Y-70685940D01*
X169120988Y-70685708D01*
X170188069Y-70685611D01*
X170818324Y-70685600D01*
X171937918Y-70685621D01*
X171937918Y-70685621D01*
G37*
X171937918Y-70685621D02*
X172960488Y-70685717D01*
X173890613Y-70685938D01*
X174732868Y-70686333D01*
X175491830Y-70686951D01*
X176172077Y-70687840D01*
X176778184Y-70689051D01*
X177314730Y-70690632D01*
X177786290Y-70692633D01*
X178197442Y-70695102D01*
X178552762Y-70698090D01*
X178856827Y-70701644D01*
X179114214Y-70705814D01*
X179329500Y-70710650D01*
X179507262Y-70716200D01*
X179652076Y-70722514D01*
X179768520Y-70729641D01*
X179861170Y-70737630D01*
X179934603Y-70746531D01*
X179993396Y-70756391D01*
X180042126Y-70767261D01*
X180085369Y-70779190D01*
X180105748Y-70785377D01*
X180553550Y-70975495D01*
X180949712Y-71249950D01*
X181287443Y-71601912D01*
X181559952Y-72024552D01*
X181729802Y-72418562D01*
X181821275Y-72803320D01*
X181851360Y-73232713D01*
X181820147Y-73670489D01*
X181727724Y-74080391D01*
X181725709Y-74086646D01*
X181610629Y-74371936D01*
X181450872Y-74674090D01*
X181265338Y-74963197D01*
X181072923Y-75209351D01*
X180921222Y-75359866D01*
X180773999Y-75465911D01*
X180579897Y-75584855D01*
X180411050Y-75675519D01*
X180296435Y-75729166D01*
X180182976Y-75772947D01*
X180062077Y-75806487D01*
X179925141Y-75829407D01*
X179763572Y-75841330D01*
X179568774Y-75841879D01*
X179332150Y-75830677D01*
X179045106Y-75807346D01*
X178699043Y-75771508D01*
X178285367Y-75722788D01*
X177795480Y-75660806D01*
X177220787Y-75585187D01*
X176669400Y-75511279D01*
X176170787Y-75444164D01*
X175697751Y-75380577D01*
X175242438Y-75319479D01*
X174796992Y-75259830D01*
X174353557Y-75200592D01*
X173904277Y-75140725D01*
X173441298Y-75079190D01*
X172956763Y-75014949D01*
X172442817Y-74946962D01*
X171891605Y-74874190D01*
X171295271Y-74795594D01*
X170645959Y-74710135D01*
X169935814Y-74616774D01*
X169156981Y-74514471D01*
X168301603Y-74402188D01*
X167361826Y-74278886D01*
X166329794Y-74143526D01*
X166242700Y-74132104D01*
X165472959Y-74031007D01*
X164797893Y-73941938D01*
X164211404Y-73863971D01*
X163707395Y-73796182D01*
X163279769Y-73737648D01*
X162922429Y-73687444D01*
X162629279Y-73644646D01*
X162394219Y-73608329D01*
X162211155Y-73577570D01*
X162073989Y-73551443D01*
X161976623Y-73529026D01*
X161912962Y-73509393D01*
X161876907Y-73491620D01*
X161862361Y-73474783D01*
X161861200Y-73467915D01*
X161864773Y-73456024D01*
X161878615Y-73445214D01*
X161907403Y-73435424D01*
X161955818Y-73426593D01*
X162028540Y-73418662D01*
X162130248Y-73411569D01*
X162265621Y-73405254D01*
X162439340Y-73399656D01*
X162656083Y-73394715D01*
X162920532Y-73390370D01*
X163237364Y-73386560D01*
X163611260Y-73383225D01*
X164046900Y-73380305D01*
X164548963Y-73377738D01*
X165122129Y-73375464D01*
X165771077Y-73373423D01*
X166500487Y-73371553D01*
X167315039Y-73369795D01*
X168219412Y-73368088D01*
X169218286Y-73366370D01*
X169773300Y-73365459D01*
X177685400Y-73352600D01*
X177701064Y-73163811D01*
X177702184Y-73035375D01*
X177666467Y-72973098D01*
X177599464Y-72948277D01*
X177533224Y-72937928D01*
X177373364Y-72915298D01*
X177126996Y-72881343D01*
X176801236Y-72837016D01*
X176403197Y-72783273D01*
X175939992Y-72721068D01*
X175418735Y-72651355D01*
X174846541Y-72575089D01*
X174230522Y-72493225D01*
X173577793Y-72406718D01*
X172895468Y-72316521D01*
X172656200Y-72284946D01*
X171566009Y-72141108D01*
X170504254Y-72000956D01*
X169477100Y-71865306D01*
X168490709Y-71734972D01*
X167551245Y-71610772D01*
X166664871Y-71493520D01*
X165837752Y-71384033D01*
X165076050Y-71283127D01*
X164385929Y-71191616D01*
X163773553Y-71110318D01*
X163245084Y-71040047D01*
X162806688Y-70981620D01*
X162547226Y-70946936D01*
X162269108Y-70907468D01*
X162077224Y-70873864D01*
X161956678Y-70842275D01*
X161892568Y-70808852D01*
X161870401Y-70772064D01*
X161872605Y-70761250D01*
X161886483Y-70751373D01*
X161916412Y-70742391D01*
X161966768Y-70734263D01*
X162041926Y-70726945D01*
X162146261Y-70720396D01*
X162284150Y-70714572D01*
X162459968Y-70709433D01*
X162678090Y-70704935D01*
X162942893Y-70701036D01*
X163258752Y-70697695D01*
X163630043Y-70694868D01*
X164061141Y-70692513D01*
X164556422Y-70690589D01*
X165120262Y-70689053D01*
X165757036Y-70687862D01*
X166471120Y-70686974D01*
X167266890Y-70686348D01*
X168148720Y-70685940D01*
X169120988Y-70685708D01*
X170188069Y-70685611D01*
X170818324Y-70685600D01*
X171937918Y-70685621D01*
G36*
X167815455Y-63951439D02*
X167969179Y-63989590D01*
X168210064Y-64105893D01*
X168442528Y-64295645D01*
X168639755Y-64532373D01*
X168772182Y-64782248D01*
X168853363Y-65125722D01*
X168844010Y-65460085D01*
X168754492Y-65773439D01*
X168595177Y-66053882D01*
X168376434Y-66289514D01*
X168108632Y-66468434D01*
X167802138Y-66578742D01*
X167467323Y-66608537D01*
X167212064Y-66572867D01*
X166878557Y-66444008D01*
X166597267Y-66236616D01*
X166379699Y-65965242D01*
X166237355Y-65644437D01*
X166181738Y-65288755D01*
X166181429Y-65269086D01*
X166223856Y-64907469D01*
X166349742Y-64589481D01*
X166547212Y-64323623D01*
X166804393Y-64118391D01*
X167109409Y-63982284D01*
X167450388Y-63923801D01*
X167815455Y-63951439D01*
X167815455Y-63951439D01*
G37*
X167815455Y-63951439D02*
X167969179Y-63989590D01*
X168210064Y-64105893D01*
X168442528Y-64295645D01*
X168639755Y-64532373D01*
X168772182Y-64782248D01*
X168853363Y-65125722D01*
X168844010Y-65460085D01*
X168754492Y-65773439D01*
X168595177Y-66053882D01*
X168376434Y-66289514D01*
X168108632Y-66468434D01*
X167802138Y-66578742D01*
X167467323Y-66608537D01*
X167212064Y-66572867D01*
X166878557Y-66444008D01*
X166597267Y-66236616D01*
X166379699Y-65965242D01*
X166237355Y-65644437D01*
X166181738Y-65288755D01*
X166181429Y-65269086D01*
X166223856Y-64907469D01*
X166349742Y-64589481D01*
X166547212Y-64323623D01*
X166804393Y-64118391D01*
X167109409Y-63982284D01*
X167450388Y-63923801D01*
X167815455Y-63951439D01*
D14*
X167500000Y-65250000D03*
D15*
X160400000Y-75000000D03*
X177600000Y-71600000D03*
D16*
X185400000Y-64150000D03*
X192700000Y-62650000D03*
X156000000Y-63100000D03*
X186250000Y-72800000D03*
X200050000Y-76000000D03*
X189650000Y-74400000D03*
X190450000Y-72100000D03*
X177429180Y-64851261D03*
X174450000Y-63950000D03*
X159200000Y-64800000D03*
X184250000Y-78000000D03*
X190600000Y-78400000D03*
X156600000Y-67200000D03*
X199300000Y-70600000D03*
X196600000Y-65900000D03*
X190950000Y-74450000D03*
X191950000Y-70500000D03*
X181700000Y-63900000D03*
X193100000Y-65700000D03*
X182050000Y-63000000D03*
X176300000Y-62400000D03*
X181250000Y-62400000D03*
X177200000Y-62450000D03*
X186950000Y-70600000D03*
X189050000Y-70700000D03*
X194800000Y-69400000D03*
X186850000Y-68550000D03*
X195300000Y-70000000D03*
X186000000Y-68550000D03*
X196100000Y-70100000D03*
X185150000Y-68600000D03*
X160400000Y-75000000D03*
X177600000Y-71600000D03*
X187350000Y-72749989D03*
X190250000Y-70700000D03*
X189850000Y-65000000D03*
X194450000Y-65000000D03*
D17*
X172150003Y-64749997D02*
X172000000Y-64900000D01*
D18*
X171640368Y-64800000D02*
X171400000Y-64800000D01*
D19*
X185400000Y-61600000D02*
X157500000Y-61600000D01*
X157500000Y-61600000D02*
X156299999Y-62800001D01*
X156299999Y-62800001D02*
X156000000Y-63100000D01*
X187400000Y-61600000D02*
X185400000Y-61600000D01*
X185400000Y-64150000D02*
X185400000Y-61600000D01*
X192700000Y-62650000D02*
X192700000Y-62225736D01*
X192700000Y-62225736D02*
X192074264Y-61600000D01*
X192074264Y-61600000D02*
X187400000Y-61600000D01*
X186223135Y-70973135D02*
X186223135Y-72773135D01*
X186223135Y-72773135D02*
X186250000Y-72800000D01*
D18*
X177429180Y-64851261D02*
X177429180Y-65420820D01*
D19*
X200050000Y-76000000D02*
X200050000Y-75300000D01*
D18*
X190450000Y-72100000D02*
X189650000Y-72100000D01*
X188850000Y-74600000D02*
X189450000Y-74600000D01*
X189650000Y-72100000D02*
X188750000Y-73000000D01*
X188750000Y-73000000D02*
X188750000Y-74500000D01*
X188750000Y-74500000D02*
X188850000Y-74600000D01*
X189450000Y-74600000D02*
X189650000Y-74400000D01*
D19*
X186223135Y-70973135D02*
X183175736Y-67925736D01*
X183175736Y-67925736D02*
X183175736Y-67400000D01*
D18*
X174450000Y-63950000D02*
X174150001Y-64249999D01*
X174150001Y-64249999D02*
X174150001Y-64749999D01*
X158200000Y-64800000D02*
X156800000Y-66200000D01*
X159200000Y-64800000D02*
X158200000Y-64800000D01*
D19*
X190600000Y-78400000D02*
X184650000Y-78400000D01*
X184650000Y-78400000D02*
X184250000Y-78000000D01*
X196300001Y-66199999D02*
X196600000Y-65900000D01*
X156075736Y-67100000D02*
X155400000Y-67100000D01*
X156600000Y-67200000D02*
X156175736Y-67200000D01*
X156175736Y-67200000D02*
X156075736Y-67100000D01*
X199300000Y-70600000D02*
X198000000Y-70600000D01*
X196300001Y-66799999D02*
X195900000Y-67200000D01*
X196300001Y-66199999D02*
X196300001Y-66799999D01*
D18*
X191050000Y-72500000D02*
X191050000Y-74350000D01*
X191050000Y-74350000D02*
X190950000Y-74450000D01*
X191950000Y-71600000D02*
X191050000Y-72500000D01*
X191950000Y-70924264D02*
X191950000Y-71600000D01*
X191950000Y-70500000D02*
X191950000Y-70924264D01*
X182300000Y-65700000D02*
X181700000Y-65100000D01*
X181700000Y-65100000D02*
X181700000Y-63900000D01*
X193100000Y-65700000D02*
X182500000Y-65700000D01*
X182500000Y-65700000D02*
X182300000Y-65700000D01*
X179350000Y-63000000D02*
X182050000Y-63000000D01*
X177100000Y-63000000D02*
X179350000Y-63000000D01*
X177000000Y-63000000D02*
X177100000Y-63000000D01*
X177100000Y-63000000D02*
X176900000Y-63000000D01*
X176900000Y-63000000D02*
X176300000Y-62400000D01*
X181250000Y-62400000D02*
X177250000Y-62400000D01*
X177250000Y-62400000D02*
X177200000Y-62450000D01*
X186950000Y-70600000D02*
X188950000Y-70600000D01*
X188950000Y-70600000D02*
X189050000Y-70700000D01*
X194400000Y-69300000D02*
X187600000Y-69300000D01*
X187600000Y-69300000D02*
X186850000Y-68550000D01*
X194500000Y-69400000D02*
X194400000Y-69300000D01*
X194800000Y-69400000D02*
X194500000Y-69400000D01*
X194875736Y-70000000D02*
X195300000Y-70000000D01*
X194637798Y-70000000D02*
X194875736Y-70000000D01*
X187050000Y-69600000D02*
X194237798Y-69600000D01*
X186000000Y-68550000D02*
X187050000Y-69600000D01*
X194237798Y-69600000D02*
X194637798Y-70000000D01*
X185449999Y-68899999D02*
X185150000Y-68600000D01*
X194127661Y-69900000D02*
X186450000Y-69900000D01*
X194742663Y-70515002D02*
X194127661Y-69900000D01*
X195684998Y-70515002D02*
X194742663Y-70515002D01*
X196100000Y-70100000D02*
X195684998Y-70515002D01*
X186450000Y-69900000D02*
X185449999Y-68899999D01*
X187774264Y-72749989D02*
X187350000Y-72749989D01*
X188200011Y-72749989D02*
X187774264Y-72749989D01*
X190250000Y-70700000D02*
X188200011Y-72749989D01*
X194450000Y-65000000D02*
X189850000Y-65000000D01*
M02*
