<?xml version="1.0" standalone="no"?>
 <!DOCTYPE svg PUBLIC "-//W3C//DTD SVG 1.1//EN" 
 "http://www.w3.org/Graphics/SVG/1.1/DTD/svg11.dtd"> 
<svg xmlns="http://www.w3.org/2000/svg" version="1.1" 
    width="9.68502cm" height="9.50214cm" viewBox="0 0 38130 37410 ">
<title>SVG Picture created as NeuroBytes_Tonic_Neuron-brd.svg date 2018/08/06 17:48:15 </title>
  <desc>Picture generated by PCBNEW </desc>
<g style="fill:#000000; fill-opacity:1;stroke:#000000; stroke-opacity:1;
stroke-linecap:round; stroke-linejoin:round; "
 transform="translate(0 0) scale(1 1)">
</g>
<g style="fill:#000000; fill-opacity:0.0; 
stroke:#000000; stroke-width:-0.000393701; stroke-opacity:1; 
stroke-linecap:round; stroke-linejoin:round;">
</g>
<g style="fill:#840000; fill-opacity:0.0; 
stroke:#840000; stroke-width:-0.000393701; stroke-opacity:1; 
stroke-linecap:round; stroke-linejoin:round;">
</g>
<g style="fill:#840000; fill-opacity:0.0; 
stroke:#840000; stroke-width:39.3701; stroke-opacity:1; 
stroke-linecap:round; stroke-linejoin:round;">
<path d="M14941 13267
L15255 13267
" />
<path d="M14941 13897
L14941 13267
" />
<path d="M15255 13897
L14941 13897
" />
<path d="M15255 13267
L15255 13897
" />
<path d="M18051 14566
L18051 13937
" />
<path d="M19311 14566
L18051 14566
" />
<path d="M19311 13937
L19311 14566
" />
<path d="M18051 13937
L19311 13937
" />
</g>
<g style="fill:#840000; fill-opacity:0.0; 
stroke:#840000; stroke-width:59.0551; stroke-opacity:1; 
stroke-linecap:round; stroke-linejoin:round;">
<path d="M24744 9685
L24547 9685
" />
<path d="M24744 9291
L24744 9685
" />
<path d="M24547 9291
L24744 9291
" />
<path d="M24547 9685
L24547 9291
" />
<path d="M24547 8346
L24744 8346
" />
<path d="M24547 8740
L24547 8346
" />
<path d="M24744 8740
L24547 8740
" />
<path d="M24744 8346
L24744 8740
" />
<path d="M27696 8779
L27893 8779
" />
<path d="M27696 9173
L27696 8779
" />
<path d="M27893 9173
L27696 9173
" />
<path d="M27893 8779
L27893 9173
" />
<path d="M24173 8090
L24173 8287
" />
<path d="M23779 8090
L24173 8090
" />
<path d="M23779 8287
L23779 8090
" />
<path d="M24173 8287
L23779 8287
" />
<path d="M15421 10087
L15560 9948
" />
<path d="M15699 10366
L15421 10087
" />
<path d="M15838 10227
L15699 10366
" />
<path d="M15560 9948
L15838 10227
" />
<path d="M15184 10324
L15324 10184
" />
<path d="M15463 10602
L15184 10324
" />
<path d="M15602 10463
L15463 10602
" />
<path d="M15324 10184
L15602 10463
" />
<path d="M16535 9940
L16535 9744
" />
<path d="M16929 9940
L16535 9940
" />
<path d="M16929 9744
L16929 9940
" />
<path d="M16535 9744
L16929 9744
" />
<path d="M19114 11555
L19114 11751
" />
<path d="M18720 11555
L19114 11555
" />
<path d="M18720 11751
L18720 11555
" />
<path d="M19114 11751
L18720 11751
" />
<path d="M19114 12814
L19114 13011
" />
<path d="M18720 12814
L19114 12814
" />
<path d="M18720 13011
L18720 12814
" />
<path d="M19114 13011
L18720 13011
" />
<path d="M17716 13661
L17519 13661
" />
<path d="M17716 13267
L17716 13661
" />
<path d="M17519 13267
L17716 13267
" />
<path d="M17519 13661
L17519 13267
" />
</g>
<g style="fill:#840000; fill-opacity:0.0; 
stroke:#840000; stroke-width:39.3701; stroke-opacity:1; 
stroke-linecap:round; stroke-linejoin:round;">
<path d="M16968 13267
L17283 13267
" />
<path d="M16968 13897
L16968 13267
" />
<path d="M17283 13897
L16968 13897
" />
<path d="M17283 13267
L17283 13897
" />
</g>
<g style="fill:#840000; fill-opacity:0.0; 
stroke:#840000; stroke-width:59.0551; stroke-opacity:1; 
stroke-linecap:round; stroke-linejoin:round;">
<path d="M16535 9507
L16535 9311
" />
<path d="M16929 9507
L16535 9507
" />
<path d="M16929 9311
L16929 9507
" />
<path d="M16535 9311
L16929 9311
" />
<path d="M14918 12808
L14899 12789
L14881 12733
L14881 12695
L14899 12639
L14937 12602
L14974 12583
L15049 12564
L15106 12564
L15180 12583
L15218 12602
L15255 12639
L15274 12695
L15274 12733
L15255 12789
L15237 12808
" />
<path d="M14881 13183
L14881 12958
" />
<path d="M14881 13070
L15274 13070
L15218 13033
L15180 12995
L15162 12958
" />
<path d="M16800 11398
L17026 11623
L17066 11636
L17092 11636
L17132 11623
L17185 11570
L17198 11530
L17198 11504
L17185 11464
L16959 11239
" />
<path d="M17516 11239
L17357 11398
" />
<path d="M17437 11318
L17158 11040
L17172 11106
L17172 11159
L17158 11199
" />
<path d="M19979 8016
L20373 8016
L20373 8166
L20354 8203
L20335 8222
L20298 8241
L20241 8241
L20204 8222
L20185 8203
L20166 8166
L20166 8016
" />
<path d="M20241 8578
L19979 8578
" />
<path d="M20391 8485
L20110 8391
L20110 8635
" />
<path d="M25949 8603
L25949 8209
L26043 8209
L26099 8228
L26137 8265
L26155 8303
L26174 8378
L26174 8434
L26155 8509
L26137 8547
L26099 8584
L26043 8603
L25949 8603
" />
<path d="M26549 8603
L26324 8603
" />
<path d="M26437 8603
L26437 8209
L26399 8265
L26362 8303
L26324 8322
" />
<path d="M30693 9469
L30693 9075
L30843 9075
L30881 9094
L30899 9113
L30918 9150
L30918 9206
L30899 9244
L30881 9263
L30843 9281
L30693 9281
" />
<path d="M31293 9469
L31068 9469
" />
<path d="M31181 9469
L31181 9075
L31143 9131
L31106 9169
L31068 9188
" />
<path d="M12859 9253
L13138 8974
L13244 9080
L13257 9120
L13257 9147
L13244 9186
L13204 9226
L13164 9239
L13138 9239
L13098 9226
L12992 9120
" />
<path d="M13376 9266
L13403 9266
L13442 9279
L13509 9345
L13522 9385
L13522 9412
L13509 9451
L13482 9478
L13429 9505
L13111 9505
L13283 9677
" />
<path d="M13111 13203
L12833 12925
L12939 12819
L12978 12805
L13005 12805
L13045 12819
L13084 12858
L13098 12898
L13098 12925
L13084 12964
L12978 13070
" />
<path d="M13084 12673
L13257 12500
L13270 12699
L13310 12659
L13350 12646
L13376 12646
L13416 12659
L13482 12726
L13495 12765
L13495 12792
L13482 12832
L13403 12911
L13363 12925
L13336 12925
" />
<path d="M18615 14392
L18596 14411
L18540 14430
L18503 14430
L18446 14411
L18409 14373
L18390 14336
L18371 14261
L18371 14205
L18390 14130
L18409 14092
L18446 14055
L18503 14036
L18540 14036
L18596 14055
L18615 14073
" />
<path d="M18765 14073
L18784 14055
L18821 14036
L18915 14036
L18953 14055
L18971 14073
L18990 14111
L18990 14148
L18971 14205
L18746 14430
L18990 14430
" />
<path d="M28485 8938
L28504 8901
L28541 8863
L28597 8807
L28616 8770
L28616 8732
" />
<path d="M28522 8751
L28541 8713
L28579 8676
L28653 8657
L28785 8657
L28860 8676
L28897 8713
L28916 8751
L28916 8826
L28897 8863
L28860 8901
L28785 8920
L28653 8920
L28579 8901
L28541 8863
L28522 8826
L28522 8751
" />
<path d="M28916 9051
L28916 9295
L28766 9163
L28766 9220
L28747 9257
L28728 9276
L28691 9295
L28597 9295
L28560 9276
L28541 9257
L28522 9220
L28522 9107
L28541 9070
L28560 9051
" />
<path d="M23860 9428
L23822 9409
L23785 9371
L23728 9315
L23691 9296
L23653 9296
" />
<path d="M23672 9390
L23635 9371
L23597 9334
L23579 9259
L23579 9128
L23597 9053
L23635 9015
L23672 8997
L23747 8997
L23785 9015
L23822 9053
L23841 9128
L23841 9259
L23822 9334
L23785 9371
L23747 9390
L23672 9390
" />
<path d="M24216 9390
L23991 9390
" />
<path d="M24103 9390
L24103 8997
L24066 9053
L24028 9090
L23991 9109
" />
<path d="M22679 9428
L22641 9409
L22604 9371
L22547 9315
L22510 9296
L22472 9296
" />
<path d="M22491 9390
L22454 9371
L22416 9334
L22397 9259
L22397 9128
L22416 9053
L22454 9015
L22491 8997
L22566 8997
L22604 9015
L22641 9053
L22660 9128
L22660 9259
L22641 9334
L22604 9371
L22566 9390
L22491 9390
" />
<path d="M22810 9034
L22829 9015
L22866 8997
L22960 8997
L22997 9015
L23016 9034
L23035 9071
L23035 9109
L23016 9165
L22791 9390
L23035 9390
" />
<path d="M24841 9422
L25029 9291
" />
<path d="M24841 9197
L25235 9197
L25235 9347
L25216 9385
L25197 9403
L25160 9422
L25104 9422
L25066 9403
L25047 9385
L25029 9347
L25029 9197
" />
<path d="M24841 9797
L24841 9572
" />
<path d="M24841 9685
L25235 9685
L25179 9647
L25141 9610
L25122 9572
" />
<path d="M24841 8438
L25029 8307
" />
<path d="M24841 8213
L25235 8213
L25235 8363
L25216 8400
L25197 8419
L25160 8438
L25104 8438
L25066 8419
L25047 8400
L25029 8363
L25029 8213
" />
<path d="M25235 8794
L25235 8607
L25047 8588
L25066 8607
L25085 8644
L25085 8738
L25066 8775
L25047 8794
L25010 8813
L24916 8813
L24879 8794
L24860 8775
L24841 8738
L24841 8644
L24860 8607
L24879 8588
" />
<path d="M27203 8910
L27391 8779
" />
<path d="M27203 8685
L27597 8685
L27597 8835
L27578 8873
L27560 8892
L27522 8910
L27466 8910
L27428 8892
L27410 8873
L27391 8835
L27391 8685
" />
<path d="M27597 9248
L27597 9173
L27578 9135
L27560 9116
L27503 9079
L27428 9060
L27278 9060
L27241 9079
L27222 9098
L27203 9135
L27203 9210
L27222 9248
L27241 9266
L27278 9285
L27372 9285
L27410 9266
L27428 9248
L27447 9210
L27447 9135
L27428 9098
L27410 9079
L27372 9060
" />
<path d="M23891 8012
L23759 7825
" />
<path d="M23666 8012
L23666 7619
L23816 7619
L23853 7637
L23872 7656
L23891 7694
L23891 7750
L23872 7787
L23853 7806
L23816 7825
L23666 7825
" />
<path d="M24078 8012
L24153 8012
L24191 7994
L24209 7975
L24247 7919
L24266 7844
L24266 7694
L24247 7656
L24228 7637
L24191 7619
L24116 7619
L24078 7637
L24059 7656
L24041 7694
L24041 7787
L24059 7825
L24078 7844
L24116 7862
L24191 7862
L24228 7844
L24247 7825
L24266 7787
" />
<path d="M15083 9725
L15123 9499
" />
<path d="M14924 9566
L15202 9287
L15309 9393
L15322 9433
L15322 9460
L15309 9499
L15269 9539
L15229 9552
L15202 9552
L15163 9539
L15057 9433
" />
<path d="M15401 9725
L15388 9685
L15388 9658
L15401 9619
L15415 9605
L15454 9592
L15481 9592
L15521 9605
L15574 9658
L15587 9698
L15587 9725
L15574 9764
L15560 9778
L15521 9791
L15494 9791
L15454 9778
L15401 9725
L15362 9711
L15335 9711
L15295 9725
L15242 9778
L15229 9818
L15229 9844
L15242 9884
L15295 9937
L15335 9950
L15362 9950
L15401 9937
L15454 9884
L15468 9844
L15468 9818
L15454 9778
" />
<path d="M14689 10118
L14729 9893
" />
<path d="M14530 9959
L14809 9681
L14915 9787
L14928 9827
L14928 9853
L14915 9893
L14875 9933
L14835 9946
L14809 9946
L14769 9933
L14663 9827
" />
<path d="M15061 9933
L15246 10118
L14849 10277
" />
<path d="M17434 10059
L17303 9872
" />
<path d="M17209 10059
L17209 9666
L17359 9666
L17396 9685
L17415 9703
L17434 9741
L17434 9797
L17415 9835
L17396 9853
L17359 9872
L17209 9872
" />
<path d="M17771 9797
L17771 10059
" />
<path d="M17678 9647
L17584 9928
L17828 9928
" />
<path d="M18851 11477
L18720 11289
" />
<path d="M18626 11477
L18626 11083
L18776 11083
L18814 11102
L18833 11121
L18851 11158
L18851 11214
L18833 11252
L18814 11271
L18776 11289
L18626 11289
" />
<path d="M18983 11083
L19226 11083
L19095 11233
L19151 11233
L19189 11252
L19207 11271
L19226 11308
L19226 11402
L19207 11439
L19189 11458
L19151 11477
L19039 11477
L19001 11458
L18983 11439
" />
<path d="M18851 13485
L18720 13297
" />
<path d="M18626 13485
L18626 13091
L18776 13091
L18814 13110
L18833 13128
L18851 13166
L18851 13222
L18833 13260
L18814 13278
L18776 13297
L18626 13297
" />
<path d="M19001 13128
L19020 13110
L19058 13091
L19151 13091
L19189 13110
L19207 13128
L19226 13166
L19226 13203
L19207 13260
L18983 13485
L19226 13485
" />
<path d="M19644 11983
L19326 11983
L19288 12002
L19269 12020
L19251 12058
L19251 12133
L19269 12170
L19288 12189
L19326 12208
L19644 12208
" />
<path d="M19644 12358
L19644 12602
L19494 12470
L19494 12527
L19476 12564
L19457 12583
L19419 12602
L19326 12602
L19288 12583
L19269 12564
L19251 12527
L19251 12414
L19269 12377
L19288 12358
" />
<path d="M16318 13282
L15999 13282
L15961 13301
L15943 13320
L15924 13357
L15924 13432
L15943 13470
L15961 13488
L15999 13507
L16318 13507
" />
<path d="M16280 13676
L16299 13695
L16318 13732
L16318 13826
L16299 13863
L16280 13882
L16243 13901
L16205 13901
L16149 13882
L15924 13657
L15924 13901
" />
<path d="M17477 12769
L17458 12750
L17440 12694
L17440 12656
L17458 12600
L17496 12562
L17533 12544
L17608 12525
L17665 12525
L17740 12544
L17777 12562
L17815 12600
L17833 12656
L17833 12694
L17815 12750
L17796 12769
" />
<path d="M17833 12900
L17833 13143
L17683 13012
L17683 13068
L17665 13106
L17646 13125
L17608 13143
L17515 13143
L17477 13125
L17458 13106
L17440 13068
L17440 12956
L17458 12919
L17477 12900
" />
<path d="M16926 12769
L16907 12750
L16888 12694
L16888 12656
L16907 12600
L16945 12562
L16982 12544
L17057 12525
L17113 12525
L17188 12544
L17226 12562
L17263 12600
L17282 12656
L17282 12694
L17263 12750
L17245 12769
" />
<path d="M17151 13106
L16888 13106
" />
<path d="M17301 13012
L17020 12919
L17020 13162
" />
<path d="M17434 9510
L17415 9529
L17359 9548
L17321 9548
L17265 9529
L17228 9491
L17209 9454
L17190 9379
L17190 9323
L17209 9248
L17228 9210
L17265 9173
L17321 9154
L17359 9154
L17415 9173
L17434 9191
" />
<path d="M17790 9154
L17603 9154
L17584 9341
L17603 9323
L17640 9304
L17734 9304
L17771 9323
L17790 9341
L17809 9379
L17809 9473
L17790 9510
L17771 9529
L17734 9548
L17640 9548
L17603 9529
L17584 9510
" />
<path d="M15774 8249
L15830 8268
L15924 8268
L15961 8249
L15980 8231
L15999 8193
L15999 8156
L15980 8118
L15961 8099
L15924 8081
L15849 8062
L15811 8043
L15793 8024
L15774 7987
L15774 7949
L15793 7912
L15811 7893
L15849 7874
L15943 7874
L15999 7893
" />
<path d="M16130 7874
L16224 8268
L16299 7987
L16374 8268
L16468 7874
" />
<path d="M16824 8268
L16599 8268
" />
<path d="M16711 8268
L16711 7874
L16674 7931
L16636 7968
L16599 7987
" />
</g>
<g style="fill:#000000; fill-opacity:0.0; 
stroke:#000000; stroke-width:59.0551; stroke-opacity:1; 
stroke-linecap:round; stroke-linejoin:round;">
</g>
<g style="fill:#840084; fill-opacity:0.0; 
stroke:#840084; stroke-width:59.0551; stroke-opacity:1; 
stroke-linecap:round; stroke-linejoin:round;">
</g>
<g style="fill:#840084; fill-opacity:0.0; 
stroke:#840084; stroke-width:66.9291; stroke-opacity:1; 
stroke-linecap:round; stroke-linejoin:round;">
<path d="M19066 10331
L19066 9859
L19246 9859
L19291 9881
L19313 9904
L19336 9949
L19336 10016
L19313 10061
L19291 10084
L19246 10106
L19066 10106
" />
<path d="M19628 9859
L19718 9859
L19763 9881
L19808 9926
L19831 10016
L19831 10174
L19808 10264
L19763 10309
L19718 10331
L19628 10331
L19583 10309
L19538 10264
L19516 10174
L19516 10016
L19538 9926
L19583 9881
L19628 9859
" />
<path d="M19988 9859
L20101 10331
L20191 9994
L20281 10331
L20393 9859
" />
<path d="M20573 10084
L20731 10084
" />
<path d="M20798 10331
L20573 10331
L20573 9859
L20798 9859
" />
<path d="M21271 10331
L21113 10106
" />
<path d="M21001 10331
L21001 9859
L21181 9859
L21226 9881
L21248 9904
L21271 9949
L21271 10016
L21248 10061
L21226 10084
L21181 10106
L21001 10106
" />
<path d="M16063 9229
L16063 8757
" />
<path d="M16288 9229
L16288 8757
L16400 8757
L16468 8779
L16513 8824
L16535 8869
L16558 8959
L16558 9026
L16535 9116
L16513 9161
L16468 9206
L16400 9229
L16288 9229
" />
</g>
<g style="fill:#840084; fill-opacity:0.0; 
stroke:#840084; stroke-width:47.2441; stroke-opacity:1; 
stroke-linecap:round; stroke-linejoin:round;">
<path d="M15334 13444
L15334 13720
" />
<path d="M14862 13720
L14862 13444
" />
</g>
<g style="fill:#840084; fill-opacity:0.0; 
stroke:#840084; stroke-width:39.3701; stroke-opacity:1; 
stroke-linecap:round; stroke-linejoin:round;">
<circle cx="17165.4" cy="10085.8" r="98.4252" /> 
<path d="M16051 11338
L17165 10225
" />
<path d="M17165 12452
L16051 11338
" />
<path d="M18278 11338
L17165 12452
" />
<path d="M17165 10225
L18278 11338
" />
</g>
<g style="fill:#840084; fill-opacity:0.0; 
stroke:#840084; stroke-width:59.0551; stroke-opacity:1; 
stroke-linecap:round; stroke-linejoin:round;">
<path d="M18277 7637
L18277 9133
" />
<path d="M18277 9133
L22037 9133
" />
<path d="M22037 9133
L22037 7637
" />
<path d="M22037 7637
L18277 7637
" />
</g>
<g style="fill:#840084; fill-opacity:0.0; 
stroke:#840084; stroke-width:39.3701; stroke-opacity:1; 
stroke-linecap:round; stroke-linejoin:round;">
<circle cx="25472.5" cy="9901.57" r="88.0343" /> 
<path d="M27401 10413
L27401 8051
" />
<path d="M25039 10413
L27401 10413
" />
<path d="M25039 8051
L25039 10413
" />
<path d="M27401 8051
L25039 8051
" />
</g>
<g style="fill:#840084; fill-opacity:0.0; 
stroke:#840084; stroke-width:59.0551; stroke-opacity:1; 
stroke-linecap:round; stroke-linejoin:round;">
<path d="M26850 8681
L25590 8681
" />
<path d="M25590 8681
L25590 9783
" />
<path d="M25590 9783
L26850 9783
" />
<path d="M26850 9783
L26850 8681
" />
<path d="M31732 7657
L30236 7657
" />
<path d="M30236 7657
L30236 10925
" />
<path d="M30236 10925
L31732 10925
" />
<path d="M31732 10925
L31732 7657
" />
<path d="M11506 9959
L12564 11016
" />
<path d="M12564 11016
L14875 8706
" />
<path d="M14875 8706
L13817 7648
" />
<path d="M13817 7648
L11506 9959
" />
<path d="M13817 14556
L14875 13498
" />
<path d="M14875 13498
L12564 11187
" />
<path d="M12564 11187
L11506 12245
" />
<path d="M11506 12245
L13817 14556
" />
</g>
<g style="fill:#840084; fill-opacity:0.0; 
stroke:#840084; stroke-width:47.2441; stroke-opacity:1; 
stroke-linecap:round; stroke-linejoin:round;">
<path d="M19074 13850
L18287 13850
" />
<path d="M18287 14653
L19074 14653
" />
</g>
<g style="fill:#840084; fill-opacity:0.0; 
stroke:#840084; stroke-width:59.0551; stroke-opacity:1; 
stroke-linecap:round; stroke-linejoin:round;">
<circle cx="29094.6" cy="9665.35" r="98.4252" /> 
<path d="M28405 8385
L28996 8385
" />
<path d="M28405 9566
L28405 8385
" />
<path d="M28996 9566
L28405 9566
" />
<path d="M28996 8385
L28996 9566
" />
<circle cx="23208.7" cy="9606.3" r="98.4252" /> 
<path d="M24488 8917
L24488 9507
" />
<path d="M23307 8917
L24488 8917
" />
<path d="M23307 9507
L23307 8917
" />
<path d="M24488 9507
L23307 9507
" />
<circle cx="22027.6" cy="9606.3" r="98.4252" /> 
<path d="M23307 8917
L23307 9507
" />
<path d="M22126 8917
L23307 8917
" />
<path d="M22126 9507
L22126 8917
" />
<path d="M23307 9507
L22126 9507
" />
</g>
<g style="fill:#840084; fill-opacity:0.0; 
stroke:#840084; stroke-width:39.3701; stroke-opacity:1; 
stroke-linecap:round; stroke-linejoin:round;">
<circle cx="19232.4" cy="12755.9" r="78.7402" /> 
<path d="M18681 12677
L18681 11889
" />
<path d="M19153 12677
L18681 12677
" />
<path d="M19153 11889
L19153 12677
" />
<path d="M18681 11889
L19153 11889
" />
</g>
<g style="fill:#840084; fill-opacity:0.0; 
stroke:#840084; stroke-width:59.0551; stroke-opacity:1; 
stroke-linecap:round; stroke-linejoin:round;">
<circle cx="15708.7" cy="12992.1" r="98.4252" /> 
<path d="M16397 13090
L15807 13090
" />
<path d="M16397 14074
L16397 13090
" />
<path d="M15807 14074
L16397 14074
" />
<path d="M15807 13090
L15807 14074
" />
</g>
<g style="fill:#840084; fill-opacity:0.0; 
stroke:#840084; stroke-width:47.2441; stroke-opacity:1; 
stroke-linecap:round; stroke-linejoin:round;">
<path d="M17362 13444
L17362 13720
" />
<path d="M16889 13720
L16889 13444
" />
</g>
<g style="fill:#840084; fill-opacity:0.0; 
stroke:#840084; stroke-width:59.0551; stroke-opacity:1; 
stroke-linecap:round; stroke-linejoin:round;">
<path d="M14921 7618
L14921 8602
" />
<path d="M14921 8602
L17677 8602
" />
<path d="M17677 8602
L17677 7618
" />
<path d="M17677 7618
L14921 7618
" />
</g>
<g style="fill:#000000; fill-opacity:0.0; 
stroke:#000000; stroke-width:59.0551; stroke-opacity:1; 
stroke-linecap:round; stroke-linejoin:round;">
</g>
<g style="fill:#C2C200; fill-opacity:0.0; 
stroke:#C2C200; stroke-width:59.0551; stroke-opacity:1; 
stroke-linecap:round; stroke-linejoin:round;">
</g>
<g style="fill:#C2C200; fill-opacity:0.0; 
stroke:#C2C200; stroke-width:39.3701; stroke-opacity:1; 
stroke-linecap:round; stroke-linejoin:round;">
<path d="M31173 14022
L31022 14156
" />
<path d="M31313 13876
L31173 14022
" />
<path d="M31440 13721
L31313 13876
" />
<path d="M31552 13558
L31440 13721
" />
<path d="M30520 14476
L30342 14550
" />
<path d="M30694 14385
L30520 14476
" />
<path d="M30862 14278
L30694 14385
" />
<path d="M31022 14156
L30862 14278
" />
<path d="M11398 12303
L11398 9893
" />
<path d="M13745 14650
L11398 12303
" />
<path d="M31830 7546
L31830 12677
" />
<path d="M31782 13036
L31725 13214
" />
<path d="M31818 12856
L31782 13036
" />
<path d="M13745 7546
L31830 7546
" />
<path d="M29799 14650
L13745 14650
" />
<path d="M29980 14638
L29799 14650
" />
<path d="M30161 14604
L29980 14638
" />
<path d="M30342 14550
L30161 14604
" />
<path d="M11398 9893
L13745 7546
" />
<path d="M31647 13388
L31552 13558
" />
<path d="M31725 13214
L31647 13388
" />
<path d="M31830 12677
L31818 12856
" />
</g> 
</svg>
