<?xml version="1.0" standalone="no"?>
 <!DOCTYPE svg PUBLIC "-//W3C//DTD SVG 1.1//EN" 
 "http://www.w3.org/Graphics/SVG/1.1/DTD/svg11.dtd"> 
<svg xmlns="http://www.w3.org/2000/svg" version="1.1" 
    width="5.74548cm" height="2.4384cm" viewBox="0 0 22620 9600 ">
<title>SVG Picture created as NeuroBytes_Tonic_Neuron-brd.svg date 2017/09/06 12:02:54 </title>
  <desc>Picture generated by PCBNEW </desc>
<g style="fill:#000000; fill-opacity:1;stroke:#000000; stroke-opacity:1;
stroke-linecap:round; stroke-linejoin:round; "
 transform="translate(0 0) scale(1 1)">
</g>
<g style="fill:#000000; fill-opacity:0.0; 
stroke:#000000; stroke-width:-0.000393701; stroke-opacity:1; 
stroke-linecap:round; stroke-linejoin:round;">
</g>
<g style="fill:#000000; fill-opacity:0.0; 
stroke:#000000; stroke-width:66.9291; stroke-opacity:1; 
stroke-linecap:round; stroke-linejoin:round;">
<path d="M9019 3921
L9019 3449
L9199 3449
L9244 3471
L9267 3494
L9289 3539
L9289 3606
L9267 3651
L9244 3674
L9199 3696
L9019 3696
" />
<path d="M9582 3449
L9672 3449
L9717 3471
L9762 3516
L9784 3606
L9784 3764
L9762 3854
L9717 3899
L9672 3921
L9582 3921
L9537 3899
L9492 3854
L9469 3764
L9469 3606
L9492 3516
L9537 3471
L9582 3449
" />
<path d="M9942 3449
L10054 3921
L10144 3584
L10234 3921
L10347 3449
" />
<path d="M10527 3674
L10684 3674
" />
<path d="M10751 3921
L10527 3921
L10527 3449
L10751 3449
" />
<path d="M11224 3921
L11066 3696
" />
<path d="M10954 3921
L10954 3449
L11134 3449
L11179 3471
L11201 3494
L11224 3539
L11224 3606
L11201 3651
L11179 3674
L11134 3696
L10954 3696
" />
<path d="M6016 2819
L6016 2347
" />
<path d="M6241 2819
L6241 2347
L6353 2347
L6421 2369
L6466 2414
L6488 2459
L6511 2549
L6511 2616
L6488 2706
L6466 2751
L6421 2796
L6353 2819
L6241 2819
" />
</g>
<g style="fill:#000000; fill-opacity:0.0; 
stroke:#000000; stroke-width:59.0551; stroke-opacity:1; 
stroke-linecap:round; stroke-linejoin:round;">
<path d="M8230 1227
L8230 2723
" />
<path d="M8230 2723
L11990 2723
" />
<path d="M11990 2723
L11990 1227
" />
<path d="M11990 1227
L8230 1227
" />
</g>
<g style="fill:#000000; fill-opacity:0.0; 
stroke:#000000; stroke-width:39.3701; stroke-opacity:1; 
stroke-linecap:round; stroke-linejoin:round;">
<circle cx="7118.69" cy="3675.82" r="98.4252" /> 
<path d="M6005 4928
L7118 3815
" />
<path d="M7118 6042
L6005 4928
" />
<path d="M8232 4928
L7118 6042
" />
<path d="M7118 3815
L8232 4928
" />
</g>
<g style="fill:#000000; fill-opacity:0.0; 
stroke:#000000; stroke-width:59.0551; stroke-opacity:1; 
stroke-linecap:round; stroke-linejoin:round;">
<path d="M5386 4515
L4992 4515
" />
<path d="M4992 4515
L4992 3727
" />
<path d="M4992 3727
L5386 3727
" />
<path d="M5386 3727
L5386 4515
" />
</g>
<g style="fill:#000000; fill-opacity:0.0; 
stroke:#000000; stroke-width:39.3701; stroke-opacity:1; 
stroke-linecap:round; stroke-linejoin:round;">
<circle cx="13398.2" cy="3117.55" r="78.7402" /> 
<path d="M13476 2566
L14264 2566
" />
<path d="M13476 3038
L13476 2566
" />
<path d="M14264 3038
L13476 3038
" />
<path d="M14264 2566
L14264 3038
" />
</g>
<g style="fill:#000000; fill-opacity:0.0; 
stroke:#000000; stroke-width:59.0551; stroke-opacity:1; 
stroke-linecap:round; stroke-linejoin:round;">
<path d="M9402 7566
L9402 8117
" />
<path d="M8654 7566
L7591 7566
" />
<path d="M7591 7566
L7591 8117
" />
<path d="M7591 8117
L8654 8117
" />
</g>
<g style="fill:#000000; fill-opacity:0.0; 
stroke:#000000; stroke-width:39.3701; stroke-opacity:1; 
stroke-linecap:round; stroke-linejoin:round;">
<circle cx="15425.8" cy="3491.56" r="88.0343" /> 
<path d="M17354 4003
L17354 1641
" />
<path d="M14992 4003
L17354 4003
" />
<path d="M14992 1641
L14992 4003
" />
<path d="M17354 1641
L14992 1641
" />
</g>
<g style="fill:#000000; fill-opacity:0.0; 
stroke:#000000; stroke-width:59.0551; stroke-opacity:1; 
stroke-linecap:round; stroke-linejoin:round;">
<path d="M16803 2271
L15543 2271
" />
<path d="M15543 2271
L15543 3373
" />
<path d="M15543 3373
L16803 3373
" />
<path d="M16803 3373
L16803 2271
" />
<path d="M21685 1247
L20189 1247
" />
<path d="M20189 1247
L20189 4515
" />
<path d="M20189 4515
L21685 4515
" />
<path d="M21685 4515
L21685 1247
" />
<path d="M1460 3549
L2517 4606
" />
<path d="M2517 4606
L4828 2296
" />
<path d="M4828 2296
L3770 1238
" />
<path d="M3770 1238
L1460 3549
" />
<path d="M3770 8146
L4828 7088
" />
<path d="M4828 7088
L2517 4777
" />
<path d="M2517 4777
L1460 5835
" />
<path d="M1460 5835
L3770 8146
" />
</g>
<g style="fill:#000000; fill-opacity:0.0; 
stroke:#000000; stroke-width:39.3701; stroke-opacity:1; 
stroke-linecap:round; stroke-linejoin:round;">
<circle cx="18260.4" cy="2763.22" r="78.7402" /> 
<path d="M18339 2212
L19126 2212
" />
<path d="M18339 2684
L18339 2212
" />
<path d="M19126 2684
L18339 2684
" />
<path d="M19126 2212
L19126 2684
" />
</g>
<g style="fill:#000000; fill-opacity:0.0; 
stroke:#000000; stroke-width:59.0551; stroke-opacity:1; 
stroke-linecap:round; stroke-linejoin:round;">
<path d="M4874 1208
L4874 2192
" />
<path d="M4874 2192
L7630 2192
" />
<path d="M7630 2192
L7630 1208
" />
<path d="M7630 1208
L4874 1208
" />
</g>
<g style="fill:#000000; fill-opacity:0.0; 
stroke:#000000; stroke-width:0; stroke-opacity:1; 
stroke-linecap:round; stroke-linejoin:round;">
</g>
<g style="fill:#000000; fill-opacity:1.0; 
stroke:#000000; stroke-width:0; stroke-opacity:1; 
stroke-linecap:round; stroke-linejoin:round;">
<polyline style="fill-rule:evenodd;"
points="10228,3255
10228,2586
9992,2586
9992,3255
10228,3255
" /> 
<polyline style="fill-rule:evenodd;"
points="9736,3255
9736,2586
9500,2586
9500,3255
9736,3255
" /> 
<polyline style="fill-rule:evenodd;"
points="10721,3255
10721,2586
10484,2586
10484,3255
10721,3255
" /> 
<polyline style="fill-rule:evenodd;"
points="11213,3255
11213,2586
10976,2586
10976,3255
11213,3255
" /> 
<polyline style="fill-rule:evenodd;"
points="8536,2251
8536,1188
8142,1188
8142,2251
8536,2251
" /> 
<polyline style="fill-rule:evenodd;"
points="12079,2251
12079,1188
11685,1188
11685,2251
12079,2251
" /> 
<polyline style="fill-rule:evenodd;"
points="9008,3255
9244,3255
9244,2586
9008,2586
9008,3255
" /> 
<polyline style="fill-rule:evenodd;"
points="6701,3759
6951,4009
7035,3926
6784,3675
6701,3759
" /> 
<polyline style="fill-rule:evenodd;"
points="6561,3898
6895,4232
6979,4149
6645,3815
6561,3898
" /> 
<polyline style="fill-rule:evenodd;"
points="6422,4037
6756,4371
6840,4288
6506,3954
6422,4037
" /> 
<polyline style="fill-rule:evenodd;"
points="6283,4176
6617,4510
6701,4427
6367,4093
6283,4176
" /> 
<polyline style="fill-rule:evenodd;"
points="6144,4316
6478,4650
6561,4566
6227,4232
6144,4316
" /> 
<polyline style="fill-rule:evenodd;"
points="6005,4455
6339,4789
6422,4705
6088,4371
6005,4455
" /> 
<polyline style="fill-rule:evenodd;"
points="5865,4594
6116,4845
6200,4761
5949,4510
5865,4594
" /> 
<polyline style="fill-rule:evenodd;"
points="5949,5346
6200,5095
6116,5012
5865,5262
5949,5346
" /> 
<polyline style="fill-rule:evenodd;"
points="6088,5485
6422,5151
6339,5067
6005,5401
6088,5485
" /> 
<polyline style="fill-rule:evenodd;"
points="6227,5624
6561,5290
6478,5206
6144,5541
6227,5624
" /> 
<polyline style="fill-rule:evenodd;"
points="6367,5763
6701,5429
6617,5346
6283,5680
6367,5763
" /> 
<polyline style="fill-rule:evenodd;"
points="6506,5902
6840,5568
6756,5485
6422,5819
6506,5902
" /> 
<polyline style="fill-rule:evenodd;"
points="6645,6042
6979,5708
6895,5624
6561,5958
6645,6042
" /> 
<polyline style="fill-rule:evenodd;"
points="6784,6181
7035,5930
6951,5847
6701,6097
6784,6181
" /> 
<polyline style="fill-rule:evenodd;"
points="7202,5930
7452,6181
7536,6097
7285,5847
7202,5930
" /> 
<polyline style="fill-rule:evenodd;"
points="7257,5708
7591,6042
7675,5958
7341,5624
7257,5708
" /> 
<polyline style="fill-rule:evenodd;"
points="7397,5568
7731,5902
7814,5819
7480,5485
7397,5568
" /> 
<polyline style="fill-rule:evenodd;"
points="7536,5429
7870,5763
7953,5680
7619,5346
7536,5429
" /> 
<polyline style="fill-rule:evenodd;"
points="7675,5290
8009,5624
8093,5541
7758,5206
7675,5290
" /> 
<polyline style="fill-rule:evenodd;"
points="7814,5151
8148,5485
8232,5401
7898,5067
7814,5151
" /> 
<polyline style="fill-rule:evenodd;"
points="8037,5095
8287,5346
8371,5262
8120,5012
8037,5095
" /> 
<polyline style="fill-rule:evenodd;"
points="8120,4845
8371,4594
8287,4510
8037,4761
8120,4845
" /> 
<polyline style="fill-rule:evenodd;"
points="7898,4789
8232,4455
8148,4371
7814,4705
7898,4789
" /> 
<polyline style="fill-rule:evenodd;"
points="7758,4650
8093,4316
8009,4232
7675,4566
7758,4650
" /> 
<polyline style="fill-rule:evenodd;"
points="7619,4510
7953,4176
7870,4093
7536,4427
7619,4510
" /> 
<polyline style="fill-rule:evenodd;"
points="7480,4371
7814,4037
7731,3954
7397,4288
7480,4371
" /> 
<polyline style="fill-rule:evenodd;"
points="7341,4232
7675,3898
7591,3815
7257,4149
7341,4232
" /> 
<polyline style="fill-rule:evenodd;"
points="7285,4009
7536,3759
7452,3675
7202,3926
7285,4009
" /> 
<polyline style="fill-rule:evenodd;"
points="6826,3884
7049,4107
7049,3940
6993,3884
6826,3884
" /> 
<polyline style="fill-rule:evenodd;"
points="7188,4107
7410,3884
7243,3884
7188,3940
7188,4107
" /> 
<polyline style="fill-rule:evenodd;"
points="7049,5749
6826,5972
6993,5972
7049,5916
7049,5749
" /> 
<polyline style="fill-rule:evenodd;"
points="7410,5972
7188,5749
7188,5916
7243,5972
7410,5972
" /> 
<polyline style="fill-rule:evenodd;"
points="6297,4858
6074,4636
6074,4803
6130,4858
6297,4858
" /> 
<polyline style="fill-rule:evenodd;"
points="6074,5220
6297,4998
6130,4998
6074,5053
6074,5220
" /> 
<polyline style="fill-rule:evenodd;"
points="7939,4998
8162,5220
8162,5053
8106,4998
7939,4998
" /> 
<polyline style="fill-rule:evenodd;"
points="8162,4636
7939,4858
8106,4858
8162,4803
8162,4636
" /> 
<polyline style="fill-rule:evenodd;"
points="5602,3767
5287,3767
5287,3885
5602,3885
5602,3767
" /> 
<polyline style="fill-rule:evenodd;"
points="5602,3964
5287,3964
5287,4082
5602,4082
5602,3964
" /> 
<polyline style="fill-rule:evenodd;"
points="5602,4160
5287,4160
5287,4278
5602,4278
5602,4160
" /> 
<polyline style="fill-rule:evenodd;"
points="5602,4357
5287,4357
5287,4475
5602,4475
5602,4357
" /> 
<polyline style="fill-rule:evenodd;"
points="5091,4357
4776,4357
4776,4475
5091,4475
5091,4357
" /> 
<polyline style="fill-rule:evenodd;"
points="5091,4160
4776,4160
4776,4278
5091,4278
5091,4160
" /> 
<polyline style="fill-rule:evenodd;"
points="5091,3964
4776,3964
4776,4082
5091,4082
5091,3964
" /> 
<polyline style="fill-rule:evenodd;"
points="5091,3767
4776,3767
4776,3885
5091,3885
5091,3767
" /> 
<polyline style="fill-rule:evenodd;"
points="13555,3038
13555,3353
13673,3353
13673,3038
13555,3038
" /> 
<polyline style="fill-rule:evenodd;"
points="13811,3038
13811,3353
13929,3353
13929,3038
13811,3038
" /> 
<polyline style="fill-rule:evenodd;"
points="14067,3038
14067,3353
14185,3353
14185,3038
14067,3038
" /> 
<polyline style="fill-rule:evenodd;"
points="14067,2251
14067,2566
14185,2566
14185,2251
14067,2251
" /> 
<polyline style="fill-rule:evenodd;"
points="13811,2251
13811,2566
13929,2566
13929,2251
13811,2251
" /> 
<polyline style="fill-rule:evenodd;"
points="13555,2251
13555,2566
13673,2566
13673,2251
13555,2251
" /> 
<polyline style="fill-rule:evenodd;"
points="5366,7290
5839,7290
5839,7054
5366,7054
5366,7290
" /> 
<polyline style="fill-rule:evenodd;"
points="5366,6916
5839,6916
5839,6680
5366,6680
5366,6916
" /> 
<polyline style="fill-rule:evenodd;"
points="5366,7664
5839,7664
5839,7428
5366,7428
5366,7664
" /> 
<polyline style="fill-rule:evenodd;"
points="6272,7664
6744,7664
6744,7428
6272,7428
6272,7664
" /> 
<polyline style="fill-rule:evenodd;"
points="6272,6916
6744,6916
6744,6680
6272,6680
6272,6916
" /> 
<polyline style="fill-rule:evenodd;"
points="5287,6582
4815,6582
4815,6975
5287,6975
5287,6582
" /> 
<polyline style="fill-rule:evenodd;"
points="5287,7369
4815,7369
4815,7763
5287,7763
5287,7369
" /> 
<polyline style="fill-rule:evenodd;"
points="7630,7595
7630,8088
8339,8088
8339,7595
7630,7595
" /> 
<polyline style="fill-rule:evenodd;"
points="8654,7595
8654,8088
9362,8088
9362,7595
8654,7595
" /> 
<polyline style="fill-rule:evenodd;"
points="7669,7487
7866,7487
7866,7172
7669,7172
7669,7487
" /> 
<polyline style="fill-rule:evenodd;"
points="7669,7015
7866,7015
7866,6700
7669,6700
7669,7015
" /> 
<polyline style="fill-rule:evenodd;"
points="7315,6582
6843,6582
6843,6975
7315,6975
7315,6582
" /> 
<polyline style="fill-rule:evenodd;"
points="7315,7369
6843,7369
6843,7763
7315,7763
7315,7369
" /> 
<polyline style="fill-rule:evenodd;"
points="6291,2901
6291,3097
6606,3097
6606,2901
6291,2901
" /> 
<polyline style="fill-rule:evenodd;"
points="6764,2901
6764,3097
7079,3097
7079,2901
6764,2901
" /> 
<polyline style="fill-rule:evenodd;"
points="16921,2349
16921,2664
17551,2664
17551,2349
16921,2349
" /> 
<polyline style="fill-rule:evenodd;"
points="16921,2979
16921,3294
17551,3294
17551,2979
16921,2979
" /> 
<polyline style="fill-rule:evenodd;"
points="14795,2349
14795,2664
15425,2664
15425,2349
14795,2349
" /> 
<polyline style="fill-rule:evenodd;"
points="14795,2979
14795,3294
15425,3294
15425,2979
14795,2979
" /> 
<polyline style="fill-rule:evenodd;"
points="14795,2192
14795,2664
15189,2664
15189,2192
14795,2192
" /> 
<polyline style="fill-rule:evenodd;"
points="14795,2979
14795,3452
15189,3452
15189,2979
14795,2979
" /> 
<polyline style="fill-rule:evenodd;"
points="17158,2192
17158,2664
17551,2664
17551,2192
17158,2192
" /> 
<polyline style="fill-rule:evenodd;"
points="17158,2979
17158,3452
17551,3452
17551,2979
17158,2979
" /> 
<polyline style="fill-rule:evenodd;"
points="15169,2192
14953,2349
15425,2349
15209,2192
15169,2192
" /> 
<polyline style="fill-rule:evenodd;"
points="15209,3452
15425,3294
14953,3294
15169,3452
15209,3452
" /> 
<polyline style="fill-rule:evenodd;"
points="17138,2192
16921,2349
17394,2349
17177,2192
17138,2192
" /> 
<polyline style="fill-rule:evenodd;"
points="17177,3452
17394,3294
16921,3294
17138,3452
17177,3452
" /> 
<polyline style="fill-rule:evenodd;"
points="19658,2753
20327,2753
20327,2517
19658,2517
19658,2753
" /> 
<polyline style="fill-rule:evenodd;"
points="19658,2261
20327,2261
20327,2025
19658,2025
19658,2261
" /> 
<polyline style="fill-rule:evenodd;"
points="19658,3245
20327,3245
20327,3009
19658,3009
19658,3245
" /> 
<polyline style="fill-rule:evenodd;"
points="19658,3737
20327,3737
20327,3501
19658,3501
19658,3737
" /> 
<polyline style="fill-rule:evenodd;"
points="20661,1582
21724,1582
21724,1188
20661,1188
20661,1582
" /> 
<polyline style="fill-rule:evenodd;"
points="20661,4574
21724,4574
21724,4180
20661,4180
20661,4574
" /> 
<polyline style="fill-rule:evenodd;"
points="3958,3917
3485,3444
3318,3611
3791,4084
3958,3917
" /> 
<polyline style="fill-rule:evenodd;"
points="3610,4265
3137,3792
2970,3959
3443,4432
3610,4265
" /> 
<polyline style="fill-rule:evenodd;"
points="4306,3569
3833,3096
3666,3263
4139,3736
4306,3569
" /> 
<polyline style="fill-rule:evenodd;"
points="4654,3221
4181,2748
4014,2915
4487,3388
4654,3221
" /> 
<polyline style="fill-rule:evenodd;"
points="2420,4036
1668,3284
1390,3562
2142,4314
2420,4036
" /> 
<polyline style="fill-rule:evenodd;"
points="4536,1920
3784,1168
3506,1447
4257,2198
4536,1920
" /> 
<polyline style="fill-rule:evenodd;"
points="4139,5647
3666,6121
3833,6288
4306,5814
4139,5647
" /> 
<polyline style="fill-rule:evenodd;"
points="4487,5995
4014,6468
4181,6636
4654,6162
4487,5995
" /> 
<polyline style="fill-rule:evenodd;"
points="3791,5299
3318,5773
3485,5940
3958,5466
3791,5299
" /> 
<polyline style="fill-rule:evenodd;"
points="3443,4951
2970,5425
3137,5592
3610,5118
3443,4951
" /> 
<polyline style="fill-rule:evenodd;"
points="4257,7185
3506,7937
3784,8215
4536,7464
4257,7185
" /> 
<polyline style="fill-rule:evenodd;"
points="2142,5070
1390,5821
1668,6100
2420,5348
2142,5070
" /> 
<polyline style="fill-rule:evenodd;"
points="18417,2684
18417,2999
18536,2999
18536,2684
18417,2684
" /> 
<polyline style="fill-rule:evenodd;"
points="18673,2684
18673,2999
18791,2999
18791,2684
18673,2684
" /> 
<polyline style="fill-rule:evenodd;"
points="18929,2684
18929,2999
19047,2999
19047,2684
18929,2684
" /> 
<polyline style="fill-rule:evenodd;"
points="18929,1897
18929,2212
19047,2212
19047,1897
18929,1897
" /> 
<polyline style="fill-rule:evenodd;"
points="18673,1897
18673,2212
18791,2212
18791,1897
18673,1897
" /> 
<polyline style="fill-rule:evenodd;"
points="18417,1897
18417,2212
18536,2212
18536,1897
18417,1897
" /> 
<polyline style="fill-rule:evenodd;"
points="14441,3452
14638,3452
14638,3137
14441,3137
14441,3452
" /> 
<polyline style="fill-rule:evenodd;"
points="14441,2979
14638,2979
14638,2664
14441,2664
14441,2979
" /> 
<polyline style="fill-rule:evenodd;"
points="9205,6483
9205,6286
8890,6286
8890,6483
9205,6483
" /> 
<polyline style="fill-rule:evenodd;"
points="8732,6483
8732,6286
8417,6286
8417,6483
8732,6483
" /> 
<polyline style="fill-rule:evenodd;"
points="8417,5381
8417,5578
8732,5578
8732,5381
8417,5381
" /> 
<polyline style="fill-rule:evenodd;"
points="8890,5381
8890,5578
9205,5578
9205,5381
8890,5381
" /> 
<polyline style="fill-rule:evenodd;"
points="6291,3334
6291,3530
6606,3530
6606,3334
6291,3334
" /> 
<polyline style="fill-rule:evenodd;"
points="6764,3334
6764,3530
7079,3530
7079,3334
6764,3334
" /> 
<polyline style="fill-rule:evenodd;"
points="14638,1739
14441,1739
14441,2054
14638,2054
14638,1739
" /> 
<polyline style="fill-rule:evenodd;"
points="14638,2212
14441,2212
14441,2526
14638,2526
14638,2212
" /> 
<polyline style="fill-rule:evenodd;"
points="18004,2192
17807,2192
17807,2507
18004,2507
18004,2192
" /> 
<polyline style="fill-rule:evenodd;"
points="18004,2664
17807,2664
17807,2979
18004,2979
18004,2664
" /> 
<polyline style="fill-rule:evenodd;"
points="7276,2526
7276,1975
6882,1975
6882,2526
7276,2526
" /> 
<polyline style="fill-rule:evenodd;"
points="5622,2526
5622,1975
5228,1975
5228,2526
5622,2526
" /> 
<polyline style="fill-rule:evenodd;"
points="8024,1601
8024,1208
7236,1208
7236,1601
8024,1601
" /> 
<polyline style="fill-rule:evenodd;"
points="5268,1601
5268,1208
4480,1208
4480,1601
5268,1601
" /> 
</g>
<g style="fill:#000000; fill-opacity:1.0; 
stroke:#000000; stroke-width:3.93701; stroke-opacity:1; 
stroke-linecap:round; stroke-linejoin:round;">
<polyline style="fill-rule:evenodd;"
points="13600,3685
13228,3686
12895,3687
12600,3688
12345,3689
12129,3691
11952,3693
11815,3695
11717,3698
11660,3701
11654,3701
11493,3725
11359,3765
11238,3826
11119,3914
11068,3958
10986,4030
10911,4087
10837,4130
10757,4162
10664,4185
10551,4202
10411,4214
10253,4222
10081,4233
9943,4245
9832,4261
9742,4280
9668,4306
9623,4326
9550,4356
9456,4379
9336,4397
9186,4409
9029,4416
8896,4422
8797,4430
8728,4442
8684,4461
8658,4489
8647,4527
8644,4580
8644,4583
8650,4644
8671,4687
8714,4715
8785,4733
8890,4744
8890,4744
9006,4754
9102,4771
9186,4797
9263,4837
9341,4895
9426,4974
9526,5079
9589,5149
9629,5193
9667,5229
9705,5256
9750,5277
9806,5292
9879,5302
9972,5308
10092,5311
10243,5312
10393,5312
10600,5311
10772,5308
10916,5300
11038,5286
11142,5265
11235,5233
11323,5191
11412,5135
11506,5064
11612,4977
11676,4923
11677,4923
11583,4923
11533,4963
11479,5007
11421,5051
11369,5090
11332,5115
11320,5122
11316,5104
11314,5058
11313,5022
11313,4922
11253,4922
11253,5039
11252,5106
11244,5144
11226,5165
11198,5179
11120,5204
11022,5227
10925,5244
10893,5248
10842,5254
10810,5258
10808,5259
10802,5242
10796,5194
10794,5124
10793,5092
10793,4922
10733,4922
10733,5078
10732,5154
10727,5214
10721,5246
10720,5248
10696,5254
10640,5258
10562,5261
10490,5262
10273,5262
10273,4922
10213,4922
10213,5078
10212,5155
10207,5215
10200,5248
10198,5251
10171,5257
10116,5259
10042,5257
9961,5251
9883,5243
9820,5232
9788,5224
9760,5210
9743,5191
9736,5156
9733,5095
9733,5062
9733,4922
9693,4922
9692,5172
9611,5082
9564,5028
9526,4981
9511,4957
9504,4936
9517,4926
9559,4922
9593,4922
9693,4922
9733,4922
10213,4922
10273,4922
10733,4922
10793,4922
11253,4922
11313,4922
11448,4922
11583,4923
11677,4923
11757,4861
11848,4801
11931,4755
11933,4753
12072,4706
12217,4689
12357,4703
12457,4736
12583,4814
12690,4923
12773,5056
12828,5205
12849,5337
12852,5418
12847,5478
12830,5534
12798,5605
12796,5610
12721,5730
12622,5840
12510,5932
12394,5996
12383,6000
12360,6008
12337,6015
12309,6021
12275,6026
12231,6031
12174,6034
12101,6036
12009,6038
11894,6040
11755,6041
11587,6041
11388,6042
11154,6042
10934,6042
9596,6042
9564,6086
9537,6155
9541,6229
9562,6273
9566,6277
9572,6282
9581,6285
9596,6289
9618,6292
9648,6295
9689,6298
9741,6300
9807,6302
9888,6304
9985,6306
10101,6307
10237,6309
10394,6310
10574,6311
10779,6312
11011,6313
11271,6313
11560,6314
11881,6315
12234,6315
12623,6316
13047,6317
13509,6317
13677,6317
14189,6318
14672,6318
15126,6319
15551,6319
15944,6318
16305,6318
16634,6317
16930,6316
17191,6315
17417,6313
17607,6312
17760,6310
17875,6308
17952,6305
17983,6303
18106,6290
18215,6270
18321,6241
18434,6199
18566,6142
18643,6106
18736,6064
18804,6036
18861,6021
18918,6014
18987,6012
18994,6012
19082,6015
19151,6026
19220,6050
19278,6078
19417,6167
19525,6280
19601,6416
19643,6571
19649,6623
19643,6786
19601,6933
19522,7063
19407,7178
19345,7224
19237,7286
19130,7323
19018,7335
18894,7323
18762,7287
18573,7287
18573,7462
18093,7462
18093,7117
18175,7130
18232,7144
18311,7172
18395,7206
18415,7215
18573,7287
18762,7287
18753,7285
18589,7222
18537,7199
18437,7156
18337,7116
18300,7102
18033,7102
18033,7462
17573,7462
17573,7102
17513,7102
17513,7462
17053,7462
17053,7102
16993,7102
16993,7462
16533,7462
16533,7102
16473,7102
16473,7462
16013,7462
16013,7102
15953,7102
15953,7462
15493,7462
15493,7102
15433,7102
15433,7462
14973,7462
14973,7102
14913,7102
14913,7462
14433,7462
14433,7102
14393,7102
14393,7462
13913,7462
13913,7102
13873,7102
13873,7462
13393,7462
13393,7102
13353,7102
13353,7462
12873,7462
12873,7102
12813,7102
12813,7462
12353,7462
12353,7102
12293,7102
12293,7462
11833,7462
11833,7102
11773,7102
11773,7462
11313,7462
11313,7102
11253,7102
11253,7462
10793,7462
10793,7102
10733,7102
10733,7462
10273,7462
10273,7102
10213,7102
10213,7462
9733,7462
9733,7102
9693,7102
9693,7425
9558,7413
9468,7404
9375,7395
9318,7390
9283,7386
9175,7386
9019,7372
8931,7363
8848,7353
8786,7345
8783,7345
8703,7331
8697,7166
8692,7002
8653,7002
8653,7307
8592,7294
8531,7273
8472,7241
8415,7179
8395,7103
8402,7052
8412,7024
8432,7009
8472,7003
8534,7002
8653,7002
8692,7002
8692,7000
8927,7006
9163,7012
9175,7386
9283,7386
9213,7379
9213,7026
9357,7064
9444,7083
9532,7097
9597,7102
9693,7102
9733,7102
10213,7102
10273,7102
10733,7102
10793,7102
11253,7102
11313,7102
11773,7102
11833,7102
12293,7102
12353,7102
12813,7102
12873,7102
13353,7102
13393,7102
13873,7102
13913,7102
14393,7102
14433,7102
14913,7102
14973,7102
15433,7102
15493,7102
15953,7102
16013,7102
16473,7102
16533,7102
16993,7102
17053,7102
17513,7102
17573,7102
18033,7102
18300,7102
18252,7083
18193,7064
18177,7061
18155,7057
18124,7054
18083,7052
18031,7049
17965,7047
17885,7044
17789,7042
17676,7040
17543,7039
17389,7037
17213,7036
17013,7034
16788,7033
16535,7031
16254,7030
15943,7029
15600,7028
15223,7027
14812,7025
14365,7024
13879,7023
13723,7023
9363,7012
9141,6938
9117,6931
8893,6931
8879,6936
8830,6939
8808,6940
8745,6938
8704,6930
8693,6922
8700,6917
8648,6917
8640,6933
8600,6940
8560,6941
8504,6938
8486,6930
8494,6923
8542,6904
8594,6898
8635,6905
8648,6917
8700,6917
8711,6909
8754,6904
8812,6908
8870,6921
8873,6922
8893,6931
9117,6931
8946,6879
8783,6843
8648,6829
8540,6838
8456,6870
8394,6924
8364,6974
8334,7073
8343,7165
8388,7245
8468,7311
8580,7359
8641,7377
8698,7392
8757,7404
8824,7414
8907,7423
9012,7433
9147,7444
9247,7451
9411,7465
9536,7478
9626,7492
9682,7507
9693,7511
9750,7555
9814,7628
9886,7735
9944,7834
9985,7901
10026,7958
10058,7991
10058,7991
10066,7994
10080,7997
10102,8000
10134,8003
10177,8005
10232,8007
10300,8009
10385,8011
10485,8013
10604,8014
10743,8015
10903,8016
11085,8017
11292,8018
11524,8019
11783,8019
12070,8020
12387,8020
12736,8020
13117,8020
13533,8020
13985,8020
14473,8020
14963,8020
15500,8020
15998,8020
16459,8019
16884,8019
17274,8018
17632,8018
17957,8017
18252,8016
18518,8016
18757,8014
18969,8013
19156,8012
19319,8011
19460,8009
19580,8007
19681,8005
19764,8003
19829,8001
19880,7999
19916,7996
19940,7993
19945,7992
20172,7924
20399,7821
20620,7688
20789,7560
20653,7560
20636,7595
20587,7639
20558,7659
20497,7696
20424,7737
20349,7777
20281,7811
20231,7834
20208,7842
20201,7823
20196,7774
20193,7704
20193,7682
20193,7522
20133,7522
20133,7877
20008,7909
19909,7934
19837,7948
19780,7954
19727,7955
19723,7954
19663,7952
19658,7737
19652,7522
19613,7522
19613,7962
19133,7962
19133,7522
19093,7522
19093,7962
18613,7962
18613,7522
18573,7522
18573,7728
18572,7816
18569,7887
18564,7935
18560,7948
18536,7954
18480,7958
18402,7961
18320,7962
18093,7962
18093,7522
18033,7522
18033,7962
17573,7962
17573,7522
17513,7522
17513,7962
17053,7962
17053,7522
16993,7522
16993,7962
16533,7962
16533,7522
16473,7522
16473,7962
16013,7962
16013,7522
15953,7522
15953,7962
15493,7962
15493,7522
15433,7522
15433,7962
14973,7962
14973,7522
14913,7522
14913,7962
14433,7962
14433,7522
14393,7522
14393,7962
13913,7962
13913,7522
13873,7522
13873,7728
13872,7816
13869,7887
13864,7935
13860,7948
13836,7954
13780,7958
13702,7961
13620,7962
13393,7962
13393,7522
13353,7522
13353,7728
13352,7816
13349,7887
13344,7935
13340,7948
13316,7954
13260,7958
13182,7961
13100,7962
12873,7962
12873,7522
12813,7522
12813,7962
12353,7962
12353,7522
12293,7522
12293,7962
11833,7962
11833,7522
11773,7522
11773,7962
11313,7962
11313,7522
11253,7522
11253,7962
10793,7962
10793,7522
10733,7522
10733,7962
10273,7962
10273,7522
10213,7522
10213,7742
10213,7838
10211,7901
10206,7938
10197,7956
10181,7961
10167,7962
10120,7948
10079,7917
10048,7877
10007,7815
9964,7744
9962,7742
9920,7671
9879,7609
9848,7568
9847,7567
9806,7522
10213,7522
10273,7522
10733,7522
10793,7522
11253,7522
11313,7522
11773,7522
11833,7522
12293,7522
12353,7522
12813,7522
12873,7522
13353,7522
13393,7522
13873,7522
13913,7522
14393,7522
14433,7522
14913,7522
14973,7522
15433,7522
15493,7522
15953,7522
16013,7522
16473,7522
16533,7522
16993,7522
17053,7522
17513,7522
17573,7522
18033,7522
18093,7522
18573,7522
18613,7522
19093,7522
19133,7522
19613,7522
19652,7522
20133,7522
20193,7522
20423,7522
20522,7522
20588,7524
20627,7529
20647,7538
20653,7552
20653,7560
20789,7560
20826,7532
20733,7532
20723,7542
20713,7532
20723,7522
20733,7532
20826,7532
20830,7528
21025,7347
21197,7149
21267,7049
21173,7049
21159,7088
21115,7151
21041,7236
21001,7279
20925,7359
20869,7412
20827,7444
20794,7459
20771,7462
20713,7462
20713,7002
20653,7002
20653,7462
20193,7462
20193,7002
20133,7002
20133,7462
19653,7462
19613,7462
19373,7462
19272,7461
19204,7459
19163,7455
19142,7447
19135,7435
19093,7435
19085,7447
19056,7455
19001,7459
18915,7462
18853,7462
18613,7462
18613,7306
18718,7345
18796,7369
18890,7388
18958,7396
19038,7406
19082,7419
19093,7435
19135,7435
19134,7434
19133,7422
19144,7389
19160,7382
19209,7370
19278,7338
19356,7292
19433,7238
19499,7184
19521,7162
19613,7063
19613,7462
19653,7462
19653,7002
20133,7002
20193,7002
20653,7002
20713,7002
20943,7002
21042,7002
21107,7004
21146,7008
21166,7017
21173,7032
21173,7049
21267,7049
21343,6939
21450,6734
21479,6666
21503,6604
21521,6543
21534,6482
21470,6482
21451,6552
21428,6619
21396,6697
21359,6777
21321,6849
21287,6905
21261,6938
21253,6942
21244,6923
21238,6869
21234,6787
21233,6712
21233,6482
21173,6482
21173,6942
20713,6942
20713,6482
20653,6482
20653,6942
20193,6942
20193,6482
20133,6482
20133,6942
19671,6942
19687,6897
19694,6857
19700,6789
19703,6706
19703,6667
19703,6482
20133,6482
20193,6482
20653,6482
20713,6482
21173,6482
21233,6482
21470,6482
21534,6482
21535,6477
21546,6401
21554,6309
21559,6196
21563,6056
21565,5962
21513,5962
21513,6057
21511,6129
21506,6219
21500,6287
21488,6422
21233,6422
21233,5962
21173,5962
21173,6422
20713,6422
20713,5962
20653,5962
20653,6422
20193,6422
20193,5962
20133,5962
20133,6422
19905,6422
19804,6421
19736,6418
19694,6411
19673,6401
19665,6390
19660,6357
19656,6295
19654,6213
19653,6160
19653,5962
19613,5962
19613,6280
19521,6181
19449,6116
19362,6054
19308,6022
19189,5963
18803,5963
18723,6001
18663,6028
18630,6037
18616,6029
18614,6009
18573,6009
18562,6056
18546,6080
18507,6102
18442,6130
18363,6160
18281,6188
18208,6210
18156,6220
18148,6221
18119,6220
18102,6209
18095,6179
18093,6122
18093,6092
18093,5962
18033,5962
18033,6242
17573,6242
17573,5962
17513,5962
17513,6242
17053,6242
17053,5962
16993,5962
16993,6242
16533,6242
16533,5962
16473,5962
16473,6242
16013,6242
16013,5962
15953,5962
15953,6242
15493,6242
15493,5962
15433,5962
15433,6242
14973,6242
14973,5962
14913,5962
14913,6242
14433,6242
14433,5962
14393,5962
14393,6242
13913,6242
13913,5962
13873,5962
13873,6242
13393,6242
13393,5962
13353,5962
13353,6242
12873,6242
12873,5962
12813,5962
12813,6242
12353,6242
12353,6165
12355,6124
12364,6102
12293,6102
12293,6242
11833,6242
11833,6102
11773,6102
11773,6242
11313,6242
11313,6102
11253,6102
11253,6242
10793,6242
10793,6102
10733,6102
10733,6242
10273,6242
10273,6102
10213,6102
10213,6242
9733,6242
9733,6172
9693,6172
9689,6220
9671,6240
9654,6242
9616,6232
9603,6221
9595,6179
9609,6135
9638,6106
9654,6102
9681,6110
9692,6141
9693,6172
9733,6172
9733,6102
10213,6102
10273,6102
10733,6102
10793,6102
11253,6102
11313,6102
11773,6102
11833,6102
12293,6102
12364,6102
12367,6095
12396,6069
12450,6039
12476,6025
12567,5985
12646,5965
12706,5962
12813,5962
12873,5962
13353,5962
13393,5962
13873,5962
13913,5962
14393,5962
14433,5962
14913,5962
14973,5962
15433,5962
15493,5962
15953,5962
16013,5962
16473,5962
16533,5962
16993,5962
17053,5962
17513,5962
17573,5962
18033,5962
18093,5962
18333,5962
18434,5962
18502,5964
18543,5968
18564,5976
18572,5990
18573,6009
18614,6009
18613,6003
18613,6002
18619,5977
18642,5966
18693,5962
18708,5962
18803,5963
19189,5963
19187,5962
19613,5962
19653,5962
20133,5962
20193,5962
20653,5962
20713,5962
21173,5962
21233,5962
21513,5962
21565,5962
21567,5885
21568,5790
21570,5599
21571,5443
21571,5442
21513,5442
21513,5902
21233,5902
21233,5442
21173,5442
21173,5902
20713,5902
20713,5442
20653,5442
20653,5902
20193,5902
20193,5442
20133,5442
20133,5902
19653,5902
19653,5442
19613,5442
19613,5902
19133,5902
19133,5442
19093,5442
19093,5902
18613,5902
18613,5442
18573,5442
18573,5902
18093,5902
18093,5442
18033,5442
18033,5902
17573,5902
17573,5442
17513,5442
17513,5902
17053,5902
17053,5442
16993,5442
16993,5902
16533,5902
16533,5442
16473,5442
16473,5902
16013,5902
16013,5442
15953,5442
15953,5902
15493,5902
15493,5442
15433,5442
15433,5902
14973,5902
14973,5442
14913,5442
14913,5902
14433,5902
14433,5442
14393,5442
14393,5902
13913,5902
13913,5442
13873,5442
13873,5902
13393,5902
13393,5442
13353,5442
13353,5902
12873,5902
12873,5808
12813,5808
12813,5902
12670,5902
12735,5817
12773,5768
12800,5733
12807,5723
12811,5736
12813,5778
12813,5808
12873,5808
12873,5762
12877,5675
12886,5588
12897,5532
12922,5442
13353,5442
13393,5442
13873,5442
13913,5442
14393,5442
14433,5442
14913,5442
14973,5442
15433,5442
15493,5442
15953,5442
16013,5442
16473,5442
16533,5442
16993,5442
17053,5442
17513,5442
17573,5442
18033,5442
18093,5442
18573,5442
18613,5442
19093,5442
19133,5442
19613,5442
19653,5442
20133,5442
20193,5442
20653,5442
20713,5442
21173,5442
21233,5442
21513,5442
21571,5442
21570,5382
21519,5382
21233,5382
21233,4922
21173,4922
21173,5382
20713,5382
20713,4922
20653,4922
20653,5382
20193,5382
20193,4922
20133,4922
20133,5382
19653,5382
19653,4922
19613,4922
19613,5382
19133,5382
19133,4922
19093,4922
19093,5382
18613,5382
18613,4922
18573,4922
18573,5382
18093,5382
18093,4922
18033,4922
18033,5382
17573,5382
17573,4922
17513,4922
17513,5382
17053,5382
17053,4922
16993,4922
16993,5382
16533,5382
16533,4922
16473,4922
16473,5382
16013,5382
16013,4922
15953,4922
15953,5382
15493,5382
15493,4922
15433,4922
15433,5382
14973,5382
14973,4922
14913,4922
14913,5382
14433,5382
14433,4922
14393,4922
14393,5382
13913,5382
13913,4922
13873,4922
13873,5382
13393,5382
13393,4922
13353,4922
13353,5382
12938,5382
12905,5239
12889,5153
12877,5069
12873,5009
12873,4952
12813,4952
12809,4978
12805,4982
12793,4966
12786,4952
12786,4926
12794,4922
12811,4938
12813,4952
12873,4952
12873,4922
13353,4922
13393,4922
13873,4922
13913,4922
14393,4922
14433,4922
14913,4922
14973,4922
15433,4922
15493,4922
15953,4922
16013,4922
16473,4922
16533,4922
16993,4922
17053,4922
17513,4922
17573,4922
18033,4922
18093,4922
18573,4922
18613,4922
19093,4922
19133,4922
19613,4922
19653,4922
20133,4922
20193,4922
20653,4922
20713,4922
21173,4922
21233,4922
21320,4922
21374,4925
21408,4940
21437,4978
21453,5005
21486,5087
21505,5190
21509,5235
21519,5382
21570,5382
21570,5318
21566,5220
21560,5142
21550,5082
21537,5033
21519,4993
21497,4955
21488,4942
21443,4882
21405,4848
21267,4848
21264,4860
21253,4862
21244,4858
21183,4858
20948,4860
20848,4860
20782,4859
20742,4855
20721,4847
20714,4833
20713,4820
20714,4814
20653,4814
20652,4834
20644,4848
20623,4856
20580,4860
20511,4862
20423,4862
20193,4862
20135,4862
19653,4862
19653,4402
19613,4402
19613,4862
19133,4862
19133,4402
19093,4402
19093,4862
18613,4862
18613,4402
18573,4402
18573,4862
18093,4862
18093,4402
18033,4402
18033,4862
17573,4862
17573,4402
17513,4402
17513,4862
17053,4862
17053,4402
16993,4402
16993,4862
16533,4862
16533,4402
16473,4402
16473,4862
16013,4862
16013,4402
15953,4402
15953,4862
15493,4862
15493,4402
15433,4402
15433,4862
14973,4862
14973,4402
14913,4402
14913,4862
14433,4862
14433,4402
14393,4402
14393,4862
13913,4862
13913,4402
13873,4402
13873,4862
13393,4862
13393,4402
13353,4402
13353,4862
12873,4862
12873,4402
12813,4402
12813,4632
12813,4730
12811,4796
12806,4835
12797,4855
12783,4861
12771,4862
12734,4849
12682,4816
12638,4781
12569,4730
12492,4685
12450,4667
12353,4632
12353,4402
12293,4402
12293,4616
12168,4626
12082,4639
11998,4661
11953,4677
11898,4702
11858,4717
11848,4720
11841,4702
11836,4654
11833,4585
11833,4562
11833,4402
11773,4402
11773,4587
11773,4772
11708,4817
11668,4840
11623,4854
11561,4860
11479,4862
11313,4862
11313,4402
11253,4402
11253,4862
10793,4862
10793,4402
10733,4402
10733,4862
10273,4862
10273,4402
10213,4402
10213,4862
9733,4862
9733,4632
9693,4632
9693,4862
9558,4861
9478,4859
9421,4847
9370,4824
9335,4801
9283,4768
9243,4746
9230,4742
9222,4724
9215,4676
9213,4613
9213,4603
9173,4603
9172,4670
9167,4705
9155,4716
9138,4712
9102,4704
9039,4696
8960,4689
8943,4687
8843,4679
8776,4667
8737,4648
8719,4620
8716,4578
8717,4565
8723,4492
9173,4480
9173,4603
9213,4603
9213,4484
9288,4472
9347,4462
9427,4447
9503,4431
9576,4416
9635,4406
9668,4402
9668,4402
9680,4413
9688,4451
9692,4518
9693,4621
9693,4632
9733,4632
9733,4402
10213,4402
10273,4402
10733,4402
10793,4402
11253,4402
11313,4402
11773,4402
11833,4402
12293,4402
12353,4402
12813,4402
12873,4402
13353,4402
13393,4402
13873,4402
13913,4402
14393,4402
14433,4402
14913,4402
14973,4402
15433,4402
15493,4402
15953,4402
16013,4402
16473,4402
16533,4402
16993,4402
17053,4402
17513,4402
17573,4402
18033,4402
18093,4402
18573,4402
18613,4402
19093,4402
19133,4402
19613,4402
19653,4402
19653,4401
19888,4406
20123,4412
20135,4862
20193,4862
20193,4479
20275,4549
20334,4593
20414,4642
20498,4688
20505,4692
20580,4731
20626,4761
20648,4786
20653,4814
20714,4814
20719,4791
20743,4787
20768,4792
20813,4802
20884,4814
20970,4827
21003,4832
21183,4858
21244,4858
21237,4854
21240,4848
21264,4846
21267,4848
21405,4848
21395,4840
21337,4812
21259,4794
21153,4781
21124,4779
20947,4760
20796,4731
20657,4688
20519,4629
20513,4627
20452,4595
20396,4560
20338,4515
20271,4456
20189,4378
20153,4342
20060,4342
19653,4342
19653,4172
19655,4095
19660,4036
19667,4005
19670,4002
19702,4015
19754,4050
19819,4102
19889,4162
19956,4226
20012,4286
20013,4287
20060,4342
20153,4342
20113,4302
20025,4214
19938,4131
19860,4060
19798,4007
19767,3983
19727,3960
19613,3960
19613,4342
19132,4342
19095,4342
18612,4342
18575,4342
18093,4342
18093,3862
18033,3862
18033,4342
17573,4342
17573,3862
17513,3862
17513,4342
17053,4342
17053,3862
16993,3862
16993,4342
16533,4342
16533,3862
16473,3862
16473,4342
16013,4342
16013,3862
15953,3862
15953,4342
15493,4342
15493,3862
15433,3862
15433,4342
14973,4342
14913,4342
14432,4342
14395,4342
13912,4342
13875,4342
13393,4342
13355,4342
12873,4342
12873,3862
12813,3862
12813,4342
12353,4342
12353,3862
12293,3862
12293,4342
11833,4342
11833,3862
11773,3862
11773,4342
11313,4342
11253,4342
10793,4342
10793,4289
10733,4289
10733,4342
10503,4342
10400,4341
10332,4337
10292,4331
10275,4321
10273,4314
10277,4309
10213,4309
10208,4324
10189,4333
10149,4338
10082,4340
9998,4340
9906,4338
9851,4335
9831,4330
9844,4324
9853,4321
9909,4311
9988,4300
10068,4291
10144,4285
10188,4285
10208,4293
10213,4309
10213,4309
10277,4309
10285,4300
10323,4289
10392,4281
10458,4276
10546,4269
10622,4261
10675,4254
10688,4251
10721,4246
10733,4268
10733,4289
10793,4289
10793,4284
10799,4247
10821,4217
10868,4183
10898,4164
10966,4120
11046,4059
11122,3996
11128,3990
11253,3877
11253,4342
11313,4342
11313,3862
11773,3862
11833,3862
12293,3862
12353,3862
12813,3862
12873,3862
12873,3861
13108,3866
13343,3872
13349,4107
13355,4342
13393,4342
13393,3861
13628,3866
13863,3872
13869,4107
13875,4342
13912,4342
13923,3872
14383,3872
14389,4107
14395,4342
14432,4342
14443,3872
14678,3866
14913,3861
14913,4342
14973,4342
14973,3862
15433,3862
15493,3862
15953,3862
16013,3862
16473,3862
16533,3862
16993,3862
17053,3862
17513,3862
17573,3862
18033,3862
18093,3862
18093,3861
18328,3866
18563,3872
18569,4107
18575,4342
18612,4342
18623,3872
19083,3872
19089,4107
19095,4342
19132,4342
19143,3872
19269,3866
19359,3867
19434,3882
19504,3910
19613,3960
19727,3960
19651,3914
19510,3845
19444,3817
19248,3817
19219,3821
19197,3822
19153,3816
19133,3803
19133,3801
19140,3797
19088,3797
19082,3808
19053,3815
18994,3820
18903,3822
18854,3822
18751,3821
18683,3819
18642,3815
18621,3807
18616,3794
18617,3787
18569,3787
18569,3802
18557,3811
18526,3817
18471,3821
18385,3822
18333,3822
18231,3821
18163,3819
18121,3815
18101,3807
18096,3794
18097,3787
18100,3781
18033,3781
18031,3799
18020,3810
17992,3817
17943,3820
17863,3822
17802,3822
17702,3821
17637,3819
17598,3814
17580,3805
17576,3792
17577,3787
17580,3782
17513,3782
17511,3799
17499,3810
17471,3817
17420,3821
17340,3822
17283,3822
17184,3821
17119,3819
17080,3814
17060,3806
17054,3792
17053,3782
16993,3782
16991,3799
16979,3810
16951,3817
16900,3821
16820,3822
16763,3822
16664,3821
16599,3819
16560,3814
16540,3806
16534,3792
16533,3782
16473,3782
16471,3799
16459,3810
16431,3817
16380,3821
16300,3822
16243,3822
16144,3821
16079,3819
16040,3814
16020,3806
16014,3792
16014,3787
15950,3787
15949,3802
15936,3812
15905,3818
15848,3821
15760,3822
15725,3822
15626,3821
15560,3819
15520,3815
15501,3806
15494,3792
15494,3787
15430,3787
15429,3802
15416,3812
15385,3818
15328,3821
15240,3822
15205,3822
15106,3821
15040,3819
15000,3815
14981,3806
14974,3792
14974,3787
14909,3787
14909,3802
14897,3811
14866,3817
14811,3821
14725,3822
14673,3822
14571,3821
14503,3819
14461,3815
14441,3807
14436,3794
14437,3787
14389,3787
14389,3802
14377,3811
14346,3817
14291,3821
14205,3822
14153,3822
14051,3821
13983,3819
13941,3815
13921,3807
13916,3794
13917,3787
13869,3787
13869,3802
13857,3811
13826,3817
13771,3821
13685,3822
13633,3822
13531,3821
13463,3819
13421,3815
13401,3807
13396,3794
13397,3787
13398,3784
13353,3784
13338,3802
13291,3814
13209,3820
13101,3822
13002,3821
12936,3819
12898,3814
12880,3805
12876,3792
12877,3787
12880,3782
12813,3782
12811,3799
12799,3810
12771,3817
12720,3821
12640,3822
12583,3822
12484,3821
12419,3819
12380,3814
12360,3806
12354,3792
12353,3782
12293,3782
12291,3799
12279,3810
12251,3817
12200,3821
12120,3822
12063,3822
11964,3821
11899,3819
11860,3814
11840,3806
11834,3792
11834,3789
11773,3789
11768,3804
11749,3814
11707,3819
11637,3821
11578,3821
11490,3819
11438,3816
11418,3810
11427,3802
11433,3799
11478,3787
11548,3776
11628,3767
11628,3767
11704,3763
11748,3764
11768,3772
11773,3789
11773,3789
11834,3789
11833,3782
11836,3765
11848,3753
11876,3746
11926,3743
12007,3742
12063,3742
12162,3742
12228,3744
12267,3749
12286,3758
12293,3772
12293,3782
12353,3782
12356,3765
12368,3753
12396,3746
12446,3743
12527,3742
12583,3742
12682,3742
12748,3744
12787,3749
12806,3758
12813,3772
12813,3782
12880,3782
12885,3771
12906,3760
12946,3753
13014,3749
13102,3746
13192,3745
13268,3748
13320,3753
13339,3759
13353,3784
13398,3784
13404,3772
13423,3761
13461,3756
13524,3753
13619,3752
13633,3752
13733,3752
13800,3755
13840,3761
13861,3770
13869,3785
13869,3787
13917,3787
13924,3772
13943,3761
13981,3756
14044,3753
14139,3752
14153,3752
14253,3752
14320,3755
14360,3761
14381,3770
14389,3785
14389,3787
14437,3787
14444,3772
14463,3761
14501,3756
14564,3753
14659,3752
14673,3752
14773,3752
14840,3755
14880,3761
14901,3770
14909,3785
14909,3787
14974,3787
14973,3781
14975,3764
14986,3752
15013,3746
15063,3744
15141,3745
15198,3746
15297,3749
15363,3754
15402,3761
15422,3772
15430,3787
15494,3787
15493,3781
15495,3764
15506,3752
15533,3746
15583,3744
15661,3745
15718,3746
15817,3749
15883,3754
15922,3761
15942,3772
15950,3787
16014,3787
16013,3782
16016,3765
16028,3753
16056,3746
16106,3743
16187,3742
16243,3742
16342,3742
16408,3744
16447,3749
16466,3758
16473,3772
16473,3782
16533,3782
16536,3765
16548,3753
16576,3746
16626,3743
16707,3742
16763,3742
16862,3742
16928,3744
16967,3749
16986,3758
16993,3772
16993,3782
17053,3782
17056,3765
17068,3753
17096,3746
17146,3743
17227,3742
17283,3742
17382,3742
17448,3744
17487,3749
17506,3758
17513,3772
17513,3782
17580,3782
17585,3771
17605,3761
17645,3754
17711,3749
17809,3746
17906,3744
17970,3744
18008,3748
18027,3757
18033,3771
18033,3781
18100,3781
18104,3772
18123,3761
18161,3756
18224,3753
18319,3752
18333,3752
18433,3752
18500,3755
18540,3761
18561,3770
18569,3785
18569,3787
18617,3787
18634,3763
18677,3750
18713,3746
18792,3745
18877,3750
18960,3759
19029,3771
19075,3786
19088,3797
19140,3797
19150,3790
19188,3794
19238,3808
19248,3817
19444,3817
19358,3782
19232,3738
19083,3692
15473,3686
14948,3686
14460,3685
14011,3685
13600,3685
" /> 
</g>
<g style="fill:#000000; fill-opacity:1.0; 
stroke:#000000; stroke-width:0; stroke-opacity:1; 
stroke-linecap:round; stroke-linejoin:round;">
<polyline style="fill-rule:evenodd;"
points="10228,3255
10228,2586
9992,2586
9992,3255
10228,3255
" /> 
<polyline style="fill-rule:evenodd;"
points="9736,3255
9736,2586
9500,2586
9500,3255
9736,3255
" /> 
<polyline style="fill-rule:evenodd;"
points="10721,3255
10721,2586
10484,2586
10484,3255
10721,3255
" /> 
<polyline style="fill-rule:evenodd;"
points="11213,3255
11213,2586
10976,2586
10976,3255
11213,3255
" /> 
<polyline style="fill-rule:evenodd;"
points="8536,2251
8536,1188
8142,1188
8142,2251
8536,2251
" /> 
<polyline style="fill-rule:evenodd;"
points="12079,2251
12079,1188
11685,1188
11685,2251
12079,2251
" /> 
<polyline style="fill-rule:evenodd;"
points="9008,3255
9244,3255
9244,2586
9008,2586
9008,3255
" /> 
<polyline style="fill-rule:evenodd;"
points="6701,3759
6951,4009
7035,3926
6784,3675
6701,3759
" /> 
<polyline style="fill-rule:evenodd;"
points="6561,3898
6895,4232
6979,4149
6645,3815
6561,3898
" /> 
<polyline style="fill-rule:evenodd;"
points="6422,4037
6756,4371
6840,4288
6506,3954
6422,4037
" /> 
<polyline style="fill-rule:evenodd;"
points="6283,4176
6617,4510
6701,4427
6367,4093
6283,4176
" /> 
<polyline style="fill-rule:evenodd;"
points="6144,4316
6478,4650
6561,4566
6227,4232
6144,4316
" /> 
<polyline style="fill-rule:evenodd;"
points="6005,4455
6339,4789
6422,4705
6088,4371
6005,4455
" /> 
<polyline style="fill-rule:evenodd;"
points="5865,4594
6116,4845
6200,4761
5949,4510
5865,4594
" /> 
<polyline style="fill-rule:evenodd;"
points="5949,5346
6200,5095
6116,5012
5865,5262
5949,5346
" /> 
<polyline style="fill-rule:evenodd;"
points="6088,5485
6422,5151
6339,5067
6005,5401
6088,5485
" /> 
<polyline style="fill-rule:evenodd;"
points="6227,5624
6561,5290
6478,5206
6144,5541
6227,5624
" /> 
<polyline style="fill-rule:evenodd;"
points="6367,5763
6701,5429
6617,5346
6283,5680
6367,5763
" /> 
<polyline style="fill-rule:evenodd;"
points="6506,5902
6840,5568
6756,5485
6422,5819
6506,5902
" /> 
<polyline style="fill-rule:evenodd;"
points="6645,6042
6979,5708
6895,5624
6561,5958
6645,6042
" /> 
<polyline style="fill-rule:evenodd;"
points="6784,6181
7035,5930
6951,5847
6701,6097
6784,6181
" /> 
<polyline style="fill-rule:evenodd;"
points="7202,5930
7452,6181
7536,6097
7285,5847
7202,5930
" /> 
<polyline style="fill-rule:evenodd;"
points="7257,5708
7591,6042
7675,5958
7341,5624
7257,5708
" /> 
<polyline style="fill-rule:evenodd;"
points="7397,5568
7731,5902
7814,5819
7480,5485
7397,5568
" /> 
<polyline style="fill-rule:evenodd;"
points="7536,5429
7870,5763
7953,5680
7619,5346
7536,5429
" /> 
<polyline style="fill-rule:evenodd;"
points="7675,5290
8009,5624
8093,5541
7758,5206
7675,5290
" /> 
<polyline style="fill-rule:evenodd;"
points="7814,5151
8148,5485
8232,5401
7898,5067
7814,5151
" /> 
<polyline style="fill-rule:evenodd;"
points="8037,5095
8287,5346
8371,5262
8120,5012
8037,5095
" /> 
<polyline style="fill-rule:evenodd;"
points="8120,4845
8371,4594
8287,4510
8037,4761
8120,4845
" /> 
<polyline style="fill-rule:evenodd;"
points="7898,4789
8232,4455
8148,4371
7814,4705
7898,4789
" /> 
<polyline style="fill-rule:evenodd;"
points="7758,4650
8093,4316
8009,4232
7675,4566
7758,4650
" /> 
<polyline style="fill-rule:evenodd;"
points="7619,4510
7953,4176
7870,4093
7536,4427
7619,4510
" /> 
<polyline style="fill-rule:evenodd;"
points="7480,4371
7814,4037
7731,3954
7397,4288
7480,4371
" /> 
<polyline style="fill-rule:evenodd;"
points="7341,4232
7675,3898
7591,3815
7257,4149
7341,4232
" /> 
<polyline style="fill-rule:evenodd;"
points="7285,4009
7536,3759
7452,3675
7202,3926
7285,4009
" /> 
<polyline style="fill-rule:evenodd;"
points="6826,3884
7049,4107
7049,3940
6993,3884
6826,3884
" /> 
<polyline style="fill-rule:evenodd;"
points="7188,4107
7410,3884
7243,3884
7188,3940
7188,4107
" /> 
<polyline style="fill-rule:evenodd;"
points="7049,5749
6826,5972
6993,5972
7049,5916
7049,5749
" /> 
<polyline style="fill-rule:evenodd;"
points="7410,5972
7188,5749
7188,5916
7243,5972
7410,5972
" /> 
<polyline style="fill-rule:evenodd;"
points="6297,4858
6074,4636
6074,4803
6130,4858
6297,4858
" /> 
<polyline style="fill-rule:evenodd;"
points="6074,5220
6297,4998
6130,4998
6074,5053
6074,5220
" /> 
<polyline style="fill-rule:evenodd;"
points="7939,4998
8162,5220
8162,5053
8106,4998
7939,4998
" /> 
<polyline style="fill-rule:evenodd;"
points="8162,4636
7939,4858
8106,4858
8162,4803
8162,4636
" /> 
<polyline style="fill-rule:evenodd;"
points="5602,3767
5287,3767
5287,3885
5602,3885
5602,3767
" /> 
<polyline style="fill-rule:evenodd;"
points="5602,3964
5287,3964
5287,4082
5602,4082
5602,3964
" /> 
<polyline style="fill-rule:evenodd;"
points="5602,4160
5287,4160
5287,4278
5602,4278
5602,4160
" /> 
<polyline style="fill-rule:evenodd;"
points="5602,4357
5287,4357
5287,4475
5602,4475
5602,4357
" /> 
<polyline style="fill-rule:evenodd;"
points="5091,4357
4776,4357
4776,4475
5091,4475
5091,4357
" /> 
<polyline style="fill-rule:evenodd;"
points="5091,4160
4776,4160
4776,4278
5091,4278
5091,4160
" /> 
<polyline style="fill-rule:evenodd;"
points="5091,3964
4776,3964
4776,4082
5091,4082
5091,3964
" /> 
<polyline style="fill-rule:evenodd;"
points="5091,3767
4776,3767
4776,3885
5091,3885
5091,3767
" /> 
<polyline style="fill-rule:evenodd;"
points="13555,3038
13555,3353
13673,3353
13673,3038
13555,3038
" /> 
<polyline style="fill-rule:evenodd;"
points="13811,3038
13811,3353
13929,3353
13929,3038
13811,3038
" /> 
<polyline style="fill-rule:evenodd;"
points="14067,3038
14067,3353
14185,3353
14185,3038
14067,3038
" /> 
<polyline style="fill-rule:evenodd;"
points="14067,2251
14067,2566
14185,2566
14185,2251
14067,2251
" /> 
<polyline style="fill-rule:evenodd;"
points="13811,2251
13811,2566
13929,2566
13929,2251
13811,2251
" /> 
<polyline style="fill-rule:evenodd;"
points="13555,2251
13555,2566
13673,2566
13673,2251
13555,2251
" /> 
<polyline style="fill-rule:evenodd;"
points="5366,7290
5839,7290
5839,7054
5366,7054
5366,7290
" /> 
<polyline style="fill-rule:evenodd;"
points="5366,6916
5839,6916
5839,6680
5366,6680
5366,6916
" /> 
<polyline style="fill-rule:evenodd;"
points="5366,7664
5839,7664
5839,7428
5366,7428
5366,7664
" /> 
<polyline style="fill-rule:evenodd;"
points="6272,7664
6744,7664
6744,7428
6272,7428
6272,7664
" /> 
<polyline style="fill-rule:evenodd;"
points="6272,6916
6744,6916
6744,6680
6272,6680
6272,6916
" /> 
<polyline style="fill-rule:evenodd;"
points="5287,6582
4815,6582
4815,6975
5287,6975
5287,6582
" /> 
<polyline style="fill-rule:evenodd;"
points="5287,7369
4815,7369
4815,7763
5287,7763
5287,7369
" /> 
<polyline style="fill-rule:evenodd;"
points="7630,7595
7630,8088
8339,8088
8339,7595
7630,7595
" /> 
<polyline style="fill-rule:evenodd;"
points="8654,7595
8654,8088
9362,8088
9362,7595
8654,7595
" /> 
<polyline style="fill-rule:evenodd;"
points="7669,7487
7866,7487
7866,7172
7669,7172
7669,7487
" /> 
<polyline style="fill-rule:evenodd;"
points="7669,7015
7866,7015
7866,6700
7669,6700
7669,7015
" /> 
<polyline style="fill-rule:evenodd;"
points="7315,6582
6843,6582
6843,6975
7315,6975
7315,6582
" /> 
<polyline style="fill-rule:evenodd;"
points="7315,7369
6843,7369
6843,7763
7315,7763
7315,7369
" /> 
<polyline style="fill-rule:evenodd;"
points="6291,2901
6291,3097
6606,3097
6606,2901
6291,2901
" /> 
<polyline style="fill-rule:evenodd;"
points="6764,2901
6764,3097
7079,3097
7079,2901
6764,2901
" /> 
<circle cx="16173.8" cy="2822.27" r="590.551" /> 
</g>
<g style="fill:#000000; fill-opacity:1.0; 
stroke:#000000; stroke-width:39.3701; stroke-opacity:1; 
stroke-linecap:round; stroke-linejoin:round;">
</g>
<g style="fill:#000000; fill-opacity:1.0; 
stroke:#000000; stroke-width:0; stroke-opacity:1; 
stroke-linecap:round; stroke-linejoin:round;">
<polyline style="fill-rule:evenodd;"
points="16921,2349
16921,2664
17551,2664
17551,2349
16921,2349
" /> 
<polyline style="fill-rule:evenodd;"
points="16921,2979
16921,3294
17551,3294
17551,2979
16921,2979
" /> 
<polyline style="fill-rule:evenodd;"
points="14795,2349
14795,2664
15425,2664
15425,2349
14795,2349
" /> 
<polyline style="fill-rule:evenodd;"
points="14795,2979
14795,3294
15425,3294
15425,2979
14795,2979
" /> 
<polyline style="fill-rule:evenodd;"
points="14795,2192
14795,2664
15189,2664
15189,2192
14795,2192
" /> 
<polyline style="fill-rule:evenodd;"
points="14795,2979
14795,3452
15189,3452
15189,2979
14795,2979
" /> 
<polyline style="fill-rule:evenodd;"
points="17158,2192
17158,2664
17551,2664
17551,2192
17158,2192
" /> 
<polyline style="fill-rule:evenodd;"
points="17158,2979
17158,3452
17551,3452
17551,2979
17158,2979
" /> 
<polyline style="fill-rule:evenodd;"
points="15169,2192
14953,2349
15425,2349
15209,2192
15169,2192
" /> 
<polyline style="fill-rule:evenodd;"
points="15209,3452
15425,3294
14953,3294
15169,3452
15209,3452
" /> 
<polyline style="fill-rule:evenodd;"
points="17138,2192
16921,2349
17394,2349
17177,2192
17138,2192
" /> 
<polyline style="fill-rule:evenodd;"
points="17177,3452
17394,3294
16921,3294
17138,3452
17177,3452
" /> 
<polyline style="fill-rule:evenodd;"
points="19658,2753
20327,2753
20327,2517
19658,2517
19658,2753
" /> 
<polyline style="fill-rule:evenodd;"
points="19658,2261
20327,2261
20327,2025
19658,2025
19658,2261
" /> 
<polyline style="fill-rule:evenodd;"
points="19658,3245
20327,3245
20327,3009
19658,3009
19658,3245
" /> 
<polyline style="fill-rule:evenodd;"
points="19658,3737
20327,3737
20327,3501
19658,3501
19658,3737
" /> 
<polyline style="fill-rule:evenodd;"
points="20661,1582
21724,1582
21724,1188
20661,1188
20661,1582
" /> 
<polyline style="fill-rule:evenodd;"
points="20661,4574
21724,4574
21724,4180
20661,4180
20661,4574
" /> 
<polyline style="fill-rule:evenodd;"
points="3958,3917
3485,3444
3318,3611
3791,4084
3958,3917
" /> 
<polyline style="fill-rule:evenodd;"
points="3610,4265
3137,3792
2970,3959
3443,4432
3610,4265
" /> 
<polyline style="fill-rule:evenodd;"
points="4306,3569
3833,3096
3666,3263
4139,3736
4306,3569
" /> 
<polyline style="fill-rule:evenodd;"
points="4654,3221
4181,2748
4014,2915
4487,3388
4654,3221
" /> 
<polyline style="fill-rule:evenodd;"
points="2420,4036
1668,3284
1390,3562
2142,4314
2420,4036
" /> 
<polyline style="fill-rule:evenodd;"
points="4536,1920
3784,1168
3506,1447
4257,2198
4536,1920
" /> 
<polyline style="fill-rule:evenodd;"
points="4139,5647
3666,6121
3833,6288
4306,5814
4139,5647
" /> 
<polyline style="fill-rule:evenodd;"
points="4487,5995
4014,6468
4181,6636
4654,6162
4487,5995
" /> 
<polyline style="fill-rule:evenodd;"
points="3791,5299
3318,5773
3485,5940
3958,5466
3791,5299
" /> 
<polyline style="fill-rule:evenodd;"
points="3443,4951
2970,5425
3137,5592
3610,5118
3443,4951
" /> 
<polyline style="fill-rule:evenodd;"
points="4257,7185
3506,7937
3784,8215
4536,7464
4257,7185
" /> 
<polyline style="fill-rule:evenodd;"
points="2142,5070
1390,5821
1668,6100
2420,5348
2142,5070
" /> 
<polyline style="fill-rule:evenodd;"
points="18417,2684
18417,2999
18536,2999
18536,2684
18417,2684
" /> 
<polyline style="fill-rule:evenodd;"
points="18673,2684
18673,2999
18791,2999
18791,2684
18673,2684
" /> 
<polyline style="fill-rule:evenodd;"
points="18929,2684
18929,2999
19047,2999
19047,2684
18929,2684
" /> 
<polyline style="fill-rule:evenodd;"
points="18929,1897
18929,2212
19047,2212
19047,1897
18929,1897
" /> 
<polyline style="fill-rule:evenodd;"
points="18673,1897
18673,2212
18791,2212
18791,1897
18673,1897
" /> 
<polyline style="fill-rule:evenodd;"
points="18417,1897
18417,2212
18536,2212
18536,1897
18417,1897
" /> 
<polyline style="fill-rule:evenodd;"
points="14441,3452
14638,3452
14638,3137
14441,3137
14441,3452
" /> 
<polyline style="fill-rule:evenodd;"
points="14441,2979
14638,2979
14638,2664
14441,2664
14441,2979
" /> 
<polyline style="fill-rule:evenodd;"
points="9205,6483
9205,6286
8890,6286
8890,6483
9205,6483
" /> 
<polyline style="fill-rule:evenodd;"
points="8732,6483
8732,6286
8417,6286
8417,6483
8732,6483
" /> 
<polyline style="fill-rule:evenodd;"
points="8417,5381
8417,5578
8732,5578
8732,5381
8417,5381
" /> 
<polyline style="fill-rule:evenodd;"
points="8890,5381
8890,5578
9205,5578
9205,5381
8890,5381
" /> 
<polyline style="fill-rule:evenodd;"
points="6291,3334
6291,3530
6606,3530
6606,3334
6291,3334
" /> 
<polyline style="fill-rule:evenodd;"
points="6764,3334
6764,3530
7079,3530
7079,3334
6764,3334
" /> 
<polyline style="fill-rule:evenodd;"
points="14638,1739
14441,1739
14441,2054
14638,2054
14638,1739
" /> 
<polyline style="fill-rule:evenodd;"
points="14638,2212
14441,2212
14441,2526
14638,2526
14638,2212
" /> 
<polyline style="fill-rule:evenodd;"
points="18004,2192
17807,2192
17807,2507
18004,2507
18004,2192
" /> 
<polyline style="fill-rule:evenodd;"
points="18004,2664
17807,2664
17807,2979
18004,2979
18004,2664
" /> 
<polyline style="fill-rule:evenodd;"
points="7276,2526
7276,1975
6882,1975
6882,2526
7276,2526
" /> 
<polyline style="fill-rule:evenodd;"
points="5622,2526
5622,1975
5228,1975
5228,2526
5622,2526
" /> 
<polyline style="fill-rule:evenodd;"
points="8024,1601
8024,1208
7236,1208
7236,1601
8024,1601
" /> 
<polyline style="fill-rule:evenodd;"
points="5268,1601
5268,1208
4480,1208
4480,1601
5268,1601
" /> 
<circle cx="9126.56" cy="2389.2" r="118.11" /> 
</g>
<g style="fill:#000000; fill-opacity:1.0; 
stroke:#000000; stroke-width:39.3701; stroke-opacity:1; 
stroke-linecap:round; stroke-linejoin:round;">
</g>
<g style="fill:#000000; fill-opacity:1.0; 
stroke:#000000; stroke-width:0; stroke-opacity:1; 
stroke-linecap:round; stroke-linejoin:round;">
<circle cx="6252.55" cy="1798.65" r="118.11" /> 
</g>
<g style="fill:#000000; fill-opacity:1.0; 
stroke:#000000; stroke-width:39.3701; stroke-opacity:1; 
stroke-linecap:round; stroke-linejoin:round;">
</g>
<g style="fill:#000000; fill-opacity:1.0; 
stroke:#000000; stroke-width:0; stroke-opacity:1; 
stroke-linecap:round; stroke-linejoin:round;">
<circle cx="20701.4" cy="1975.82" r="118.11" /> 
</g>
<g style="fill:#000000; fill-opacity:1.0; 
stroke:#000000; stroke-width:39.3701; stroke-opacity:1; 
stroke-linecap:round; stroke-linejoin:round;">
</g>
<g style="fill:#000000; fill-opacity:1.0; 
stroke:#000000; stroke-width:0; stroke-opacity:1; 
stroke-linecap:round; stroke-linejoin:round;">
<circle cx="11095.1" cy="2408.89" r="118.11" /> 
</g>
<g style="fill:#000000; fill-opacity:1.0; 
stroke:#000000; stroke-width:39.3701; stroke-opacity:1; 
stroke-linecap:round; stroke-linejoin:round;">
</g>
<g style="fill:#000000; fill-opacity:1.0; 
stroke:#000000; stroke-width:0; stroke-opacity:1; 
stroke-linecap:round; stroke-linejoin:round;">
<circle cx="6095.07" cy="3432.51" r="118.11" /> 
</g>
<g style="fill:#000000; fill-opacity:1.0; 
stroke:#000000; stroke-width:39.3701; stroke-opacity:1; 
stroke-linecap:round; stroke-linejoin:round;">
</g>
<g style="fill:#000000; fill-opacity:1.0; 
stroke:#000000; stroke-width:0; stroke-opacity:1; 
stroke-linecap:round; stroke-linejoin:round;">
<circle cx="9579.32" cy="7841.96" r="118.11" /> 
</g>
<g style="fill:#000000; fill-opacity:1.0; 
stroke:#000000; stroke-width:39.3701; stroke-opacity:1; 
stroke-linecap:round; stroke-linejoin:round;">
</g>
<g style="fill:#000000; fill-opacity:1.0; 
stroke:#000000; stroke-width:0; stroke-opacity:1; 
stroke-linecap:round; stroke-linejoin:round;">
<circle cx="7492.7" cy="6562.43" r="118.11" /> 
</g>
<g style="fill:#000000; fill-opacity:1.0; 
stroke:#000000; stroke-width:39.3701; stroke-opacity:1; 
stroke-linecap:round; stroke-linejoin:round;">
</g>
<g style="fill:#000000; fill-opacity:1.0; 
stroke:#000000; stroke-width:0; stroke-opacity:1; 
stroke-linecap:round; stroke-linejoin:round;">
<circle cx="19323.4" cy="2349.83" r="118.11" /> 
</g>
<g style="fill:#000000; fill-opacity:1.0; 
stroke:#000000; stroke-width:39.3701; stroke-opacity:1; 
stroke-linecap:round; stroke-linejoin:round;">
</g>
<g style="fill:#000000; fill-opacity:1.0; 
stroke:#000000; stroke-width:0; stroke-opacity:1; 
stroke-linecap:round; stroke-linejoin:round;">
<circle cx="14205.3" cy="2074.24" r="118.11" /> 
</g>
<g style="fill:#000000; fill-opacity:1.0; 
stroke:#000000; stroke-width:39.3701; stroke-opacity:1; 
stroke-linecap:round; stroke-linejoin:round;">
</g>
<g style="fill:#000000; fill-opacity:1.0; 
stroke:#000000; stroke-width:0; stroke-opacity:1; 
stroke-linecap:round; stroke-linejoin:round;">
<circle cx="13614.8" cy="2861.64" r="118.11" /> 
</g>
<g style="fill:#000000; fill-opacity:1.0; 
stroke:#000000; stroke-width:39.3701; stroke-opacity:1; 
stroke-linecap:round; stroke-linejoin:round;">
</g>
<g style="fill:#000000; fill-opacity:1.0; 
stroke:#000000; stroke-width:0; stroke-opacity:1; 
stroke-linecap:round; stroke-linejoin:round;">
<circle cx="7079.32" cy="7999.44" r="118.11" /> 
</g>
<g style="fill:#000000; fill-opacity:1.0; 
stroke:#000000; stroke-width:39.3701; stroke-opacity:1; 
stroke-linecap:round; stroke-linejoin:round;">
</g>
<g style="fill:#000000; fill-opacity:1.0; 
stroke:#000000; stroke-width:0; stroke-opacity:1; 
stroke-linecap:round; stroke-linejoin:round;">
<circle cx="5268.29" cy="7999.44" r="118.11" /> 
</g>
<g style="fill:#000000; fill-opacity:1.0; 
stroke:#000000; stroke-width:39.3701; stroke-opacity:1; 
stroke-linecap:round; stroke-linejoin:round;">
</g>
<g style="fill:#000000; fill-opacity:1.0; 
stroke:#000000; stroke-width:0; stroke-opacity:1; 
stroke-linecap:round; stroke-linejoin:round;">
<circle cx="20465.1" cy="3589.99" r="118.11" /> 
</g>
<g style="fill:#000000; fill-opacity:1.0; 
stroke:#000000; stroke-width:39.3701; stroke-opacity:1; 
stroke-linecap:round; stroke-linejoin:round;">
</g>
<g style="fill:#000000; fill-opacity:1.0; 
stroke:#000000; stroke-width:0; stroke-opacity:1; 
stroke-linecap:round; stroke-linejoin:round;">
<circle cx="3654.12" cy="4928.57" r="118.11" /> 
</g>
<g style="fill:#000000; fill-opacity:1.0; 
stroke:#000000; stroke-width:39.3701; stroke-opacity:1; 
stroke-linecap:round; stroke-linejoin:round;">
</g>
<g style="fill:#000000; fill-opacity:1.0; 
stroke:#000000; stroke-width:0; stroke-opacity:1; 
stroke-linecap:round; stroke-linejoin:round;">
<circle cx="4717.11" cy="3078.18" r="118.11" /> 
</g>
<g style="fill:#000000; fill-opacity:1.0; 
stroke:#000000; stroke-width:39.3701; stroke-opacity:1; 
stroke-linecap:round; stroke-linejoin:round;">
</g>
<g style="fill:#000000; fill-opacity:1.0; 
stroke:#000000; stroke-width:0; stroke-opacity:1; 
stroke-linecap:round; stroke-linejoin:round;">
<circle cx="8004.51" cy="6542.74" r="118.11" /> 
</g>
<g style="fill:#000000; fill-opacity:1.0; 
stroke:#000000; stroke-width:39.3701; stroke-opacity:1; 
stroke-linecap:round; stroke-linejoin:round;">
</g>
<g style="fill:#000000; fill-opacity:1.0; 
stroke:#000000; stroke-width:0; stroke-opacity:1; 
stroke-linecap:round; stroke-linejoin:round;">
<circle cx="8043.88" cy="7330.15" r="118.11" /> 
</g>
<g style="fill:#000000; fill-opacity:1.0; 
stroke:#000000; stroke-width:39.3701; stroke-opacity:1; 
stroke-linecap:round; stroke-linejoin:round;">
</g>
<g style="fill:#000000; fill-opacity:1.0; 
stroke:#000000; stroke-width:0; stroke-opacity:1; 
stroke-linecap:round; stroke-linejoin:round;">
<circle cx="6941.52" cy="6444.32" r="118.11" /> 
</g>
<g style="fill:#000000; fill-opacity:1.0; 
stroke:#000000; stroke-width:39.3701; stroke-opacity:1; 
stroke-linecap:round; stroke-linejoin:round;">
</g>
<g style="fill:#000000; fill-opacity:1.0; 
stroke:#000000; stroke-width:0; stroke-opacity:1; 
stroke-linecap:round; stroke-linejoin:round;">
<circle cx="6547.82" cy="4889.2" r="118.11" /> 
</g>
<g style="fill:#000000; fill-opacity:1.0; 
stroke:#000000; stroke-width:39.3701; stroke-opacity:1; 
stroke-linecap:round; stroke-linejoin:round;">
</g>
<g style="fill:#000000; fill-opacity:1.0; 
stroke:#000000; stroke-width:0; stroke-opacity:1; 
stroke-linecap:round; stroke-linejoin:round;">
<circle cx="10583.3" cy="2290.78" r="118.11" /> 
</g>
<g style="fill:#000000; fill-opacity:1.0; 
stroke:#000000; stroke-width:39.3701; stroke-opacity:1; 
stroke-linecap:round; stroke-linejoin:round;">
</g>
<g style="fill:#000000; fill-opacity:1.0; 
stroke:#000000; stroke-width:0; stroke-opacity:1; 
stroke-linecap:round; stroke-linejoin:round;">
<circle cx="6095.07" cy="2999.44" r="118.11" /> 
</g>
<g style="fill:#000000; fill-opacity:1.0; 
stroke:#000000; stroke-width:39.3701; stroke-opacity:1; 
stroke-linecap:round; stroke-linejoin:round;">
</g>
<g style="fill:#000000; fill-opacity:1.0; 
stroke:#000000; stroke-width:0; stroke-opacity:1; 
stroke-linecap:round; stroke-linejoin:round;">
<circle cx="11508.5" cy="1936.45" r="118.11" /> 
</g>
<g style="fill:#000000; fill-opacity:1.0; 
stroke:#000000; stroke-width:39.3701; stroke-opacity:1; 
stroke-linecap:round; stroke-linejoin:round;">
</g>
<g style="fill:#000000; fill-opacity:1.0; 
stroke:#000000; stroke-width:0; stroke-opacity:1; 
stroke-linecap:round; stroke-linejoin:round;">
<circle cx="13516.3" cy="1719.91" r="118.11" /> 
</g>
<g style="fill:#000000; fill-opacity:1.0; 
stroke:#000000; stroke-width:39.3701; stroke-opacity:1; 
stroke-linecap:round; stroke-linejoin:round;">
</g>
<g style="fill:#000000; fill-opacity:1.0; 
stroke:#000000; stroke-width:0; stroke-opacity:1; 
stroke-linecap:round; stroke-linejoin:round;">
<circle cx="11311.6" cy="1719.91" r="118.11" /> 
</g>
<g style="fill:#000000; fill-opacity:1.0; 
stroke:#000000; stroke-width:39.3701; stroke-opacity:1; 
stroke-linecap:round; stroke-linejoin:round;">
</g>
<g style="fill:#000000; fill-opacity:1.0; 
stroke:#000000; stroke-width:0; stroke-opacity:1; 
stroke-linecap:round; stroke-linejoin:round;">
<circle cx="13211.2" cy="1719.91" r="118.11" /> 
</g>
<g style="fill:#000000; fill-opacity:1.0; 
stroke:#000000; stroke-width:39.3701; stroke-opacity:1; 
stroke-linecap:round; stroke-linejoin:round;">
</g>
<g style="fill:#000000; fill-opacity:1.0; 
stroke:#000000; stroke-width:0; stroke-opacity:1; 
stroke-linecap:round; stroke-linejoin:round;">
<circle cx="9362.78" cy="4121.51" r="118.11" /> 
</g>
<g style="fill:#000000; fill-opacity:1.0; 
stroke:#000000; stroke-width:39.3701; stroke-opacity:1; 
stroke-linecap:round; stroke-linejoin:round;">
</g>
<g style="fill:#000000; fill-opacity:1.0; 
stroke:#000000; stroke-width:0; stroke-opacity:1; 
stroke-linecap:round; stroke-linejoin:round;">
<circle cx="5406.09" cy="4987.63" r="118.11" /> 
</g>
<g style="fill:#000000; fill-opacity:1.0; 
stroke:#000000; stroke-width:39.3701; stroke-opacity:1; 
stroke-linecap:round; stroke-linejoin:round;">
</g>
<g style="fill:#000000; fill-opacity:1.0; 
stroke:#000000; stroke-width:0; stroke-opacity:1; 
stroke-linecap:round; stroke-linejoin:round;">
<circle cx="9008.45" cy="4101.8" r="118.11" /> 
</g>
<g style="fill:#000000; fill-opacity:1.0; 
stroke:#000000; stroke-width:39.3701; stroke-opacity:1; 
stroke-linecap:round; stroke-linejoin:round;">
</g>
<g style="fill:#000000; fill-opacity:1.0; 
stroke:#000000; stroke-width:0; stroke-opacity:1; 
stroke-linecap:round; stroke-linejoin:round;">
<circle cx="5504.51" cy="4672.67" r="118.11" /> 
</g>
<g style="fill:#000000; fill-opacity:1.0; 
stroke:#000000; stroke-width:39.3701; stroke-opacity:1; 
stroke-linecap:round; stroke-linejoin:round;">
</g>
<g style="fill:#000000; fill-opacity:1.0; 
stroke:#000000; stroke-width:0; stroke-opacity:1; 
stroke-linecap:round; stroke-linejoin:round;">
<circle cx="18969.1" cy="6660.86" r="118.11" /> 
</g>
<g style="fill:#000000; fill-opacity:1.0; 
stroke:#000000; stroke-width:39.3701; stroke-opacity:1; 
stroke-linecap:round; stroke-linejoin:round;">
</g>
<g style="fill:#000000; fill-opacity:1.0; 
stroke:#000000; stroke-width:0; stroke-opacity:1; 
stroke-linecap:round; stroke-linejoin:round;">
<circle cx="7118.69" cy="5381.33" r="118.11" /> 
</g>
<g style="fill:#000000; fill-opacity:1.0; 
stroke:#000000; stroke-width:39.3701; stroke-opacity:1; 
stroke-linecap:round; stroke-linejoin:round;">
</g>
<g style="fill:#000000; fill-opacity:1.0; 
stroke:#000000; stroke-width:0; stroke-opacity:1; 
stroke-linecap:round; stroke-linejoin:round;">
<circle cx="8076.74" cy="5807.88" r="118.11" /> 
</g>
<g style="fill:#000000; fill-opacity:1.0; 
stroke:#000000; stroke-width:39.3701; stroke-opacity:1; 
stroke-linecap:round; stroke-linejoin:round;">
</g>
<g style="fill:#000000; fill-opacity:1.0; 
stroke:#000000; stroke-width:0; stroke-opacity:1; 
stroke-linecap:round; stroke-linejoin:round;">
<circle cx="12197.4" cy="5322.27" r="118.11" /> 
</g>
<g style="fill:#000000; fill-opacity:1.0; 
stroke:#000000; stroke-width:39.3701; stroke-opacity:1; 
stroke-linecap:round; stroke-linejoin:round;">
</g>
<g style="fill:#000000; fill-opacity:1.0; 
stroke:#000000; stroke-width:0; stroke-opacity:1; 
stroke-linecap:round; stroke-linejoin:round;">
<circle cx="9047.82" cy="5243.53" r="118.11" /> 
</g>
<g style="fill:#000000; fill-opacity:1.0; 
stroke:#000000; stroke-width:39.3701; stroke-opacity:1; 
stroke-linecap:round; stroke-linejoin:round;">
</g>
<g style="fill:#000000; fill-opacity:1.0; 
stroke:#000000; stroke-width:0; stroke-opacity:1; 
stroke-linecap:round; stroke-linejoin:round;">
<circle cx="7551.76" cy="5086.05" r="118.11" /> 
</g>
<g style="fill:#000000; fill-opacity:1.0; 
stroke:#000000; stroke-width:39.3701; stroke-opacity:1; 
stroke-linecap:round; stroke-linejoin:round;">
</g>
<g style="fill:#000000; fill-opacity:1.0; 
stroke:#000000; stroke-width:0; stroke-opacity:1; 
stroke-linecap:round; stroke-linejoin:round;">
<circle cx="7374.59" cy="2723.85" r="118.11" /> 
</g>
<g style="fill:#000000; fill-opacity:1.0; 
stroke:#000000; stroke-width:39.3701; stroke-opacity:1; 
stroke-linecap:round; stroke-linejoin:round;">
</g>
<g style="fill:#000000; fill-opacity:1.0; 
stroke:#000000; stroke-width:0; stroke-opacity:1; 
stroke-linecap:round; stroke-linejoin:round;">
<circle cx="5563.57" cy="2723.85" r="118.11" /> 
</g>
<g style="fill:#000000; fill-opacity:1.0; 
stroke:#000000; stroke-width:39.3701; stroke-opacity:1; 
stroke-linecap:round; stroke-linejoin:round;">
</g>
<g style="fill:#000000; fill-opacity:1.0; 
stroke:#000000; stroke-width:0; stroke-opacity:1; 
stroke-linecap:round; stroke-linejoin:round;">
<circle cx="13851" cy="1877.39" r="118.11" /> 
</g>
<g style="fill:#000000; fill-opacity:1.0; 
stroke:#000000; stroke-width:39.3701; stroke-opacity:1; 
stroke-linecap:round; stroke-linejoin:round;">
</g>
<g style="fill:#000000; fill-opacity:1.0; 
stroke:#000000; stroke-width:0; stroke-opacity:1; 
stroke-linecap:round; stroke-linejoin:round;">
<circle cx="5169.87" cy="4771.09" r="118.11" /> 
</g>
<g style="fill:#000000; fill-opacity:1.0; 
stroke:#000000; stroke-width:39.3701; stroke-opacity:1; 
stroke-linecap:round; stroke-linejoin:round;">
</g>
<g style="fill:#000000; fill-opacity:1.0; 
stroke:#000000; stroke-width:0; stroke-opacity:1; 
stroke-linecap:round; stroke-linejoin:round;">
<circle cx="8693.49" cy="4082.11" r="118.11" /> 
</g>
<g style="fill:#000000; fill-opacity:1.0; 
stroke:#000000; stroke-width:39.3701; stroke-opacity:1; 
stroke-linecap:round; stroke-linejoin:round;">
</g>
<g style="fill:#000000; fill-opacity:1.0; 
stroke:#000000; stroke-width:0; stroke-opacity:1; 
stroke-linecap:round; stroke-linejoin:round;">
<circle cx="12394.3" cy="2310.46" r="118.11" /> 
</g>
<g style="fill:#000000; fill-opacity:1.0; 
stroke:#000000; stroke-width:39.3701; stroke-opacity:1; 
stroke-linecap:round; stroke-linejoin:round;">
</g>
<g style="fill:#000000; fill-opacity:1.0; 
stroke:#000000; stroke-width:196.85; stroke-opacity:1; 
stroke-linecap:round; stroke-linejoin:round;">
</g>
<g style="fill:#000000; fill-opacity:0.0; 
stroke:#000000; stroke-width:196.85; stroke-opacity:1; 
stroke-linecap:round; stroke-linejoin:round;">
<path d="M5602 6798
L5071 6798
" />
<path d="M5071 6798
L5051 6778
" />
</g>
<g style="fill:#000000; fill-opacity:0.0; 
stroke:#000000; stroke-width:59.0551; stroke-opacity:1; 
stroke-linecap:round; stroke-linejoin:round;">
<path d="M5602 7546
L5898 7546
" />
<path d="M5898 7546
L5927 7517
" />
<path d="M5927 7517
L5927 7005
" />
<path d="M5927 7005
L5721 6798
" />
<path d="M5721 6798
L5602 6798
" />
</g>
<g style="fill:#000000; fill-opacity:0.0; 
stroke:#000000; stroke-width:196.85; stroke-opacity:1; 
stroke-linecap:round; stroke-linejoin:round;">
<path d="M17354 3215
L19904 3215
" />
<path d="M19904 3215
L19992 3127
" />
<path d="M4973 6813
L5145 6813
" />
<path d="M5145 6813
L5150 6818
" />
<path d="M4633 6813
L4973 6813
" />
<path d="M4973 6813
L4948 6813
" />
<path d="M4633 6813
L4107 6813
" />
<path d="M9126 2901
L9126 2389
" />
<path d="M4697 1975
L4874 1798
" />
<path d="M4874 1798
L6252 1798
" />
<path d="M4697 1981
L4697 1975
" />
<path d="M4107 2571
L4107 2571
" />
<path d="M4107 2571
L4697 1981
" />
<path d="M4135 6813
L4107 6813
" />
<path d="M4107 6813
L3179 5884
" />
<path d="M20701 1975
L20701 2950
" />
<path d="M20701 2950
L20524 3127
" />
<path d="M20524 3127
L19992 3127
" />
<path d="M3527 3152
L4107 2571
" />
<path d="M3638 5619
L3373 5884
" />
<path d="M3373 5884
L3179 5884
" />
<path d="M3179 5884
L2793 5498
" />
<path d="M2793 5498
L2793 3886
" />
<path d="M2793 3886
L3527 3152
" />
<path d="M3527 3152
L3721 3152
" />
<path d="M3721 3152
L3986 3416
" />
<path d="M11095 2920
L11095 2408
" />
</g>
<g style="fill:#000000; fill-opacity:0.0; 
stroke:#000000; stroke-width:59.0551; stroke-opacity:1; 
stroke-linecap:round; stroke-linejoin:round;">
<path d="M7768 6857
L8654 6857
" />
<path d="M6449 3432
L6508 3432
" />
<path d="M6508 3432
L6921 3019
" />
<path d="M6921 3019
L6921 2999
" />
<path d="M6449 3432
L6095 3432
" />
<path d="M6921 2999
L6921 2408
" />
<path d="M6921 2408
L7079 2251
" />
</g>
<g style="fill:#000000; fill-opacity:0.0; 
stroke:#000000; stroke-width:196.85; stroke-opacity:1; 
stroke-linecap:round; stroke-linejoin:round;">
<path d="M9008 7841
L9579 7841
" />
<path d="M5602 7172
L5169 7172
" />
<path d="M5051 7290
L5051 7566
" />
<path d="M5169 7172
L5051 7290
" />
<path d="M5268 7999
L5051 7782
" />
<path d="M5051 7782
L5051 7566
" />
</g>
<g style="fill:#000000; fill-opacity:0.0; 
stroke:#000000; stroke-width:59.0551; stroke-opacity:1; 
stroke-linecap:round; stroke-linejoin:round;">
<path d="M7768 6857
L7768 6838
" />
<path d="M7768 6838
L7492 6562
" />
<path d="M7768 6857
L7768 6134
" />
<path d="M7768 6134
L7466 5833
" />
<path d="M18988 2054
L19028 2054
" />
<path d="M19028 2054
L19323 2349
" />
<path d="M14126 2408
L14126 2152
" />
<path d="M14126 2152
L14205 2074
" />
<path d="M13614 3196
L13614 2861
" />
</g>
<g style="fill:#000000; fill-opacity:0.0; 
stroke:#000000; stroke-width:196.85; stroke-opacity:1; 
stroke-linecap:round; stroke-linejoin:round;">
<path d="M7079 7566
L7079 7483
" />
<path d="M7079 7999
L7079 7566
" />
<path d="M19992 3619
L20435 3619
" />
<path d="M20435 3619
L20465 3589
" />
<path d="M3290 5271
L3310 5271
" />
<path d="M3310 5271
L3654 4928
" />
<path d="M4334 3068
L4707 3068
" />
<path d="M4707 3068
L4717 3078
" />
</g>
<g style="fill:#000000; fill-opacity:0.0; 
stroke:#000000; stroke-width:78.7402; stroke-opacity:1; 
stroke-linecap:round; stroke-linejoin:round;">
<path d="M6921 2999
L6882 2999
" />
</g>
<g style="fill:#000000; fill-opacity:0.0; 
stroke:#000000; stroke-width:59.0551; stroke-opacity:1; 
stroke-linecap:round; stroke-linejoin:round;">
<path d="M8004 6542
L7886 6424
" />
<path d="M7886 6424
L7886 5974
" />
<path d="M7886 5974
L7800 5889
" />
<path d="M7800 5889
L7605 5694
" />
<path d="M7768 7330
L8043 7330
" />
</g>
<g style="fill:#000000; fill-opacity:0.0; 
stroke:#000000; stroke-width:196.85; stroke-opacity:1; 
stroke-linecap:round; stroke-linejoin:round;">
<path d="M7079 6778
L6528 6778
" />
<path d="M6528 6778
L6508 6798
" />
</g>
<g style="fill:#000000; fill-opacity:0.0; 
stroke:#000000; stroke-width:59.0551; stroke-opacity:1; 
stroke-linecap:round; stroke-linejoin:round;">
<path d="M6941 6444
L6941 6641
" />
<path d="M6941 6641
L7079 6778
" />
<path d="M7768 7330
L7768 7271
" />
</g>
<g style="fill:#000000; fill-opacity:0.0; 
stroke:#000000; stroke-width:196.85; stroke-opacity:1; 
stroke-linecap:round; stroke-linejoin:round;">
<path d="M7473 7290
L7728 7290
" />
<path d="M7728 7290
L7768 7330
" />
<path d="M7984 7841
L7571 7841
" />
<path d="M7079 6897
L7079 6778
" />
<path d="M7571 7841
L7473 7743
" />
<path d="M7473 7743
L7473 7290
" />
<path d="M7473 7290
L7079 6897
" />
</g>
<g style="fill:#000000; fill-opacity:0.0; 
stroke:#000000; stroke-width:59.0551; stroke-opacity:1; 
stroke-linecap:round; stroke-linejoin:round;">
<path d="M6353 4441
L6547 4636
" />
<path d="M6547 4636
L6547 4889
" />
</g>
<g style="fill:#000000; fill-opacity:0.0; 
stroke:#000000; stroke-width:196.85; stroke-opacity:1; 
stroke-linecap:round; stroke-linejoin:round;">
<path d="M7984 7841
L7984 7684
" />
</g>
<g style="fill:#000000; fill-opacity:0.0; 
stroke:#000000; stroke-width:59.0551; stroke-opacity:1; 
stroke-linecap:round; stroke-linejoin:round;">
<path d="M10583 2290
L10583 2901
" />
<path d="M10583 2901
L10602 2920
" />
<path d="M6492 4302
L5799 3609
" />
<path d="M5799 3609
L5799 3294
" />
<path d="M5799 3294
L6095 2999
" />
<path d="M6095 2999
L6449 2999
" />
<path d="M17906 2349
L17433 2349
" />
<path d="M17433 2349
L17354 2428
" />
<path d="M17512 2428
L17354 2428
" />
<path d="M14539 1897
L14539 1956
" />
<path d="M14539 1956
L14992 2408
" />
<path d="M14992 2408
L14992 2428
" />
<path d="M14992 2586
L14992 2428
" />
<path d="M14539 3294
L14913 3294
" />
<path d="M14913 3294
L14992 3215
" />
<path d="M14854 3353
L14992 3215
" />
</g>
<g style="fill:#000000; fill-opacity:0.0; 
stroke:#000000; stroke-width:78.7402; stroke-opacity:1; 
stroke-linecap:round; stroke-linejoin:round;">
<path d="M14894 3314
L14992 3215
" />
</g>
<g style="fill:#000000; fill-opacity:0.0; 
stroke:#000000; stroke-width:59.0551; stroke-opacity:1; 
stroke-linecap:round; stroke-linejoin:round;">
<path d="M11508 1936
L9284 1936
" />
<path d="M13516 1719
L13713 1523
" />
<path d="M19244 1798
L19569 2123
" />
<path d="M13713 1523
L17768 1523
" />
<path d="M17768 1523
L17964 1719
" />
<path d="M17964 1719
L17965 1719
" />
<path d="M17965 1719
L18043 1798
" />
<path d="M18043 1798
L19244 1798
" />
<path d="M19569 2123
L19569 2428
" />
<path d="M19569 2428
L19776 2635
" />
<path d="M19776 2635
L19992 2635
" />
<path d="M8575 2645
L9284 1936
" />
<path d="M8575 3255
L8575 2645
" />
<path d="M8083 3747
L8575 3255
" />
<path d="M8083 4042
L8083 3747
" />
<path d="M8079 4046
L8083 4042
" />
<path d="M7884 4441
L8079 4246
" />
<path d="M8079 4246
L8079 4046
" />
<path d="M9224 1818
L11036 1818
" />
<path d="M11311 1719
L11144 1719
" />
<path d="M11144 1719
L11046 1818
" />
<path d="M11046 1818
L11036 1818
" />
<path d="M13506 1424
L13329 1601
" />
<path d="M17847 1404
L13526 1404
" />
<path d="M13526 1404
L13506 1424
" />
<path d="M18122 1680
L17847 1404
" />
<path d="M19323 1680
L18122 1680
" />
<path d="M19786 2143
L19323 1680
" />
<path d="M19992 2143
L19786 2143
" />
<path d="M13329 1601
L13211 1719
" />
<path d="M19992 2143
L19776 2143
" />
<path d="M8437 2605
L9224 1818
" />
<path d="M8437 3215
L8437 2605
" />
<path d="M7939 3713
L8437 3215
" />
<path d="M7745 4302
L7939 4107
" />
<path d="M7939 4107
L7939 3713
" />
<path d="M3638 3764
L5623 5749
" />
<path d="M5623 5749
L6297 5749
" />
<path d="M6297 5749
L6492 5554
" />
<path d="M6631 5694
L6436 5889
" />
<path d="M6436 5889
L5066 5889
" />
<path d="M3554 4377
L3290 4112
" />
<path d="M5066 5889
L3554 4377
" />
<path d="M6770 5833
L6575 6028
" />
<path d="M6575 6028
L4639 6028
" />
<path d="M4639 6028
L4314 5703
" />
<path d="M4314 5703
L4250 5703
" />
<path d="M4250 5703
L3986 5967
" />
<path d="M6009 6315
L4334 6315
" />
<path d="M6009 6315
L6566 6315
" />
<path d="M6566 6315
L6868 6014
" />
<path d="M9441 4042
L9362 4121
" />
<path d="M10681 4042
L9441 4042
" />
<path d="M13723 3560
L11163 3560
" />
<path d="M11163 3560
L10681 4042
" />
<path d="M13870 3412
L13723 3560
" />
<path d="M13870 3196
L13870 3412
" />
<path d="M5051 4987
L5406 4987
" />
<path d="M4687 4623
L5051 4987
" />
<path d="M4687 4603
L4687 4623
" />
<path d="M4933 4023
L4717 4023
" />
<path d="M4687 4052
L4687 4603
" />
<path d="M4717 4023
L4687 4052
" />
<path d="M14126 3196
L14126 3097
" />
<path d="M14126 3097
L14402 2822
" />
<path d="M14402 2822
L14539 2822
" />
<path d="M12315 3442
L12719 3038
" />
<path d="M12719 3038
L12748 3009
" />
<path d="M13457 2190
L13457 2300
" />
<path d="M13457 2300
L12719 3038
" />
<path d="M13870 2408
L13870 2192
" />
<path d="M13870 2192
L13841 2162
" />
<path d="M13841 2162
L13484 2162
" />
<path d="M13484 2162
L13457 2190
" />
<path d="M11115 3442
L12315 3442
" />
<path d="M10642 3914
L11115 3442
" />
<path d="M9195 3914
L10642 3914
" />
<path d="M9008 4101
L9195 3914
" />
<path d="M5504 4672
L5396 4564
" />
<path d="M5396 4564
L5217 4564
" />
<path d="M5217 4564
L5189 4536
" />
<path d="M5189 4259
L5150 4219
" />
<path d="M5189 4536
L5189 4259
" />
<path d="M5150 4219
L4933 4219
" />
<path d="M14539 2428
L14539 2369
" />
<path d="M13910 2802
L14165 2802
" />
<path d="M13614 2507
L13910 2802
" />
<path d="M14165 2802
L14539 2428
" />
<path d="M13614 2408
L13614 2507
" />
<path d="M18988 2625
L18890 2526
" />
<path d="M18988 2841
L18988 2625
" />
<path d="M18890 2526
L18358 2526
" />
<path d="M18358 2526
L18063 2822
" />
<path d="M18063 2822
L17906 2822
" />
<path d="M18969 6660
L9382 6660
" />
<path d="M9382 6660
L9106 6385
" />
<path d="M9106 6385
L9047 6385
" />
<path d="M8204 5601
L8811 6208
" />
<path d="M8069 5601
L8204 5601
" />
<path d="M7884 5415
L8069 5601
" />
<path d="M8811 6208
L8988 6385
" />
<path d="M8988 6385
L9047 6385
" />
<path d="M7118 5381
L7118 5694
" />
<path d="M7118 5694
L7257 5833
" />
<path d="M7257 5833
L7257 5902
" />
<path d="M8298 6167
L8298 6029
" />
<path d="M8298 6029
L8076 5807
" />
<path d="M8298 6167
L8516 6385
" />
<path d="M8516 6385
L8575 6385
" />
<path d="M8831 5676
L11843 5676
" />
<path d="M11843 5676
L12197 5322
" />
<path d="M8575 5479
L8634 5479
" />
<path d="M8634 5479
L8831 5676
" />
<path d="M8023 5276
L8226 5479
" />
<path d="M8226 5479
L8575 5479
" />
<path d="M9047 5243
L9047 5479
" />
<path d="M7745 5554
L7551 5361
" />
<path d="M7551 5361
L7551 5086
" />
</g>
<g style="fill:#000000; fill-opacity:0.0; 
stroke:#000000; stroke-width:78.7402; stroke-opacity:1; 
stroke-linecap:round; stroke-linejoin:round;">
<path d="M6979 3954
L6979 3490
" />
<path d="M6979 3490
L6921 3432
" />
<path d="M6843 3817
L6868 3842
" />
</g>
<g style="fill:#000000; fill-opacity:0.0; 
stroke:#000000; stroke-width:59.0551; stroke-opacity:1; 
stroke-linecap:round; stroke-linejoin:round;">
<path d="M6032 4678
L5879 4524
" />
<path d="M5879 4524
L5879 4437
" />
<path d="M5879 4437
L5661 4219
" />
<path d="M5661 4219
L5445 4219
" />
</g>
<g style="fill:#000000; fill-opacity:0.0; 
stroke:#000000; stroke-width:78.7402; stroke-opacity:1; 
stroke-linecap:round; stroke-linejoin:round;">
<path d="M6032 4678
L6032 4669
" />
</g>
<g style="fill:#000000; fill-opacity:0.0; 
stroke:#000000; stroke-width:59.0551; stroke-opacity:1; 
stroke-linecap:round; stroke-linejoin:round;">
<path d="M6213 4580
L6019 4385
" />
<path d="M6019 4385
L6019 4380
" />
<path d="M6019 4380
L5661 4023
" />
<path d="M5661 4023
L5445 4023
" />
<path d="M5445 4416
L5543 4416
" />
<path d="M5543 4416
L6032 4905
" />
<path d="M6032 4905
L6032 5056
" />
<path d="M6032 5056
L6032 5179
" />
<path d="M7374 2723
L7374 3837
" />
<path d="M7374 3837
L7369 3842
" />
<path d="M5425 2251
L5425 2586
" />
<path d="M5425 2586
L5563 2723
" />
<path d="M5583 2093
L5425 2251
" />
<path d="M17728 1651
L18378 2300
" />
<path d="M18378 2300
L18585 2300
" />
<path d="M18585 2300
L18732 2152
" />
<path d="M18732 2152
L18732 2054
" />
<path d="M14077 1651
L17728 1651
" />
<path d="M13850 1877
L14077 1651
" />
<path d="M8978 3796
L8811 3964
" />
<path d="M12394 3177
L12247 3324
" />
<path d="M10593 3796
L8978 3796
" />
<path d="M12394 2310
L12394 3177
" />
<path d="M12247 3324
L11066 3324
" />
<path d="M8811 3964
L8693 4082
" />
<path d="M11066 3324
L10593 3796
" />
<path d="M4933 4416
L4933 4534
" />
<path d="M4933 4534
L5169 4771
" />
<path d="M9559 3678
L8663 3678
" />
<path d="M10110 2920
L10110 3137
" />
<path d="M10110 3137
L9569 3678
" />
<path d="M9569 3678
L9559 3678
" />
<path d="M8093 5017
L8093 5067
" />
<path d="M8476 3865
L8476 4633
" />
<path d="M8663 3678
L8476 3865
" />
<path d="M8476 4633
L8093 5017
" />
<path d="M9362 3560
L8615 3560
" />
<path d="M9618 2920
L9618 3314
" />
<path d="M9618 3314
L9372 3560
" />
<path d="M9372 3560
L9362 3560
" />
<path d="M8357 3817
L8357 4524
" />
<path d="M8615 3560
L8357 3817
" />
<path d="M8357 4524
L8204 4678
" />
</g>
<g style="fill:#000000; fill-opacity:0.0; 
stroke:#000000; stroke-width:78.7402; stroke-opacity:1; 
stroke-linecap:round; stroke-linejoin:round;">
<path d="M7605 4163
L7605 4135
" />
</g>
<g style="fill:#FFFFFF; fill-opacity:0.0; 
stroke:#FFFFFF; stroke-width:78.7402; stroke-opacity:1; 
stroke-linecap:round; stroke-linejoin:round;">
</g>
<g style="fill:#FFFFFF; fill-opacity:1.0; 
stroke:#FFFFFF; stroke-width:0; stroke-opacity:1; 
stroke-linecap:round; stroke-linejoin:round;">
<circle cx="9126.56" cy="2389.2" r="78.7402" /> 
</g>
<g style="fill:#FFFFFF; fill-opacity:1.0; 
stroke:#FFFFFF; stroke-width:39.3701; stroke-opacity:1; 
stroke-linecap:round; stroke-linejoin:round;">
</g>
<g style="fill:#FFFFFF; fill-opacity:1.0; 
stroke:#FFFFFF; stroke-width:0; stroke-opacity:1; 
stroke-linecap:round; stroke-linejoin:round;">
<circle cx="6252.55" cy="1798.65" r="78.7402" /> 
</g>
<g style="fill:#FFFFFF; fill-opacity:1.0; 
stroke:#FFFFFF; stroke-width:39.3701; stroke-opacity:1; 
stroke-linecap:round; stroke-linejoin:round;">
</g>
<g style="fill:#FFFFFF; fill-opacity:1.0; 
stroke:#FFFFFF; stroke-width:0; stroke-opacity:1; 
stroke-linecap:round; stroke-linejoin:round;">
<circle cx="20701.4" cy="1975.82" r="78.7402" /> 
</g>
<g style="fill:#FFFFFF; fill-opacity:1.0; 
stroke:#FFFFFF; stroke-width:39.3701; stroke-opacity:1; 
stroke-linecap:round; stroke-linejoin:round;">
</g>
<g style="fill:#FFFFFF; fill-opacity:1.0; 
stroke:#FFFFFF; stroke-width:0; stroke-opacity:1; 
stroke-linecap:round; stroke-linejoin:round;">
<circle cx="11095.1" cy="2408.89" r="78.7402" /> 
</g>
<g style="fill:#FFFFFF; fill-opacity:1.0; 
stroke:#FFFFFF; stroke-width:39.3701; stroke-opacity:1; 
stroke-linecap:round; stroke-linejoin:round;">
</g>
<g style="fill:#FFFFFF; fill-opacity:1.0; 
stroke:#FFFFFF; stroke-width:0; stroke-opacity:1; 
stroke-linecap:round; stroke-linejoin:round;">
<circle cx="6095.07" cy="3432.51" r="78.7402" /> 
</g>
<g style="fill:#FFFFFF; fill-opacity:1.0; 
stroke:#FFFFFF; stroke-width:39.3701; stroke-opacity:1; 
stroke-linecap:round; stroke-linejoin:round;">
</g>
<g style="fill:#FFFFFF; fill-opacity:1.0; 
stroke:#FFFFFF; stroke-width:0; stroke-opacity:1; 
stroke-linecap:round; stroke-linejoin:round;">
<circle cx="9579.32" cy="7841.96" r="78.7402" /> 
</g>
<g style="fill:#FFFFFF; fill-opacity:1.0; 
stroke:#FFFFFF; stroke-width:39.3701; stroke-opacity:1; 
stroke-linecap:round; stroke-linejoin:round;">
</g>
<g style="fill:#FFFFFF; fill-opacity:1.0; 
stroke:#FFFFFF; stroke-width:0; stroke-opacity:1; 
stroke-linecap:round; stroke-linejoin:round;">
<circle cx="7492.7" cy="6562.43" r="78.7402" /> 
</g>
<g style="fill:#FFFFFF; fill-opacity:1.0; 
stroke:#FFFFFF; stroke-width:39.3701; stroke-opacity:1; 
stroke-linecap:round; stroke-linejoin:round;">
</g>
<g style="fill:#FFFFFF; fill-opacity:1.0; 
stroke:#FFFFFF; stroke-width:0; stroke-opacity:1; 
stroke-linecap:round; stroke-linejoin:round;">
<circle cx="19323.4" cy="2349.83" r="78.7402" /> 
</g>
<g style="fill:#FFFFFF; fill-opacity:1.0; 
stroke:#FFFFFF; stroke-width:39.3701; stroke-opacity:1; 
stroke-linecap:round; stroke-linejoin:round;">
</g>
<g style="fill:#FFFFFF; fill-opacity:1.0; 
stroke:#FFFFFF; stroke-width:0; stroke-opacity:1; 
stroke-linecap:round; stroke-linejoin:round;">
<circle cx="14205.3" cy="2074.24" r="78.7402" /> 
</g>
<g style="fill:#FFFFFF; fill-opacity:1.0; 
stroke:#FFFFFF; stroke-width:39.3701; stroke-opacity:1; 
stroke-linecap:round; stroke-linejoin:round;">
</g>
<g style="fill:#FFFFFF; fill-opacity:1.0; 
stroke:#FFFFFF; stroke-width:0; stroke-opacity:1; 
stroke-linecap:round; stroke-linejoin:round;">
<circle cx="13614.8" cy="2861.64" r="78.7402" /> 
</g>
<g style="fill:#FFFFFF; fill-opacity:1.0; 
stroke:#FFFFFF; stroke-width:39.3701; stroke-opacity:1; 
stroke-linecap:round; stroke-linejoin:round;">
</g>
<g style="fill:#FFFFFF; fill-opacity:1.0; 
stroke:#FFFFFF; stroke-width:0; stroke-opacity:1; 
stroke-linecap:round; stroke-linejoin:round;">
<circle cx="7079.32" cy="7999.44" r="78.7402" /> 
</g>
<g style="fill:#FFFFFF; fill-opacity:1.0; 
stroke:#FFFFFF; stroke-width:39.3701; stroke-opacity:1; 
stroke-linecap:round; stroke-linejoin:round;">
</g>
<g style="fill:#FFFFFF; fill-opacity:1.0; 
stroke:#FFFFFF; stroke-width:0; stroke-opacity:1; 
stroke-linecap:round; stroke-linejoin:round;">
<circle cx="5268.29" cy="7999.44" r="78.7402" /> 
</g>
<g style="fill:#FFFFFF; fill-opacity:1.0; 
stroke:#FFFFFF; stroke-width:39.3701; stroke-opacity:1; 
stroke-linecap:round; stroke-linejoin:round;">
</g>
<g style="fill:#FFFFFF; fill-opacity:1.0; 
stroke:#FFFFFF; stroke-width:0; stroke-opacity:1; 
stroke-linecap:round; stroke-linejoin:round;">
<circle cx="20465.1" cy="3589.99" r="78.7402" /> 
</g>
<g style="fill:#FFFFFF; fill-opacity:1.0; 
stroke:#FFFFFF; stroke-width:39.3701; stroke-opacity:1; 
stroke-linecap:round; stroke-linejoin:round;">
</g>
<g style="fill:#FFFFFF; fill-opacity:1.0; 
stroke:#FFFFFF; stroke-width:0; stroke-opacity:1; 
stroke-linecap:round; stroke-linejoin:round;">
<circle cx="3654.12" cy="4928.57" r="78.7402" /> 
</g>
<g style="fill:#FFFFFF; fill-opacity:1.0; 
stroke:#FFFFFF; stroke-width:39.3701; stroke-opacity:1; 
stroke-linecap:round; stroke-linejoin:round;">
</g>
<g style="fill:#FFFFFF; fill-opacity:1.0; 
stroke:#FFFFFF; stroke-width:0; stroke-opacity:1; 
stroke-linecap:round; stroke-linejoin:round;">
<circle cx="4717.11" cy="3078.18" r="78.7402" /> 
</g>
<g style="fill:#FFFFFF; fill-opacity:1.0; 
stroke:#FFFFFF; stroke-width:39.3701; stroke-opacity:1; 
stroke-linecap:round; stroke-linejoin:round;">
</g>
<g style="fill:#FFFFFF; fill-opacity:1.0; 
stroke:#FFFFFF; stroke-width:0; stroke-opacity:1; 
stroke-linecap:round; stroke-linejoin:round;">
<circle cx="8004.51" cy="6542.74" r="78.7402" /> 
</g>
<g style="fill:#FFFFFF; fill-opacity:1.0; 
stroke:#FFFFFF; stroke-width:39.3701; stroke-opacity:1; 
stroke-linecap:round; stroke-linejoin:round;">
</g>
<g style="fill:#FFFFFF; fill-opacity:1.0; 
stroke:#FFFFFF; stroke-width:0; stroke-opacity:1; 
stroke-linecap:round; stroke-linejoin:round;">
<circle cx="8043.88" cy="7330.15" r="78.7402" /> 
</g>
<g style="fill:#FFFFFF; fill-opacity:1.0; 
stroke:#FFFFFF; stroke-width:39.3701; stroke-opacity:1; 
stroke-linecap:round; stroke-linejoin:round;">
</g>
<g style="fill:#FFFFFF; fill-opacity:1.0; 
stroke:#FFFFFF; stroke-width:0; stroke-opacity:1; 
stroke-linecap:round; stroke-linejoin:round;">
<circle cx="6941.52" cy="6444.32" r="78.7402" /> 
</g>
<g style="fill:#FFFFFF; fill-opacity:1.0; 
stroke:#FFFFFF; stroke-width:39.3701; stroke-opacity:1; 
stroke-linecap:round; stroke-linejoin:round;">
</g>
<g style="fill:#FFFFFF; fill-opacity:1.0; 
stroke:#FFFFFF; stroke-width:0; stroke-opacity:1; 
stroke-linecap:round; stroke-linejoin:round;">
<circle cx="6547.82" cy="4889.2" r="78.7402" /> 
</g>
<g style="fill:#FFFFFF; fill-opacity:1.0; 
stroke:#FFFFFF; stroke-width:39.3701; stroke-opacity:1; 
stroke-linecap:round; stroke-linejoin:round;">
</g>
<g style="fill:#FFFFFF; fill-opacity:1.0; 
stroke:#FFFFFF; stroke-width:0; stroke-opacity:1; 
stroke-linecap:round; stroke-linejoin:round;">
<circle cx="10583.3" cy="2290.78" r="78.7402" /> 
</g>
<g style="fill:#FFFFFF; fill-opacity:1.0; 
stroke:#FFFFFF; stroke-width:39.3701; stroke-opacity:1; 
stroke-linecap:round; stroke-linejoin:round;">
</g>
<g style="fill:#FFFFFF; fill-opacity:1.0; 
stroke:#FFFFFF; stroke-width:0; stroke-opacity:1; 
stroke-linecap:round; stroke-linejoin:round;">
<circle cx="6095.07" cy="2999.44" r="78.7402" /> 
</g>
<g style="fill:#FFFFFF; fill-opacity:1.0; 
stroke:#FFFFFF; stroke-width:39.3701; stroke-opacity:1; 
stroke-linecap:round; stroke-linejoin:round;">
</g>
<g style="fill:#FFFFFF; fill-opacity:1.0; 
stroke:#FFFFFF; stroke-width:0; stroke-opacity:1; 
stroke-linecap:round; stroke-linejoin:round;">
<circle cx="11508.5" cy="1936.45" r="78.7402" /> 
</g>
<g style="fill:#FFFFFF; fill-opacity:1.0; 
stroke:#FFFFFF; stroke-width:39.3701; stroke-opacity:1; 
stroke-linecap:round; stroke-linejoin:round;">
</g>
<g style="fill:#FFFFFF; fill-opacity:1.0; 
stroke:#FFFFFF; stroke-width:0; stroke-opacity:1; 
stroke-linecap:round; stroke-linejoin:round;">
<circle cx="13516.3" cy="1719.91" r="78.7402" /> 
</g>
<g style="fill:#FFFFFF; fill-opacity:1.0; 
stroke:#FFFFFF; stroke-width:39.3701; stroke-opacity:1; 
stroke-linecap:round; stroke-linejoin:round;">
</g>
<g style="fill:#FFFFFF; fill-opacity:1.0; 
stroke:#FFFFFF; stroke-width:0; stroke-opacity:1; 
stroke-linecap:round; stroke-linejoin:round;">
<circle cx="11311.6" cy="1719.91" r="78.7402" /> 
</g>
<g style="fill:#FFFFFF; fill-opacity:1.0; 
stroke:#FFFFFF; stroke-width:39.3701; stroke-opacity:1; 
stroke-linecap:round; stroke-linejoin:round;">
</g>
<g style="fill:#FFFFFF; fill-opacity:1.0; 
stroke:#FFFFFF; stroke-width:0; stroke-opacity:1; 
stroke-linecap:round; stroke-linejoin:round;">
<circle cx="13211.2" cy="1719.91" r="78.7402" /> 
</g>
<g style="fill:#FFFFFF; fill-opacity:1.0; 
stroke:#FFFFFF; stroke-width:39.3701; stroke-opacity:1; 
stroke-linecap:round; stroke-linejoin:round;">
</g>
<g style="fill:#FFFFFF; fill-opacity:1.0; 
stroke:#FFFFFF; stroke-width:0; stroke-opacity:1; 
stroke-linecap:round; stroke-linejoin:round;">
<circle cx="9362.78" cy="4121.51" r="78.7402" /> 
</g>
<g style="fill:#FFFFFF; fill-opacity:1.0; 
stroke:#FFFFFF; stroke-width:39.3701; stroke-opacity:1; 
stroke-linecap:round; stroke-linejoin:round;">
</g>
<g style="fill:#FFFFFF; fill-opacity:1.0; 
stroke:#FFFFFF; stroke-width:0; stroke-opacity:1; 
stroke-linecap:round; stroke-linejoin:round;">
<circle cx="5406.09" cy="4987.63" r="78.7402" /> 
</g>
<g style="fill:#FFFFFF; fill-opacity:1.0; 
stroke:#FFFFFF; stroke-width:39.3701; stroke-opacity:1; 
stroke-linecap:round; stroke-linejoin:round;">
</g>
<g style="fill:#FFFFFF; fill-opacity:1.0; 
stroke:#FFFFFF; stroke-width:0; stroke-opacity:1; 
stroke-linecap:round; stroke-linejoin:round;">
<circle cx="9008.45" cy="4101.8" r="78.7402" /> 
</g>
<g style="fill:#FFFFFF; fill-opacity:1.0; 
stroke:#FFFFFF; stroke-width:39.3701; stroke-opacity:1; 
stroke-linecap:round; stroke-linejoin:round;">
</g>
<g style="fill:#FFFFFF; fill-opacity:1.0; 
stroke:#FFFFFF; stroke-width:0; stroke-opacity:1; 
stroke-linecap:round; stroke-linejoin:round;">
<circle cx="5504.51" cy="4672.67" r="78.7402" /> 
</g>
<g style="fill:#FFFFFF; fill-opacity:1.0; 
stroke:#FFFFFF; stroke-width:39.3701; stroke-opacity:1; 
stroke-linecap:round; stroke-linejoin:round;">
</g>
<g style="fill:#FFFFFF; fill-opacity:1.0; 
stroke:#FFFFFF; stroke-width:0; stroke-opacity:1; 
stroke-linecap:round; stroke-linejoin:round;">
<circle cx="18969.1" cy="6660.86" r="78.7402" /> 
</g>
<g style="fill:#FFFFFF; fill-opacity:1.0; 
stroke:#FFFFFF; stroke-width:39.3701; stroke-opacity:1; 
stroke-linecap:round; stroke-linejoin:round;">
</g>
<g style="fill:#FFFFFF; fill-opacity:1.0; 
stroke:#FFFFFF; stroke-width:0; stroke-opacity:1; 
stroke-linecap:round; stroke-linejoin:round;">
<circle cx="7118.69" cy="5381.33" r="78.7402" /> 
</g>
<g style="fill:#FFFFFF; fill-opacity:1.0; 
stroke:#FFFFFF; stroke-width:39.3701; stroke-opacity:1; 
stroke-linecap:round; stroke-linejoin:round;">
</g>
<g style="fill:#FFFFFF; fill-opacity:1.0; 
stroke:#FFFFFF; stroke-width:0; stroke-opacity:1; 
stroke-linecap:round; stroke-linejoin:round;">
<circle cx="8076.74" cy="5807.88" r="78.7402" /> 
</g>
<g style="fill:#FFFFFF; fill-opacity:1.0; 
stroke:#FFFFFF; stroke-width:39.3701; stroke-opacity:1; 
stroke-linecap:round; stroke-linejoin:round;">
</g>
<g style="fill:#FFFFFF; fill-opacity:1.0; 
stroke:#FFFFFF; stroke-width:0; stroke-opacity:1; 
stroke-linecap:round; stroke-linejoin:round;">
<circle cx="12197.4" cy="5322.27" r="78.7402" /> 
</g>
<g style="fill:#FFFFFF; fill-opacity:1.0; 
stroke:#FFFFFF; stroke-width:39.3701; stroke-opacity:1; 
stroke-linecap:round; stroke-linejoin:round;">
</g>
<g style="fill:#FFFFFF; fill-opacity:1.0; 
stroke:#FFFFFF; stroke-width:0; stroke-opacity:1; 
stroke-linecap:round; stroke-linejoin:round;">
<circle cx="9047.82" cy="5243.53" r="78.7402" /> 
</g>
<g style="fill:#FFFFFF; fill-opacity:1.0; 
stroke:#FFFFFF; stroke-width:39.3701; stroke-opacity:1; 
stroke-linecap:round; stroke-linejoin:round;">
</g>
<g style="fill:#FFFFFF; fill-opacity:1.0; 
stroke:#FFFFFF; stroke-width:0; stroke-opacity:1; 
stroke-linecap:round; stroke-linejoin:round;">
<circle cx="7551.76" cy="5086.05" r="78.7402" /> 
</g>
<g style="fill:#FFFFFF; fill-opacity:1.0; 
stroke:#FFFFFF; stroke-width:39.3701; stroke-opacity:1; 
stroke-linecap:round; stroke-linejoin:round;">
</g>
<g style="fill:#FFFFFF; fill-opacity:1.0; 
stroke:#FFFFFF; stroke-width:0; stroke-opacity:1; 
stroke-linecap:round; stroke-linejoin:round;">
<circle cx="7374.59" cy="2723.85" r="78.7402" /> 
</g>
<g style="fill:#FFFFFF; fill-opacity:1.0; 
stroke:#FFFFFF; stroke-width:39.3701; stroke-opacity:1; 
stroke-linecap:round; stroke-linejoin:round;">
</g>
<g style="fill:#FFFFFF; fill-opacity:1.0; 
stroke:#FFFFFF; stroke-width:0; stroke-opacity:1; 
stroke-linecap:round; stroke-linejoin:round;">
<circle cx="5563.57" cy="2723.85" r="78.7402" /> 
</g>
<g style="fill:#FFFFFF; fill-opacity:1.0; 
stroke:#FFFFFF; stroke-width:39.3701; stroke-opacity:1; 
stroke-linecap:round; stroke-linejoin:round;">
</g>
<g style="fill:#FFFFFF; fill-opacity:1.0; 
stroke:#FFFFFF; stroke-width:0; stroke-opacity:1; 
stroke-linecap:round; stroke-linejoin:round;">
<circle cx="13851" cy="1877.39" r="78.7402" /> 
</g>
<g style="fill:#FFFFFF; fill-opacity:1.0; 
stroke:#FFFFFF; stroke-width:39.3701; stroke-opacity:1; 
stroke-linecap:round; stroke-linejoin:round;">
</g>
<g style="fill:#FFFFFF; fill-opacity:1.0; 
stroke:#FFFFFF; stroke-width:0; stroke-opacity:1; 
stroke-linecap:round; stroke-linejoin:round;">
<circle cx="5169.87" cy="4771.09" r="78.7402" /> 
</g>
<g style="fill:#FFFFFF; fill-opacity:1.0; 
stroke:#FFFFFF; stroke-width:39.3701; stroke-opacity:1; 
stroke-linecap:round; stroke-linejoin:round;">
</g>
<g style="fill:#FFFFFF; fill-opacity:1.0; 
stroke:#FFFFFF; stroke-width:0; stroke-opacity:1; 
stroke-linecap:round; stroke-linejoin:round;">
<circle cx="8693.49" cy="4082.11" r="78.7402" /> 
</g>
<g style="fill:#FFFFFF; fill-opacity:1.0; 
stroke:#FFFFFF; stroke-width:39.3701; stroke-opacity:1; 
stroke-linecap:round; stroke-linejoin:round;">
</g>
<g style="fill:#FFFFFF; fill-opacity:1.0; 
stroke:#FFFFFF; stroke-width:0; stroke-opacity:1; 
stroke-linecap:round; stroke-linejoin:round;">
<circle cx="12394.3" cy="2310.46" r="78.7402" /> 
</g>
<g style="fill:#FFFFFF; fill-opacity:1.0; 
stroke:#FFFFFF; stroke-width:39.3701; stroke-opacity:1; 
stroke-linecap:round; stroke-linejoin:round;">
</g>
<g style="fill:#FFFFFF; fill-opacity:1.0; 
stroke:#FFFFFF; stroke-width:0; stroke-opacity:1; 
stroke-linecap:round; stroke-linejoin:round;">
<circle cx="16173.8" cy="2822.27" r="590.551" /> 
</g>
<g style="fill:#FFFFFF; fill-opacity:1.0; 
stroke:#FFFFFF; stroke-width:39.3701; stroke-opacity:1; 
stroke-linecap:round; stroke-linejoin:round;">
</g>
<g style="fill:#000000; fill-opacity:1.0; 
stroke:#000000; stroke-width:39.3701; stroke-opacity:1; 
stroke-linecap:round; stroke-linejoin:round;">
</g>
<g style="fill:#000000; fill-opacity:0.0; 
stroke:#000000; stroke-width:39.3701; stroke-opacity:1; 
stroke-linecap:round; stroke-linejoin:round;">
<path d="M21127 7612
L20976 7746
" />
<path d="M21266 7466
L21127 7612
" />
<path d="M21393 7311
L21266 7466
" />
<path d="M21505 7148
L21393 7311
" />
<path d="M20473 8066
L20295 8140
" />
<path d="M20647 7975
L20473 8066
" />
<path d="M20815 7868
L20647 7975
" />
<path d="M20976 7746
L20815 7868
" />
<path d="M1351 5893
L1351 3483
" />
<path d="M3698 8240
L1351 5893
" />
<path d="M21784 1136
L21784 6267
" />
<path d="M21735 6626
L21678 6804
" />
<path d="M21771 6446
L21735 6626
" />
<path d="M3698 1136
L21784 1136
" />
<path d="M19753 8240
L3698 8240
" />
<path d="M19933 8228
L19753 8240
" />
<path d="M20114 8194
L19933 8228
" />
<path d="M20295 8140
L20114 8194
" />
<path d="M1351 3483
L3698 1136
" />
<path d="M21601 6978
L21505 7148
" />
<path d="M21678 6804
L21601 6978
" />
<path d="M21784 6267
L21771 6446
" />
</g> 
</svg>
